<svg width="40" height="36" viewBox="0 0 40 36" fill="none" xmlns="http://www.w3.org/2000/svg">
<g clip-path="url(#clip0_242_18718)">
<path d="M36.25 0H3.75C2.75544 0 1.80161 0.395088 1.09835 1.09835C0.395088 1.80161 0 2.75544 0 3.75L0 13.75C0 14.7446 0.395088 15.6984 1.09835 16.4017C1.80161 17.1049 2.75544 17.5 3.75 17.5H36.25C37.2446 17.5 38.1984 17.1049 38.9016 16.4017C39.6049 15.6984 40 14.7446 40 13.75V3.75C40 2.75544 39.6049 1.80161 38.9016 1.09835C38.1984 0.395088 37.2446 0 36.25 0ZM37.5 13.75C37.5 14.0815 37.3683 14.3995 37.1339 14.6339C36.8995 14.8683 36.5815 15 36.25 15H3.75C3.41848 15 3.10054 14.8683 2.86612 14.6339C2.6317 14.3995 2.5 14.0815 2.5 13.75V3.75C2.5 3.41848 2.6317 3.10054 2.86612 2.86612C3.10054 2.6317 3.41848 2.5 3.75 2.5H36.25C36.5815 2.5 36.8995 2.6317 37.1339 2.86612C37.3683 3.10054 37.5 3.41848 37.5 3.75V13.75ZM27.5 11.25C27.5 11.5815 27.3683 11.8995 27.1339 12.1339C26.8995 12.3683 26.5815 12.5 26.25 12.5H8.75C8.41848 12.5 8.10054 12.3683 7.86612 12.1339C7.6317 11.8995 7.5 11.5815 7.5 11.25C7.5 10.9185 7.6317 10.6005 7.86612 10.3661C8.10054 10.1317 8.41848 10 8.75 10H26.25C26.5815 10 26.8995 10.1317 27.1339 10.3661C27.3683 10.6005 27.5 10.9185 27.5 11.25ZM32.5 11.25C32.5 11.4972 32.4267 11.7389 32.2893 11.9445C32.152 12.15 31.9568 12.3102 31.7284 12.4049C31.4999 12.4995 31.2486 12.5242 31.0061 12.476C30.7637 12.4278 30.5409 12.3087 30.3661 12.1339C30.1913 11.9591 30.0723 11.7363 30.024 11.4939C29.9758 11.2514 30.0005 11.0001 30.0951 10.7716C30.1898 10.5432 30.35 10.348 30.5555 10.2107C30.7611 10.0733 31.0028 10 31.25 10C31.5815 10 31.8995 10.1317 32.1339 10.3661C32.3683 10.6005 32.5 10.9185 32.5 11.25ZM22.5 20C21.5111 20 20.5444 20.2932 19.7221 20.8427C18.8999 21.3921 18.259 22.173 17.8806 23.0866C17.5022 24.0002 17.4031 25.0055 17.5961 25.9755C17.789 26.9454 18.2652 27.8363 18.9645 28.5355C19.6637 29.2348 20.5546 29.711 21.5245 29.9039C22.4945 30.0969 23.4998 29.9978 24.4134 29.6194C25.327 29.241 26.1079 28.6001 26.6573 27.7779C27.2068 26.9556 27.5 25.9889 27.5 25C27.5 23.6739 26.9732 22.4021 26.0355 21.4645C25.0979 20.5268 23.8261 20 22.5 20ZM22.5 27.5C22.0055 27.5 21.5222 27.3534 21.1111 27.0787C20.7 26.804 20.3795 26.4135 20.1903 25.9567C20.0011 25.4999 19.9516 24.9972 20.048 24.5123C20.1445 24.0273 20.3826 23.5819 20.7322 23.2322C21.0819 22.8826 21.5273 22.6445 22.0123 22.548C22.4972 22.4516 22.9999 22.5011 23.4567 22.6903C23.9135 22.8795 24.304 23.2 24.5787 23.6111C24.8534 24.0222 25 24.5055 25 25C25 25.663 24.7366 26.2989 24.2678 26.7678C23.7989 27.2366 23.163 27.5 22.5 27.5ZM14.3 30L11.55 31.375L14.3 32.75C14.5016 32.8956 14.6552 33.0981 14.7411 33.3315C14.827 33.5648 14.8414 33.8185 14.7823 34.0601C14.7233 34.3017 14.5935 34.5202 14.4096 34.6876C14.2257 34.855 13.996 34.9638 13.75 35C13.5686 35.0377 13.3814 35.0377 13.2 35L10 33.275V36.25C10 36.5815 9.8683 36.8995 9.63388 37.1339C9.39946 37.3683 9.08152 37.5 8.75 37.5C8.41848 37.5 8.10054 37.3683 7.86612 37.1339C7.6317 36.8995 7.5 36.5815 7.5 36.25V33.275L4.3 35C4.11861 35.0377 3.93139 35.0377 3.75 35C3.46662 35.0012 3.19125 34.906 2.96905 34.7301C2.74685 34.5543 2.591 34.3081 2.52707 34.032C2.46313 33.7559 2.49491 33.4663 2.61718 33.2107C2.73944 32.955 2.94495 32.7485 3.2 32.625L5.95 31.25L3.2 30C3.05226 29.9278 2.9202 29.8272 2.81135 29.7039C2.7025 29.5806 2.61899 29.4371 2.5656 29.2816C2.5122 29.126 2.48997 28.9615 2.50016 28.7974C2.51035 28.6333 2.55277 28.4727 2.625 28.325C2.69723 28.1773 2.79785 28.0452 2.92111 27.9363C3.04438 27.8275 3.18788 27.744 3.34341 27.6906C3.49895 27.6372 3.66348 27.615 3.82761 27.6252C3.99175 27.6354 4.15226 27.6778 4.3 27.75L7.5 29.225V26.25C7.5 25.9185 7.6317 25.6005 7.86612 25.3661C8.10054 25.1317 8.41848 25 8.75 25C9.08152 25 9.39946 25.1317 9.63388 25.3661C9.8683 25.6005 10 25.9185 10 26.25V29.225L13.2 27.625C13.3477 27.5528 13.5083 27.5104 13.6724 27.5002C13.8365 27.49 14.001 27.5122 14.1566 27.5656C14.3121 27.619 14.4556 27.7025 14.5789 27.8113C14.7022 27.9202 14.8028 28.0523 14.875 28.2C14.9472 28.3477 14.9896 28.5083 14.9998 28.6724C15.01 28.8365 14.9878 29.001 14.9344 29.1566C14.881 29.3121 14.7975 29.4556 14.6887 29.5789C14.5798 29.7022 14.4477 29.8028 14.3 29.875V30ZM39.5 30L35.825 32.5L39.5 35.25C39.6313 35.3485 39.742 35.4719 39.8256 35.6131C39.9092 35.7544 39.9642 35.9107 39.9874 36.0732C40.0107 36.2357 40.0016 36.4012 39.9609 36.5602C39.9202 36.7192 39.8485 36.8687 39.75 37C39.6323 37.1538 39.481 37.2788 39.3077 37.3655C39.1345 37.4521 38.9437 37.4981 38.75 37.5C38.4792 37.5018 38.2155 37.4139 38 37.25L35 35V38.75C35 39.0815 34.8683 39.3995 34.6339 39.6339C34.3995 39.8683 34.0815 40 33.75 40C33.4185 40 33.1005 39.8683 32.8661 39.6339C32.6317 39.3995 32.5 39.0815 32.5 38.75V35L29.5 37.25C29.2845 37.4139 29.0208 37.5018 28.75 37.5C28.5563 37.4981 28.3655 37.4521 28.1923 37.3655C28.019 37.2788 27.8677 37.1538 27.75 37C27.6515 36.8687 27.5798 36.7192 27.5391 36.5602C27.4984 36.4012 27.4893 36.2357 27.5126 36.0732C27.5358 35.9107 27.5908 35.7544 27.6744 35.6131C27.758 35.4719 27.8687 35.3485 28 35.25L31.675 32.5L28 29.75C27.8687 29.6515 27.758 29.5281 27.6744 29.3869C27.5908 29.2456 27.5358 29.0893 27.5126 28.9268C27.4893 28.7643 27.4984 28.5988 27.5391 28.4398C27.5798 28.2808 27.6515 28.1313 27.75 28C27.8485 27.8687 27.9719 27.758 28.1131 27.6744C28.2544 27.5908 28.4107 27.5358 28.5732 27.5126C28.7357 27.4893 28.9012 27.4984 29.0602 27.5391C29.2192 27.5798 29.3687 27.6515 29.5 27.75L32.5 30V26.25C32.5 25.9185 32.6317 25.6005 32.8661 25.3661C33.1005 25.1317 33.4185 25 33.75 25C34.0815 25 34.3995 25.1317 34.6339 25.3661C34.8683 25.6005 35 25.9185 35 26.25V30L38 27.75C38.1313 27.6515 38.2808 27.5798 38.4398 27.5391C38.5988 27.4984 38.7643 27.4893 38.9268 27.5126C39.0893 27.5358 39.2456 27.5908 39.3869 27.6744C39.5281 27.758 39.6515 27.8687 39.75 28C39.8485 28.1313 39.9202 28.2808 39.9609 28.4398C40.0016 28.5988 40.0107 28.7643 39.9874 28.9268C39.9642 29.0893 39.9092 29.2456 39.8256 29.3869C39.742 29.5281 39.6313 29.6515 39.5 29.75V30Z" fill="#EBEBEB"/>
</g>
<g clip-path="url(#clip1_242_18718)">
<path d="M32.9062 3.61914H6.09375C5.27324 3.61914 4.48633 3.93897 3.90614 4.50828C3.32595 5.07759 3 5.84973 3 6.65485L3 14.7501C3 15.5552 3.32595 16.3274 3.90614 16.8967C4.48633 17.466 5.27324 17.7858 6.09375 17.7858H32.9062C33.7268 17.7858 34.5137 17.466 35.0939 16.8967C35.6741 16.3274 36 15.5552 36 14.7501V6.65485C36 5.84973 35.6741 5.07759 35.0939 4.50828C34.5137 3.93897 33.7268 3.61914 32.9062 3.61914ZM33.9375 14.7501C33.9375 15.0185 33.8289 15.2758 33.6355 15.4656C33.4421 15.6554 33.1798 15.762 32.9062 15.762H6.09375C5.82025 15.762 5.55794 15.6554 5.36455 15.4656C5.17115 15.2758 5.0625 15.0185 5.0625 14.7501V6.65485C5.0625 6.38648 5.17115 6.1291 5.36455 5.93933C5.55794 5.74956 5.82025 5.64295 6.09375 5.64295H32.9062C33.1798 5.64295 33.4421 5.74956 33.6355 5.93933C33.8289 6.1291 33.9375 6.38648 33.9375 6.65485V14.7501ZM25.6875 12.7263C25.6875 12.9947 25.5789 13.252 25.3855 13.4418C25.1921 13.6316 24.9298 13.7382 24.6562 13.7382H10.2188C9.94525 13.7382 9.68294 13.6316 9.48955 13.4418C9.29615 13.252 9.1875 12.9947 9.1875 12.7263C9.1875 12.4579 9.29615 12.2005 9.48955 12.0108C9.68294 11.821 9.94525 11.7144 10.2188 11.7144H24.6562C24.9298 11.7144 25.1921 11.821 25.3855 12.0108C25.5789 12.2005 25.6875 12.4579 25.6875 12.7263ZM29.8125 12.7263C29.8125 12.9264 29.752 13.1221 29.6387 13.2885C29.5254 13.4549 29.3643 13.5846 29.1759 13.6612C28.9875 13.7378 28.7801 13.7578 28.5801 13.7187C28.38 13.6797 28.1963 13.5833 28.052 13.4418C27.9078 13.3003 27.8096 13.12 27.7698 12.9237C27.73 12.7274 27.7504 12.5239 27.8285 12.339C27.9066 12.1541 28.0387 11.9961 28.2083 11.8849C28.3779 11.7737 28.5773 11.7144 28.7812 11.7144C29.0548 11.7144 29.3171 11.821 29.5105 12.0108C29.7039 12.2005 29.8125 12.4579 29.8125 12.7263ZM21.5625 19.8096C20.7467 19.8096 19.9491 20.047 19.2708 20.4918C18.5924 20.9365 18.0637 21.5687 17.7515 22.3083C17.4393 23.0479 17.3576 23.8617 17.5168 24.6469C17.6759 25.432 18.0688 26.1533 18.6457 26.7193C19.2226 27.2854 19.9576 27.6709 20.7578 27.8271C21.5579 27.9833 22.3873 27.9031 23.1411 27.5967C23.8948 27.2904 24.5391 26.7716 24.9923 26.106C25.4456 25.4403 25.6875 24.6578 25.6875 23.8572C25.6875 22.7837 25.2529 21.7542 24.4793 20.9951C23.7057 20.2361 22.6565 19.8096 21.5625 19.8096ZM21.5625 25.881C21.1546 25.881 20.7558 25.7624 20.4166 25.54C20.0775 25.3176 19.8131 25.0015 19.657 24.6317C19.5009 24.2619 19.46 23.855 19.5396 23.4624C19.6192 23.0698 19.8156 22.7092 20.1041 22.4262C20.3925 22.1432 20.76 21.9504 21.1601 21.8723C21.5602 21.7942 21.9749 21.8343 22.3518 21.9875C22.7287 22.1407 23.0508 22.4001 23.2774 22.7329C23.504 23.0657 23.625 23.457 23.625 23.8572C23.625 24.394 23.4077 24.9087 23.0209 25.2883C22.6341 25.6678 22.1095 25.881 21.5625 25.881ZM14.7975 27.9049L12.5287 29.018L14.7975 30.131C14.9638 30.2489 15.0905 30.4128 15.1614 30.6017C15.2323 30.7907 15.2441 30.9961 15.1954 31.1916C15.1467 31.3872 15.0396 31.5641 14.8879 31.6996C14.7362 31.8351 14.5467 31.9232 14.3438 31.9525C14.1941 31.983 14.0396 31.983 13.89 31.9525L11.25 30.556V32.9644C11.25 33.2328 11.1414 33.4901 10.948 33.6799C10.7546 33.8697 10.4923 33.9763 10.2188 33.9763C9.94525 33.9763 9.68294 33.8697 9.48955 33.6799C9.29615 33.4901 9.1875 33.2328 9.1875 32.9644V30.556L6.5475 31.9525C6.39785 31.983 6.2434 31.983 6.09375 31.9525C5.85996 31.9534 5.63278 31.8764 5.44946 31.734C5.26615 31.5916 5.13758 31.3924 5.08483 31.1689C5.03209 30.9454 5.0583 30.7109 5.15917 30.504C5.26004 30.297 5.42959 30.1298 5.64 30.0299L7.90875 28.9168L5.64 27.9049C5.51812 27.8464 5.40916 27.7649 5.31936 27.6651C5.22956 27.5654 5.16067 27.4492 5.11662 27.3233C5.07257 27.1974 5.05422 27.0642 5.06263 26.9313C5.07104 26.7984 5.10604 26.6685 5.16562 26.5489C5.22521 26.4293 5.30822 26.3224 5.40992 26.2343C5.51161 26.1462 5.63 26.0786 5.75832 26.0353C5.88664 25.9921 6.02237 25.9741 6.15778 25.9824C6.29319 25.9906 6.42562 26.025 6.5475 26.0834L9.1875 27.2775V24.8691C9.1875 24.6008 9.29615 24.3434 9.48955 24.1536C9.68294 23.9638 9.94525 23.8572 10.2188 23.8572C10.4923 23.8572 10.7546 23.9638 10.948 24.1536C11.1414 24.3434 11.25 24.6008 11.25 24.8691V27.2775L13.89 25.9822C14.0119 25.9238 14.1443 25.8894 14.2797 25.8812C14.4151 25.8729 14.5509 25.8909 14.6792 25.9341C14.8075 25.9774 14.9259 26.045 15.0276 26.1331C15.1293 26.2212 15.2123 26.3281 15.2719 26.4477C15.3315 26.5673 15.3665 26.6973 15.3749 26.8301C15.3833 26.963 15.3649 27.0962 15.3209 27.2221C15.2768 27.348 15.2079 27.4642 15.1181 27.564C15.0283 27.6637 14.9194 27.7452 14.7975 27.8037V27.9049ZM35.5875 27.9049L32.5556 29.9287L35.5875 32.1549C35.6958 32.2346 35.7871 32.3345 35.8561 32.4488C35.9251 32.5632 35.9705 32.6897 35.9896 32.8213C36.0088 32.9528 36.0013 33.0868 35.9677 33.2155C35.9341 33.3442 35.875 33.4652 35.7938 33.5715C35.6966 33.6961 35.5718 33.7972 35.4289 33.8674C35.2859 33.9375 35.1286 33.9747 34.9688 33.9763C34.7454 33.9778 34.5278 33.9066 34.35 33.7739L31.875 31.9525V34.9882C31.875 35.2566 31.7664 35.5139 31.573 35.7037C31.3796 35.8935 31.1173 36.0001 30.8438 36.0001C30.5702 36.0001 30.3079 35.8935 30.1145 35.7037C29.9211 35.5139 29.8125 35.2566 29.8125 34.9882V31.9525L27.3375 33.7739C27.1597 33.9066 26.9421 33.9778 26.7188 33.9763C26.5589 33.9747 26.4016 33.9375 26.2586 33.8674C26.1157 33.7972 25.9909 33.6961 25.8938 33.5715C25.8125 33.4652 25.7534 33.3442 25.7198 33.2155C25.6862 33.0868 25.6787 32.9528 25.6979 32.8213C25.717 32.6897 25.7624 32.5632 25.8314 32.4488C25.9004 32.3345 25.9917 32.2346 26.1 32.1549L29.1319 29.9287L26.1 27.7025C25.9917 27.6227 25.9004 27.5229 25.8314 27.4085C25.7624 27.2942 25.717 27.1676 25.6979 27.0361C25.6787 26.9045 25.6862 26.7705 25.7198 26.6418C25.7534 26.5131 25.8125 26.3921 25.8938 26.2858C25.975 26.1795 26.0768 26.0899 26.1933 26.0222C26.3099 25.9545 26.4388 25.91 26.5729 25.8912C26.707 25.8724 26.8435 25.8797 26.9747 25.9127C27.1059 25.9457 27.2292 26.0037 27.3375 26.0834L29.8125 27.9049V24.8691C29.8125 24.6008 29.9211 24.3434 30.1145 24.1536C30.3079 23.9638 30.5702 23.8572 30.8438 23.8572C31.1173 23.8572 31.3796 23.9638 31.573 24.1536C31.7664 24.3434 31.875 24.6008 31.875 24.8691V27.9049L34.35 26.0834C34.4583 26.0037 34.5816 25.9457 34.7128 25.9127C34.844 25.8797 34.9805 25.8724 35.1146 25.8912C35.2487 25.91 35.3776 25.9545 35.4942 26.0222C35.6107 26.0899 35.7125 26.1795 35.7938 26.2858C35.875 26.3921 35.9341 26.5131 35.9677 26.6418C36.0013 26.7705 36.0088 26.9045 35.9896 27.0361C35.9705 27.1676 35.9251 27.2942 35.8561 27.4085C35.7871 27.5229 35.6958 27.6227 35.5875 27.7025V27.9049Z" fill="#A2ECDF"/>
</g>
<defs>
<clipPath id="clip0_242_18718">
<rect width="40" height="19" fill="white"/>
</clipPath>
<clipPath id="clip1_242_18718">
<rect width="33" height="17" fill="white" transform="translate(3 19)"/>
</clipPath>
</defs>
</svg>
