<svg width="24" height="19" viewBox="0 0 24 19" fill="none" xmlns="http://www.w3.org/2000/svg">
<path d="M0.0136719 0H24.0137V18.1132H0.0136719V0Z" fill="#165D31"/>
<path fill-rule="evenodd" clip-rule="evenodd" d="M5.31568 5.13325C5.28755 5.55778 5.24536 6.30071 5.6075 6.37854C6.03996 6.42099 5.80088 5.64269 5.9591 5.50118C5.98723 5.43042 6.03996 5.43042 6.04348 5.51887V6.18042C6.04348 6.39269 6.18412 6.45637 6.2896 6.49882C6.40211 6.49174 6.47946 6.49882 6.52165 6.60495L6.57791 7.74764C6.57791 7.74764 6.83809 7.82547 6.85215 7.10731C6.8627 6.68278 6.76777 6.33255 6.82403 6.25118C6.82403 6.16981 6.9295 6.16627 6.99982 6.20519C7.11234 6.28302 7.16156 6.38207 7.33736 6.3467C7.60457 6.26887 7.76631 6.13797 7.76982 5.93278C7.76454 5.73114 7.72285 5.53214 7.64676 5.34552C7.66083 5.31014 7.59754 5.21462 7.6116 5.17924C7.65731 5.25707 7.73115 5.25 7.74521 5.17924C7.6995 5.03066 7.62918 4.88561 7.51667 4.82547C7.42174 4.74057 7.2811 4.75472 7.23539 4.9316C7.20727 5.13325 7.30571 5.37028 7.44987 5.5684C7.48151 5.64269 7.5237 5.77005 7.50612 5.88325C7.42877 5.92924 7.35142 5.90802 7.28462 5.8408C7.28462 5.8408 7.07366 5.6816 7.07366 5.64269C7.12991 5.28184 7.08421 5.23939 7.05256 5.13679C7.03147 4.99882 6.96466 4.95283 6.91192 4.86085C6.85919 4.80424 6.78887 4.80424 6.75371 4.86085C6.65878 5.02358 6.70448 5.37382 6.77129 5.53302C6.82051 5.67807 6.89435 5.77005 6.85919 5.77005C6.83106 5.85141 6.77129 5.83019 6.72558 5.73467C6.67412 5.53365 6.6493 5.32667 6.65174 5.1191C6.63416 4.95637 6.61307 4.60967 6.50407 4.51769C6.44079 4.43278 6.34585 4.47524 6.31069 4.55307C6.30141 4.71111 6.30494 4.86965 6.32124 5.02712C6.39156 5.28891 6.41617 5.52241 6.45133 5.78774C6.46188 6.14505 6.24741 5.9434 6.25795 5.76297C6.30408 5.53615 6.30048 5.30193 6.24741 5.07665C6.21225 4.98467 6.17357 4.96344 6.08567 4.97759C6.01887 4.97759 5.84659 5.16509 5.79736 5.48349C5.79736 5.48349 5.75517 5.64623 5.73759 5.79127C5.71298 5.95401 5.6075 6.07429 5.53015 5.77005C5.46686 5.54717 5.42467 5.0059 5.31919 5.13325H5.31568Z" fill="white"/>
<path fill-rule="evenodd" clip-rule="evenodd" d="M6.49327 6.87028L5.36816 7.41509C5.37871 7.15684 5.89908 6.6934 6.2577 6.68986C6.48624 6.6934 6.42999 6.7783 6.48976 6.87028H6.49327Z" fill="white"/>
<path fill-rule="evenodd" clip-rule="evenodd" d="M6.29374 7.22406C5.70306 8.76297 7.68255 8.97877 7.90405 7.28774C7.92515 7.21698 8.00953 7.14976 8.0236 7.26297C7.97789 8.79481 6.49063 8.89741 6.23748 8.41627C6.17793 8.25072 6.14817 8.07582 6.14959 7.89976C6.11443 7.59906 5.95621 7.7158 5.9316 8.01297C5.90698 8.17925 5.91402 8.22524 5.91402 8.38443C5.99137 9.59434 7.90757 9.07429 8.22049 8.07665C8.38574 7.52476 8.19236 7.11792 8.28026 7.11792C8.47013 7.32311 8.73734 7.14623 8.79711 7.07547C8.82172 7.04009 8.88501 7.01533 8.9272 7.06132C9.07487 7.16745 9.33505 7.11792 9.39131 6.93042C9.42295 6.74292 9.44756 6.55189 9.4546 6.35731C9.33154 6.39269 9.24364 6.41745 9.23309 6.47052L9.20848 6.63325C9.19793 6.68632 9.09597 6.68632 9.08894 6.6191C9.04323 6.40684 8.85337 6.38208 8.73734 6.70755C8.6635 6.77123 8.52286 6.78538 8.5088 6.68986C8.52638 6.47052 8.43848 6.44222 8.26268 6.54481L8.09392 5.26415C8.16424 5.26415 8.23455 5.31722 8.30136 5.23231C8.23104 5.00236 8.07282 4.53538 7.98492 4.5C7.94625 4.45047 7.91109 4.48231 7.85483 4.49646C7.76342 4.52476 7.67903 4.60259 7.70716 4.75826C7.81264 5.42335 7.88296 5.92925 7.99195 6.59788C8.00953 6.67217 7.94625 6.77476 7.86186 6.76415C7.72122 6.66863 7.68606 6.47406 7.43995 6.48113C7.26415 6.48113 7.06725 6.67571 7.04264 6.85967C7.011 7.00825 7.00045 7.16745 7.04264 7.29481C7.1657 7.4434 7.31337 7.42925 7.44346 7.39741C7.54894 7.35142 7.63684 7.24528 7.67552 7.27005C7.70013 7.30189 7.67903 7.65566 7.17273 7.92453C6.86684 8.06604 6.62073 8.09434 6.49063 7.84316C6.40977 7.68396 6.49767 7.08608 6.29374 7.22406Z" fill="white"/>
<path fill-rule="evenodd" clip-rule="evenodd" d="M8.814 5.66038C8.93003 5.61792 9.49258 4.96698 9.49258 4.96698L9.4082 4.89622C9.37656 4.87146 9.38007 4.84316 9.4082 4.81839C9.54884 4.73349 9.50313 4.5566 9.43281 4.4717C9.38507 4.44828 9.33256 4.43641 9.27945 4.43702C9.22635 4.43764 9.17412 4.45072 9.12692 4.47523C9.02848 4.57075 9.00738 4.72288 9.08473 4.81486C9.15857 4.85023 9.2324 4.92806 9.18318 4.97052C8.95113 5.21816 8.32177 5.64622 8.3956 5.66038C8.40967 5.6816 8.79994 5.6816 8.81049 5.66038H8.814ZM5.40351 7.9599C5.19256 8.29953 5.17498 8.80542 5.291 8.95755C5.35429 9.0283 5.45625 9.06014 5.53009 9.03538C5.6637 8.97877 5.72347 8.70637 5.69182 8.61085C5.64612 8.54009 5.61096 8.52948 5.56525 8.58608C5.47383 8.77712 5.43516 8.64622 5.42461 8.54009C5.41453 8.36035 5.42396 8.18004 5.45274 8.00236C5.47735 7.85377 5.45274 7.89622 5.40351 7.9599ZM14.4431 7.41863C14.2391 6.97288 13.9543 6.5342 13.8664 6.36792C13.5925 5.93209 13.3016 5.50723 12.9945 5.09434C12.7765 4.83255 13.3531 5.20401 12.9242 4.68042L12.6112 4.41509C12.5409 4.36556 12.3722 4.27358 12.344 4.42217C12.33 4.5566 12.337 4.62736 12.3581 4.73703C12.3757 4.80778 12.4812 4.9316 12.5339 5.00236C13.2547 5.96301 13.8878 6.98722 14.4255 8.0625C14.5169 8.01651 14.4958 7.49292 14.4431 7.41863Z" fill="white"/>
<path fill-rule="evenodd" clip-rule="evenodd" d="M13.5466 8.89741C13.5044 8.9434 13.645 9.13797 13.8279 9.13797C14.1302 9.10259 14.3975 8.93278 14.6436 8.47995C14.7436 8.32931 14.8074 8.15733 14.8299 7.97759C14.8597 7.11878 14.7913 6.25937 14.626 5.41627C14.6155 5.34552 14.626 5.26061 14.633 5.23939C14.6541 5.21462 14.7209 5.23939 14.7561 5.17924C14.8088 5.12618 14.6155 4.68396 14.51 4.51769C14.4748 4.43986 14.4572 4.39033 14.3939 4.52476C14.3176 4.6731 14.2812 4.839 14.2885 5.0059C14.4326 6.01415 14.4783 6.89505 14.5697 7.9033C14.5803 8.00236 14.5662 8.14387 14.4994 8.20047C14.2341 8.49769 13.9094 8.73518 13.5466 8.89741ZM17.6427 8.89387C17.4247 9.02123 17.4247 9.16627 17.6005 9.16981C17.9029 9.13443 18.2615 9.10967 18.5076 8.73467C18.5946 8.55804 18.6448 8.36545 18.6553 8.16863C18.6996 7.32304 18.6441 6.47515 18.49 5.64269C18.483 5.57193 18.4514 5.40566 18.4619 5.38443C18.483 5.33491 18.5815 5.38797 18.6166 5.33137C18.6658 5.2783 18.36 4.88207 18.251 4.71226C18.2158 4.63443 18.2017 4.5849 18.1349 4.71934C18.0641 4.86904 18.042 5.03739 18.0716 5.20047C18.2334 6.29717 18.3529 7.11792 18.3775 8.08726C18.3635 8.17924 18.36 8.22877 18.3178 8.34552C18.2228 8.4658 18.1174 8.62146 18.0189 8.69575C17.9205 8.76651 17.7095 8.83726 17.6427 8.89387Z" fill="white"/>
<path fill-rule="evenodd" clip-rule="evenodd" d="M17.8043 7.91392C17.8043 7.65566 17.8078 7.43632 17.8008 7.24175C17.7985 7.07696 17.7626 6.9144 17.6953 6.76415C17.632 6.6191 17.6707 6.50236 17.6391 6.3467C17.6109 6.19104 17.618 5.95755 17.5758 5.77712C17.5617 5.70637 17.5265 5.47642 17.5371 5.45165C17.5547 5.40212 17.6215 5.45165 17.6566 5.39505C17.7059 5.34198 17.4808 4.75826 17.3683 4.59198C17.3297 4.51769 17.2523 4.54245 17.1644 4.66274C17.0765 4.7441 17.1081 4.92453 17.1433 5.09788C17.3578 6.24057 17.523 7.27712 17.4879 8.36321C17.4738 8.45519 17.8043 8.08726 17.8043 7.91392ZM16.1975 6.49882C16.0604 6.49175 15.7756 6.22642 15.6912 6.07429C15.6774 6.03711 15.6715 5.99743 15.6739 5.95781C15.6764 5.9182 15.687 5.87953 15.7053 5.84434C15.758 5.80896 15.8354 5.77359 15.8951 5.80896C15.8951 5.80896 15.9549 5.89387 15.9444 5.90448C16.0147 5.93986 16.0498 5.92217 16.0569 5.89033C16.0604 5.83726 16.0358 5.80543 16.0358 5.74882C16.0674 5.58609 16.2467 5.56132 16.3171 5.66392C16.3663 5.7276 16.3874 5.85849 16.3909 5.94694C16.3909 5.99293 16.3206 5.93986 16.2749 5.94694C16.2362 5.96109 16.2256 6.01061 16.2221 6.05307C16.2151 6.16981 16.201 6.35731 16.1975 6.49528V6.49882ZM13.673 8.19693C13.7082 7.85024 13.659 7.23113 13.6555 7.02594C13.6367 6.49824 13.5933 5.97172 13.5254 5.44811C13.4832 5.15094 13.6449 5.47995 13.6238 5.3066C13.5711 5.01297 13.4094 4.81132 13.216 4.54599C13.1562 4.45755 13.1562 4.43986 13.0613 4.56722C12.9558 4.80425 13.0472 4.97052 13.0753 5.15802C13.2125 5.76651 13.2933 6.32547 13.332 6.8809C13.3725 7.45787 13.3772 8.03682 13.3461 8.61439C13.4515 8.61792 13.6133 8.44811 13.673 8.19693Z" fill="white"/>
<path fill-rule="evenodd" clip-rule="evenodd" d="M18.272 7.64151C18.0294 7.23113 17.6672 6.79245 17.5688 6.62618C17.2428 6.16807 16.9003 5.72202 16.5421 5.28891C16.2433 4.97052 16.6828 5.23585 16.4859 4.98821C16.3206 4.80778 16.2749 4.74764 16.1308 4.63797C16.0604 4.59198 16.0183 4.50354 15.9901 4.65566C15.9789 4.78742 15.9766 4.9198 15.9831 5.05189C15.9831 5.11203 16.0464 5.22877 16.1026 5.29953C16.8304 6.20165 17.6286 7.12146 18.2685 8.2783C18.3599 8.23231 18.3282 7.71226 18.2685 7.64151H18.272Z" fill="white"/>
<path fill-rule="evenodd" clip-rule="evenodd" d="M7.32353 6.88797C7.30595 6.91981 7.26727 6.95873 7.28134 6.99764C7.30595 7.03302 7.33056 7.04363 7.37275 7.04363C7.41143 7.04363 7.46768 7.05425 7.47823 7.03302C7.49933 7.00825 7.51339 6.96226 7.49933 6.91627C7.45714 6.81014 7.34463 6.85259 7.32353 6.88797Z" fill="#165D31"/>
<path fill-rule="evenodd" clip-rule="evenodd" d="M15.4664 12.8243C15.7899 12.8384 16.0009 12.842 16.2857 12.8738L16.6232 12.8384C16.9959 12.8031 17.01 13.3726 17.01 13.3726C17.01 13.7087 16.8799 13.7264 16.7146 13.7618C16.6197 13.7759 16.574 13.7052 16.5212 13.6344C16.4417 13.6601 16.357 13.6649 16.2751 13.6486C16.138 13.6415 16.0044 13.6415 15.8708 13.6309C15.7301 13.6203 15.6528 13.6486 15.5086 13.6344C15.4805 13.6804 15.4383 13.7441 15.3539 13.7264C15.2836 13.7158 15.1957 13.5142 15.2203 13.355C15.2731 13.2417 15.2555 13.2807 15.2555 13.2311C13.9335 13.1958 12.6009 13.1356 11.3071 13.1533C10.2945 13.1568 9.29592 13.1993 8.29387 13.2417C7.75944 13.2347 7.35159 13.1498 7.07031 12.7358C7.09844 12.7358 8.43451 12.8101 8.82478 12.7854C9.54555 12.7783 10.2066 12.7182 10.9414 12.6969C12.39 12.7217 13.828 12.7217 15.2766 12.8243C15.1359 12.7288 15.1359 12.5059 15.3469 12.4493C15.3645 12.4351 15.375 12.559 15.4067 12.5554C15.579 12.5448 15.5016 12.7783 15.4664 12.8243ZM9.644 4.78656C9.42601 5.41627 9.77058 6.10967 10.0097 6.04245C10.1855 6.11321 10.2909 5.78066 10.3613 5.41981C10.414 5.31722 10.4492 5.3066 10.4738 5.35967C10.4667 5.8408 10.5089 5.95047 10.632 6.09552C10.9062 6.30778 11.1348 6.12382 11.1524 6.10613L11.3633 5.89033C11.4125 5.83726 11.4758 5.83726 11.5426 5.87972C11.6094 5.93986 11.5989 6.04245 11.7395 6.11321C11.8591 6.16274 12.1087 6.12736 12.1685 6.02476C12.2458 5.88679 12.2669 5.8408 12.3021 5.79127C12.3583 5.71698 12.4533 5.74882 12.4533 5.77358C12.4427 5.81604 12.3865 5.85495 12.4251 5.93278C12.4955 5.98231 12.5095 5.95047 12.5482 5.93986C12.6888 5.8691 12.7943 5.56486 12.7943 5.56486C12.7978 5.45165 12.7345 5.45873 12.6923 5.48703L12.5834 5.56132C12.513 5.57193 12.3829 5.61792 12.3161 5.51533C12.2493 5.39505 12.2493 5.2217 12.2001 5.09788C12.2001 5.0908 12.1087 4.9033 12.1931 4.89269C12.2353 4.89976 12.3232 4.92453 12.3372 4.85024C12.3794 4.77594 12.2458 4.56722 12.1509 4.46108C12.07 4.37264 11.9575 4.36203 11.8485 4.45401C11.7712 4.52476 11.7817 4.60259 11.7676 4.67689C11.7543 4.73013 11.7537 4.78579 11.766 4.8393C11.7782 4.89281 11.8029 4.94263 11.838 4.98467C11.9153 5.13325 12.0524 5.32783 12.0067 5.60377C12.0067 5.60377 11.9259 5.73113 11.7852 5.71344C11.7255 5.70283 11.6305 5.67807 11.5813 5.29599C11.5426 5.01297 11.5883 4.60967 11.4688 4.42217C11.4231 4.30542 11.3914 4.19575 11.286 4.39033C11.2578 4.46816 11.1348 4.58491 11.2227 4.82193C11.3058 5.03553 11.3301 5.26776 11.293 5.4941C11.2403 5.57193 11.2297 5.5967 11.1629 5.67099C11.0715 5.77712 10.9695 5.74882 10.8922 5.70991C10.8219 5.66391 10.7656 5.63915 10.7304 5.47995C10.7375 5.23231 10.7515 4.82547 10.7058 4.74057C10.639 4.60613 10.53 4.65566 10.4843 4.69811C10.2752 4.9319 10.1351 5.21986 10.08 5.52948C10.0167 5.73467 9.94989 5.67453 9.90418 5.59316C9.79167 5.48703 9.78112 4.64858 9.644 4.78656Z" fill="white"/>
<path fill-rule="evenodd" clip-rule="evenodd" d="M10.3047 6.1592C10.4066 6.08844 10.3609 6.03891 10.5086 6.1875C10.6992 6.52684 10.8099 6.90566 10.8321 7.29481C10.825 7.38679 10.8883 7.44339 10.92 7.42217C10.934 7.2099 11.4509 6.91273 11.9255 6.87028C11.9959 6.85259 11.9607 6.71462 11.9712 6.64387C11.9431 6.37854 12.1189 6.13797 12.365 6.12028C12.7026 6.16981 12.8151 6.35023 12.8221 6.62264C12.7834 7.1533 12.2349 7.24174 11.9291 7.2842C11.8833 7.30189 11.8623 7.32311 11.9291 7.34788L13.2159 7.35495L13.2827 7.39033C13.2897 7.42571 13.2616 7.3974 13.2124 7.48231C13.1416 7.60744 13.0973 7.74596 13.0823 7.88915C12.6991 8.01651 12.3017 8.06604 11.9009 8.1191C11.7603 8.18986 11.69 8.28538 11.7181 8.39151C11.7673 8.50825 12.0767 8.62854 12.0767 8.63207C12.1365 8.66745 12.2033 8.75589 12.0591 8.93632C11.4333 8.90802 10.9446 8.63915 10.7758 8.26061C10.7266 8.2217 10.6703 8.26061 10.6352 8.31014C10.3891 8.62854 10.15 8.91155 9.73157 9.06721C9.48546 9.13089 9.22879 9.0283 9.10925 8.86556C9.02838 8.77005 9.0319 8.66745 9.00377 8.64622C8.86665 8.70637 7.70638 9.20165 7.85405 8.96816C8.13532 8.66745 8.62756 8.44104 9.05651 8.14387C9.08815 8.04127 9.14441 7.70165 9.31317 7.59198C9.32372 7.59198 9.28856 7.79009 9.29208 7.875C9.29208 7.94575 9.28505 7.97052 9.29911 7.95283C9.33075 7.93514 9.85112 7.52122 9.89682 7.39387C9.94605 7.32311 9.90737 7.13915 9.90737 7.13207C9.80893 6.87736 9.6718 6.85613 9.62258 6.72877C9.57687 6.5625 9.59797 6.37146 9.6929 6.31486C9.77728 6.24056 9.87573 6.24764 9.97066 6.33255C10.0761 6.42806 10.1676 6.61556 10.1957 6.75354C10.1781 6.8066 10.055 6.71816 10.0199 6.74292C10.0876 6.82117 10.1326 6.91663 10.15 7.01887C10.2203 7.30896 10.1992 7.42217 10.1289 7.60967C9.89682 8.10141 9.60148 8.24646 9.3413 8.43042C9.33427 8.43042 9.33075 8.55424 9.42568 8.62146C9.46084 8.65684 9.59797 8.67453 9.75619 8.62146C10.0942 8.43258 10.3675 8.14523 10.5402 7.79717C10.5701 7.53232 10.5413 7.2641 10.4559 7.01179C10.3539 6.77476 10.2344 6.43868 10.2344 6.4316C10.2308 6.28302 10.2414 6.23349 10.3047 6.1592ZM6.93638 4.79363C7.08405 4.86439 7.36533 4.83255 7.35126 4.59198L7.34423 4.48231C7.3161 4.41156 7.23172 4.42924 7.21414 4.5C7.20711 4.52476 7.22469 4.56368 7.20359 4.57429C7.18953 4.58844 7.14382 4.58137 7.14382 4.51415C7.14382 4.49292 7.12976 4.4717 7.11921 4.45755C7.11218 4.45047 7.10515 4.45047 7.08757 4.45047C7.06647 4.45047 7.06647 4.45401 7.05592 4.4717C7.05241 4.48939 7.04537 4.50707 7.04537 4.5283C7.04537 4.55306 7.03131 4.56014 7.01725 4.56368C6.99615 4.56368 6.99967 4.56368 6.98209 4.5566C6.97505 4.54599 6.96451 4.54245 6.96451 4.52123L6.95396 4.46462C6.94693 4.45401 6.93286 4.44693 6.9188 4.44339C6.83793 4.44339 6.8309 4.53891 6.83793 4.57429C6.8309 4.58137 6.82738 4.74764 6.93638 4.79363Z" fill="white"/>
<path fill-rule="evenodd" clip-rule="evenodd" d="M11.279 6.64033C11.4266 6.71108 11.7818 6.67217 11.6939 6.44222L11.6868 6.32901C11.6552 6.25825 11.5743 6.27594 11.5567 6.35024C11.5497 6.37146 11.5673 6.41038 11.5427 6.42099C11.5321 6.43514 11.4829 6.42807 11.4864 6.36439C11.4864 6.34316 11.4723 6.3184 11.4618 6.30424C11.4513 6.30071 11.4477 6.29717 11.4266 6.29717C11.4091 6.29717 11.4091 6.30424 11.3985 6.32193C11.3915 6.33962 11.388 6.35731 11.388 6.37854C11.3844 6.39976 11.3739 6.40684 11.3563 6.41391C11.3387 6.41391 11.3423 6.41391 11.3282 6.4033C11.3176 6.39269 11.3071 6.38915 11.3071 6.37146L11.2965 6.31486C11.2895 6.30424 11.2755 6.29717 11.2614 6.29363C11.1805 6.29363 11.1735 6.38561 11.177 6.42099C11.1735 6.42807 11.17 6.59788 11.2825 6.64033H11.279ZM13.8105 5.87618C13.9581 5.94693 14.2359 5.91509 14.2253 5.67807L14.2183 5.56486C14.1867 5.4941 14.1058 5.51179 14.0882 5.58255C14.0812 5.60731 14.0988 5.64623 14.0742 5.66038C14.0636 5.67099 14.0144 5.66391 14.0179 5.5967C14.0179 5.57547 14.0038 5.55424 13.9933 5.54009C13.9827 5.53302 13.9792 5.53302 13.9581 5.53302C13.9406 5.53302 13.9406 5.54009 13.93 5.55778L13.9195 5.61085C13.9159 5.63561 13.9054 5.64623 13.8878 5.64623C13.8702 5.64623 13.8738 5.64623 13.8597 5.63915C13.8491 5.62854 13.8386 5.625 13.8386 5.60731C13.8386 5.58962 13.8351 5.56132 13.828 5.54717C13.821 5.53656 13.807 5.53302 13.7929 5.52948C13.712 5.52948 13.705 5.62146 13.7085 5.65684C13.705 5.66391 13.7015 5.83019 13.814 5.87618H13.8105ZM15.1219 7.79717C14.8653 8.0908 14.9778 8.57547 15.0375 8.6816C15.1219 8.85141 15.1887 8.96108 15.354 9.04599C15.5052 9.15566 15.6247 9.08844 15.688 9.01061C15.8392 8.85141 15.8427 8.44457 15.913 8.36674C15.9622 8.21816 16.0888 8.24292 16.1486 8.31014C16.2045 8.39001 16.2795 8.45448 16.3666 8.49764C16.5072 8.62146 16.676 8.64623 16.8447 8.53302C16.9573 8.4658 17.0311 8.38443 17.0979 8.21816C17.1682 8.02005 17.1331 7.10024 17.1155 6.55542L16.9678 5.79481C16.9678 5.78774 16.9502 5.43396 16.9326 5.35259C16.9326 5.31722 16.9221 5.3066 16.9573 5.31014C16.9959 5.34552 16.9994 5.34552 17.0276 5.35613C17.0627 5.36321 17.0979 5.29599 17.0733 5.23939L16.7217 4.58137C16.6936 4.55307 16.6549 4.52476 16.6092 4.58844C16.5822 4.61301 16.5607 4.64306 16.5462 4.6766C16.5316 4.71015 16.5244 4.74642 16.5248 4.78302C16.5353 4.93868 16.56 5.09788 16.5705 5.25354L16.7111 6.05307C16.7568 6.6191 16.7674 7.08608 16.8131 7.65566C16.8061 7.89623 16.7322 8.10495 16.6619 8.13679C16.6619 8.13679 16.5564 8.19693 16.4861 8.12972C16.4334 8.10849 16.2259 7.77948 16.2259 7.77948C16.1205 7.68396 16.0501 7.70873 15.9763 7.77948C15.7653 7.98467 15.6739 8.35967 15.5298 8.62146C15.4946 8.6816 15.3891 8.72759 15.2766 8.61792C14.9883 8.21816 15.1571 7.65212 15.1219 7.79717ZM13.8773 4.48231C14.0109 4.53538 14.1023 4.80778 14.0742 4.94222C14.046 5.10141 13.9757 5.2783 13.9265 5.25708C13.8702 5.23585 13.9617 5.09434 13.9089 4.94575C13.8808 4.8467 13.698 4.66981 13.7191 4.62028C13.6839 4.51061 13.7964 4.46108 13.8773 4.47877V4.48231Z" fill="white"/>
<path fill-rule="evenodd" clip-rule="evenodd" d="M15.5507 7.9599C15.5753 7.63443 15.5296 7.43632 15.5226 7.24528C15.5156 7.05424 15.3081 5.5967 15.2659 5.45519C15.2132 5.17924 15.4663 5.41981 15.4382 5.25707C15.3503 5.05896 15.1358 4.76533 15.069 4.59198C15.0268 4.52122 15.0444 4.45047 14.953 4.57429C14.8743 4.79139 14.8466 5.02387 14.8721 5.25354C15.0901 6.39622 15.3116 7.34434 15.2765 8.43042C15.3819 8.43042 15.498 8.19339 15.5507 7.9599ZM17.815 4.94221C17.9381 5.00236 18.0084 5.34198 17.9943 5.4375C17.9697 5.61438 17.9064 5.80542 17.8607 5.78066C17.808 5.75943 17.8713 5.51886 17.8466 5.44457C17.8185 5.33844 17.6533 5.1474 17.6708 5.0908C17.6357 4.97052 17.7412 4.92099 17.815 4.94221ZM8.82467 7.34434C8.94069 7.39033 9.01101 7.63797 9.00046 7.70872C8.97234 7.83962 8.91256 7.98113 8.86686 7.9599C8.82115 7.94575 8.8774 7.76887 8.85631 7.71226C8.84576 7.58137 8.68403 7.51061 8.68754 7.45401C8.65941 7.34787 8.75786 7.33019 8.82818 7.34434H8.82467Z" fill="white"/>
<path fill-rule="evenodd" clip-rule="evenodd" d="M11.6238 7.71934C11.7715 7.72641 11.8454 7.8467 11.7082 7.89622C11.5676 7.94222 11.4375 7.98113 11.434 8.17924C11.4867 8.46226 11.3637 8.36321 11.2933 8.32783C11.209 8.26415 10.9699 8.11556 10.9347 7.79717C10.9312 7.72288 10.991 7.65566 11.0859 7.65566C11.2265 7.69457 11.4375 7.69811 11.6238 7.71934Z" fill="#165D31"/>
<path fill-rule="evenodd" clip-rule="evenodd" d="M5.73388 4.40094C5.90265 4.45047 5.9132 4.70519 5.90265 4.77948C5.87804 4.91392 5.81826 5.05896 5.77607 5.04127C5.72685 5.02358 5.77607 4.83962 5.75146 4.78302C5.72685 4.70519 5.58269 4.5566 5.59676 4.51415C5.56511 4.42571 5.66708 4.38325 5.73388 4.40094ZM9.1057 5.58962C8.97209 5.66038 8.92287 5.87264 9.00373 6C9.08108 6.10613 9.20063 6.06722 9.21469 6.06722C9.34478 6.08137 9.42213 5.82311 9.42213 5.82311C9.42213 5.82311 9.42565 5.75236 9.27446 5.89033C9.20766 5.90094 9.20414 5.87618 9.18656 5.8408C9.17047 5.77345 9.17664 5.70265 9.20414 5.63915C9.22875 5.57547 9.17953 5.54717 9.1057 5.58962ZM10.0902 4.30189C10.0198 4.34788 9.88976 4.48585 9.88624 4.64151C9.88272 4.72995 9.86514 4.72995 9.9214 4.78302C9.96711 4.8467 10.0058 4.84316 10.0902 4.79717C10.1112 4.78385 10.1292 4.76628 10.1432 4.74558C10.1571 4.72487 10.1666 4.70148 10.171 4.67689C10.1921 4.57783 10.0656 4.72641 10.0515 4.61321C10.0234 4.50708 10.1042 4.46462 10.1816 4.36557C10.1816 4.29481 10.1816 4.24882 10.0867 4.30189H10.0902ZM10.8777 4.4434C10.8467 4.57222 10.8279 4.7037 10.8215 4.83608C10.8004 4.93514 10.927 4.97759 10.9797 4.85024C11.0641 4.62028 11.0641 4.52123 11.0711 4.42571C11.0465 4.27358 10.9445 4.27712 10.8777 4.4434ZM15.8704 7.00118C15.8845 6.98349 16.5736 6.49174 16.5736 6.49174C16.6439 6.46698 16.6264 6.74646 16.5947 6.74292C16.381 6.95017 16.1352 7.12104 15.8669 7.24882C15.8317 7.27358 15.8001 7.06132 15.8669 7.00118H15.8704ZM16.4927 6.9941C16.6158 7.05424 16.665 7.41156 16.651 7.50707C16.651 7.69811 16.5349 7.8467 16.4857 7.82547C16.4365 7.80071 16.4927 7.58844 16.4681 7.51415C16.44 7.40802 16.338 7.21344 16.3556 7.15684C16.3205 7.03656 16.4189 6.97288 16.4963 6.9941H16.4927ZM12.4142 8.52948C12.4713 8.4625 12.5376 8.40412 12.6111 8.35613C12.6814 8.32075 12.7447 8.38443 12.7412 8.3809C12.7518 8.45165 12.699 8.51179 12.7166 8.60377C12.7307 8.63915 12.7412 8.6816 12.808 8.66745C12.917 8.57901 13.019 8.57193 13.1244 8.5684C13.2123 8.57193 13.2159 8.71698 13.1596 8.71698C12.9592 8.75943 12.8713 8.81604 12.7271 8.8691C12.6568 8.91156 12.6006 8.85849 12.6006 8.85495C12.6006 8.85141 12.5619 8.81604 12.5865 8.72406C12.5935 8.6533 12.5654 8.61085 12.5021 8.61792C12.4599 8.64623 12.4177 8.66038 12.3966 8.60731C12.3861 8.57193 12.3826 8.55071 12.4142 8.52948ZM17.217 8.72052C17.2452 8.7559 17.2663 8.79127 17.2135 8.85495L17.0834 8.96816C17.0623 9.00354 17.0483 9.06722 17.1186 9.0849C17.2452 9.12028 17.5405 8.92571 17.5405 8.92217C17.5897 8.88679 17.5757 8.81604 17.5686 8.81604C17.5405 8.7842 17.4772 8.80542 17.435 8.79835C17.4139 8.79835 17.3471 8.79127 17.3788 8.72759C17.4024 8.69633 17.4213 8.66177 17.435 8.625C17.4526 8.58255 17.435 8.55424 17.3647 8.52948C17.2909 8.51533 17.2592 8.52241 17.1784 8.52948C17.1362 8.53656 17.1221 8.55778 17.1116 8.61085C17.1151 8.69222 17.1643 8.68868 17.217 8.71698V8.72052Z" fill="white"/>
<path fill-rule="evenodd" clip-rule="evenodd" d="M12.4389 6.71108C12.4213 6.74646 12.358 6.74646 12.2982 6.71108C12.2385 6.67571 12.2033 6.6191 12.2244 6.58726C12.2455 6.55542 12.3053 6.55542 12.365 6.58726C12.4248 6.6191 12.4565 6.67925 12.4389 6.71108ZM9.30966 4.81486C9.2745 4.82547 9.22528 4.79363 9.20418 4.7441C9.18309 4.69458 9.19364 4.65212 9.2288 4.64151C9.26395 4.6309 9.30966 4.66627 9.33427 4.71226C9.35889 4.75825 9.34482 4.80778 9.30615 4.8184L9.30966 4.81486ZM15.5013 13.2665C15.8318 13.2807 16.1412 13.2665 16.4682 13.2842C16.5279 13.3373 16.4858 13.4611 16.4471 13.454L16.1728 13.4434C16.1693 13.3373 15.9021 13.355 15.9091 13.4469C15.765 13.4646 15.6349 13.4434 15.4872 13.4363C15.445 13.3833 15.4521 13.2877 15.5013 13.2665Z" fill="#165D31"/>
</svg>
