<svg width="18" height="18" viewBox="0 0 18 18" fill="none" xmlns="http://www.w3.org/2000/svg">
<path d="M4.83733 6.37494C4.79233 6.37494 4.74734 6.36742 4.70234 6.35992C4.55984 6.32242 4.43233 6.23245 4.35733 6.10495L3.18733 4.18495C2.90233 3.71995 2.81233 3.16494 2.94733 2.62494C3.07483 2.09244 3.40483 1.63493 3.87733 1.34993C4.34233 1.06493 4.89733 0.974924 5.43733 1.10992C5.97733 1.23742 6.42733 1.56742 6.71233 2.03992L7.88233 3.95996C8.04733 4.22246 7.95733 4.56744 7.69483 4.73244L5.12983 6.29245C5.03983 6.34495 4.94233 6.37494 4.83733 6.37494ZM4.94233 2.17496C4.76983 2.17496 4.60483 2.21995 4.46233 2.30995C4.25233 2.43745 4.10233 2.64742 4.04233 2.88742C3.98233 3.13492 4.01983 3.38242 4.14733 3.59242L5.02483 5.03246L6.62983 4.05742L5.75233 2.61743C5.62483 2.40743 5.41483 2.25743 5.17483 2.19743C5.09233 2.18243 5.01733 2.17496 4.94233 2.17496Z" fill="black"/>
<path d="M8.56489 16.9575C8.33989 16.9575 8.11489 16.9275 7.89739 16.86C7.23739 16.665 6.70489 16.2151 6.39739 15.5776L4.85988 12.4426C4.04238 10.7776 4.61989 8.79754 6.20239 7.83004L8.57238 6.39006C10.1549 5.42256 12.1874 5.82004 13.2899 7.31254L15.3674 10.1175C15.7874 10.6875 15.9449 11.37 15.8174 12.0375C15.6899 12.705 15.2849 13.2826 14.6774 13.6501L9.85489 16.5825C9.44989 16.83 9.00739 16.9575 8.56489 16.9575ZM10.4249 6.99005C9.98988 6.99005 9.55489 7.11003 9.14989 7.35003L6.77988 8.79002C5.69238 9.45002 5.30239 10.8075 5.85739 11.9475L7.39489 15.0825C7.56739 15.4275 7.85239 15.675 8.20489 15.78C8.55739 15.885 8.93238 15.8251 9.25488 15.6301L14.0774 12.6975C14.4074 12.495 14.6249 12.1876 14.6999 11.8276C14.7674 11.4676 14.6849 11.1001 14.4524 10.7926L12.3749 7.98756C11.9024 7.33506 11.1749 6.99005 10.4249 6.99005Z" fill="black"/>
<path d="M5.75994 9.32244C5.71494 9.32244 5.66995 9.31493 5.62495 9.30743C5.48245 9.26993 5.35494 9.17995 5.27994 9.05245L3.71995 6.48747C3.55495 6.22497 3.64495 5.87994 3.90745 5.71494L7.74745 3.37495C8.00995 3.21745 8.36245 3.29995 8.51995 3.56245L10.08 6.12743C10.155 6.25493 10.1849 6.40494 10.1474 6.55494C10.1099 6.69744 10.02 6.82496 9.89245 6.89996L6.05245 9.23995C5.96245 9.29995 5.85744 9.32244 5.75994 9.32244ZM4.97245 6.38996L5.94744 7.99493L8.82745 6.23995L7.85245 4.63494L4.97245 6.38996Z" fill="black"/>
<path d="M11.9699 15.2024C11.7824 15.2024 11.5949 15.1049 11.4899 14.9324L10.2524 12.8999C10.0874 12.6374 10.1774 12.2924 10.4399 12.1274C10.7024 11.9699 11.0549 12.0524 11.2124 12.3149L12.4499 14.3474C12.6149 14.6099 12.5249 14.9549 12.2624 15.1199C12.1724 15.1724 12.0674 15.2024 11.9699 15.2024Z" fill="black"/>
<path d="M10.0499 16.3726C9.86238 16.3726 9.67488 16.275 9.56988 16.1025L8.33238 14.0701C8.16738 13.8076 8.25738 13.4626 8.51988 13.2976C8.78238 13.1401 9.13488 13.2226 9.29238 13.4851L10.5299 15.5176C10.6949 15.7801 10.6049 16.125 10.3424 16.29C10.2524 16.3425 10.1474 16.3726 10.0499 16.3726Z" fill="black"/>
<path d="M13.89 14.0325C13.7025 14.0325 13.515 13.935 13.41 13.7625L12.1725 11.73C12.0075 11.4675 12.0975 11.1225 12.36 10.9575C12.6225 10.8 12.975 10.8825 13.1325 11.145L14.37 13.1775C14.535 13.44 14.445 13.785 14.1825 13.95C14.0925 14.0025 13.995 14.0325 13.89 14.0325Z" fill="black"/>
</svg>
