<svg width="15" height="15" viewBox="0 0 15 15" fill="none" xmlns="http://www.w3.org/2000/svg">
<path d="M5 3.59375C4.74375 3.59375 4.53125 3.38125 4.53125 3.125V1.25C4.53125 0.99375 4.74375 0.78125 5 0.78125C5.25625 0.78125 5.46875 0.99375 5.46875 1.25V3.125C5.46875 3.38125 5.25625 3.59375 5 3.59375Z" fill="#969696"/>
<path d="M10 3.59375C9.74375 3.59375 9.53125 3.38125 9.53125 3.125V1.25C9.53125 0.99375 9.74375 0.78125 10 0.78125C10.2563 0.78125 10.4688 0.99375 10.4688 1.25V3.125C10.4688 3.38125 10.2563 3.59375 10 3.59375Z" fill="#969696"/>
<path d="M5.3125 9.06251C5.23125 9.06251 5.15 9.04377 5.075 9.01252C4.99375 8.98127 4.93125 8.93751 4.86875 8.88126C4.75625 8.76251 4.6875 8.60626 4.6875 8.43751C4.6875 8.35626 4.70625 8.27501 4.7375 8.20001C4.76875 8.12501 4.8125 8.05627 4.86875 7.99377C4.93125 7.93752 4.99375 7.89375 5.075 7.8625C5.3 7.76875 5.58125 7.81877 5.75625 7.99377C5.86875 8.11252 5.9375 8.27501 5.9375 8.43751C5.9375 8.47501 5.93125 8.51877 5.925 8.56252C5.91875 8.60002 5.90625 8.63751 5.8875 8.67501C5.875 8.71251 5.85625 8.75001 5.83125 8.78751C5.8125 8.81876 5.78125 8.85001 5.75625 8.88126C5.6375 8.99376 5.475 9.06251 5.3125 9.06251Z" fill="#969696"/>
<path d="M7.5 9.06248C7.41875 9.06248 7.3375 9.04374 7.2625 9.01249C7.18125 8.98124 7.11875 8.93748 7.05625 8.88123C6.94375 8.76248 6.875 8.60623 6.875 8.43748C6.875 8.35623 6.89375 8.27498 6.925 8.19998C6.95625 8.12498 7 8.05624 7.05625 7.99374C7.11875 7.93749 7.18125 7.89372 7.2625 7.86247C7.4875 7.76247 7.76875 7.81874 7.94375 7.99374C8.05625 8.11249 8.125 8.27498 8.125 8.43748C8.125 8.47498 8.11875 8.51874 8.1125 8.56249C8.10625 8.59999 8.09375 8.63748 8.075 8.67498C8.0625 8.71248 8.04375 8.74998 8.01875 8.78748C8 8.81873 7.96875 8.84998 7.94375 8.88123C7.825 8.99373 7.6625 9.06248 7.5 9.06248Z" fill="#969696"/>
<path d="M9.6875 9.06248C9.60625 9.06248 9.525 9.04374 9.45 9.01249C9.36875 8.98124 9.30625 8.93748 9.24375 8.88123C9.21875 8.84998 9.19375 8.81873 9.16875 8.78748C9.14375 8.74998 9.125 8.71248 9.1125 8.67498C9.09375 8.63748 9.08125 8.59999 9.075 8.56249C9.06875 8.51874 9.0625 8.47498 9.0625 8.43748C9.0625 8.27498 9.13125 8.11249 9.24375 7.99374C9.30625 7.93749 9.36875 7.89372 9.45 7.86247C9.68125 7.76247 9.95625 7.81874 10.1312 7.99374C10.2437 8.11249 10.3125 8.27498 10.3125 8.43748C10.3125 8.47498 10.3062 8.51874 10.3 8.56249C10.2937 8.59999 10.2812 8.63748 10.2625 8.67498C10.25 8.71248 10.2313 8.74998 10.2063 8.78748C10.1875 8.81873 10.1562 8.84998 10.1312 8.88123C10.0125 8.99373 9.85 9.06248 9.6875 9.06248Z" fill="#969696"/>
<path d="M5.3125 11.25C5.23125 11.25 5.15 11.2313 5.075 11.2C5 11.1688 4.93125 11.125 4.86875 11.0687C4.75625 10.95 4.6875 10.7875 4.6875 10.625C4.6875 10.5437 4.70625 10.4625 4.7375 10.3875C4.76875 10.3062 4.8125 10.2375 4.86875 10.1812C5.1 9.95 5.525 9.95 5.75625 10.1812C5.86875 10.3 5.9375 10.4625 5.9375 10.625C5.9375 10.7875 5.86875 10.95 5.75625 11.0687C5.6375 11.1812 5.475 11.25 5.3125 11.25Z" fill="#969696"/>
<path d="M7.5 11.25C7.3375 11.25 7.175 11.1812 7.05625 11.0687C6.94375 10.95 6.875 10.7875 6.875 10.625C6.875 10.5437 6.89375 10.4625 6.925 10.3875C6.95625 10.3062 7 10.2375 7.05625 10.1812C7.2875 9.95 7.7125 9.95 7.94375 10.1812C8 10.2375 8.04375 10.3062 8.075 10.3875C8.10625 10.4625 8.125 10.5437 8.125 10.625C8.125 10.7875 8.05625 10.95 7.94375 11.0687C7.825 11.1812 7.6625 11.25 7.5 11.25Z" fill="#969696"/>
<path d="M9.6875 11.25C9.525 11.25 9.3625 11.1813 9.24375 11.0688C9.1875 11.0125 9.14375 10.9438 9.1125 10.8625C9.08125 10.7875 9.0625 10.7063 9.0625 10.625C9.0625 10.5438 9.08125 10.4625 9.1125 10.3875C9.14375 10.3063 9.1875 10.2375 9.24375 10.1813C9.3875 10.0375 9.60625 9.96875 9.80625 10.0125C9.85 10.0187 9.8875 10.0312 9.925 10.05C9.9625 10.0625 10 10.0813 10.0375 10.1063C10.0688 10.125 10.1 10.1563 10.1312 10.1813C10.2437 10.3 10.3125 10.4625 10.3125 10.625C10.3125 10.7875 10.2437 10.95 10.1312 11.0688C10.0125 11.1813 9.85 11.25 9.6875 11.25Z" fill="#969696"/>
<path d="M12.8125 6.14996H2.1875C1.93125 6.14996 1.71875 5.93746 1.71875 5.68121C1.71875 5.42496 1.93125 5.21246 2.1875 5.21246H12.8125C13.0688 5.21246 13.2812 5.42496 13.2812 5.68121C13.2812 5.93746 13.0688 6.14996 12.8125 6.14996Z" fill="#969696"/>
<path d="M10 14.2188H5C2.71875 14.2188 1.40625 12.9062 1.40625 10.625V5.3125C1.40625 3.03125 2.71875 1.71875 5 1.71875H10C12.2812 1.71875 13.5938 3.03125 13.5938 5.3125V10.625C13.5938 12.9062 12.2812 14.2188 10 14.2188ZM5 2.65625C3.2125 2.65625 2.34375 3.525 2.34375 5.3125V10.625C2.34375 12.4125 3.2125 13.2812 5 13.2812H10C11.7875 13.2812 12.6562 12.4125 12.6562 10.625V5.3125C12.6562 3.525 11.7875 2.65625 10 2.65625H5Z" fill="#969696"/>
</svg>
