<svg width="44" height="34" viewBox="0 0 44 34" fill="none" xmlns="http://www.w3.org/2000/svg">
<path d="M34 28.0301L33.7045 27.1061C33.7045 27.1061 32.7025 26.0302 31.9316 26.0302C31.7553 26.0302 31.585 26.0546 31.4223 26.0981L28.6445 22.5888C28.7559 22.3391 28.8196 22.0639 28.8196 21.7727C28.8196 21.2567 28.6224 20.7885 28.3013 20.4341L40.5573 15.3656L40.1462 14.3708L34.2055 0L3.05203 12.8795L5.25984 15.96L2 17.5608L5.87344 26.9298L11.3231 24.417L13.0012 26.7594L24.8246 21.8708C24.8771 22.9295 25.7486 23.7723 26.8197 23.7723C26.9478 23.7723 27.0741 23.7581 27.1951 23.7355L30.0545 27.3462C29.9764 27.5601 29.9318 27.7895 29.9318 28.0301C29.9318 29.1346 30.8272 30.0299 31.9316 30.0299C32.7026 30.0299 33.3703 29.5933 33.7045 28.9541L34 28.0301ZM7.00883 24.0334L4.76414 18.6051L6.53336 17.7371L10.0434 22.6328L7.00883 24.0334ZM13.7572 24.1144L6.38688 13.8327L33.0367 2.81531L37.743 14.1979L13.7572 24.1144Z" fill="#A2ECDF"/>
</svg>
