<svg width="25" height="24" viewBox="0 0 25 24" fill="none" xmlns="http://www.w3.org/2000/svg">
<path fill-rule="evenodd" clip-rule="evenodd" d="M6.03564 4.74951C4.793 4.74951 3.78564 5.75687 3.78564 6.99951V8.99979C3.78564 9.414 3.44986 9.74979 3.03564 9.74979C2.62143 9.74979 2.28564 9.414 2.28564 8.99979V6.99951C2.28564 4.92844 3.96458 3.24951 6.03564 3.24951H8.81689C9.23111 3.24951 9.56689 3.5853 9.56689 3.99951C9.56689 4.41373 9.23111 4.74951 8.81689 4.74951H6.03564ZM15.0044 3.99951C15.0044 3.5853 15.3402 3.24951 15.7544 3.24951H18.5356C20.6067 3.24951 22.2856 4.92844 22.2856 6.99951V8.99979C22.2856 9.414 21.9499 9.74979 21.5356 9.74979C21.1214 9.74979 20.7856 9.414 20.7856 8.99979V6.99951C20.7856 5.75687 19.7783 4.74951 18.5356 4.74951H15.7544C15.3402 4.74951 15.0044 4.41373 15.0044 3.99951ZM3.03564 14.2501C3.44986 14.2501 3.78564 14.5859 3.78564 15.0001V17.0004C3.78564 18.243 4.793 19.2504 6.03564 19.2504H8.81689C9.23111 19.2504 9.56689 19.5862 9.56689 20.0004C9.56689 20.4146 9.23111 20.7504 8.81689 20.7504H6.03564C3.96458 20.7504 2.28564 19.0715 2.28564 17.0004V15.0001C2.28564 14.5859 2.62143 14.2501 3.03564 14.2501ZM21.5356 14.2501C21.9499 14.2501 22.2856 14.5859 22.2856 15.0001V17.0004C22.2856 19.0715 20.6067 20.7504 18.5356 20.7504H15.7544C15.3402 20.7504 15.0044 20.4146 15.0044 20.0004C15.0044 19.5862 15.3402 19.2504 15.7544 19.2504H18.5356C19.7783 19.2504 20.7856 18.243 20.7856 17.0004V15.0001C20.7856 14.5859 21.1214 14.2501 21.5356 14.2501Z" fill="#A6A6A6"/>
<path fill-rule="evenodd" clip-rule="evenodd" d="M5.34033 12.1319C5.34033 11.7176 5.67612 11.3819 6.09033 11.3819L18.481 11.3819C18.8952 11.3819 19.231 11.7176 19.231 12.1319C19.231 12.5461 18.8952 12.8819 18.481 12.8819L6.09033 12.8819C5.67612 12.8819 5.34033 12.5461 5.34033 12.1319Z" fill="#A6A6A6"/>
<path fill-rule="evenodd" clip-rule="evenodd" d="M8.28565 6.76564C8.69986 6.76564 9.03565 7.10143 9.03565 7.51564V9.30661C9.03565 9.72082 8.69986 10.0566 8.28565 10.0566C7.87143 10.0566 7.53565 9.72082 7.53565 9.30661V7.51564C7.53565 7.10143 7.87143 6.76564 8.28565 6.76564ZM8.28565 11.5002C8.69986 11.5002 9.03565 11.836 9.03565 12.2502V16.4851C9.03565 16.8993 8.69986 17.2351 8.28565 17.2351C7.87143 17.2351 7.53565 16.8993 7.53565 16.4851V12.2502C7.53565 11.836 7.87143 11.5002 8.28565 11.5002Z" fill="#A6A6A6"/>
<path fill-rule="evenodd" clip-rule="evenodd" d="M12.2856 6.76564C12.6999 6.76564 13.0356 7.10143 13.0356 7.51564V12.1574C13.0356 12.5717 12.6999 12.9074 12.2856 12.9074C11.8714 12.9074 11.5356 12.5717 11.5356 12.1574V7.51564C11.5356 7.10143 11.8714 6.76564 12.2856 6.76564ZM12.2856 14.3511C12.6999 14.3511 13.0356 14.6868 13.0356 15.1011L13.0356 16.4851C13.0356 16.8993 12.6999 17.2351 12.2856 17.2351C11.8714 17.2351 11.5356 16.8993 11.5356 16.4851L11.5356 15.1011C11.5356 14.6868 11.8714 14.3511 12.2856 14.3511Z" fill="#A6A6A6"/>
<path fill-rule="evenodd" clip-rule="evenodd" d="M16.2856 6.76564C16.6999 6.76564 17.0356 7.10143 17.0356 7.51564V11.476C17.0356 11.8902 16.6999 12.226 16.2856 12.226C15.8714 12.226 15.5356 11.8902 15.5356 11.476V7.51564C15.5356 7.10143 15.8714 6.76564 16.2856 6.76564ZM16.2856 13.6696C16.6999 13.6696 17.0356 14.0054 17.0356 14.4196L17.0356 16.4851C17.0356 16.8993 16.6999 17.2351 16.2856 17.2351C15.8714 17.2351 15.5356 16.8993 15.5356 16.4851L15.5356 14.4196C15.5356 14.0054 15.8714 13.6696 16.2856 13.6696Z" fill="#A6A6A6"/>
</svg>
