<svg width="25" height="24" viewBox="0 0 25 24" fill="none" xmlns="http://www.w3.org/2000/svg">
<path fill-rule="evenodd" clip-rule="evenodd" d="M6.28564 2C4.07651 2 2.28564 3.79086 2.28564 6V18C2.28564 20.2091 4.07651 22 6.28564 22H18.2856C20.4948 22 22.2856 20.2091 22.2856 18V6C22.2856 3.79086 20.4948 2 18.2856 2H6.28564ZM6.90894 8.68771C6.90894 8.00451 7.46278 7.45067 8.14598 7.45067H9.98813C10.4023 7.45067 10.7381 7.11488 10.7381 6.70067C10.7381 6.28645 10.4023 5.95067 9.98813 5.95067H8.14598C6.63435 5.95067 5.40894 7.17608 5.40894 8.68771V10.0126C5.40894 10.4268 5.74472 10.7626 6.15894 10.7626C6.57315 10.7626 6.90894 10.4268 6.90894 10.0126V8.68771ZM14.5832 5.95067C14.1689 5.95067 13.8332 6.28645 13.8332 6.70067C13.8332 7.11488 14.1689 7.45067 14.5832 7.45067H16.4253C17.1085 7.45067 17.6624 8.00451 17.6624 8.68771V10.0126C17.6624 10.4268 17.9981 10.7626 18.4124 10.7626C18.8266 10.7626 19.1624 10.4268 19.1624 10.0126V8.68771C19.1624 7.17608 17.9369 5.95067 16.4253 5.95067H14.5832ZM6.90894 13.9869C6.90894 13.5727 6.57315 13.2369 6.15894 13.2369C5.74472 13.2369 5.40894 13.5727 5.40894 13.9869V15.3118C5.40894 16.8234 6.63435 18.0488 8.14598 18.0488H9.98813C10.4023 18.0488 10.7381 17.713 10.7381 17.2988C10.7381 16.8846 10.4023 16.5488 9.98813 16.5488H8.14598C7.46278 16.5488 6.90894 15.995 6.90894 15.3118V13.9869ZM19.1624 13.9869C19.1624 13.5727 18.8266 13.2369 18.4124 13.2369C17.9981 13.2369 17.6624 13.5727 17.6624 13.9869V15.3118C17.6624 15.995 17.1085 16.5488 16.4253 16.5488H14.5832C14.1689 16.5488 13.8332 16.8846 13.8332 17.2988C13.8332 17.713 14.1689 18.0488 14.5832 18.0488H16.4253C17.9369 18.0488 19.1624 16.8234 19.1624 15.3118V13.9869ZM7.4322 12.0873C7.4322 11.6731 7.76798 11.3373 8.1822 11.3373H11.5356V9.02977C11.5356 8.61556 11.8714 8.27977 12.2856 8.27977C12.6999 8.27977 13.0356 8.61556 13.0356 9.02977V11.3373H14.185V9.02977C14.185 8.61556 14.5208 8.27977 14.935 8.27977C15.3492 8.27977 15.685 8.61556 15.685 9.02977V11.3373H16.3891C16.8033 11.3373 17.1391 11.6731 17.1391 12.0873C17.1391 12.5015 16.8033 12.8373 16.3891 12.8373H10.3863V14.9706C10.3863 15.3848 10.0505 15.7206 9.63626 15.7206C9.22204 15.7206 8.88626 15.3848 8.88626 14.9706V12.8373H8.1822C7.76798 12.8373 7.4322 12.5015 7.4322 12.0873ZM10.3863 9.02977C10.3863 8.61556 10.0505 8.27977 9.63626 8.27977C9.22204 8.27977 8.88626 8.61556 8.88626 9.02977V10.216C8.88626 10.6302 9.22204 10.966 9.63626 10.966C10.0505 10.966 10.3863 10.6302 10.3863 10.216V9.02977ZM12.2856 13.3039C12.6999 13.3039 13.0356 13.6397 13.0356 14.0539V14.9706C13.0356 15.3848 12.6999 15.7206 12.2856 15.7206C11.8714 15.7206 11.5356 15.3848 11.5356 14.9706V14.0539C11.5356 13.6397 11.8714 13.3039 12.2856 13.3039ZM15.685 14.0178C15.685 13.6036 15.3492 13.2678 14.935 13.2678C14.5208 13.2678 14.185 13.6036 14.185 14.0178V14.9706C14.185 15.3848 14.5208 15.7206 14.935 15.7206C15.3492 15.7206 15.685 15.3848 15.685 14.9706V14.0178Z" fill="#A6A6A6"/>
</svg>
