<svg width="15" height="15" viewBox="0 0 15 15" fill="none" xmlns="http://www.w3.org/2000/svg">
<path d="M11.875 8.3501H1.25C0.99375 8.3501 0.78125 8.1376 0.78125 7.88135C0.78125 7.6251 0.99375 7.4126 1.25 7.4126H11.875C12.1312 7.4126 12.3438 7.6251 12.3438 7.88135C12.3438 8.1376 12.1312 8.3501 11.875 8.3501Z" fill="#E6E6E6"/>
<path d="M9.51248 13.5937H3.61252C1.46877 13.5937 0.78125 12.9125 0.78125 10.7938V6.425C0.78125 4.74375 1.16251 3.75 3.10001 3.6375C3.26251 3.63125 3.43127 3.625 3.61252 3.625H9.51248C11.6562 3.625 12.3438 4.30625 12.3438 6.425V10.8937C12.3188 12.9375 11.6312 13.5937 9.51248 13.5937ZM3.61252 4.5625C3.44377 4.5625 3.28752 4.56875 3.14377 4.575C2.02502 4.64375 1.71875 4.88125 1.71875 6.425V10.7938C1.71875 12.3937 1.98127 12.6562 3.61252 12.6562H9.51248C11.125 12.6562 11.3875 12.4062 11.4062 10.8875V6.425C11.4062 4.825 11.1437 4.5625 9.51248 4.5625H3.61252V4.5625Z" fill="#E6E6E6"/>
<path d="M11.875 11.3625C11.7563 11.3625 11.6375 11.3187 11.5562 11.2375C11.4625 11.15 11.4062 11.025 11.4062 10.8938V6.425C11.4062 4.825 11.1437 4.5625 9.51248 4.5625H3.61252C3.44377 4.5625 3.28752 4.56875 3.14377 4.575C3.01877 4.58125 2.89374 4.53125 2.79999 4.44375C2.70624 4.35625 2.65625 4.23125 2.65625 4.1C2.68125 2.0625 3.36877 1.40625 5.48752 1.40625H11.3875C13.5312 1.40625 14.2188 2.0875 14.2188 4.20625V8.575C14.2188 10.2563 13.8375 11.25 11.9 11.3625C11.8937 11.3625 11.8812 11.3625 11.875 11.3625ZM3.61252 3.625H9.51248C11.6562 3.625 12.3438 4.30625 12.3438 6.425V10.375C13.0687 10.2437 13.2812 9.86875 13.2812 8.575V4.20625C13.2812 2.60625 13.0187 2.34375 11.3875 2.34375H5.48752C4.06252 2.34375 3.69377 2.5375 3.61252 3.625Z" fill="#E6E6E6"/>
<path d="M4.35041 11.6001H3.27539C3.01914 11.6001 2.80664 11.3876 2.80664 11.1313C2.80664 10.8751 3.01914 10.6626 3.27539 10.6626H4.35041C4.60666 10.6626 4.81916 10.8751 4.81916 11.1313C4.81916 11.3876 4.61291 11.6001 4.35041 11.6001Z" fill="#E6E6E6"/>
<path d="M7.84385 11.6001H5.69385C5.4376 11.6001 5.2251 11.3876 5.2251 11.1313C5.2251 10.8751 5.4376 10.6626 5.69385 10.6626H7.84385C8.1001 10.6626 8.3126 10.8751 8.3126 11.1313C8.3126 11.3876 8.10635 11.6001 7.84385 11.6001Z" fill="#E6E6E6"/>
</svg>
