<svg width="25" height="24" viewBox="0 0 25 24" fill="none" xmlns="http://www.w3.org/2000/svg">
<path d="M2.5 8.994C2.49947 8.2062 2.65435 7.42604 2.95577 6.69819C3.25718 5.97033 3.69921 5.30908 4.25655 4.7523C4.81388 4.19553 5.47558 3.75416 6.20373 3.45347C6.93189 3.15278 7.71221 2.99869 8.5 3H16.5C19.813 3 22.5 5.695 22.5 8.994V21H8.5C5.187 21 2.5 18.305 2.5 15.006V8.994ZM20.5 19V8.994C20.4974 7.9345 20.0749 6.91924 19.3251 6.17062C18.5754 5.422 17.5595 5.00106 16.5 5H8.5C7.97485 4.99868 7.4546 5.10105 6.9691 5.30123C6.48359 5.5014 6.04238 5.79545 5.67076 6.16652C5.29914 6.53758 5.00443 6.97835 4.80353 7.46355C4.60262 7.94876 4.49947 8.46885 4.5 8.994V15.006C4.50265 16.0655 4.92511 17.0808 5.67486 17.8294C6.4246 18.578 7.4405 18.9989 8.5 19H20.5ZM14.5 11H16.5V13H14.5V11ZM8.5 11H10.5V13H8.5V11Z" fill="#969696"/>
</svg>
