<svg width="38" height="40" viewBox="0 0 38 40" fill="none" xmlns="http://www.w3.org/2000/svg">
<path d="M37.1813 19.1852H29.8275C29.3767 19.1852 29.0113 19.5506 29.0113 20.0014V25.7922C29.0113 27.9904 30.5992 29.8237 32.6881 30.2087V30.5482H32.6298C32.179 30.5482 31.8136 30.9136 31.8136 31.3643C31.8136 31.8151 32.179 32.1805 32.6298 32.1805H32.6881V38.3565H29.9977V32.8377C29.9977 31.2468 29.0375 29.7356 27.6627 29.1628L22.4098 26.9741C22.2231 26.8963 22.1023 26.7153 22.1023 26.5129V25.2418L24.2358 24.0185C24.2506 24.01 24.2652 24.0009 24.2796 23.9915C25.3479 23.286 26.0494 22.0314 26.156 20.6353C26.1577 20.6147 26.1584 20.5938 26.1584 20.5731V19.8955C26.6362 19.7401 27.0537 19.4512 27.3693 19.0743C27.432 19.0333 27.4905 18.9839 27.5418 18.9243C27.7898 18.6361 28.0205 18.3361 28.2277 18.0325C29.2407 16.5493 29.7544 14.9161 29.7544 13.1784C29.7544 11.0154 28.9952 8.90942 27.6075 7.19583C27.7247 6.7945 27.7852 6.37645 27.7852 5.95325C27.7852 3.50872 25.7965 1.52005 23.352 1.52005C22.8198 1.52005 22.2934 1.61614 21.7987 1.80122C20.8687 0.682471 19.4697 0.0109863 17.9965 0.0109863C16.5029 0.0109863 15.1291 0.665674 14.1984 1.7927C13.7107 1.61349 13.1927 1.52052 12.6695 1.52052C10.225 1.52052 8.23633 3.50927 8.23633 5.95372C8.23633 6.37247 8.29547 6.78606 8.41016 7.18341C7.01586 8.8995 6.25289 11.0101 6.25289 13.1788C6.25289 14.8747 6.74266 16.4725 7.70867 17.9278C7.86547 18.1641 8.03687 18.399 8.21805 18.6262C8.27937 18.703 8.35164 18.7656 8.43102 18.814C8.7582 19.3189 9.2518 19.7064 9.83445 19.8959V20.5735C9.83445 20.5942 9.83523 20.615 9.8368 20.6357C9.94398 22.0374 10.6405 23.292 11.7001 23.9918C11.7147 24.0015 11.7296 24.0106 11.7448 24.0193L13.8905 25.246V26.5131C13.8905 26.7154 13.7698 26.8965 13.583 26.9743L8.33008 29.1631C6.95531 29.736 5.99523 31.2471 5.99523 32.8379V38.3567H1.46656C1.01578 38.3567 0.650391 38.7221 0.650391 39.1729C0.650391 39.6236 1.01578 39.989 1.46656 39.989H34.526C34.9768 39.989 35.3422 39.6236 35.3422 39.1729C35.3422 38.7221 34.9768 38.3567 34.526 38.3567H34.3205V32.1807H34.3789C34.8297 32.1807 35.1951 31.8154 35.1951 31.3646C35.1951 30.9138 34.8297 30.5484 34.3789 30.5484H34.3205V30.209C36.4095 29.8239 37.9973 27.9907 37.9973 25.7924V20.0016C37.9974 19.5507 37.632 19.1852 37.1813 19.1852ZM12.6695 3.15286C13.1584 3.15286 13.6402 3.28138 14.063 3.52458C14.4477 3.74583 14.9386 3.61935 15.1683 3.23966C15.773 2.24013 16.8303 1.64349 17.9965 1.64349C19.1673 1.64349 20.2266 2.24388 20.8303 3.24958C21.0604 3.63294 21.5561 3.75981 21.942 3.53419C22.3687 3.28474 22.8563 3.15294 23.3521 3.15294C24.8965 3.15294 26.1529 4.40942 26.1529 5.95372C26.1529 6.25013 26.1061 6.54247 26.0155 6.82075C23.4639 5.84364 20.7749 5.34872 18.0109 5.34872C15.2468 5.34872 12.5578 5.84356 10.0061 6.82075C9.91547 6.54239 9.86875 6.25013 9.86875 5.95372C9.86875 4.40927 11.1252 3.15286 12.6695 3.15286ZM8.45711 15.9082C8.07742 15.0424 7.88531 14.1287 7.88531 13.1788C7.88531 11.5365 8.39023 9.98575 9.35047 8.64192C9.53101 8.69958 9.73148 8.69474 9.91711 8.6163C12.4802 7.53122 15.2033 6.98114 18.0109 6.98114C20.8184 6.98114 23.5415 7.5313 26.1046 8.6163C26.208 8.66005 26.3159 8.68091 26.4225 8.68091C26.503 8.68091 26.5824 8.66763 26.6587 8.64442C27.6177 9.98763 28.122 11.5377 28.122 13.1786C28.122 14.1335 27.928 15.0513 27.5445 15.9207C27.2173 15.4286 26.7312 15.0507 26.1585 14.8644V13.8265C26.1585 13.3758 25.7931 13.0104 25.3423 13.0104H19.6137V11.3063C19.6137 10.943 19.3736 10.6235 19.0247 10.5224C18.6759 10.4212 18.302 10.5629 18.1077 10.8697L16.7528 13.0104H10.6505C10.1998 13.0104 9.83437 13.3758 9.83437 13.8265V14.8645C9.2668 15.0493 8.78437 15.4223 8.45711 15.9082ZM12.5797 22.6161C11.9559 22.1939 11.542 21.4215 11.4669 20.5405V19.2085C11.4669 18.7577 11.1015 18.3923 10.6507 18.3923C10.0927 18.3923 9.63867 17.9382 9.63867 17.3803C9.63867 16.8223 10.0927 16.3682 10.6507 16.3682C11.1015 16.3682 11.4669 16.0029 11.4669 15.5521V14.643H17.2023C17.4821 14.643 17.7424 14.4998 17.892 14.2633L18.0169 14.066C18.1191 14.4 18.4299 14.643 18.7975 14.643H24.5262V15.5521C24.5262 16.0029 24.8916 16.3682 25.3423 16.3682C25.9004 16.3682 26.3544 16.8223 26.3544 17.3803C26.3544 17.9382 25.9003 18.3923 25.3423 18.3923C24.8916 18.3923 24.5262 18.7577 24.5262 19.2085V20.5404C24.452 21.4035 24.0229 22.1945 23.3998 22.6165L19.0177 25.1292C19.0027 25.1378 18.9882 25.1468 18.9738 25.1562C18.3621 25.5603 17.6314 25.5604 17.0195 25.1562C17.0048 25.1466 16.99 25.1375 16.9747 25.1287L12.5797 22.6161ZM20.4701 26.178V27.8505C20.4701 29.2082 19.3623 30.3128 18.0005 30.3128C16.6344 30.3128 15.523 29.2083 15.523 27.8505V26.1791L16.1431 26.5336C16.716 26.9058 17.3562 27.0918 17.9966 27.0918C18.637 27.0918 19.2774 26.9056 19.8504 26.5333L20.4701 26.178ZM7.62773 38.3566V32.8379C7.62773 31.9179 8.19961 30.9858 8.95805 30.6698L9.33852 30.5113C9.50672 30.8728 9.59445 31.2656 9.59445 31.6718V38.3566H7.62773ZM22.408 38.3566H13.6138V36.4793H22.408V38.3566ZM24.7662 31.6718V38.3567H24.0404V35.6632C24.0404 35.2125 23.675 34.8471 23.2242 34.8471H12.7975C12.3467 34.8471 11.9813 35.2125 11.9813 35.6632V38.3567H11.227V31.6718C11.227 31.0465 11.0968 30.4417 10.8466 29.883L13.9584 28.5865C14.3075 30.4941 15.9866 31.9452 18.0006 31.9452C20.0108 31.9452 21.6865 30.4941 22.0349 28.5865L25.1466 29.8829C24.8963 30.4416 24.7662 31.0465 24.7662 31.6718ZM28.3654 38.3566H26.3985V31.6717C26.3985 31.2655 26.4862 30.8728 26.6545 30.5112L27.0351 30.6697C27.7935 30.9857 28.3654 31.9178 28.3654 32.8378V38.3566ZM36.3651 25.7922C36.3651 27.0857 35.5014 28.1807 34.3205 28.5328V28.4066C34.3205 27.9558 33.9552 27.5904 33.5044 27.5904C33.0536 27.5904 32.6882 27.9558 32.6882 28.4066V28.5328C31.5073 28.1807 30.6438 27.0857 30.6438 25.7922V20.8176H31.1414V24.1003C31.1414 24.5511 31.5068 24.9165 31.9576 24.9165C32.4084 24.9165 32.7738 24.5511 32.7738 24.1003V20.8176H33.2906V22.6039C33.2906 23.0547 33.656 23.42 34.1068 23.42C34.5576 23.42 34.923 23.0547 34.923 22.6039V20.8176H36.3649L36.3651 25.7922Z" fill="#EBEBEB"/>
</svg>
