<svg width="40" height="40" viewBox="0 0 40 40" fill="none" xmlns="http://www.w3.org/2000/svg">
<path d="M23.5248 20.8042C23.2611 20.5405 22.8337 20.5405 22.5699 20.8042C22.0387 21.3354 21.3324 21.6281 20.581 21.6281C19.8296 21.6281 19.1234 21.3355 18.5921 20.8042C18.3284 20.5406 17.901 20.5405 17.6372 20.8042C17.3735 21.0679 17.3735 21.4954 17.6372 21.759C18.4235 22.5454 19.469 22.9784 20.581 22.9784C21.6931 22.9784 22.7385 22.5453 23.5248 21.759C23.7885 21.4954 23.7885 21.0679 23.5248 20.8042Z" fill="#EBEBEB"/>
<path d="M16.5736 14.7781C16.2006 14.7781 15.8984 15.0803 15.8984 15.4532V16.5332C15.8984 16.906 16.2006 17.2083 16.5736 17.2083C16.9466 17.2083 17.2487 16.906 17.2487 16.5332V15.4532C17.2487 15.0803 16.9465 14.7781 16.5736 14.7781Z" fill="#EBEBEB"/>
<path d="M26.609 12.3653C25.4946 11.251 23.6813 11.251 22.5669 12.3653C22.3032 12.6289 22.3032 13.0564 22.5669 13.3201C22.8305 13.5837 23.258 13.5838 23.5216 13.3201C24.1096 12.7321 25.0662 12.7321 25.6542 13.3201C25.786 13.4519 25.9588 13.5179 26.1316 13.5179C26.3044 13.5179 26.4773 13.4521 26.6091 13.3201C26.8727 13.0564 26.8727 12.6289 26.609 12.3653Z" fill="#EBEBEB"/>
<path d="M18.5934 12.3652C18.0536 11.8253 17.3359 11.5281 16.5724 11.5281C15.809 11.5281 15.0911 11.8253 14.5513 12.3652C14.2876 12.6289 14.2876 13.0564 14.5513 13.32C14.8148 13.5836 15.2423 13.5837 15.5059 13.32C15.7908 13.0352 16.1695 12.8784 16.5723 12.8784C16.9751 12.8784 17.3538 13.0352 17.6385 13.32C17.7704 13.4519 17.9431 13.5178 18.116 13.5178C18.2888 13.5178 18.4616 13.452 18.5934 13.32C18.8571 13.0564 18.8571 12.6289 18.5934 12.3652Z" fill="#EBEBEB"/>
<path d="M24.5873 14.7781C24.2143 14.7781 23.9121 15.0803 23.9121 15.4532V16.5332C23.9121 16.906 24.2143 17.2083 24.5873 17.2083C24.9602 17.2083 25.2624 16.906 25.2624 16.5332V15.4532C25.2624 15.0803 24.9602 14.7781 24.5873 14.7781Z" fill="#EBEBEB"/>
<path d="M13.7498 25.1852C13.5563 24.8665 13.1409 24.765 12.8223 24.9584C11.1138 25.9956 10.0938 27.8066 10.0938 29.8027V32.6375C10.0938 33.0104 10.3959 33.3127 10.7689 33.3127C11.1419 33.3127 11.4441 33.0104 11.4441 32.6375V29.8027C11.4441 28.2823 12.2213 26.903 13.5229 26.1127C13.8416 25.9193 13.9432 25.5041 13.7498 25.1852Z" fill="#EBEBEB"/>
<path d="M30.3923 35.9835C30.0194 35.9835 29.7172 36.2858 29.7172 36.6587V37.6249H21.2551V29.1268C21.2551 28.7539 20.9529 28.4517 20.5799 28.4517C20.207 28.4517 19.9048 28.7539 19.9048 29.1268V37.6249H13.8177C13.4448 37.6249 13.1426 37.9271 13.1426 38.3C13.1426 38.6729 13.4448 38.9752 13.8177 38.9752H30.3924C30.7654 38.9752 31.0676 38.6729 31.0676 38.3V36.6586C31.0675 36.2859 30.7653 35.9835 30.3923 35.9835Z" fill="#EBEBEB"/>
<path d="M28.3382 24.9587C28.0195 24.7653 27.6042 24.8667 27.4106 25.1855C27.2172 25.5042 27.3186 25.9196 27.6374 26.113C28.9397 26.9037 29.7172 28.2831 29.7172 29.8029V34.4082C29.7172 34.7811 30.0193 35.0834 30.3923 35.0834C30.7653 35.0834 31.0675 34.7811 31.0675 34.4082V29.8029C31.0673 27.8072 30.047 25.9962 28.3382 24.9587Z" fill="#EBEBEB"/>
<path d="M21.6148 13.7878C21.2418 13.7878 20.9396 14.0901 20.9396 14.463V17.6588C20.9396 17.8574 20.7781 18.0189 20.5795 18.0189C20.3809 18.0189 20.2195 17.8574 20.2195 17.6588V14.463C20.2195 14.0901 19.9173 13.7878 19.5443 13.7878C19.1713 13.7878 18.8691 14.0901 18.8691 14.463V17.6588C18.8691 18.6018 19.6365 19.3692 20.5795 19.3692C21.5227 19.3692 22.2899 18.6019 22.2899 17.6588V14.463C22.2899 14.0901 21.9877 13.7878 21.6148 13.7878Z" fill="#EBEBEB"/>
<path d="M10.7313 34.1531H7.86727V6.68126C7.86727 6.30837 7.56508 6.0061 7.19211 6.0061H5.15164C4.77867 6.0061 4.47648 6.30837 4.47648 6.68126V10.5222C4.47648 10.8951 4.77867 11.1974 5.15164 11.1974C5.52461 11.1974 5.8268 10.8951 5.8268 10.5222V7.35649H6.51688V34.1532H5.8268V12.7728C5.8268 12.3999 5.52461 12.0977 5.15164 12.0977C4.77867 12.0977 4.47648 12.3999 4.47648 12.7728V34.1532H1.61234C0.723281 34.1532 0 34.8764 0 35.7655V38.3002C0 38.6731 0.302188 38.9753 0.675156 38.9753C1.04813 38.9753 1.35031 38.6731 1.35031 38.3002V35.7655C1.35031 35.621 1.46789 35.5035 1.61227 35.5035H5.15156H7.19203H10.7312C10.8756 35.5035 10.9932 35.621 10.9932 35.7655V38.3002C10.9932 38.6731 11.2954 38.9753 11.6684 38.9753C12.0413 38.9753 12.3435 38.6731 12.3435 38.3002V35.7655C12.3436 34.8764 11.6204 34.1531 10.7313 34.1531Z" fill="#9BE7EB"/>
<path d="M2.69093 36.2537C2.31797 36.2537 2.01578 36.5559 2.01578 36.9288V38.3001C2.01578 38.673 2.31797 38.9753 2.69093 38.9753C3.0639 38.9753 3.36609 38.673 3.36609 38.3001V36.9288C3.36609 36.556 3.06382 36.2537 2.69093 36.2537Z" fill="#9BE7EB"/>
<path d="M9.65367 36.2534C9.2807 36.2534 8.97852 36.5557 8.97852 36.9286V38.2999C8.97852 38.6728 9.2807 38.9751 9.65367 38.9751C10.0266 38.9751 10.3288 38.6728 10.3288 38.2999V36.9286C10.3289 36.5558 10.0266 36.2534 9.65367 36.2534Z" fill="#EBEBEB"/>
<path d="M5.01109 36.2534C4.63813 36.2534 4.33594 36.5557 4.33594 36.9286V38.2999C4.33594 38.6728 4.63813 38.9751 5.01109 38.9751C5.38406 38.9751 5.68625 38.6728 5.68625 38.2999V36.9286C5.68625 36.5558 5.38406 36.2534 5.01109 36.2534Z" fill="#9BE7EB"/>
<path d="M7.33141 36.2534C6.95844 36.2534 6.65625 36.5557 6.65625 36.9286V38.2999C6.65625 38.6728 6.95844 38.9751 7.33141 38.9751C7.70437 38.9751 8.00656 38.6728 8.00656 38.2999V36.9286C8.00664 36.5558 7.70437 36.2534 7.33141 36.2534Z" fill="#9BE7EB"/>
<path d="M33.8626 20.2896C32.6299 20.2896 31.627 21.2924 31.627 22.5251C31.627 23.7578 32.6299 24.7606 33.8626 24.7606C35.0952 24.7606 36.0981 23.7579 36.0981 22.5252C36.0981 21.2924 35.0952 20.2896 33.8626 20.2896ZM33.8626 23.4104C33.3744 23.4104 32.9773 23.0133 32.9773 22.5253C32.9773 22.0371 33.3744 21.64 33.8626 21.64C34.3507 21.64 34.7477 22.0371 34.7477 22.5253C34.7478 23.0133 34.3507 23.4104 33.8626 23.4104Z" fill="#EBEBEB"/>
<path d="M36.8338 11.9475C35.0881 11.9475 33.668 13.3677 33.668 15.1134C33.668 16.8591 35.088 18.2792 36.8338 18.2792C38.5795 18.2792 39.9995 16.8591 39.9995 15.1134C39.9995 13.3677 38.5795 11.9475 36.8338 11.9475ZM36.8338 16.9288C35.8328 16.9288 35.0184 16.1143 35.0184 15.1133C35.0184 14.1123 35.8328 13.2978 36.8338 13.2978C37.8348 13.2978 38.6492 14.1123 38.6492 15.1133C38.6492 16.1143 37.8348 16.9288 36.8338 16.9288Z" fill="#EBEBEB"/>
<path d="M2.17555 1.02466C0.975938 1.02466 0 2.00052 0 3.20021C0 4.39989 0.975938 5.37575 2.17555 5.37575C3.37508 5.37575 4.35102 4.39981 4.35102 3.20021C4.35102 2.0006 3.37516 1.02466 2.17555 1.02466ZM2.17555 4.02544C1.72047 4.02544 1.35031 3.65528 1.35031 3.20021C1.35031 2.74513 1.72047 2.37497 2.17555 2.37497C2.63055 2.37497 3.0007 2.74513 3.0007 3.20021C3.0007 3.65521 2.63055 4.02544 2.17555 4.02544Z" fill="#EBEBEB"/>
<path d="M28.0905 30.9102H23.3646C22.9917 30.9102 22.6895 31.2124 22.6895 31.5853V34.0159C22.6895 34.3887 22.9916 34.691 23.3646 34.691H28.0905C28.4635 34.691 28.7657 34.3887 28.7657 34.0159V31.5853C28.7657 31.2124 28.4635 30.9102 28.0905 30.9102ZM27.4154 33.3407H24.0398V32.2605H27.4154V33.3407Z" fill="#A2ECDF"/>
<path d="M33.2206 10.5444C33.2206 10.1715 32.9184 9.86924 32.5455 9.86924H30.0407C29.6951 7.72916 28.6397 5.77096 27.0242 4.30416C25.2565 2.699 22.9678 1.81494 20.5801 1.81494C18.1923 1.81494 15.9036 2.69893 14.1358 4.30416C12.3679 5.90932 11.268 8.10229 11.0383 10.4791L10.8822 12.0941C9.49406 12.2458 8.41016 13.4248 8.41016 14.8525C8.41031 16.1016 9.22961 17.1596 10.3709 17.5072C10.2643 19.9987 11.4202 22.416 13.4496 23.8904L17.1449 26.5753C18.1723 27.3217 19.3759 27.6949 20.5801 27.6949C21.7837 27.6948 22.988 27.3215 24.0152 26.5753L27.7105 23.8904C29.7401 22.4158 30.896 19.9985 30.7892 17.5069C31.9305 17.1591 32.7495 16.1013 32.7495 14.8525C32.7495 13.425 31.6658 12.2463 30.2777 12.0942L30.1931 11.2196H32.5453C32.9184 11.2196 33.2206 10.9172 33.2206 10.5444ZM10.4952 16.0999C10.0558 15.8569 9.76063 15.3895 9.76063 14.8525C9.76063 14.22 10.1752 13.6831 10.7466 13.4974L10.4952 16.0999ZM15.0435 5.30377C16.5623 3.92471 18.5286 3.16518 20.5801 3.16518C22.6315 3.16518 24.5978 3.92471 26.1166 5.30377C27.4501 6.51455 28.3409 8.11479 28.672 9.86916H24.0759V8.38971C24.0759 7.43932 23.3027 6.66611 22.3523 6.66611H18.8077C17.8573 6.66611 17.0841 7.43932 17.0841 8.38971V9.86916H12.488C12.8193 8.11471 13.7102 6.51463 15.0435 5.30377ZM22.7256 8.38979V9.86877H18.4345V8.38979C18.4345 8.184 18.602 8.01658 18.8077 8.01658H22.3523C22.5582 8.0165 22.7256 8.184 22.7256 8.38979ZM26.917 22.798L23.2216 25.4828C21.6416 26.6307 19.5186 26.6308 17.9386 25.4828L14.2433 22.798C12.4919 21.5255 11.5333 19.3965 11.7414 17.2416L12.3234 11.2196H28.8369L29.4189 17.2416C29.627 19.3963 28.6684 21.5255 26.917 22.798ZM31.3994 14.8525C31.3994 15.3892 31.1044 15.8564 30.665 16.0996L30.4136 13.4978C30.9849 13.6835 31.3994 14.2203 31.3994 14.8525Z" fill="#EBEBEB"/>
<path d="M37.0443 20.9194C37.4172 20.9194 37.7195 20.6171 37.7195 20.2442C37.7195 19.8714 37.4172 19.5691 37.0443 19.5691C36.6714 19.5691 36.3691 19.8714 36.3691 20.2442C36.3691 20.6171 36.6714 20.9194 37.0443 20.9194Z" fill="#EBEBEB"/>
<path d="M17.9603 30.883C18.3332 30.883 18.6355 30.5807 18.6355 30.2079C18.6355 29.835 18.3332 29.5327 17.9603 29.5327C17.5874 29.5327 17.2852 29.835 17.2852 30.2079C17.2852 30.5807 17.5874 30.883 17.9603 30.883Z" fill="#A2ECDF"/>
<path d="M17.9603 33.5749C18.3332 33.5749 18.6355 33.2726 18.6355 32.8998C18.6355 32.5269 18.3332 32.2246 17.9603 32.2246C17.5874 32.2246 17.2852 32.5269 17.2852 32.8998C17.2852 33.2726 17.5874 33.5749 17.9603 33.5749Z" fill="#A2ECDF"/>
<path d="M17.9603 36.2683C18.3332 36.2683 18.6355 35.966 18.6355 35.5931C18.6355 35.2202 18.3332 34.918 17.9603 34.918C17.5874 34.918 17.2852 35.2202 17.2852 35.5931C17.2852 35.966 17.5874 36.2683 17.9603 36.2683Z" fill="#A2ECDF"/>
<path d="M2.39195 9.69724C2.76483 9.69724 3.06711 9.39496 3.06711 9.02208C3.06711 8.6492 2.76483 8.34692 2.39195 8.34692C2.01907 8.34692 1.7168 8.6492 1.7168 9.02208C1.7168 9.39496 2.01907 9.69724 2.39195 9.69724Z" fill="#EBEBEB"/>
</svg>
