<svg width="15" height="16" viewBox="0 0 15 16" fill="none" xmlns="http://www.w3.org/2000/svg">
<path d="M7.5 14.7188C3.79375 14.7188 0.78125 11.7063 0.78125 8C0.78125 4.29375 3.79375 1.28125 7.5 1.28125C11.2063 1.28125 14.2188 4.29375 14.2188 8C14.2188 11.7063 11.2063 14.7188 7.5 14.7188ZM7.5 2.21875C4.3125 2.21875 1.71875 4.8125 1.71875 8C1.71875 11.1875 4.3125 13.7812 7.5 13.7812C10.6875 13.7812 13.2812 11.1875 13.2812 8C13.2812 4.8125 10.6875 2.21875 7.5 2.21875Z" fill="#969696"/>
<path d="M9.81914 10.4563C9.73789 10.4563 9.65664 10.4375 9.58164 10.3875L7.64414 9.23126C7.16289 8.94376 6.80664 8.31251 6.80664 7.75626V5.19376C6.80664 4.93751 7.01914 4.72501 7.27539 4.72501C7.53164 4.72501 7.74414 4.93751 7.74414 5.19376V7.75626C7.74414 7.98126 7.93164 8.31251 8.12539 8.42501L10.0629 9.58126C10.2879 9.71251 10.3566 10 10.2254 10.225C10.1316 10.375 9.97539 10.4563 9.81914 10.4563Z" fill="#969696"/>
</svg>
