<svg width="15" height="15" viewBox="0 0 15 15" fill="none" xmlns="http://www.w3.org/2000/svg">
<path d="M7.5 14.2188H5.625C2.23125 14.2188 0.78125 12.7688 0.78125 9.375V5.625C0.78125 2.23125 2.23125 0.78125 5.625 0.78125H9.375C12.7688 0.78125 14.2188 2.23125 14.2188 5.625V7.5C14.2188 7.75625 14.0063 7.96875 13.75 7.96875C13.4937 7.96875 13.2812 7.75625 13.2812 7.5V5.625C13.2812 2.74375 12.2563 1.71875 9.375 1.71875H5.625C2.74375 1.71875 1.71875 2.74375 1.71875 5.625V9.375C1.71875 12.2563 2.74375 13.2812 5.625 13.2812H7.5C7.75625 13.2812 7.96875 13.4937 7.96875 13.75C7.96875 14.0063 7.75625 14.2188 7.5 14.2188Z" fill="#969696"/>
<path d="M10.2313 14.2313C10.225 14.2313 10.225 14.2313 10.2188 14.2313C9.58751 14.225 9.06251 13.8375 8.87501 13.2313L7.71876 9.51251C7.56251 9.00001 7.69376 8.45001 8.07501 8.08126C8.45001 7.71251 8.99376 7.57501 9.49376 7.73126L13.2188 8.88751C13.8188 9.07501 14.2125 9.60001 14.2188 10.2313C14.225 10.8563 13.8438 11.3875 13.2438 11.5875L12.225 11.9313C12.0813 11.9813 11.9688 12.0875 11.925 12.2313L11.575 13.2563C11.3813 13.85 10.8563 14.2313 10.2313 14.2313ZM9.06876 8.60625C8.90001 8.60625 8.78751 8.7 8.73751 8.74375C8.60626 8.875 8.56251 9.05626 8.61876 9.23751L9.77501 12.9563C9.87501 13.275 10.1375 13.2875 10.2375 13.2938C10.325 13.2938 10.5938 13.2688 10.6938 12.9625L11.0438 11.9375C11.1813 11.5188 11.5188 11.1875 11.9375 11.0438L12.9563 10.7C13.2688 10.6 13.2875 10.325 13.2875 10.2438C13.2875 10.1625 13.2625 9.88751 12.95 9.78751L9.22501 8.63126C9.16251 8.61251 9.11251 8.60625 9.06876 8.60625Z" fill="#969696"/>
</svg>
