<svg width="15" height="15" viewBox="0 0 15 15" fill="none" xmlns="http://www.w3.org/2000/svg">
<path d="M7.5 14.2188C3.79375 14.2188 0.78125 11.2063 0.78125 7.5C0.78125 3.79375 3.79375 0.78125 7.5 0.78125C11.2063 0.78125 14.2188 3.79375 14.2188 7.5C14.2188 11.2063 11.2063 14.2188 7.5 14.2188ZM7.5 1.71875C4.3125 1.71875 1.71875 4.3125 1.71875 7.5C1.71875 10.6875 4.3125 13.2812 7.5 13.2812C10.6875 13.2812 13.2812 10.6875 13.2812 7.5C13.2812 4.3125 10.6875 1.71875 7.5 1.71875Z" fill="#969696"/>
<path d="M7.5 8.59375C7.24375 8.59375 7.03125 8.38125 7.03125 8.125V5C7.03125 4.74375 7.24375 4.53125 7.5 4.53125C7.75625 4.53125 7.96875 4.74375 7.96875 5V8.125C7.96875 8.38125 7.75625 8.59375 7.5 8.59375Z" fill="#969696"/>
<path d="M7.5 10.625C7.41875 10.625 7.3375 10.6062 7.2625 10.575C7.1875 10.5437 7.11875 10.5 7.05625 10.4437C7 10.3812 6.95625 10.3187 6.925 10.2375C6.89375 10.1625 6.875 10.0812 6.875 9.99999C6.875 9.91874 6.89375 9.83749 6.925 9.76249C6.95625 9.68749 7 9.61874 7.05625 9.55624C7.11875 9.49999 7.1875 9.45624 7.2625 9.42499C7.4125 9.36249 7.5875 9.36249 7.7375 9.42499C7.8125 9.45624 7.88125 9.49999 7.94375 9.55624C8 9.61874 8.04375 9.68749 8.075 9.76249C8.10625 9.83749 8.125 9.91874 8.125 9.99999C8.125 10.0812 8.10625 10.1625 8.075 10.2375C8.04375 10.3187 8 10.3812 7.94375 10.4437C7.88125 10.5 7.8125 10.5437 7.7375 10.575C7.6625 10.6062 7.58125 10.625 7.5 10.625Z" fill="#969696"/>
</svg>
