<svg width="15" height="15" viewBox="0 0 15 15" fill="none" xmlns="http://www.w3.org/2000/svg">
<path d="M1.25021 14.2188C1.12521 14.2188 1.00644 14.1687 0.91894 14.0812C0.80019 13.9625 0.750221 13.7875 0.793971 13.625L1.58148 10.6812C1.05648 9.70625 0.781458 8.60624 0.781458 7.49374C0.781458 3.78749 3.79396 0.774994 7.50021 0.774994C11.2065 0.774994 14.219 3.78749 14.219 7.49374C14.219 11.2 11.2065 14.2125 7.50021 14.2125C6.36896 14.2125 5.26273 13.9312 4.27523 13.3937L1.37522 14.2C1.33147 14.2125 1.29396 14.2188 1.25021 14.2188ZM4.33771 12.425C4.41896 12.425 4.50021 12.45 4.57521 12.4875C5.45646 13.0063 6.46896 13.2812 7.50021 13.2812C10.6877 13.2812 13.2815 10.6875 13.2815 7.5C13.2815 4.3125 10.6877 1.71875 7.50021 1.71875C4.31271 1.71875 1.71896 4.3125 1.71896 7.5C1.71896 8.51875 1.9877 9.5125 2.49395 10.3875C2.55645 10.4937 2.57521 10.625 2.54396 10.7438L1.91896 13.0812L4.21896 12.4438C4.25646 12.4313 4.30021 12.425 4.33771 12.425Z" fill="#969696"/>
<path d="M9.21289 11.1C8.82539 11.1 8.4254 11.0125 8.00665 10.8313C7.6129 10.6625 7.21915 10.4375 6.8379 10.1563C6.4629 9.88126 6.09416 9.56875 5.75666 9.23125C5.41916 8.8875 5.10663 8.52502 4.83163 8.15002C4.55038 7.75627 4.32538 7.36876 4.16288 6.98751C3.98788 6.57501 3.90039 6.16876 3.90039 5.78126C3.90039 5.50626 3.95038 5.24376 4.04413 5.00001C4.14413 4.74376 4.30663 4.51251 4.51913 4.31251C4.91913 3.91876 5.49416 3.77502 5.95041 3.99377C6.10666 4.06252 6.23791 4.17502 6.33791 4.32502L7.06289 5.34375C7.13789 5.44375 7.19416 5.55 7.23791 5.65625C7.28791 5.78125 7.31916 5.90627 7.31916 6.02502C7.31916 6.18752 7.2754 6.35002 7.1879 6.49377C7.13165 6.58752 7.05039 6.70002 6.94414 6.80627L6.86288 6.89376C6.90038 6.94376 6.94413 7.00625 7.01288 7.08125C7.14413 7.23125 7.28788 7.39375 7.44413 7.55C7.60038 7.7 7.75663 7.85 7.91288 7.98125C7.98788 8.04375 8.05041 8.09376 8.10041 8.12501L8.18788 8.0375C8.30038 7.925 8.41291 7.83752 8.52541 7.78127C8.73166 7.65002 9.05039 7.61876 9.33164 7.73751C9.43164 7.77501 9.53164 7.83126 9.63789 7.90626L10.6817 8.64375C10.8254 8.74375 10.9379 8.88126 11.0129 9.03751C11.0754 9.19376 11.1004 9.33126 11.1004 9.47501C11.1004 9.66251 11.0566 9.84376 10.9754 10.0188C10.8941 10.1813 10.8004 10.325 10.6879 10.4563C10.4879 10.675 10.2567 10.8375 10.0067 10.9438C9.75665 11.05 9.48789 11.1 9.21289 11.1ZM5.49413 4.8375C5.45663 4.8375 5.33167 4.8375 5.17542 4.99375C5.05667 5.10625 4.97539 5.22502 4.91914 5.35627C4.86289 5.48752 4.83789 5.63752 4.83789 5.78752C4.83789 6.05002 4.90038 6.33125 5.02538 6.63125C5.15663 6.94375 5.3504 7.27502 5.5879 7.60627C5.83165 7.93752 6.10665 8.26876 6.4129 8.57501C6.71915 8.87501 7.04415 9.15625 7.38165 9.40625C7.70665 9.64375 8.03791 9.83126 8.36916 9.97501C8.84416 10.1813 9.28164 10.2313 9.63789 10.0813C9.76289 10.0313 9.87538 9.94377 9.98788 9.83127C10.0441 9.76877 10.0879 9.70626 10.1254 9.62501C10.1442 9.58126 10.1566 9.53126 10.1566 9.48751C10.1566 9.47501 10.1566 9.45627 10.1379 9.41877L9.09414 8.69376C9.05039 8.66251 9.00663 8.6375 8.96913 8.625C8.94413 8.6375 8.90666 8.65626 8.83791 8.72501L8.6004 8.96251C8.41915 9.14376 8.13166 9.19375 7.90041 9.1125L7.78791 9.06251C7.64416 8.98751 7.48164 8.87502 7.30039 8.71877C7.12539 8.56877 6.95666 8.41251 6.77541 8.23751C6.60041 8.05626 6.44415 7.88751 6.29415 7.71251C6.13165 7.51876 6.01915 7.36252 5.94415 7.23127L5.87541 7.06876C5.85666 7.00626 5.85039 6.93751 5.85039 6.87501C5.85039 6.70001 5.91291 6.54375 6.03166 6.41875L6.26917 6.17501C6.33791 6.10626 6.3629 6.06877 6.3754 6.04377C6.35665 6.00002 6.33166 5.96251 6.30041 5.91876L5.56913 4.88752L5.49413 4.8375Z" fill="#969696"/>
</svg>
