<svg width="17" height="18" viewBox="0 0 17 18" fill="none" xmlns="http://www.w3.org/2000/svg">
<path fill-rule="evenodd" clip-rule="evenodd" d="M11 0.0416873H7.61965C6.08819 0.0416742 4.87516 0.0416639 3.92582 0.1693C2.9488 0.300657 2.15801 0.577421 1.53437 1.20106C0.910734 1.82469 0.63397 2.61548 0.502613 3.5925C0.374977 4.54185 0.374987 5.75487 0.375 7.28633V12.3334C0.375 13.8936 1.51838 15.1867 3.01293 15.4206C3.1279 16.0573 3.34794 16.6007 3.79029 17.0431C4.29189 17.5447 4.92345 17.7604 5.67354 17.8613C6.39602 17.9584 7.31462 17.9584 8.45428 17.9584H11.0457C12.1854 17.9584 13.104 17.9584 13.8265 17.8613C14.5766 17.7604 15.2081 17.5447 15.7097 17.0431C16.2113 16.5415 16.4271 15.9099 16.5279 15.1598C16.625 14.4373 16.625 13.5187 16.625 12.3791V8.12096C16.625 6.9813 16.625 6.0627 16.5279 5.34023C16.4271 4.59014 16.2113 3.95858 15.7097 3.45698C15.2674 3.01463 14.7239 2.79459 14.0873 2.67962C13.8534 1.18506 12.5602 0.0416873 11 0.0416873ZM12.7744 2.55933C12.5221 1.82188 11.823 1.29169 11 1.29169H7.66667C6.07765 1.29169 4.94876 1.29302 4.09238 1.40815C3.25397 1.52087 2.77093 1.73227 2.41825 2.08494C2.06558 2.43761 1.85419 2.92065 1.74147 3.75906C1.62633 4.61545 1.625 5.74434 1.625 7.33335V12.3334C1.625 13.1563 2.1552 13.8554 2.89264 14.1078C2.87498 13.5995 2.87499 13.0248 2.875 12.3791V8.12096C2.87498 6.9813 2.87497 6.0627 2.9721 5.34023C3.07295 4.59014 3.2887 3.95858 3.79029 3.45698C4.29189 2.95538 4.92345 2.73964 5.67354 2.63879C6.39601 2.54166 7.31461 2.54167 8.45427 2.54169H11.0457C11.6914 2.54168 12.2661 2.54167 12.7744 2.55933ZM4.67418 4.34086C4.90481 4.11023 5.22862 3.95986 5.8401 3.87764C6.46956 3.79302 7.30382 3.79169 8.5 3.79169H11C12.1962 3.79169 13.0304 3.79302 13.6599 3.87764C14.2714 3.95986 14.5952 4.11023 14.8258 4.34086C15.0565 4.5715 15.2068 4.89531 15.289 5.50679C15.3737 6.13625 15.375 6.97051 15.375 8.16669V12.3334C15.375 13.5295 15.3737 14.3638 15.289 14.9933C15.2068 15.6047 15.0565 15.9285 14.8258 16.1592C14.5952 16.3898 14.2714 16.5402 13.6599 16.6224C13.0304 16.707 12.1962 16.7084 11 16.7084H8.5C7.30382 16.7084 6.46956 16.707 5.8401 16.6224C5.22862 16.5402 4.90481 16.3898 4.67418 16.1592C4.44354 15.9285 4.29317 15.6047 4.21096 14.9933C4.12633 14.3638 4.125 13.5295 4.125 12.3334V8.16669C4.125 6.97051 4.12633 6.13625 4.21096 5.50679C4.29317 4.89531 4.44354 4.5715 4.67418 4.34086Z" fill="#0D1217"/>
</svg>
