<svg width="15" height="15" viewBox="0 0 15 15" fill="none" xmlns="http://www.w3.org/2000/svg">
<path d="M10.625 13.15H4.375C2.39375 13.15 0.78125 11.5375 0.78125 9.55625V3.56875C0.78125 2.75625 1.15625 2.475 1.38125 2.38125C1.60625 2.2875 2.06875 2.21875 2.64375 2.79375L4.2625 4.4125C4.325 4.475 4.425 4.475 4.48125 4.4125L6.725 2.16875C7.1375 1.75625 7.8625 1.75625 8.26875 2.16875L10.5125 4.4125C10.575 4.475 10.675 4.475 10.7312 4.4125L12.35 2.79375C12.925 2.21875 13.3875 2.29375 13.6125 2.38125C13.8375 2.475 14.2125 2.75 14.2125 3.56875V9.5625C14.2188 11.7063 12.775 13.15 10.625 13.15ZM1.75625 3.275C1.7375 3.325 1.71875 3.41875 1.71875 3.56875V9.5625C1.71875 11.025 2.9125 12.2187 4.375 12.2187H10.625C12.2375 12.2187 13.2812 11.175 13.2812 9.5625V3.56875C13.2812 3.41875 13.2625 3.33125 13.2438 3.28125C13.1938 3.30625 13.1187 3.35625 13.0125 3.4625L11.3937 5.08125C10.9812 5.49375 10.2563 5.49375 9.85 5.08125L7.60625 2.8375C7.54375 2.775 7.44375 2.775 7.3875 2.8375L5.15 5.075C4.7375 5.4875 4.0125 5.4875 3.60625 5.075L1.9875 3.45625C1.88125 3.35 1.8 3.3 1.75625 3.275Z" fill="#969696"/>
</svg>
