<svg width="177" height="168" viewBox="0 0 177 168" fill="none" xmlns="http://www.w3.org/2000/svg">
<path d="M20.27 81.5154C20.4017 84.3555 20.2247 87.2842 20.4985 90.1089" stroke="#0CC4CD" stroke-width="2.3662" stroke-miterlimit="1.5" stroke-linecap="round" stroke-linejoin="round"/>
<path d="M12.5781 93.0021C14.0274 92.8983 15.8259 92.3228 17.2686 92.486" stroke="#0CC4CD" stroke-width="2.3662" stroke-miterlimit="1.5" stroke-linecap="round" stroke-linejoin="round"/>
<path d="M22.9111 91.9348C24.6411 92.1416 26.377 91.8668 28.1141 92.0653" stroke="#0CC4CD" stroke-width="2.3662" stroke-miterlimit="1.5" stroke-linecap="round" stroke-linejoin="round"/>
<path d="M20.3832 94.8513C20.3243 96.9963 20.3322 99.1415 20.3316 101.287" stroke="#0CC4CD" stroke-width="2.3662" stroke-miterlimit="1.5" stroke-linecap="round" stroke-linejoin="round"/>
<path d="M16.5299 108.051C15.561 108.069 15.169 109.58 16.2807 109.773C16.7812 109.86 17.5768 109.074 17.1508 108.617" stroke="#0CC4CD" stroke-width="2.3662" stroke-miterlimit="1.5" stroke-linecap="round" stroke-linejoin="round"/>
<path d="M26.7741 101.619C26.6201 103.306 26.7544 104.979 26.788 106.668" stroke="#0CC4CD" stroke-width="2.3662" stroke-miterlimit="1.5" stroke-linecap="round" stroke-linejoin="round"/>
<path d="M23.0322 109.144C23.5945 109.073 24.1758 108.969 24.7439 108.974" stroke="#0CC4CD" stroke-width="2.3662" stroke-miterlimit="1.5" stroke-linecap="round" stroke-linejoin="round"/>
<path d="M29.0562 108.798C29.8108 108.823 30.5458 108.73 31.2977 108.69" stroke="#0CC4CD" stroke-width="2.3662" stroke-miterlimit="1.5" stroke-linecap="round" stroke-linejoin="round"/>
<path d="M27.0395 111.17C26.9558 113.003 26.9743 114.839 26.9731 116.673" stroke="#0CC4CD" stroke-width="2.3662" stroke-miterlimit="1.5" stroke-linecap="round" stroke-linejoin="round"/>
<path d="M32.7932 93.8823C31.5334 94.1847 31.3037 95.8973 32.8128 95.9255C33.3368 95.9353 34.4434 94.8981 33.6578 94.5444" stroke="#0CC4CD" stroke-width="2.3662" stroke-miterlimit="1.5" stroke-linecap="round" stroke-linejoin="round"/>
<path d="M33.6661 86.3144C31.72 85.6506 29.2554 88.548 31.5175 89.6851C33.9522 90.909 36.843 87.8871 34.2753 86.2511" stroke="#0CC4CD" stroke-width="2.3662" stroke-miterlimit="1.5" stroke-linecap="round" stroke-linejoin="round"/>
<path d="M160.581 78.7549C160.656 80.3678 160.555 82.031 160.711 83.6352" stroke="#1CD1B2" stroke-width="0.591549" stroke-miterlimit="1.5" stroke-linecap="round" stroke-linejoin="round"/>
<path d="M156.213 85.2783C157.036 85.2193 158.058 84.8925 158.877 84.9852" stroke="#1CD1B2" stroke-width="0.591549" stroke-miterlimit="1.5" stroke-linecap="round" stroke-linejoin="round"/>
<path d="M162.082 84.6721C163.064 84.7895 164.05 84.6335 165.036 84.7462" stroke="#1CD1B2" stroke-width="0.591549" stroke-miterlimit="1.5" stroke-linecap="round" stroke-linejoin="round"/>
<path d="M160.646 86.3284C160.613 87.5465 160.617 88.7648 160.617 89.9833" stroke="#1CD1B2" stroke-width="0.591549" stroke-miterlimit="1.5" stroke-linecap="round" stroke-linejoin="round"/>
<path d="M158.458 93.8247C157.908 93.835 157.685 94.6928 158.317 94.8023C158.601 94.8517 159.053 94.4055 158.811 94.1458" stroke="#1CD1B2" stroke-width="0.591549" stroke-miterlimit="1.5" stroke-linecap="round" stroke-linejoin="round"/>
<path d="M164.276 90.1719C164.189 91.1298 164.265 92.0801 164.284 93.0389" stroke="#1CD1B2" stroke-width="0.591549" stroke-miterlimit="1.5" stroke-linecap="round" stroke-linejoin="round"/>
<path d="M162.15 94.4452C162.47 94.4051 162.8 94.3461 163.122 94.3487" stroke="#1CD1B2" stroke-width="0.591549" stroke-miterlimit="1.5" stroke-linecap="round" stroke-linejoin="round"/>
<path d="M165.572 94.2485C166 94.2625 166.418 94.2102 166.845 94.1875" stroke="#1CD1B2" stroke-width="0.591549" stroke-miterlimit="1.5" stroke-linecap="round" stroke-linejoin="round"/>
<path d="M164.426 95.5959C164.378 96.6366 164.389 97.6795 164.388 98.7212" stroke="#1CD1B2" stroke-width="0.591549" stroke-miterlimit="1.5" stroke-linecap="round" stroke-linejoin="round"/>
<path d="M167.693 85.7781C166.978 85.9498 166.847 86.9224 167.704 86.9384C168.002 86.944 168.631 86.355 168.184 86.1541" stroke="#1CD1B2" stroke-width="0.591549" stroke-miterlimit="1.5" stroke-linecap="round" stroke-linejoin="round"/>
<path d="M168.189 81.4805C167.084 81.1035 165.684 82.749 166.969 83.3947C168.351 84.0898 169.993 82.3736 168.535 81.4445" stroke="#1CD1B2" stroke-width="0.591549" stroke-miterlimit="1.5" stroke-linecap="round" stroke-linejoin="round"/>
<path fill-rule="evenodd" clip-rule="evenodd" d="M147.963 5.02954C147.973 7.88418 147.002 13.0479 154.47 14.2959C149.834 14.9651 148.063 18.5484 147.964 23.1447C147.85 19.6753 148.326 15.6691 140.72 14.571C148.02 13.9939 147.919 7.96317 147.963 5.02954Z" fill="white" stroke="#0CC4CD" stroke-width="2.3662" stroke-miterlimit="1.5" stroke-linecap="round" stroke-linejoin="round"/>
<path fill-rule="evenodd" clip-rule="evenodd" d="M155.211 18.9558C155.221 21.8104 153.276 27.1107 160.745 28.3588C156.109 29.028 155.311 32.4746 155.211 37.0709C155.098 33.6014 154.865 29.5648 149.59 28.4069C154.703 27.7967 154.617 22.8514 155.211 18.9558Z" fill="white" stroke="#0CC4CD" stroke-width="2.3662" stroke-miterlimit="1.5" stroke-linecap="round" stroke-linejoin="round"/>
<path d="M140.041 4.19995C141.246 5.59449 142.202 7.21212 143.439 8.57654" stroke="#0CC4CD" stroke-width="2.3662" stroke-miterlimit="1.5" stroke-linecap="round" stroke-linejoin="round"/>
<path d="M151.74 9.60854C152.643 8.86491 153.496 8.01822 154.227 7.10425" stroke="#0CC4CD" stroke-width="2.3662" stroke-miterlimit="1.5" stroke-linecap="round" stroke-linejoin="round"/>
<path d="M143.748 19.2158C142.535 20.34 141.409 21.5916 140.312 22.8292" stroke="#0CC4CD" stroke-width="2.3662" stroke-miterlimit="1.5" stroke-linecap="round" stroke-linejoin="round"/>
<path d="M151.29 21.7937C151.422 21.9962 151.582 22.1807 151.726 22.3749" stroke="#0CC4CD" stroke-width="2.3662" stroke-miterlimit="1.5" stroke-linecap="round" stroke-linejoin="round"/>
<path d="M149.787 33.342C150.076 33.0545 150.375 32.7776 150.659 32.4856" stroke="#0CC4CD" stroke-width="2.3662" stroke-miterlimit="1.5" stroke-linecap="round" stroke-linejoin="round"/>
<path d="M158.277 23.9908C159.554 22.835 160.665 21.5652 161.74 20.2229" stroke="#0CC4CD" stroke-width="2.3662" stroke-miterlimit="1.5" stroke-linecap="round" stroke-linejoin="round"/>
<path d="M158.588 33.4419C160.094 34.3787 161.142 36.3077 162.184 37.7169" stroke="#0CC4CD" stroke-width="2.3662" stroke-miterlimit="1.5" stroke-linecap="round" stroke-linejoin="round"/>
<path fill-rule="evenodd" clip-rule="evenodd" d="M59.5692 140.452C59.5746 141.94 59.0686 144.631 62.9605 145.281C60.5446 145.63 59.6213 147.497 59.5696 149.892C59.5104 148.084 59.7584 145.997 55.7949 145.424C59.5989 145.124 59.5462 141.981 59.5692 140.452Z" fill="white" stroke="#1CD1B2" stroke-width="0.591549" stroke-miterlimit="1.5" stroke-linecap="round" stroke-linejoin="round"/>
<path fill-rule="evenodd" clip-rule="evenodd" d="M63.3461 147.709C63.3515 149.197 62.3381 151.959 66.23 152.61C63.814 152.958 63.3982 154.755 63.3465 157.15C63.2873 155.342 63.1661 153.238 60.417 152.635C63.0817 152.317 63.0368 149.74 63.3461 147.709Z" fill="white" stroke="#1CD1B2" stroke-width="0.591549" stroke-miterlimit="1.5" stroke-linecap="round" stroke-linejoin="round"/>
<path d="M55.4409 140.02C56.0691 140.747 56.5672 141.589 57.2118 142.301" stroke="#1CD1B2" stroke-width="0.591549" stroke-miterlimit="1.5" stroke-linecap="round" stroke-linejoin="round"/>
<path d="M61.5376 142.838C62.0078 142.451 62.4524 142.009 62.8335 141.533" stroke="#1CD1B2" stroke-width="0.591549" stroke-miterlimit="1.5" stroke-linecap="round" stroke-linejoin="round"/>
<path d="M57.3728 147.845C56.7407 148.431 56.1537 149.083 55.582 149.728" stroke="#1CD1B2" stroke-width="0.591549" stroke-miterlimit="1.5" stroke-linecap="round" stroke-linejoin="round"/>
<path d="M61.3032 149.188C61.3722 149.294 61.4555 149.39 61.5306 149.491" stroke="#1CD1B2" stroke-width="0.591549" stroke-miterlimit="1.5" stroke-linecap="round" stroke-linejoin="round"/>
<path d="M60.52 155.206C60.6704 155.057 60.8261 154.912 60.9742 154.76" stroke="#1CD1B2" stroke-width="0.591549" stroke-miterlimit="1.5" stroke-linecap="round" stroke-linejoin="round"/>
<path d="M64.9438 150.333C65.6094 149.731 66.1883 149.069 66.7487 148.37" stroke="#1CD1B2" stroke-width="0.591549" stroke-miterlimit="1.5" stroke-linecap="round" stroke-linejoin="round"/>
<path d="M65.1064 155.258C65.8911 155.747 66.4372 156.752 66.9801 157.486" stroke="#1CD1B2" stroke-width="0.591549" stroke-miterlimit="1.5" stroke-linecap="round" stroke-linejoin="round"/>
<path d="M146.731 149.07C146.835 147.882 147.381 146.785 148.416 146.084C147.092 145.648 146.833 144.357 146.901 143.155C146.537 144.574 146.088 145.917 144.338 146.046C146.047 146.416 146.592 147.454 146.731 149.07Z" fill="white"/>
<path d="M148.479 146.043C147.403 146.741 146.837 147.858 146.731 149.07C146.592 147.454 146.047 146.416 144.338 146.046C146.088 145.917 146.537 144.574 146.901 143.155C146.832 144.364 147.095 145.663 148.439 146.092" stroke="#0CC4CD" stroke-width="2.3662" stroke-miterlimit="1.5" stroke-linecap="round" stroke-linejoin="round"/>
<path d="M137.831 135.465C137.831 135.66 137.831 135.869 137.831 136.056" stroke="#0CC4CD" stroke-width="2.3662" stroke-miterlimit="1.5" stroke-linecap="round" stroke-linejoin="round"/>
<path d="M139.014 137.239C139.793 139.007 140.686 140.736 141.38 142.563" stroke="#0CC4CD" stroke-width="2.3662" stroke-miterlimit="1.5" stroke-linecap="round" stroke-linejoin="round"/>
<path d="M141.38 131.916C142.432 134.451 143.2 137.103 144.338 139.606" stroke="#0CC4CD" stroke-width="2.3662" stroke-miterlimit="1.5" stroke-linecap="round" stroke-linejoin="round"/>
<path d="M146.705 130.732C146.705 132.31 146.705 133.888 146.705 135.465" stroke="#0CC4CD" stroke-width="2.3662" stroke-miterlimit="1.5" stroke-linecap="round" stroke-linejoin="round"/>
<path d="M152.378 135.893C151.262 137.714 150.149 139.532 149.07 141.38M154.394 132.507C153.915 133.771 153.067 134.77 152.378 135.893" stroke="#0CC4CD" stroke-width="2.3662" stroke-miterlimit="1.5" stroke-linecap="round" stroke-linejoin="round"/>
<path d="M153.211 140.789C154.256 139.91 155.243 138.845 156.169 137.831" stroke="#0CC4CD" stroke-width="2.3662" stroke-miterlimit="1.5" stroke-linecap="round" stroke-linejoin="round"/>
<path d="M156.76 137.239C157.145 136.833 157.558 136.462 157.943 136.056" stroke="#0CC4CD" stroke-width="2.3662" stroke-miterlimit="1.5" stroke-linecap="round" stroke-linejoin="round"/>
<path d="M161.493 141.38C158.913 142.764 155.999 143.996 153.211 144.929" stroke="#0CC4CD" stroke-width="2.3662" stroke-miterlimit="1.5" stroke-linecap="round" stroke-linejoin="round"/>
<path d="M140.789 144.929C138.075 143.455 135.285 142.15 132.507 140.789" stroke="#0CC4CD" stroke-width="2.3662" stroke-miterlimit="1.5" stroke-linecap="round" stroke-linejoin="round"/>
<path d="M140.788 147.296C140.195 147.296 139.604 147.296 139.014 147.296" stroke="#0CC4CD" stroke-width="2.3662" stroke-miterlimit="1.5" stroke-linecap="round" stroke-linejoin="round"/>
<path d="M137.239 147.296C135.667 147.501 134.071 147.462 132.507 147.887" stroke="#0CC4CD" stroke-width="2.3662" stroke-miterlimit="1.5" stroke-linecap="round" stroke-linejoin="round"/>
<path d="M153.211 147.887C153.778 147.887 154.423 147.887 154.986 147.887" stroke="#0CC4CD" stroke-width="2.3662" stroke-miterlimit="1.5" stroke-linecap="round" stroke-linejoin="round"/>
<path d="M156.76 149.07C158.959 149.183 161.099 149.478 163.267 149.662" stroke="#0CC4CD" stroke-width="2.3662" stroke-miterlimit="1.5" stroke-linecap="round" stroke-linejoin="round"/>
<path d="M142.563 149.07C139.672 151.553 136.573 153.666 133.69 156.169" stroke="#0CC4CD" stroke-width="2.3662" stroke-miterlimit="1.5" stroke-linecap="round" stroke-linejoin="round"/>
<path d="M143.155 152.62C141.717 154.438 140.78 156.574 139.605 158.535" stroke="#0CC4CD" stroke-width="2.3662" stroke-miterlimit="1.5" stroke-linecap="round" stroke-linejoin="round"/>
<path d="M142.563 163.268C142.793 161.932 143.255 160.618 143.609 159.317C143.838 158.471 143.97 157.555 144.338 156.76" stroke="#0CC4CD" stroke-width="2.3662" stroke-miterlimit="1.5" stroke-linecap="round" stroke-linejoin="round"/>
<path d="M144.93 154.986C145.364 154.791 145.641 154.586 146.113 154.394" stroke="#0CC4CD" stroke-width="2.3662" stroke-miterlimit="1.5" stroke-linecap="round" stroke-linejoin="round"/>
<path d="M147.887 152.62C148.568 155.543 149.042 158.546 149.662 161.493" stroke="#0CC4CD" stroke-width="2.3662" stroke-miterlimit="1.5" stroke-linecap="round" stroke-linejoin="round"/>
<path d="M151.437 151.437C152.544 152.688 153.923 153.706 154.986 154.986" stroke="#0CC4CD" stroke-width="2.3662" stroke-miterlimit="1.5" stroke-linecap="round" stroke-linejoin="round"/>
<path d="M156.76 156.76C157.302 157.176 157.931 157.569 158.535 157.944" stroke="#0CC4CD" stroke-width="2.3662" stroke-miterlimit="1.5" stroke-linecap="round" stroke-linejoin="round"/>
<path d="M52.0457 27.9821C52.1061 27.2878 52.4242 26.6468 53.0272 26.2376C52.2558 25.9825 52.1049 25.2283 52.1444 24.5259C51.9325 25.3554 51.6712 26.1398 50.6519 26.2153C51.6475 26.4315 51.9645 27.0377 52.0457 27.9821Z" fill="white"/>
<path d="M53.0636 26.2134C52.4369 26.6214 52.1073 27.274 52.0457 27.9821C51.9645 27.0377 51.6475 26.4315 50.6519 26.2153C51.6712 26.1398 51.9325 25.3554 52.1444 24.5259C52.1047 25.2323 52.2575 25.9911 53.0404 26.2419" stroke="#1CD1B2" stroke-width="0.591549" stroke-miterlimit="1.5" stroke-linecap="round" stroke-linejoin="round"/>
<path d="M46.8623 20.033C46.8623 20.1473 46.8623 20.2693 46.8623 20.3786" stroke="#1CD1B2" stroke-width="0.591549" stroke-miterlimit="1.5" stroke-linecap="round" stroke-linejoin="round"/>
<path d="M47.5518 21.0698C48.0058 22.1029 48.5256 23.1132 48.9299 24.1804" stroke="#1CD1B2" stroke-width="0.591549" stroke-miterlimit="1.5" stroke-linecap="round" stroke-linejoin="round"/>
<path d="M48.9292 17.9592C49.5415 19.4405 49.989 20.9901 50.6518 22.4523" stroke="#1CD1B2" stroke-width="0.591549" stroke-miterlimit="1.5" stroke-linecap="round" stroke-linejoin="round"/>
<path d="M52.0303 17.2681C52.0303 18.1899 52.0303 19.1117 52.0303 20.0331" stroke="#1CD1B2" stroke-width="0.591549" stroke-miterlimit="1.5" stroke-linecap="round" stroke-linejoin="round"/>
<path d="M55.3353 20.2833C54.6849 21.3471 54.0372 22.4095 53.4087 23.4893M56.5095 18.3049C56.2304 19.0433 55.7366 19.6272 55.3354 20.2835" stroke="#1CD1B2" stroke-width="0.591549" stroke-miterlimit="1.5" stroke-linecap="round" stroke-linejoin="round"/>
<path d="M55.8198 23.1436C56.4282 22.6303 57.0031 22.0079 57.5425 21.4155" stroke="#1CD1B2" stroke-width="0.591549" stroke-miterlimit="1.5" stroke-linecap="round" stroke-linejoin="round"/>
<path d="M57.8877 21.0697C58.1115 20.8324 58.3526 20.6156 58.5768 20.3784" stroke="#1CD1B2" stroke-width="0.591549" stroke-miterlimit="1.5" stroke-linecap="round" stroke-linejoin="round"/>
<path d="M60.6432 23.4893C59.1403 24.2977 57.4432 25.0175 55.8198 25.563" stroke="#1CD1B2" stroke-width="0.591549" stroke-miterlimit="1.5" stroke-linecap="round" stroke-linejoin="round"/>
<path d="M48.5846 25.5629C47.0043 24.7017 45.3793 23.9387 43.7612 23.1436" stroke="#1CD1B2" stroke-width="0.591549" stroke-miterlimit="1.5" stroke-linecap="round" stroke-linejoin="round"/>
<path d="M48.5853 26.9453C48.2399 26.9453 47.8955 26.9453 47.5518 26.9453" stroke="#1CD1B2" stroke-width="0.591549" stroke-miterlimit="1.5" stroke-linecap="round" stroke-linejoin="round"/>
<path d="M46.5175 26.9456C45.6017 27.0653 44.6725 27.0427 43.7612 27.2912" stroke="#1CD1B2" stroke-width="0.591549" stroke-miterlimit="1.5" stroke-linecap="round" stroke-linejoin="round"/>
<path d="M55.8198 27.291C56.15 27.291 56.5252 27.291 56.8534 27.291" stroke="#1CD1B2" stroke-width="0.591549" stroke-miterlimit="1.5" stroke-linecap="round" stroke-linejoin="round"/>
<path d="M57.8877 27.9822C59.1682 28.0483 60.4147 28.2203 61.6775 28.3278" stroke="#1CD1B2" stroke-width="0.591549" stroke-miterlimit="1.5" stroke-linecap="round" stroke-linejoin="round"/>
<path d="M49.6186 27.9822C47.9349 29.433 46.1296 30.6672 44.4507 32.1297" stroke="#1CD1B2" stroke-width="0.591549" stroke-miterlimit="1.5" stroke-linecap="round" stroke-linejoin="round"/>
<path d="M49.9632 30.0562C49.1256 31.1188 48.5803 32.3666 47.896 33.5124" stroke="#1CD1B2" stroke-width="0.591549" stroke-miterlimit="1.5" stroke-linecap="round" stroke-linejoin="round"/>
<path d="M49.6187 36.2772C49.7523 35.4967 50.0214 34.729 50.2273 33.9688C50.3611 33.4746 50.4376 32.9395 50.6522 32.4753" stroke="#1CD1B2" stroke-width="0.591549" stroke-miterlimit="1.5" stroke-linecap="round" stroke-linejoin="round"/>
<path d="M50.9971 31.4386C51.2502 31.3251 51.4111 31.2049 51.6861 31.093" stroke="#1CD1B2" stroke-width="0.591549" stroke-miterlimit="1.5" stroke-linecap="round" stroke-linejoin="round"/>
<path d="M52.7197 30.0562C53.1162 31.764 53.3922 33.5187 53.7533 35.2405" stroke="#1CD1B2" stroke-width="0.591549" stroke-miterlimit="1.5" stroke-linecap="round" stroke-linejoin="round"/>
<path d="M54.7866 29.3647C55.4315 30.0958 56.2347 30.6905 56.8538 31.4385" stroke="#1CD1B2" stroke-width="0.591549" stroke-miterlimit="1.5" stroke-linecap="round" stroke-linejoin="round"/>
<path d="M57.8877 32.4756C58.203 32.7182 58.5695 32.9479 58.9213 33.1668" stroke="#1CD1B2" stroke-width="0.591549" stroke-miterlimit="1.5" stroke-linecap="round" stroke-linejoin="round"/>
</svg>
