<svg width="24" height="25" viewBox="0 0 24 25" fill="none" xmlns="http://www.w3.org/2000/svg">
<path d="M14.9697 23.25H8.96973C3.53973 23.25 1.21973 20.93 1.21973 15.5V9.5C1.21973 4.07 3.53973 1.75 8.96973 1.75H10.9697C11.3797 1.75 11.7197 2.09 11.7197 2.5C11.7197 2.91 11.3797 3.25 10.9697 3.25H8.96973C4.35973 3.25 2.71973 4.89 2.71973 9.5V15.5C2.71973 20.11 4.35973 21.75 8.96973 21.75H14.9697C19.5797 21.75 21.2197 20.11 21.2197 15.5V13.5C21.2197 13.09 21.5597 12.75 21.9697 12.75C22.3797 12.75 22.7197 13.09 22.7197 13.5V15.5C22.7197 20.93 20.4097 23.25 14.9697 23.25Z" fill="#1CD1B2"/>
<path d="M12.7796 15.74C12.6296 15.74 12.4896 15.7 12.3596 15.61C12.1496 15.47 12.0296 15.24 12.0296 14.99C12.0296 14.88 12.0196 14.76 11.9996 14.64C11.9296 14.11 11.6896 13.64 11.2896 13.23C10.8796 12.82 10.3796 12.56 9.8296 12.49C9.7496 12.48 9.6196 12.47 9.4996 12.48C9.2496 12.5 8.9996 12.39 8.8496 12.19C8.6996 11.99 8.6596 11.72 8.7396 11.48C8.8596 11.14 9.0496 10.82 9.2696 10.57L10.4996 9.03001C12.6396 6.36001 16.9496 3.16001 20.1296 1.89001C20.8596 1.61001 21.6296 1.77001 22.1596 2.30001C22.7096 2.85001 22.8696 3.63001 22.5796 4.34001C21.3096 7.51001 18.1096 11.83 15.4496 13.96L13.8796 15.22C13.5696 15.44 13.3196 15.59 13.0596 15.69C12.9696 15.72 12.8696 15.74 12.7796 15.74ZM10.7196 11.17C11.3296 11.37 11.8796 11.71 12.3496 12.17C12.8096 12.63 13.1396 13.16 13.3296 13.73L14.5096 12.78C16.9996 10.78 19.9996 6.74001 21.1896 3.77001C21.2696 3.58001 21.1796 3.44001 21.0996 3.35001C21.0496 3.30001 20.9096 3.19001 20.6796 3.28001C17.7196 4.47001 13.6796 7.47001 11.6796 9.96001L10.7196 11.17Z" fill="#1CD1B2"/>
<path d="M7.69999 19.25C7.05999 19.25 6.44999 19 5.98999 18.54C5.45999 18.01 5.19999 17.28 5.28999 16.53L5.49999 14.57C5.71999 12.54 7.36999 11.04 9.43999 11C9.59999 10.99 9.79999 11 9.98999 11.01C10.9 11.13 11.71 11.53 12.35 12.18C12.99 12.82 13.38 13.58 13.49 14.44C13.52 14.63 13.53 14.82 13.53 15C13.53 16.09 13.11 17.12 12.34 17.89C11.71 18.52 10.89 18.91 9.95999 19.03L7.97999 19.24C7.87999 19.25 7.78999 19.25 7.69999 19.25ZM9.59999 12.49C9.56999 12.49 9.52999 12.49 9.49999 12.49C8.34999 12.52 7.13999 13.29 6.98999 14.73L6.77999 16.7C6.74999 16.99 6.84999 17.28 7.04999 17.48C7.24999 17.68 7.52999 17.78 7.80999 17.75L9.77999 17.54C10.36 17.47 10.88 17.22 11.27 16.83C11.75 16.34 12.02 15.7 12.02 15C12.02 14.89 12.01 14.77 11.99 14.65C11.92 14.12 11.68 13.65 11.28 13.24C10.87 12.83 10.37 12.57 9.81999 12.5C9.76999 12.49 9.68999 12.49 9.59999 12.49Z" fill="#1CD1B2"/>
<path d="M15.8203 13.23C15.4103 13.23 15.0703 12.89 15.0703 12.48C15.0703 10.81 13.7103 9.44 12.0303 9.44C11.6203 9.44 11.2803 9.1 11.2803 8.69C11.2803 8.28 11.6203 7.94 12.0303 7.94C14.5303 7.94 16.5703 9.97 16.5703 12.48C16.5703 12.89 16.2403 13.23 15.8203 13.23Z" fill="#1CD1B2"/>
</svg>
