<svg width="40" height="38" viewBox="0 0 40 38" fill="none" xmlns="http://www.w3.org/2000/svg">
<g clip-path="url(#clip0_284_14896)">
<path d="M20 0.5L15 8L21.25 9.25L20 15.5L25 8L18.75 6.75L20 0.5ZM12.5 17.4531C12.3516 17.4531 11.7344 17.6875 11.2656 17.9766C11.0469 18.1094 10.8516 18.25 10.7031 18.3516V27.6484C10.8516 27.75 11.0469 27.8906 11.2656 28.0234C11.7344 28.3125 12.3516 28.5469 12.5 28.5469C12.6484 28.5469 13.2656 28.3125 13.7344 28.0234C14.1953 27.7344 14.5625 27.4531 14.5625 27.4531L14.7578 27.2969H15.7031V18.7031H14.7578L14.5625 18.5469C14.5625 18.5469 14.1953 18.2656 13.7344 17.9766C13.2656 17.6875 12.6484 17.4531 12.5 17.4531ZM27.5 17.4531C27.3516 17.4531 26.7344 17.6875 26.2656 17.9766C25.8047 18.2656 25.4375 18.5469 25.4375 18.5469L25.2422 18.7031H24.2969V27.2969H25.2422L25.4375 27.4531C25.4375 27.4531 25.8047 27.7344 26.2656 28.0234C26.7344 28.3125 27.3516 28.5469 27.5 28.5469C27.6484 28.5469 28.2656 28.3125 28.7344 28.0234C28.9531 27.8906 29.1484 27.75 29.2969 27.6484V18.3516C29.1484 18.25 28.9531 18.1094 28.7344 17.9766C28.2656 17.6875 27.6484 17.4531 27.5 17.4531ZM17.1094 18.7031V27.2969H18.2031V18.7031H17.1094ZM19.6094 18.7031V27.2969H22.8906V18.7031H19.6094ZM7.46094 22.2969C5.99219 22.2969 4.60156 23.0156 3.55938 24.0703C2.51719 25.1172 1.79688 26.5156 1.79688 28V36.2812H3.20312V28C3.20312 26.9844 3.73281 25.8828 4.55625 25.0547C5.37891 24.2344 6.46875 23.7031 7.46094 23.7031H9.29688V22.2969H7.46094ZM30.7031 22.2969V23.7031H32.4922C33.5156 23.7031 34.6094 24.2344 35.4375 25.0625C36.2656 25.8906 36.7969 26.9844 36.7969 28V36.2812H38.2031V28C38.2031 26.5156 37.4844 25.1094 36.4297 24.0625C35.3828 23.0156 33.9766 22.2969 32.4922 22.2969H30.7031Z" fill="#EBEBEB"/>
</g>
<g clip-path="url(#clip1_284_14896)">
<path d="M20 0.5L15 8L21.25 9.25L20 15.5L25 8L18.75 6.75L20 0.5ZM12.5 17.4531C12.3516 17.4531 11.7344 17.6875 11.2656 17.9766C11.0469 18.1094 10.8516 18.25 10.7031 18.3516V27.6484C10.8516 27.75 11.0469 27.8906 11.2656 28.0234C11.7344 28.3125 12.3516 28.5469 12.5 28.5469C12.6484 28.5469 13.2656 28.3125 13.7344 28.0234C14.1953 27.7344 14.5625 27.4531 14.5625 27.4531L14.7578 27.2969H15.7031V18.7031H14.7578L14.5625 18.5469C14.5625 18.5469 14.1953 18.2656 13.7344 17.9766C13.2656 17.6875 12.6484 17.4531 12.5 17.4531ZM27.5 17.4531C27.3516 17.4531 26.7344 17.6875 26.2656 17.9766C25.8047 18.2656 25.4375 18.5469 25.4375 18.5469L25.2422 18.7031H24.2969V27.2969H25.2422L25.4375 27.4531C25.4375 27.4531 25.8047 27.7344 26.2656 28.0234C26.7344 28.3125 27.3516 28.5469 27.5 28.5469C27.6484 28.5469 28.2656 28.3125 28.7344 28.0234C28.9531 27.8906 29.1484 27.75 29.2969 27.6484V18.3516C29.1484 18.25 28.9531 18.1094 28.7344 17.9766C28.2656 17.6875 27.6484 17.4531 27.5 17.4531ZM17.1094 18.7031V27.2969H18.2031V18.7031H17.1094ZM19.6094 18.7031V27.2969H22.8906V18.7031H19.6094ZM7.46094 22.2969C5.99219 22.2969 4.60156 23.0156 3.55938 24.0703C2.51719 25.1172 1.79688 26.5156 1.79688 28V36.2812H3.20312V28C3.20312 26.9844 3.73281 25.8828 4.55625 25.0547C5.37891 24.2344 6.46875 23.7031 7.46094 23.7031H9.29688V22.2969H7.46094ZM30.7031 22.2969V23.7031H32.4922C33.5156 23.7031 34.6094 24.2344 35.4375 25.0625C36.2656 25.8906 36.7969 26.9844 36.7969 28V36.2812H38.2031V28C38.2031 26.5156 37.4844 25.1094 36.4297 24.0625C35.3828 23.0156 33.9766 22.2969 32.4922 22.2969H30.7031Z" fill="#A2ECDF"/>
</g>
<defs>
<clipPath id="clip0_284_14896">
<rect width="40" height="22" fill="white" transform="translate(0 16)"/>
</clipPath>
<clipPath id="clip1_284_14896">
<rect width="40" height="16" fill="white"/>
</clipPath>
</defs>
</svg>
