<svg width="24" height="19" viewBox="0 0 24 19" fill="none" xmlns="http://www.w3.org/2000/svg">
<path d="M0 0H24V18.1132H0V0Z" fill="black"/>
<path fill-rule="evenodd" clip-rule="evenodd" d="M0 0H23.9988V1.39387H0V0ZM0 2.78774H23.9988V4.1816H0V2.78774ZM0 5.57193H23.9988V6.96934H0V5.57193ZM0 8.35967H23.9988V9.75354H0V8.35967ZM0 11.1474H23.9988V12.5413H0V11.1474ZM0 13.9316H23.9988V15.3255H0V13.9316ZM0 16.7193H23.9988V18.1132H0V16.7193Z" fill="#BD3D44"/>
<path fill-rule="evenodd" clip-rule="evenodd" d="M0 1.39623H23.9988V2.78967H0V1.39623ZM0 4.1831H23.9988V5.57301H0V4.1831ZM0 6.96645H23.9988V8.35988H0V6.96645ZM0 9.75332H23.9988V11.1468H0V9.75332ZM0 12.5402H23.9988V13.9336H0V12.5402ZM0 15.3235H23.9988V16.717H0V15.3235Z" fill="white"/>
<path fill-rule="evenodd" clip-rule="evenodd" d="M0 0H13.6786V9.75354H0V0Z" fill="#192F5D"/>
<path fill-rule="evenodd" clip-rule="evenodd" d="M1.13865 0.417453L1.2652 0.803066H1.66596L1.34254 1.04009L1.46558 1.42925L1.13865 1.18868L0.815224 1.42571L0.938265 1.04009L0.611328 0.803066H1.01912L1.13865 0.417453ZM3.42018 0.417453L3.54322 0.803066H3.94749L3.62056 1.04009L3.7436 1.42925L3.42018 1.18868L3.09324 1.42571L3.21628 1.04009L2.89286 0.803066H3.29362L3.42018 0.417453ZM5.69819 0.417453L5.82475 0.803066H6.22199L5.89857 1.04009L6.02161 1.42925L5.69467 1.18868L5.37125 1.42571L5.49429 1.04009L5.16736 0.803066H5.57163L5.69819 0.417453ZM7.97972 0.417453L8.10276 0.803066H8.50704L8.1801 1.04009L8.30666 1.42925L7.97972 1.18868L7.65278 1.42571L7.77934 1.04009L7.4524 0.803066H7.85316L7.97972 0.417453ZM10.2577 0.417453L10.3843 0.803066H10.7851L10.4616 1.04009L10.5847 1.42925L10.2577 1.18868L9.93431 1.42571L10.0574 1.04009L9.73393 0.803066H10.1347L10.2577 0.417453ZM12.5393 0.417453L12.6623 0.803066H13.0666L12.7396 1.04009L12.8662 1.42925L12.5393 1.18868L12.2123 1.42571L12.3389 1.04009L12.0119 0.803066H12.4162L12.5393 0.417453ZM2.28117 1.39387L2.40421 1.77948H2.80849L2.48155 2.01651L2.60107 2.40212L2.28468 2.16509L1.95775 2.40212L2.07376 2.01651L1.75737 1.77948H2.15813L2.28117 1.39387ZM4.55918 1.39387L4.68574 1.77948H5.0865L4.75956 2.01651L4.88612 2.40212L4.55918 2.16509L4.23225 2.40212L4.3588 2.01651L4.03186 1.77948H4.43614L4.55918 1.39387ZM6.84071 1.39387L6.96375 1.77948H7.36803L7.04109 2.01651L7.16413 2.40212L6.84071 2.16509L6.51377 2.40212L6.63682 2.01651L6.31339 1.77948H6.71416L6.84071 1.39387ZM9.11873 1.39387L9.24528 1.77948H9.64604L9.31911 2.01651L9.44566 2.40212L9.11873 2.16509L8.7953 2.40212L8.91834 2.01651L8.59141 1.77948H8.9992L9.11873 1.39387ZM11.4003 1.39387L11.5233 1.77948H11.9276L11.6006 2.01651L11.7237 2.40212L11.4003 2.16509L11.0733 2.40212L11.1964 2.01651L10.8729 1.77948H11.2737L11.4003 1.39387ZM1.13865 2.36675L1.2652 2.75943H1.66596L1.34254 2.99646L1.46558 3.38207L1.13865 3.14151L0.815224 3.38207L0.938265 2.99292L0.611328 2.7559H1.01912L1.13865 2.36675ZM3.42018 2.36675L3.54322 2.7559H3.94749L3.62056 2.99292L3.7436 3.37854L3.42018 3.13797L3.09324 3.37854L3.21628 2.98939L2.89286 2.75236H3.29362L3.42018 2.36675ZM5.69819 2.36675L5.82475 2.7559H6.22199L5.89857 2.99292L6.02161 3.37854L5.69467 3.13797L5.37125 3.37854L5.49429 2.98939L5.16736 2.75236H5.57163L5.69819 2.36675ZM7.97972 2.36675L8.10276 2.7559H8.50704L8.1801 2.99292L8.30666 3.37854L7.97972 3.13797L7.65278 3.37854L7.77934 2.98939L7.4524 2.75236H7.85316L7.97972 2.36675ZM10.2577 2.36675L10.3843 2.7559H10.7851L10.4616 2.99292L10.5847 3.37854L10.2577 3.13797L9.93431 3.37854L10.0574 2.98939L9.73393 2.75236H10.1347L10.2577 2.36675ZM12.5393 2.36675L12.6623 2.7559H13.0666L12.7396 2.99292L12.8662 3.37854L12.5393 3.13797L12.2123 3.37854L12.3389 2.98939L12.0119 2.75236H12.4162L12.5393 2.36675ZM2.28117 3.34316L2.40421 3.72877H2.80849L2.48155 3.9658L2.60459 4.35495L2.28117 4.11439L1.95423 4.35141L2.07727 3.9658L1.75385 3.72877H2.15461L2.28117 3.34316ZM4.55918 3.34316L4.68574 3.72877H5.0865L4.75956 3.9658L4.88612 4.35495L4.55918 4.11439L4.23225 4.35141L4.3588 3.9658L4.03186 3.72877H4.43614L4.55918 3.34316ZM6.84071 3.34316L6.96375 3.72877H7.36803L7.04109 3.9658L7.16413 4.35495L6.84071 4.11439L6.51377 4.35141L6.63682 3.9658L6.31339 3.72877H6.71416L6.84071 3.34316ZM9.11873 3.34316L9.24528 3.72877H9.64604L9.32262 3.9658L9.44566 4.35495L9.11873 4.11439L8.7953 4.35141L8.91834 3.9658L8.59141 3.72877H8.9992L9.11873 3.34316ZM11.4003 3.34316L11.5233 3.72877H11.9276L11.6006 3.9658L11.7237 4.35495L11.4003 4.11439L11.0733 4.35141L11.1964 3.9658L10.8729 3.72877H11.2737L11.4003 3.34316ZM1.13865 4.31957L1.2652 4.70519H1.66596L1.34254 4.94222L1.46558 5.33137L1.13865 5.0908L0.815224 5.32783L0.938265 4.94222L0.611328 4.70519H1.01912L1.13865 4.31957ZM3.42018 4.31957L3.54322 4.70519H3.94749L3.62056 4.94222L3.7436 5.32783L3.42018 5.0908L3.09324 5.32783L3.21628 4.94222L2.89286 4.70519H3.29362L3.42018 4.31957ZM5.69819 4.31957L5.82475 4.70519H6.22199L5.89857 4.94222L6.02161 5.33137L5.69467 5.0908L5.37125 5.32783L5.49429 4.94222L5.16736 4.70519H5.57163L5.69819 4.31957ZM7.97972 4.31957L8.10276 4.70519H8.50704L8.1801 4.94222L8.30666 5.33137L7.97972 5.0908L7.65278 5.32783L7.77934 4.94222L7.4524 4.70519H7.85316L7.97972 4.31957ZM10.2577 4.31957L10.3843 4.70519H10.7851L10.4616 4.94222L10.5847 5.33137L10.2577 5.0908L9.93431 5.32783L10.0574 4.94222L9.73393 4.70519H10.1347L10.2577 4.31957ZM12.5393 4.31957L12.6623 4.70519H13.0666L12.7396 4.94222L12.8662 5.33137L12.5393 5.0908L12.2123 5.32783L12.3389 4.94222L12.0119 4.70519H12.4162L12.5393 4.31957ZM2.28117 5.29599L2.40421 5.6816H2.80849L2.48155 5.91863L2.60459 6.30424L2.28117 6.06368L1.95423 6.30424L2.07727 5.91509L1.75385 5.67807H2.15461L2.28117 5.29599ZM4.55918 5.29599L4.68574 5.6816H5.0865L4.75956 5.91863L4.88612 6.30424L4.55918 6.06368L4.23225 6.30424L4.3588 5.91509L4.03186 5.67807H4.43614L4.55918 5.29599ZM6.84071 5.29599L6.96375 5.6816H7.36803L7.04109 5.91863L7.16413 6.30424L6.84071 6.06368L6.51377 6.30424L6.63682 5.91509L6.31339 5.67807H6.71416L6.84071 5.29599ZM9.11873 5.29599L9.24528 5.6816H9.64604L9.32262 5.91863L9.44566 6.30424L9.11873 6.06368L8.7953 6.30424L8.91834 5.91509L8.59141 5.67807H8.9992L9.11873 5.29599ZM11.4003 5.29599L11.5233 5.6816H11.9276L11.6006 5.91863L11.7237 6.30424L11.4003 6.06368L11.0733 6.30424L11.1964 5.91509L10.8729 5.67807H11.2737L11.4003 5.29599ZM1.13865 6.26887L1.2652 6.65802H1.66596L1.34254 6.89505L1.46558 7.27712L1.13865 7.04009L0.815224 7.27712L0.938265 6.89151L0.611328 6.65448H1.01912L1.13865 6.26887ZM3.42018 6.26887L3.54322 6.65802H3.94749L3.62056 6.89505L3.74711 7.27712L3.42018 7.04009L3.09324 7.27712L3.21979 6.89151L2.89286 6.65448H3.29362L3.42018 6.26887ZM5.69819 6.26887L5.82475 6.65802H6.22199L5.89857 6.89505L6.02161 7.27712L5.69467 7.04009L5.37125 7.27712L5.49429 6.89151L5.16736 6.65448H5.57163L5.69819 6.26887ZM7.97972 6.26887L8.10276 6.65802H8.50704L8.1801 6.89505L8.30666 7.27712L7.97972 7.04009L7.65278 7.27712L7.77934 6.89151L7.4524 6.65448H7.85316L7.97972 6.26887ZM10.2577 6.26887L10.3843 6.65802H10.7851L10.4616 6.89505L10.5847 7.27712L10.2577 7.04009L9.93431 7.27712L10.0574 6.89151L9.73393 6.65448H10.1347L10.2577 6.26887ZM12.5393 6.26887L12.6623 6.65802H13.0666L12.7396 6.89505L12.8662 7.27712L12.5393 7.04009L12.2123 7.27712L12.3389 6.89151L12.0119 6.65448H12.4162L12.5393 6.26887ZM2.28117 7.24528L2.40421 7.6309H2.80849L2.48155 7.86792L2.60459 8.25707L2.28117 8.01651L1.95423 8.25354L2.07727 7.86792L1.75385 7.6309H2.15461L2.28117 7.24528ZM4.55918 7.24528L4.68574 7.6309H5.0865L4.75956 7.86792L4.88612 8.25707L4.55918 8.01651L4.23225 8.25354L4.3588 7.86792L4.03186 7.6309H4.43614L4.55918 7.24528ZM6.84071 7.24528L6.96375 7.6309H7.36803L7.04109 7.86792L7.16413 8.25707L6.84071 8.01651L6.51377 8.25354L6.63682 7.86792L6.31339 7.6309H6.71416L6.84071 7.24528ZM9.11873 7.24528L9.24528 7.6309H9.64604L9.32262 7.86792L9.44566 8.25707L9.11873 8.01651L8.7953 8.25354L8.91834 7.86792L8.59141 7.6309H8.9992L9.11873 7.24528ZM11.4003 7.24528L11.5233 7.6309H11.9276L11.6006 7.86792L11.7237 8.25707L11.4003 8.01651L11.0733 8.25354L11.1964 7.86792L10.8729 7.6309H11.2737L11.4003 7.24528ZM1.13865 8.2217L1.2652 8.60731H1.66596L1.34254 8.84434L1.46558 9.22995L1.13865 8.99292L0.815224 9.22995L0.938265 8.8408L0.611328 8.60377H1.01912L1.13865 8.2217ZM3.42018 8.2217L3.54322 8.60731H3.94749L3.62056 8.84434L3.74711 9.22995L3.42018 8.99292L3.09324 9.22995L3.21979 8.8408L2.89286 8.60377H3.29362L3.42018 8.2217ZM5.69819 8.2217L5.82475 8.60731H6.22199L5.9056 8.84434L6.02864 9.22995L5.70171 8.99292L5.37828 9.22995L5.50132 8.8408L5.17439 8.60377H5.57866L5.69819 8.2217ZM7.97972 8.2217L8.10276 8.60731H8.50704L8.1801 8.84434L8.30666 9.22995L7.97972 8.99292L7.65278 9.22995L7.77934 8.8408L7.4524 8.60377H7.85316L7.97972 8.2217ZM10.2577 8.2217L10.3843 8.60731H10.7851L10.4616 8.84434L10.5847 9.22995L10.2577 8.99292L9.93431 9.22995L10.0574 8.8408L9.73393 8.60377H10.1347L10.2577 8.2217ZM12.5393 8.2217L12.6623 8.60731H13.0666L12.7396 8.84434L12.8662 9.22995L12.5393 8.99292L12.2123 9.22995L12.3389 8.8408L12.0119 8.60377H12.4162L12.5393 8.2217Z" fill="white"/>
</svg>
