<svg width="40" height="40" viewBox="0 0 40 40" fill="none" xmlns="http://www.w3.org/2000/svg">
<g clip-path="url(#clip0_242_18744)">
<mask id="path-1-outside-1_242_18744" maskUnits="userSpaceOnUse" x="0.599609" y="4.94287" width="38" height="36" fill="black">
<rect fill="white" x="0.599609" y="4.94287" width="38" height="36"/>
<path d="M37.1196 37.5314C36.9996 37.44 36.8796 37.3486 36.7596 37.2572C36.6396 37.1657 36.4396 36.9372 36.2796 36.7086C35.9596 36.2972 35.5996 35.84 35.0796 35.6114C34.7196 35.4743 34.3196 35.52 33.9596 35.5657C33.6796 35.6114 33.3996 35.6572 33.1596 35.6114C32.9596 35.5657 32.7596 35.3829 32.5196 35.2C32.1996 34.9257 31.7996 34.6514 31.3596 34.6057C30.9596 34.56 30.5996 34.6972 30.2396 34.8343C29.9596 34.9257 29.6796 35.0629 29.4796 35.0172C29.2796 35.0172 29.0396 34.88 28.7596 34.6972C28.3996 34.5143 28.0396 34.2857 27.5996 34.2857C27.1596 34.2857 26.7996 34.5143 26.4396 34.6972C26.3996 34.6972 26.3996 34.7429 26.3596 34.7429C26.9196 33.9657 27.4396 33.1429 27.8396 32.2743L29.1596 29.3486C29.1996 29.2572 29.1996 29.12 29.1996 28.9829C29.1996 28.8457 29.0796 28.7543 28.9996 28.7086L26.5196 27.2457L29.4796 20.7543C29.5196 20.6172 29.6396 20.5257 29.7596 20.5257L30.9596 20.2972C31.3196 20.2057 31.6396 19.9772 31.8396 19.5657L33.1196 16.7314C33.2796 16.4114 33.2796 16.0457 33.1996 15.68C33.1196 15.3143 32.8796 15.04 32.5996 14.8572L28.9996 12.8C28.7196 12.6172 28.3996 12.6172 28.0796 12.7086C27.7596 12.8 27.5196 13.0743 27.3596 13.3943L26.0796 16.2286C25.9196 16.5943 25.9196 17.0514 26.0796 17.4629L26.5996 18.6972C26.6396 18.8343 26.6396 18.9714 26.5996 19.1086L23.6396 25.6L21.1596 24.1372C20.9596 24 20.7196 24.0914 20.6396 24.32L19.3196 27.2457C18.1596 29.8057 17.7996 32.7772 18.2396 35.6572C18.1596 35.6572 18.0396 35.6572 17.9596 35.6114C17.7596 35.5657 17.5596 35.3829 17.3196 35.2C16.9996 34.9257 16.5996 34.6514 16.1596 34.6057C15.7596 34.56 15.3996 34.6972 15.0396 34.8343C14.7596 34.9257 14.5196 35.0629 14.2796 35.0172C14.0796 35.0172 13.8396 34.88 13.5596 34.6972C13.4396 34.6514 13.3196 34.56 13.1996 34.5143V27.6114L14.5596 26.0572C14.9996 26.0114 16.7196 25.6914 17.4796 23.8629C18.3196 21.9429 17.8796 18.7886 17.8396 18.6514C17.7996 18.5143 17.7196 18.3772 17.6396 18.3314C17.5196 18.2857 17.3996 18.2857 17.2796 18.3314C17.1596 18.3772 14.7196 19.8857 13.8796 21.8057C13.1996 23.3143 13.6396 24.8229 13.9196 25.4629L13.1996 26.3314V19.5657C13.8396 19.2457 14.2396 18.24 14.3996 17.2343C14.9596 17.6914 15.6396 18.0114 16.1996 18.0114C16.5196 18.0114 16.7996 17.92 17.0396 17.6457C17.6396 16.96 17.2796 15.6343 16.6796 14.6286C17.7196 14.4 18.7996 13.76 18.7996 12.8C18.7996 11.84 17.7196 11.2 16.6796 10.9714C17.2796 9.96573 17.6396 8.64001 17.0396 7.9543C16.4396 7.26859 15.2796 7.68001 14.3996 8.36573C14.1996 7.17716 13.6396 5.94287 12.7996 5.94287C11.9596 5.94287 11.3996 7.17716 11.1996 8.36573C10.3196 7.68001 9.15961 7.26859 8.55961 7.9543C7.95961 8.64001 8.31961 9.96573 8.91961 10.9714C7.87961 11.2 6.79961 11.84 6.79961 12.8C6.79961 13.76 7.87961 14.4 8.91961 14.6286C8.31961 15.6343 7.95961 16.96 8.55961 17.6457C8.75961 17.8743 9.07961 18.0114 9.39961 18.0114C9.95961 18.0114 10.6396 17.6914 11.1996 17.2343C11.3596 18.24 11.7996 19.2457 12.3996 19.5657V28.6172L11.6796 27.7943C11.9596 27.1086 12.3596 25.6457 11.7196 24.1372C10.8796 22.2172 8.43961 20.7086 8.31961 20.6629C8.19961 20.5714 8.07961 20.5714 7.95961 20.6629C7.83961 20.7086 7.75961 20.8457 7.75961 20.9829C7.75961 21.12 7.31961 24.2743 8.11961 26.1943C8.91961 27.9772 10.6396 28.2972 11.0396 28.3886L12.3996 29.9429V34.2857C11.9596 34.2857 11.5996 34.5143 11.2396 34.6972C10.9996 34.8343 10.7196 34.9714 10.5196 35.0172C10.2796 35.0172 10.0396 34.9257 9.75961 34.8343C9.39961 34.6972 9.03961 34.56 8.63961 34.6057C8.19961 34.6972 7.83961 34.9714 7.47961 35.2C7.23961 35.3829 6.99961 35.5657 6.83961 35.6114C6.59961 35.6572 6.31961 35.6114 6.03961 35.5657C5.67961 35.52 5.27961 35.4286 4.91961 35.6114C4.39961 35.84 4.03961 36.2972 3.71961 36.7086C3.55961 36.9372 3.39961 37.12 3.23961 37.2572C3.11961 37.3486 2.99961 37.44 2.87961 37.5314C2.23961 37.9886 1.59961 38.4457 1.59961 39.3143C1.59961 39.5886 1.75961 39.7714 1.99961 39.7714H17.1996H22.7996H37.9996C38.2396 39.7714 38.3996 39.5886 38.3996 39.3143C38.3996 38.4914 37.7596 37.9886 37.1196 37.5314ZM14.5996 22.2172C15.1196 21.0286 16.3996 20.0229 17.1196 19.4743C17.1996 20.4343 17.2396 22.2629 16.7596 23.4514C16.2396 24.64 15.1596 25.0057 14.6396 25.0972C14.4396 24.5943 14.1196 23.4057 14.5996 22.2172ZM8.83961 25.7372C8.31961 24.5486 8.39961 22.72 8.47961 21.76C9.19961 22.2629 10.5196 23.3143 10.9996 24.5029C11.5196 25.6914 11.1596 26.88 10.9596 27.3829C10.4396 27.2914 9.31961 26.9257 8.83961 25.7372ZM13.3596 14.1714C13.3196 14.2172 13.2796 14.2172 13.2396 14.2172C12.9596 14.3086 12.6796 14.3086 12.3596 14.2172C12.3196 14.2172 12.2796 14.1714 12.2396 14.1714C11.9596 14.0343 11.7596 13.8057 11.6396 13.4857C11.5996 13.44 11.5996 13.3943 11.5996 13.3486C11.5596 13.1657 11.5196 13.0286 11.5196 12.8457C11.5196 12.6629 11.5596 12.5257 11.5996 12.3429C11.5996 12.2972 11.6396 12.2514 11.6396 12.2057C11.7596 11.8857 11.9596 11.6572 12.2396 11.52C12.2796 11.4743 12.3196 11.4743 12.3596 11.4743C12.6396 11.3829 12.9196 11.3829 13.2396 11.4743C13.2796 11.4743 13.3196 11.52 13.3596 11.52C13.6396 11.6572 13.8396 11.8857 13.9596 12.2057C13.9996 12.2514 13.9996 12.2972 13.9996 12.3429C14.0396 12.5257 14.0796 12.6629 14.0796 12.8457C14.0796 13.0286 14.0396 13.1657 13.9996 13.3486C13.9996 13.3943 13.9596 13.44 13.9596 13.4857C13.8396 13.76 13.6396 13.9886 13.3596 14.1714ZM16.4796 17.0057C16.2796 17.2343 15.2796 16.96 14.4796 16.1829C14.4796 16.1372 14.4796 16.1372 14.4796 16.0914C14.4796 16 14.4796 15.8629 14.4396 15.7714C14.4396 15.7257 14.4396 15.68 14.4396 15.6343C14.4396 15.5429 14.3996 15.4514 14.3996 15.4057C14.3996 15.36 14.3996 15.3143 14.3596 15.2686C14.3196 15.1772 14.3196 15.1314 14.2796 15.04C14.2796 14.9943 14.2796 14.9943 14.2396 14.9486C14.1996 14.8572 14.1596 14.7657 14.1196 14.6743C14.2396 14.5829 14.3196 14.4914 14.3996 14.3543C14.4796 14.4 14.5596 14.4457 14.6396 14.4914C14.6796 14.4914 14.6796 14.4914 14.7196 14.5372C14.7996 14.5829 14.8396 14.5829 14.9196 14.6286C14.9596 14.6286 14.9996 14.6286 15.0396 14.6743C15.1196 14.6743 15.1596 14.72 15.2396 14.72C15.2796 14.72 15.3196 14.72 15.3596 14.72C15.4396 14.72 15.5196 14.72 15.6396 14.7657C15.6796 14.7657 15.6796 14.7657 15.7196 14.7657C16.4396 15.6343 16.6796 16.7314 16.4796 17.0057ZM17.9996 12.8C17.9996 13.1657 17.0396 13.8057 15.9196 13.8057H15.8796H15.8396C15.7196 13.8057 15.5996 13.8057 15.4796 13.76C15.4396 13.76 15.3996 13.76 15.3996 13.76C15.3196 13.76 15.2396 13.7143 15.1996 13.7143C15.1596 13.7143 15.1196 13.7143 15.1196 13.6686C15.0396 13.6229 14.9996 13.6229 14.9596 13.5772L14.9196 13.5314C14.9996 13.3029 15.0396 13.0286 15.0396 12.8C15.0396 12.5714 14.9996 12.2972 14.9196 12.0686L14.9596 12.0229C14.9996 11.9772 15.0796 11.9772 15.1196 11.9314C15.1596 11.9314 15.1596 11.8857 15.1996 11.8857C15.2796 11.8857 15.3196 11.84 15.3996 11.84C15.4396 11.84 15.4796 11.84 15.4796 11.84C15.5996 11.84 15.7196 11.7943 15.8396 11.7943H15.8796H15.9196C17.0396 11.7943 17.9996 12.4343 17.9996 12.8ZM16.4796 8.5943C16.6796 8.82287 16.4396 9.96573 15.7596 10.88C15.7196 10.88 15.6796 10.88 15.6796 10.88C15.5996 10.88 15.4796 10.88 15.3996 10.9257C15.3596 10.9257 15.3196 10.9257 15.2796 10.9257C15.1996 10.9257 15.1196 10.9714 15.0796 10.9714C15.0396 10.9714 14.9996 10.9714 14.9596 11.0172C14.8796 11.0629 14.8396 11.0629 14.7596 11.1086C14.7196 11.1086 14.7196 11.1086 14.6796 11.1543C14.5996 11.2 14.5196 11.2457 14.4396 11.2914C14.3596 11.1543 14.2796 11.0629 14.1596 10.9714C14.1996 10.88 14.2396 10.7886 14.2796 10.6972C14.2796 10.6514 14.2796 10.6514 14.3196 10.6057C14.3596 10.5143 14.3596 10.4686 14.3996 10.3772C14.3996 10.3314 14.3996 10.2857 14.4396 10.24C14.4396 10.1486 14.4796 10.1029 14.4796 10.0114C14.4796 9.96573 14.4796 9.92001 14.4796 9.8743C14.4796 9.78287 14.4796 9.69144 14.5196 9.5543C14.5196 9.50858 14.5196 9.50859 14.5196 9.46287C15.2796 8.64001 16.2396 8.36573 16.4796 8.5943ZM12.7996 6.85716C13.1196 6.85716 13.6796 7.9543 13.6796 9.2343V9.28001V9.32573C13.6796 9.46287 13.6796 9.60001 13.6396 9.73716C13.6396 9.78287 13.6396 9.82859 13.6396 9.82859C13.6396 9.92001 13.5996 10.0114 13.5996 10.0572C13.5996 10.1029 13.5996 10.1486 13.5596 10.1486C13.5196 10.24 13.5196 10.2857 13.4796 10.3314C13.4796 10.3314 13.4796 10.3772 13.4396 10.3772C13.2396 10.2857 12.9996 10.24 12.7996 10.24C12.5996 10.24 12.3596 10.2857 12.1596 10.3772L12.1196 10.3314C12.0796 10.2857 12.0396 10.1943 12.0396 10.1486C12.0396 10.1029 11.9996 10.1029 11.9996 10.0572C11.9996 9.96573 11.9596 9.92001 11.9596 9.82859C11.9596 9.78287 11.9596 9.73716 11.9596 9.73716C11.9596 9.60001 11.9196 9.46287 11.9196 9.32573V9.28001V9.2343C11.9196 7.9543 12.4796 6.85716 12.7996 6.85716ZM9.11961 8.5943C9.31961 8.36573 10.3196 8.64001 11.1196 9.41716C11.1196 9.46287 11.1196 9.46287 11.1196 9.50858C11.1196 9.60001 11.1196 9.73716 11.1596 9.82859C11.1596 9.8743 11.1596 9.92001 11.1596 9.96573C11.1596 10.0572 11.1996 10.1486 11.1996 10.1943C11.1996 10.24 11.1996 10.2857 11.2396 10.3314C11.2796 10.4229 11.2796 10.4686 11.3196 10.56C11.3196 10.6057 11.3196 10.6057 11.3596 10.6514C11.3996 10.7429 11.4396 10.8343 11.4796 10.9257C11.3596 11.0172 11.2796 11.1086 11.1996 11.2457C11.1196 11.2 11.0396 11.1543 10.9596 11.1086C10.9196 11.1086 10.9196 11.1086 10.8796 11.0629C10.7996 11.0172 10.7596 11.0172 10.6796 10.9714C10.6396 10.9714 10.5996 10.9714 10.5596 10.9257C10.4796 10.9257 10.4396 10.88 10.3596 10.88C10.3196 10.88 10.2796 10.88 10.2396 10.88C10.1596 10.88 10.0796 10.88 9.95961 10.8343C9.91961 10.8343 9.91961 10.8343 9.87961 10.8343C9.15961 9.96573 8.91961 8.86858 9.11961 8.5943ZM7.59961 12.8C7.59961 12.4343 8.55961 11.7943 9.67961 11.7943H9.71961H9.75961C9.87961 11.7943 9.99961 11.7943 10.1196 11.84C10.1596 11.84 10.1996 11.84 10.1996 11.84C10.2796 11.84 10.3596 11.8857 10.3996 11.8857C10.4396 11.8857 10.4796 11.8857 10.4796 11.9314C10.5596 11.9772 10.5996 11.9772 10.6396 12.0229L10.6796 12.0686C10.5996 12.2972 10.5596 12.5714 10.5596 12.8C10.5596 13.0286 10.5996 13.3029 10.6796 13.5314L10.6396 13.5772C10.5996 13.6229 10.5196 13.6229 10.4796 13.6686C10.4396 13.6686 10.4396 13.7143 10.3996 13.7143C10.3196 13.7143 10.2796 13.76 10.1996 13.76C10.1596 13.76 10.1196 13.76 10.1196 13.76C9.99961 13.76 9.87961 13.8057 9.75961 13.8057H9.71961H9.67961C8.55961 13.8057 7.59961 13.1657 7.59961 12.8ZM9.11961 17.0057C8.91961 16.7772 9.15961 15.6343 9.83961 14.72C9.87961 14.72 9.91961 14.72 9.91961 14.72C9.99961 14.72 10.1196 14.72 10.1996 14.6743C10.2396 14.6743 10.2796 14.6743 10.3196 14.6743C10.3996 14.6743 10.4796 14.6286 10.5196 14.6286C10.5596 14.6286 10.5996 14.6286 10.6396 14.5829C10.7196 14.5372 10.7596 14.5372 10.8396 14.4914C10.8796 14.4914 10.8796 14.4914 10.9196 14.4457C10.9996 14.4 11.0796 14.3543 11.1596 14.3086C11.2396 14.4457 11.3196 14.5372 11.4396 14.6286C11.3996 14.72 11.3596 14.8114 11.3196 14.9029C11.3196 14.9486 11.3196 14.9486 11.2796 14.9943C11.2396 15.0857 11.2396 15.1314 11.1996 15.2229C11.1996 15.2686 11.1996 15.3143 11.1596 15.36C11.1596 15.4514 11.1196 15.4972 11.1196 15.5886C11.1196 15.6343 11.1196 15.68 11.1196 15.7257C11.1196 15.8172 11.1196 15.9086 11.0796 16.0457C11.0796 16.0914 11.0796 16.0914 11.0796 16.1372C10.3196 16.96 9.31961 17.2343 9.11961 17.0057ZM11.9196 16.3657V16.32V16.2743C11.9196 16.1372 11.9196 16 11.9596 15.8629C11.9596 15.8172 11.9596 15.7714 11.9596 15.7714C11.9596 15.68 11.9996 15.5886 11.9996 15.5429C11.9996 15.4972 11.9996 15.4514 12.0396 15.4514C12.0796 15.36 12.0796 15.3143 12.1196 15.2686C12.1196 15.2686 12.1196 15.2229 12.1596 15.2229C12.5996 15.36 13.0396 15.36 13.4396 15.2229L13.4796 15.2686C13.5196 15.3143 13.5596 15.4057 13.5596 15.4514C13.5596 15.4972 13.5996 15.4972 13.5996 15.5429C13.5996 15.6343 13.6396 15.68 13.6396 15.7714C13.6396 15.8172 13.6396 15.8629 13.6396 15.8629C13.6396 16 13.6796 16.1372 13.6796 16.2743V16.32V16.3657C13.6796 17.6457 13.1196 18.7429 12.7996 18.7429C12.4796 18.7429 11.9196 17.6457 11.9196 16.3657ZM24.3596 26.0114L27.3196 19.52C27.4796 19.1543 27.4796 18.6972 27.3196 18.2857L26.7996 17.0514C26.7596 16.9143 26.7596 16.7772 26.7996 16.64L28.0796 13.8057C28.1196 13.7143 28.1996 13.6229 28.3196 13.5772C28.4396 13.5314 28.5196 13.5314 28.6396 13.6229L32.1996 15.7257C32.2796 15.7714 32.3596 15.8629 32.3996 16C32.4396 16.1372 32.4396 16.2286 32.3596 16.3657L31.0796 19.2C31.0396 19.3372 30.9196 19.4286 30.7996 19.4286L29.5996 19.6572C29.2396 19.7486 28.9196 19.9772 28.7196 20.3886L25.7596 26.88L25.3596 26.6514L24.3596 26.0114ZM19.9996 27.6572L21.1596 25.1429L24.8796 27.3372L25.7996 27.8857L28.2796 29.3486L27.1196 31.9086C26.5996 33.0057 25.9596 34.0114 25.1596 34.9257C25.0796 34.88 25.0396 34.88 24.9596 34.8343C24.5996 34.6972 24.2396 34.56 23.8396 34.6057C23.3996 34.6972 23.0396 34.9714 22.6796 35.2457C22.4396 35.4286 22.1996 35.6114 22.0396 35.6572C21.7996 35.7029 21.5196 35.6572 21.2396 35.6114C20.8796 35.5657 20.4796 35.4743 20.1196 35.6572C20.0796 35.6572 20.0396 35.7029 19.9996 35.7486C19.9596 35.7486 19.9196 35.7029 19.8796 35.6572C19.5996 35.52 19.3196 35.5657 19.0396 35.5657C18.5596 32.8686 18.9196 30.08 19.9996 27.6572ZM17.1996 38.8572H2.59961C2.75961 38.6743 2.99961 38.4914 3.31961 38.2629C3.43961 38.1714 3.55961 38.08 3.71961 37.9886C3.91961 37.8057 4.11961 37.5772 4.31961 37.3029C4.59961 36.9372 4.87961 36.5714 5.19961 36.4343C5.39961 36.3429 5.63961 36.3886 5.91961 36.4343C6.23961 36.48 6.63961 36.5714 7.03961 36.4343C7.35961 36.3429 7.67961 36.1143 7.95961 35.8857C8.23961 35.6572 8.51961 35.4743 8.75961 35.4286C8.95961 35.3829 9.23961 35.52 9.51961 35.6114C9.83961 35.7486 10.1996 35.8857 10.5996 35.84C10.9596 35.7943 11.2796 35.6114 11.5996 35.4286C11.8796 35.2457 12.1596 35.1086 12.3996 35.1086C12.6396 35.1086 12.9196 35.2457 13.1996 35.4286C13.5196 35.6114 13.8396 35.7943 14.1996 35.84C14.5996 35.8857 14.9596 35.7029 15.2796 35.6114C15.5596 35.52 15.8396 35.3829 16.0396 35.4286C16.2796 35.4743 16.5596 35.7029 16.8396 35.8857C17.1196 36.1143 17.4396 36.3429 17.7596 36.4343C18.1596 36.5257 18.5196 36.48 18.8796 36.4343C19.1596 36.3886 19.4396 36.3429 19.5996 36.4343C19.9196 36.5714 20.1996 36.9372 20.4796 37.3029C20.6796 37.5772 20.8796 37.8057 21.0796 37.9886C21.1996 38.08 21.3196 38.1714 21.4796 38.2629C21.7996 38.4914 22.0396 38.6743 22.1996 38.8572H17.1996ZM23.1196 38.8572C22.9196 38.2629 22.4396 37.8972 21.8796 37.4857C21.7596 37.3943 21.6396 37.3029 21.5196 37.2114C21.3996 37.12 21.2396 36.8914 21.0396 36.6629C20.9596 36.5714 20.9196 36.48 20.8396 36.3886C20.9196 36.3886 21.0396 36.4343 21.1196 36.4343C21.4396 36.48 21.8396 36.5714 22.2396 36.4343C22.5596 36.3429 22.8796 36.1143 23.1596 35.8857C23.4396 35.6572 23.7196 35.4743 23.9596 35.4286C24.1596 35.3829 24.4396 35.52 24.7196 35.6114C24.8396 35.6572 24.9996 35.7029 25.1196 35.7486C25.3196 35.7943 25.5596 35.8857 25.7996 35.84C26.1596 35.7943 26.4796 35.6114 26.7996 35.4286C27.0796 35.2457 27.3596 35.1086 27.5996 35.1086C27.8396 35.1086 28.1196 35.2457 28.3996 35.4286C28.7196 35.6114 29.0396 35.7943 29.3996 35.84C29.7996 35.8857 30.1596 35.7029 30.4796 35.6114C30.7596 35.52 31.0396 35.3829 31.2396 35.4286C31.4796 35.4743 31.7596 35.7029 32.0396 35.8857C32.3196 36.1143 32.6396 36.3429 32.9596 36.4343C33.3596 36.5257 33.7196 36.48 34.0796 36.4343C34.3596 36.3886 34.6396 36.3429 34.7996 36.4343C35.1196 36.5714 35.3996 36.9372 35.6796 37.3029C35.8796 37.5772 36.0796 37.8057 36.2796 37.9886C36.3996 38.08 36.5596 38.1714 36.6796 38.3086C36.9996 38.5372 37.2396 38.72 37.3996 38.9029H23.1196V38.8572Z"/>
</mask>
<path d="M37.1196 37.5314C36.9996 37.44 36.8796 37.3486 36.7596 37.2572C36.6396 37.1657 36.4396 36.9372 36.2796 36.7086C35.9596 36.2972 35.5996 35.84 35.0796 35.6114C34.7196 35.4743 34.3196 35.52 33.9596 35.5657C33.6796 35.6114 33.3996 35.6572 33.1596 35.6114C32.9596 35.5657 32.7596 35.3829 32.5196 35.2C32.1996 34.9257 31.7996 34.6514 31.3596 34.6057C30.9596 34.56 30.5996 34.6972 30.2396 34.8343C29.9596 34.9257 29.6796 35.0629 29.4796 35.0172C29.2796 35.0172 29.0396 34.88 28.7596 34.6972C28.3996 34.5143 28.0396 34.2857 27.5996 34.2857C27.1596 34.2857 26.7996 34.5143 26.4396 34.6972C26.3996 34.6972 26.3996 34.7429 26.3596 34.7429C26.9196 33.9657 27.4396 33.1429 27.8396 32.2743L29.1596 29.3486C29.1996 29.2572 29.1996 29.12 29.1996 28.9829C29.1996 28.8457 29.0796 28.7543 28.9996 28.7086L26.5196 27.2457L29.4796 20.7543C29.5196 20.6172 29.6396 20.5257 29.7596 20.5257L30.9596 20.2972C31.3196 20.2057 31.6396 19.9772 31.8396 19.5657L33.1196 16.7314C33.2796 16.4114 33.2796 16.0457 33.1996 15.68C33.1196 15.3143 32.8796 15.04 32.5996 14.8572L28.9996 12.8C28.7196 12.6172 28.3996 12.6172 28.0796 12.7086C27.7596 12.8 27.5196 13.0743 27.3596 13.3943L26.0796 16.2286C25.9196 16.5943 25.9196 17.0514 26.0796 17.4629L26.5996 18.6972C26.6396 18.8343 26.6396 18.9714 26.5996 19.1086L23.6396 25.6L21.1596 24.1372C20.9596 24 20.7196 24.0914 20.6396 24.32L19.3196 27.2457C18.1596 29.8057 17.7996 32.7772 18.2396 35.6572C18.1596 35.6572 18.0396 35.6572 17.9596 35.6114C17.7596 35.5657 17.5596 35.3829 17.3196 35.2C16.9996 34.9257 16.5996 34.6514 16.1596 34.6057C15.7596 34.56 15.3996 34.6972 15.0396 34.8343C14.7596 34.9257 14.5196 35.0629 14.2796 35.0172C14.0796 35.0172 13.8396 34.88 13.5596 34.6972C13.4396 34.6514 13.3196 34.56 13.1996 34.5143V27.6114L14.5596 26.0572C14.9996 26.0114 16.7196 25.6914 17.4796 23.8629C18.3196 21.9429 17.8796 18.7886 17.8396 18.6514C17.7996 18.5143 17.7196 18.3772 17.6396 18.3314C17.5196 18.2857 17.3996 18.2857 17.2796 18.3314C17.1596 18.3772 14.7196 19.8857 13.8796 21.8057C13.1996 23.3143 13.6396 24.8229 13.9196 25.4629L13.1996 26.3314V19.5657C13.8396 19.2457 14.2396 18.24 14.3996 17.2343C14.9596 17.6914 15.6396 18.0114 16.1996 18.0114C16.5196 18.0114 16.7996 17.92 17.0396 17.6457C17.6396 16.96 17.2796 15.6343 16.6796 14.6286C17.7196 14.4 18.7996 13.76 18.7996 12.8C18.7996 11.84 17.7196 11.2 16.6796 10.9714C17.2796 9.96573 17.6396 8.64001 17.0396 7.9543C16.4396 7.26859 15.2796 7.68001 14.3996 8.36573C14.1996 7.17716 13.6396 5.94287 12.7996 5.94287C11.9596 5.94287 11.3996 7.17716 11.1996 8.36573C10.3196 7.68001 9.15961 7.26859 8.55961 7.9543C7.95961 8.64001 8.31961 9.96573 8.91961 10.9714C7.87961 11.2 6.79961 11.84 6.79961 12.8C6.79961 13.76 7.87961 14.4 8.91961 14.6286C8.31961 15.6343 7.95961 16.96 8.55961 17.6457C8.75961 17.8743 9.07961 18.0114 9.39961 18.0114C9.95961 18.0114 10.6396 17.6914 11.1996 17.2343C11.3596 18.24 11.7996 19.2457 12.3996 19.5657V28.6172L11.6796 27.7943C11.9596 27.1086 12.3596 25.6457 11.7196 24.1372C10.8796 22.2172 8.43961 20.7086 8.31961 20.6629C8.19961 20.5714 8.07961 20.5714 7.95961 20.6629C7.83961 20.7086 7.75961 20.8457 7.75961 20.9829C7.75961 21.12 7.31961 24.2743 8.11961 26.1943C8.91961 27.9772 10.6396 28.2972 11.0396 28.3886L12.3996 29.9429V34.2857C11.9596 34.2857 11.5996 34.5143 11.2396 34.6972C10.9996 34.8343 10.7196 34.9714 10.5196 35.0172C10.2796 35.0172 10.0396 34.9257 9.75961 34.8343C9.39961 34.6972 9.03961 34.56 8.63961 34.6057C8.19961 34.6972 7.83961 34.9714 7.47961 35.2C7.23961 35.3829 6.99961 35.5657 6.83961 35.6114C6.59961 35.6572 6.31961 35.6114 6.03961 35.5657C5.67961 35.52 5.27961 35.4286 4.91961 35.6114C4.39961 35.84 4.03961 36.2972 3.71961 36.7086C3.55961 36.9372 3.39961 37.12 3.23961 37.2572C3.11961 37.3486 2.99961 37.44 2.87961 37.5314C2.23961 37.9886 1.59961 38.4457 1.59961 39.3143C1.59961 39.5886 1.75961 39.7714 1.99961 39.7714H17.1996H22.7996H37.9996C38.2396 39.7714 38.3996 39.5886 38.3996 39.3143C38.3996 38.4914 37.7596 37.9886 37.1196 37.5314ZM14.5996 22.2172C15.1196 21.0286 16.3996 20.0229 17.1196 19.4743C17.1996 20.4343 17.2396 22.2629 16.7596 23.4514C16.2396 24.64 15.1596 25.0057 14.6396 25.0972C14.4396 24.5943 14.1196 23.4057 14.5996 22.2172ZM8.83961 25.7372C8.31961 24.5486 8.39961 22.72 8.47961 21.76C9.19961 22.2629 10.5196 23.3143 10.9996 24.5029C11.5196 25.6914 11.1596 26.88 10.9596 27.3829C10.4396 27.2914 9.31961 26.9257 8.83961 25.7372ZM13.3596 14.1714C13.3196 14.2172 13.2796 14.2172 13.2396 14.2172C12.9596 14.3086 12.6796 14.3086 12.3596 14.2172C12.3196 14.2172 12.2796 14.1714 12.2396 14.1714C11.9596 14.0343 11.7596 13.8057 11.6396 13.4857C11.5996 13.44 11.5996 13.3943 11.5996 13.3486C11.5596 13.1657 11.5196 13.0286 11.5196 12.8457C11.5196 12.6629 11.5596 12.5257 11.5996 12.3429C11.5996 12.2972 11.6396 12.2514 11.6396 12.2057C11.7596 11.8857 11.9596 11.6572 12.2396 11.52C12.2796 11.4743 12.3196 11.4743 12.3596 11.4743C12.6396 11.3829 12.9196 11.3829 13.2396 11.4743C13.2796 11.4743 13.3196 11.52 13.3596 11.52C13.6396 11.6572 13.8396 11.8857 13.9596 12.2057C13.9996 12.2514 13.9996 12.2972 13.9996 12.3429C14.0396 12.5257 14.0796 12.6629 14.0796 12.8457C14.0796 13.0286 14.0396 13.1657 13.9996 13.3486C13.9996 13.3943 13.9596 13.44 13.9596 13.4857C13.8396 13.76 13.6396 13.9886 13.3596 14.1714ZM16.4796 17.0057C16.2796 17.2343 15.2796 16.96 14.4796 16.1829C14.4796 16.1372 14.4796 16.1372 14.4796 16.0914C14.4796 16 14.4796 15.8629 14.4396 15.7714C14.4396 15.7257 14.4396 15.68 14.4396 15.6343C14.4396 15.5429 14.3996 15.4514 14.3996 15.4057C14.3996 15.36 14.3996 15.3143 14.3596 15.2686C14.3196 15.1772 14.3196 15.1314 14.2796 15.04C14.2796 14.9943 14.2796 14.9943 14.2396 14.9486C14.1996 14.8572 14.1596 14.7657 14.1196 14.6743C14.2396 14.5829 14.3196 14.4914 14.3996 14.3543C14.4796 14.4 14.5596 14.4457 14.6396 14.4914C14.6796 14.4914 14.6796 14.4914 14.7196 14.5372C14.7996 14.5829 14.8396 14.5829 14.9196 14.6286C14.9596 14.6286 14.9996 14.6286 15.0396 14.6743C15.1196 14.6743 15.1596 14.72 15.2396 14.72C15.2796 14.72 15.3196 14.72 15.3596 14.72C15.4396 14.72 15.5196 14.72 15.6396 14.7657C15.6796 14.7657 15.6796 14.7657 15.7196 14.7657C16.4396 15.6343 16.6796 16.7314 16.4796 17.0057ZM17.9996 12.8C17.9996 13.1657 17.0396 13.8057 15.9196 13.8057H15.8796H15.8396C15.7196 13.8057 15.5996 13.8057 15.4796 13.76C15.4396 13.76 15.3996 13.76 15.3996 13.76C15.3196 13.76 15.2396 13.7143 15.1996 13.7143C15.1596 13.7143 15.1196 13.7143 15.1196 13.6686C15.0396 13.6229 14.9996 13.6229 14.9596 13.5772L14.9196 13.5314C14.9996 13.3029 15.0396 13.0286 15.0396 12.8C15.0396 12.5714 14.9996 12.2972 14.9196 12.0686L14.9596 12.0229C14.9996 11.9772 15.0796 11.9772 15.1196 11.9314C15.1596 11.9314 15.1596 11.8857 15.1996 11.8857C15.2796 11.8857 15.3196 11.84 15.3996 11.84C15.4396 11.84 15.4796 11.84 15.4796 11.84C15.5996 11.84 15.7196 11.7943 15.8396 11.7943H15.8796H15.9196C17.0396 11.7943 17.9996 12.4343 17.9996 12.8ZM16.4796 8.5943C16.6796 8.82287 16.4396 9.96573 15.7596 10.88C15.7196 10.88 15.6796 10.88 15.6796 10.88C15.5996 10.88 15.4796 10.88 15.3996 10.9257C15.3596 10.9257 15.3196 10.9257 15.2796 10.9257C15.1996 10.9257 15.1196 10.9714 15.0796 10.9714C15.0396 10.9714 14.9996 10.9714 14.9596 11.0172C14.8796 11.0629 14.8396 11.0629 14.7596 11.1086C14.7196 11.1086 14.7196 11.1086 14.6796 11.1543C14.5996 11.2 14.5196 11.2457 14.4396 11.2914C14.3596 11.1543 14.2796 11.0629 14.1596 10.9714C14.1996 10.88 14.2396 10.7886 14.2796 10.6972C14.2796 10.6514 14.2796 10.6514 14.3196 10.6057C14.3596 10.5143 14.3596 10.4686 14.3996 10.3772C14.3996 10.3314 14.3996 10.2857 14.4396 10.24C14.4396 10.1486 14.4796 10.1029 14.4796 10.0114C14.4796 9.96573 14.4796 9.92001 14.4796 9.8743C14.4796 9.78287 14.4796 9.69144 14.5196 9.5543C14.5196 9.50858 14.5196 9.50859 14.5196 9.46287C15.2796 8.64001 16.2396 8.36573 16.4796 8.5943ZM12.7996 6.85716C13.1196 6.85716 13.6796 7.9543 13.6796 9.2343V9.28001V9.32573C13.6796 9.46287 13.6796 9.60001 13.6396 9.73716C13.6396 9.78287 13.6396 9.82859 13.6396 9.82859C13.6396 9.92001 13.5996 10.0114 13.5996 10.0572C13.5996 10.1029 13.5996 10.1486 13.5596 10.1486C13.5196 10.24 13.5196 10.2857 13.4796 10.3314C13.4796 10.3314 13.4796 10.3772 13.4396 10.3772C13.2396 10.2857 12.9996 10.24 12.7996 10.24C12.5996 10.24 12.3596 10.2857 12.1596 10.3772L12.1196 10.3314C12.0796 10.2857 12.0396 10.1943 12.0396 10.1486C12.0396 10.1029 11.9996 10.1029 11.9996 10.0572C11.9996 9.96573 11.9596 9.92001 11.9596 9.82859C11.9596 9.78287 11.9596 9.73716 11.9596 9.73716C11.9596 9.60001 11.9196 9.46287 11.9196 9.32573V9.28001V9.2343C11.9196 7.9543 12.4796 6.85716 12.7996 6.85716ZM9.11961 8.5943C9.31961 8.36573 10.3196 8.64001 11.1196 9.41716C11.1196 9.46287 11.1196 9.46287 11.1196 9.50858C11.1196 9.60001 11.1196 9.73716 11.1596 9.82859C11.1596 9.8743 11.1596 9.92001 11.1596 9.96573C11.1596 10.0572 11.1996 10.1486 11.1996 10.1943C11.1996 10.24 11.1996 10.2857 11.2396 10.3314C11.2796 10.4229 11.2796 10.4686 11.3196 10.56C11.3196 10.6057 11.3196 10.6057 11.3596 10.6514C11.3996 10.7429 11.4396 10.8343 11.4796 10.9257C11.3596 11.0172 11.2796 11.1086 11.1996 11.2457C11.1196 11.2 11.0396 11.1543 10.9596 11.1086C10.9196 11.1086 10.9196 11.1086 10.8796 11.0629C10.7996 11.0172 10.7596 11.0172 10.6796 10.9714C10.6396 10.9714 10.5996 10.9714 10.5596 10.9257C10.4796 10.9257 10.4396 10.88 10.3596 10.88C10.3196 10.88 10.2796 10.88 10.2396 10.88C10.1596 10.88 10.0796 10.88 9.95961 10.8343C9.91961 10.8343 9.91961 10.8343 9.87961 10.8343C9.15961 9.96573 8.91961 8.86858 9.11961 8.5943ZM7.59961 12.8C7.59961 12.4343 8.55961 11.7943 9.67961 11.7943H9.71961H9.75961C9.87961 11.7943 9.99961 11.7943 10.1196 11.84C10.1596 11.84 10.1996 11.84 10.1996 11.84C10.2796 11.84 10.3596 11.8857 10.3996 11.8857C10.4396 11.8857 10.4796 11.8857 10.4796 11.9314C10.5596 11.9772 10.5996 11.9772 10.6396 12.0229L10.6796 12.0686C10.5996 12.2972 10.5596 12.5714 10.5596 12.8C10.5596 13.0286 10.5996 13.3029 10.6796 13.5314L10.6396 13.5772C10.5996 13.6229 10.5196 13.6229 10.4796 13.6686C10.4396 13.6686 10.4396 13.7143 10.3996 13.7143C10.3196 13.7143 10.2796 13.76 10.1996 13.76C10.1596 13.76 10.1196 13.76 10.1196 13.76C9.99961 13.76 9.87961 13.8057 9.75961 13.8057H9.71961H9.67961C8.55961 13.8057 7.59961 13.1657 7.59961 12.8ZM9.11961 17.0057C8.91961 16.7772 9.15961 15.6343 9.83961 14.72C9.87961 14.72 9.91961 14.72 9.91961 14.72C9.99961 14.72 10.1196 14.72 10.1996 14.6743C10.2396 14.6743 10.2796 14.6743 10.3196 14.6743C10.3996 14.6743 10.4796 14.6286 10.5196 14.6286C10.5596 14.6286 10.5996 14.6286 10.6396 14.5829C10.7196 14.5372 10.7596 14.5372 10.8396 14.4914C10.8796 14.4914 10.8796 14.4914 10.9196 14.4457C10.9996 14.4 11.0796 14.3543 11.1596 14.3086C11.2396 14.4457 11.3196 14.5372 11.4396 14.6286C11.3996 14.72 11.3596 14.8114 11.3196 14.9029C11.3196 14.9486 11.3196 14.9486 11.2796 14.9943C11.2396 15.0857 11.2396 15.1314 11.1996 15.2229C11.1996 15.2686 11.1996 15.3143 11.1596 15.36C11.1596 15.4514 11.1196 15.4972 11.1196 15.5886C11.1196 15.6343 11.1196 15.68 11.1196 15.7257C11.1196 15.8172 11.1196 15.9086 11.0796 16.0457C11.0796 16.0914 11.0796 16.0914 11.0796 16.1372C10.3196 16.96 9.31961 17.2343 9.11961 17.0057ZM11.9196 16.3657V16.32V16.2743C11.9196 16.1372 11.9196 16 11.9596 15.8629C11.9596 15.8172 11.9596 15.7714 11.9596 15.7714C11.9596 15.68 11.9996 15.5886 11.9996 15.5429C11.9996 15.4972 11.9996 15.4514 12.0396 15.4514C12.0796 15.36 12.0796 15.3143 12.1196 15.2686C12.1196 15.2686 12.1196 15.2229 12.1596 15.2229C12.5996 15.36 13.0396 15.36 13.4396 15.2229L13.4796 15.2686C13.5196 15.3143 13.5596 15.4057 13.5596 15.4514C13.5596 15.4972 13.5996 15.4972 13.5996 15.5429C13.5996 15.6343 13.6396 15.68 13.6396 15.7714C13.6396 15.8172 13.6396 15.8629 13.6396 15.8629C13.6396 16 13.6796 16.1372 13.6796 16.2743V16.32V16.3657C13.6796 17.6457 13.1196 18.7429 12.7996 18.7429C12.4796 18.7429 11.9196 17.6457 11.9196 16.3657ZM24.3596 26.0114L27.3196 19.52C27.4796 19.1543 27.4796 18.6972 27.3196 18.2857L26.7996 17.0514C26.7596 16.9143 26.7596 16.7772 26.7996 16.64L28.0796 13.8057C28.1196 13.7143 28.1996 13.6229 28.3196 13.5772C28.4396 13.5314 28.5196 13.5314 28.6396 13.6229L32.1996 15.7257C32.2796 15.7714 32.3596 15.8629 32.3996 16C32.4396 16.1372 32.4396 16.2286 32.3596 16.3657L31.0796 19.2C31.0396 19.3372 30.9196 19.4286 30.7996 19.4286L29.5996 19.6572C29.2396 19.7486 28.9196 19.9772 28.7196 20.3886L25.7596 26.88L25.3596 26.6514L24.3596 26.0114ZM19.9996 27.6572L21.1596 25.1429L24.8796 27.3372L25.7996 27.8857L28.2796 29.3486L27.1196 31.9086C26.5996 33.0057 25.9596 34.0114 25.1596 34.9257C25.0796 34.88 25.0396 34.88 24.9596 34.8343C24.5996 34.6972 24.2396 34.56 23.8396 34.6057C23.3996 34.6972 23.0396 34.9714 22.6796 35.2457C22.4396 35.4286 22.1996 35.6114 22.0396 35.6572C21.7996 35.7029 21.5196 35.6572 21.2396 35.6114C20.8796 35.5657 20.4796 35.4743 20.1196 35.6572C20.0796 35.6572 20.0396 35.7029 19.9996 35.7486C19.9596 35.7486 19.9196 35.7029 19.8796 35.6572C19.5996 35.52 19.3196 35.5657 19.0396 35.5657C18.5596 32.8686 18.9196 30.08 19.9996 27.6572ZM17.1996 38.8572H2.59961C2.75961 38.6743 2.99961 38.4914 3.31961 38.2629C3.43961 38.1714 3.55961 38.08 3.71961 37.9886C3.91961 37.8057 4.11961 37.5772 4.31961 37.3029C4.59961 36.9372 4.87961 36.5714 5.19961 36.4343C5.39961 36.3429 5.63961 36.3886 5.91961 36.4343C6.23961 36.48 6.63961 36.5714 7.03961 36.4343C7.35961 36.3429 7.67961 36.1143 7.95961 35.8857C8.23961 35.6572 8.51961 35.4743 8.75961 35.4286C8.95961 35.3829 9.23961 35.52 9.51961 35.6114C9.83961 35.7486 10.1996 35.8857 10.5996 35.84C10.9596 35.7943 11.2796 35.6114 11.5996 35.4286C11.8796 35.2457 12.1596 35.1086 12.3996 35.1086C12.6396 35.1086 12.9196 35.2457 13.1996 35.4286C13.5196 35.6114 13.8396 35.7943 14.1996 35.84C14.5996 35.8857 14.9596 35.7029 15.2796 35.6114C15.5596 35.52 15.8396 35.3829 16.0396 35.4286C16.2796 35.4743 16.5596 35.7029 16.8396 35.8857C17.1196 36.1143 17.4396 36.3429 17.7596 36.4343C18.1596 36.5257 18.5196 36.48 18.8796 36.4343C19.1596 36.3886 19.4396 36.3429 19.5996 36.4343C19.9196 36.5714 20.1996 36.9372 20.4796 37.3029C20.6796 37.5772 20.8796 37.8057 21.0796 37.9886C21.1996 38.08 21.3196 38.1714 21.4796 38.2629C21.7996 38.4914 22.0396 38.6743 22.1996 38.8572H17.1996ZM23.1196 38.8572C22.9196 38.2629 22.4396 37.8972 21.8796 37.4857C21.7596 37.3943 21.6396 37.3029 21.5196 37.2114C21.3996 37.12 21.2396 36.8914 21.0396 36.6629C20.9596 36.5714 20.9196 36.48 20.8396 36.3886C20.9196 36.3886 21.0396 36.4343 21.1196 36.4343C21.4396 36.48 21.8396 36.5714 22.2396 36.4343C22.5596 36.3429 22.8796 36.1143 23.1596 35.8857C23.4396 35.6572 23.7196 35.4743 23.9596 35.4286C24.1596 35.3829 24.4396 35.52 24.7196 35.6114C24.8396 35.6572 24.9996 35.7029 25.1196 35.7486C25.3196 35.7943 25.5596 35.8857 25.7996 35.84C26.1596 35.7943 26.4796 35.6114 26.7996 35.4286C27.0796 35.2457 27.3596 35.1086 27.5996 35.1086C27.8396 35.1086 28.1196 35.2457 28.3996 35.4286C28.7196 35.6114 29.0396 35.7943 29.3996 35.84C29.7996 35.8857 30.1596 35.7029 30.4796 35.6114C30.7596 35.52 31.0396 35.3829 31.2396 35.4286C31.4796 35.4743 31.7596 35.7029 32.0396 35.8857C32.3196 36.1143 32.6396 36.3429 32.9596 36.4343C33.3596 36.5257 33.7196 36.48 34.0796 36.4343C34.3596 36.3886 34.6396 36.3429 34.7996 36.4343C35.1196 36.5714 35.3996 36.9372 35.6796 37.3029C35.8796 37.5772 36.0796 37.8057 36.2796 37.9886C36.3996 38.08 36.5596 38.1714 36.6796 38.3086C36.9996 38.5372 37.2396 38.72 37.3996 38.9029H23.1196V38.8572Z" fill="#EBEBEB"/>
<path d="M37.1196 37.5314C36.9996 37.44 36.8796 37.3486 36.7596 37.2572C36.6396 37.1657 36.4396 36.9372 36.2796 36.7086C35.9596 36.2972 35.5996 35.84 35.0796 35.6114C34.7196 35.4743 34.3196 35.52 33.9596 35.5657C33.6796 35.6114 33.3996 35.6572 33.1596 35.6114C32.9596 35.5657 32.7596 35.3829 32.5196 35.2C32.1996 34.9257 31.7996 34.6514 31.3596 34.6057C30.9596 34.56 30.5996 34.6972 30.2396 34.8343C29.9596 34.9257 29.6796 35.0629 29.4796 35.0172C29.2796 35.0172 29.0396 34.88 28.7596 34.6972C28.3996 34.5143 28.0396 34.2857 27.5996 34.2857C27.1596 34.2857 26.7996 34.5143 26.4396 34.6972C26.3996 34.6972 26.3996 34.7429 26.3596 34.7429C26.9196 33.9657 27.4396 33.1429 27.8396 32.2743L29.1596 29.3486C29.1996 29.2572 29.1996 29.12 29.1996 28.9829C29.1996 28.8457 29.0796 28.7543 28.9996 28.7086L26.5196 27.2457L29.4796 20.7543C29.5196 20.6172 29.6396 20.5257 29.7596 20.5257L30.9596 20.2972C31.3196 20.2057 31.6396 19.9772 31.8396 19.5657L33.1196 16.7314C33.2796 16.4114 33.2796 16.0457 33.1996 15.68C33.1196 15.3143 32.8796 15.04 32.5996 14.8572L28.9996 12.8C28.7196 12.6172 28.3996 12.6172 28.0796 12.7086C27.7596 12.8 27.5196 13.0743 27.3596 13.3943L26.0796 16.2286C25.9196 16.5943 25.9196 17.0514 26.0796 17.4629L26.5996 18.6972C26.6396 18.8343 26.6396 18.9714 26.5996 19.1086L23.6396 25.6L21.1596 24.1372C20.9596 24 20.7196 24.0914 20.6396 24.32L19.3196 27.2457C18.1596 29.8057 17.7996 32.7772 18.2396 35.6572C18.1596 35.6572 18.0396 35.6572 17.9596 35.6114C17.7596 35.5657 17.5596 35.3829 17.3196 35.2C16.9996 34.9257 16.5996 34.6514 16.1596 34.6057C15.7596 34.56 15.3996 34.6972 15.0396 34.8343C14.7596 34.9257 14.5196 35.0629 14.2796 35.0172C14.0796 35.0172 13.8396 34.88 13.5596 34.6972C13.4396 34.6514 13.3196 34.56 13.1996 34.5143V27.6114L14.5596 26.0572C14.9996 26.0114 16.7196 25.6914 17.4796 23.8629C18.3196 21.9429 17.8796 18.7886 17.8396 18.6514C17.7996 18.5143 17.7196 18.3772 17.6396 18.3314C17.5196 18.2857 17.3996 18.2857 17.2796 18.3314C17.1596 18.3772 14.7196 19.8857 13.8796 21.8057C13.1996 23.3143 13.6396 24.8229 13.9196 25.4629L13.1996 26.3314V19.5657C13.8396 19.2457 14.2396 18.24 14.3996 17.2343C14.9596 17.6914 15.6396 18.0114 16.1996 18.0114C16.5196 18.0114 16.7996 17.92 17.0396 17.6457C17.6396 16.96 17.2796 15.6343 16.6796 14.6286C17.7196 14.4 18.7996 13.76 18.7996 12.8C18.7996 11.84 17.7196 11.2 16.6796 10.9714C17.2796 9.96573 17.6396 8.64001 17.0396 7.9543C16.4396 7.26859 15.2796 7.68001 14.3996 8.36573C14.1996 7.17716 13.6396 5.94287 12.7996 5.94287C11.9596 5.94287 11.3996 7.17716 11.1996 8.36573C10.3196 7.68001 9.15961 7.26859 8.55961 7.9543C7.95961 8.64001 8.31961 9.96573 8.91961 10.9714C7.87961 11.2 6.79961 11.84 6.79961 12.8C6.79961 13.76 7.87961 14.4 8.91961 14.6286C8.31961 15.6343 7.95961 16.96 8.55961 17.6457C8.75961 17.8743 9.07961 18.0114 9.39961 18.0114C9.95961 18.0114 10.6396 17.6914 11.1996 17.2343C11.3596 18.24 11.7996 19.2457 12.3996 19.5657V28.6172L11.6796 27.7943C11.9596 27.1086 12.3596 25.6457 11.7196 24.1372C10.8796 22.2172 8.43961 20.7086 8.31961 20.6629C8.19961 20.5714 8.07961 20.5714 7.95961 20.6629C7.83961 20.7086 7.75961 20.8457 7.75961 20.9829C7.75961 21.12 7.31961 24.2743 8.11961 26.1943C8.91961 27.9772 10.6396 28.2972 11.0396 28.3886L12.3996 29.9429V34.2857C11.9596 34.2857 11.5996 34.5143 11.2396 34.6972C10.9996 34.8343 10.7196 34.9714 10.5196 35.0172C10.2796 35.0172 10.0396 34.9257 9.75961 34.8343C9.39961 34.6972 9.03961 34.56 8.63961 34.6057C8.19961 34.6972 7.83961 34.9714 7.47961 35.2C7.23961 35.3829 6.99961 35.5657 6.83961 35.6114C6.59961 35.6572 6.31961 35.6114 6.03961 35.5657C5.67961 35.52 5.27961 35.4286 4.91961 35.6114C4.39961 35.84 4.03961 36.2972 3.71961 36.7086C3.55961 36.9372 3.39961 37.12 3.23961 37.2572C3.11961 37.3486 2.99961 37.44 2.87961 37.5314C2.23961 37.9886 1.59961 38.4457 1.59961 39.3143C1.59961 39.5886 1.75961 39.7714 1.99961 39.7714H17.1996H22.7996H37.9996C38.2396 39.7714 38.3996 39.5886 38.3996 39.3143C38.3996 38.4914 37.7596 37.9886 37.1196 37.5314ZM14.5996 22.2172C15.1196 21.0286 16.3996 20.0229 17.1196 19.4743C17.1996 20.4343 17.2396 22.2629 16.7596 23.4514C16.2396 24.64 15.1596 25.0057 14.6396 25.0972C14.4396 24.5943 14.1196 23.4057 14.5996 22.2172ZM8.83961 25.7372C8.31961 24.5486 8.39961 22.72 8.47961 21.76C9.19961 22.2629 10.5196 23.3143 10.9996 24.5029C11.5196 25.6914 11.1596 26.88 10.9596 27.3829C10.4396 27.2914 9.31961 26.9257 8.83961 25.7372ZM13.3596 14.1714C13.3196 14.2172 13.2796 14.2172 13.2396 14.2172C12.9596 14.3086 12.6796 14.3086 12.3596 14.2172C12.3196 14.2172 12.2796 14.1714 12.2396 14.1714C11.9596 14.0343 11.7596 13.8057 11.6396 13.4857C11.5996 13.44 11.5996 13.3943 11.5996 13.3486C11.5596 13.1657 11.5196 13.0286 11.5196 12.8457C11.5196 12.6629 11.5596 12.5257 11.5996 12.3429C11.5996 12.2972 11.6396 12.2514 11.6396 12.2057C11.7596 11.8857 11.9596 11.6572 12.2396 11.52C12.2796 11.4743 12.3196 11.4743 12.3596 11.4743C12.6396 11.3829 12.9196 11.3829 13.2396 11.4743C13.2796 11.4743 13.3196 11.52 13.3596 11.52C13.6396 11.6572 13.8396 11.8857 13.9596 12.2057C13.9996 12.2514 13.9996 12.2972 13.9996 12.3429C14.0396 12.5257 14.0796 12.6629 14.0796 12.8457C14.0796 13.0286 14.0396 13.1657 13.9996 13.3486C13.9996 13.3943 13.9596 13.44 13.9596 13.4857C13.8396 13.76 13.6396 13.9886 13.3596 14.1714ZM16.4796 17.0057C16.2796 17.2343 15.2796 16.96 14.4796 16.1829C14.4796 16.1372 14.4796 16.1372 14.4796 16.0914C14.4796 16 14.4796 15.8629 14.4396 15.7714C14.4396 15.7257 14.4396 15.68 14.4396 15.6343C14.4396 15.5429 14.3996 15.4514 14.3996 15.4057C14.3996 15.36 14.3996 15.3143 14.3596 15.2686C14.3196 15.1772 14.3196 15.1314 14.2796 15.04C14.2796 14.9943 14.2796 14.9943 14.2396 14.9486C14.1996 14.8572 14.1596 14.7657 14.1196 14.6743C14.2396 14.5829 14.3196 14.4914 14.3996 14.3543C14.4796 14.4 14.5596 14.4457 14.6396 14.4914C14.6796 14.4914 14.6796 14.4914 14.7196 14.5372C14.7996 14.5829 14.8396 14.5829 14.9196 14.6286C14.9596 14.6286 14.9996 14.6286 15.0396 14.6743C15.1196 14.6743 15.1596 14.72 15.2396 14.72C15.2796 14.72 15.3196 14.72 15.3596 14.72C15.4396 14.72 15.5196 14.72 15.6396 14.7657C15.6796 14.7657 15.6796 14.7657 15.7196 14.7657C16.4396 15.6343 16.6796 16.7314 16.4796 17.0057ZM17.9996 12.8C17.9996 13.1657 17.0396 13.8057 15.9196 13.8057H15.8796H15.8396C15.7196 13.8057 15.5996 13.8057 15.4796 13.76C15.4396 13.76 15.3996 13.76 15.3996 13.76C15.3196 13.76 15.2396 13.7143 15.1996 13.7143C15.1596 13.7143 15.1196 13.7143 15.1196 13.6686C15.0396 13.6229 14.9996 13.6229 14.9596 13.5772L14.9196 13.5314C14.9996 13.3029 15.0396 13.0286 15.0396 12.8C15.0396 12.5714 14.9996 12.2972 14.9196 12.0686L14.9596 12.0229C14.9996 11.9772 15.0796 11.9772 15.1196 11.9314C15.1596 11.9314 15.1596 11.8857 15.1996 11.8857C15.2796 11.8857 15.3196 11.84 15.3996 11.84C15.4396 11.84 15.4796 11.84 15.4796 11.84C15.5996 11.84 15.7196 11.7943 15.8396 11.7943H15.8796H15.9196C17.0396 11.7943 17.9996 12.4343 17.9996 12.8ZM16.4796 8.5943C16.6796 8.82287 16.4396 9.96573 15.7596 10.88C15.7196 10.88 15.6796 10.88 15.6796 10.88C15.5996 10.88 15.4796 10.88 15.3996 10.9257C15.3596 10.9257 15.3196 10.9257 15.2796 10.9257C15.1996 10.9257 15.1196 10.9714 15.0796 10.9714C15.0396 10.9714 14.9996 10.9714 14.9596 11.0172C14.8796 11.0629 14.8396 11.0629 14.7596 11.1086C14.7196 11.1086 14.7196 11.1086 14.6796 11.1543C14.5996 11.2 14.5196 11.2457 14.4396 11.2914C14.3596 11.1543 14.2796 11.0629 14.1596 10.9714C14.1996 10.88 14.2396 10.7886 14.2796 10.6972C14.2796 10.6514 14.2796 10.6514 14.3196 10.6057C14.3596 10.5143 14.3596 10.4686 14.3996 10.3772C14.3996 10.3314 14.3996 10.2857 14.4396 10.24C14.4396 10.1486 14.4796 10.1029 14.4796 10.0114C14.4796 9.96573 14.4796 9.92001 14.4796 9.8743C14.4796 9.78287 14.4796 9.69144 14.5196 9.5543C14.5196 9.50858 14.5196 9.50859 14.5196 9.46287C15.2796 8.64001 16.2396 8.36573 16.4796 8.5943ZM12.7996 6.85716C13.1196 6.85716 13.6796 7.9543 13.6796 9.2343V9.28001V9.32573C13.6796 9.46287 13.6796 9.60001 13.6396 9.73716C13.6396 9.78287 13.6396 9.82859 13.6396 9.82859C13.6396 9.92001 13.5996 10.0114 13.5996 10.0572C13.5996 10.1029 13.5996 10.1486 13.5596 10.1486C13.5196 10.24 13.5196 10.2857 13.4796 10.3314C13.4796 10.3314 13.4796 10.3772 13.4396 10.3772C13.2396 10.2857 12.9996 10.24 12.7996 10.24C12.5996 10.24 12.3596 10.2857 12.1596 10.3772L12.1196 10.3314C12.0796 10.2857 12.0396 10.1943 12.0396 10.1486C12.0396 10.1029 11.9996 10.1029 11.9996 10.0572C11.9996 9.96573 11.9596 9.92001 11.9596 9.82859C11.9596 9.78287 11.9596 9.73716 11.9596 9.73716C11.9596 9.60001 11.9196 9.46287 11.9196 9.32573V9.28001V9.2343C11.9196 7.9543 12.4796 6.85716 12.7996 6.85716ZM9.11961 8.5943C9.31961 8.36573 10.3196 8.64001 11.1196 9.41716C11.1196 9.46287 11.1196 9.46287 11.1196 9.50858C11.1196 9.60001 11.1196 9.73716 11.1596 9.82859C11.1596 9.8743 11.1596 9.92001 11.1596 9.96573C11.1596 10.0572 11.1996 10.1486 11.1996 10.1943C11.1996 10.24 11.1996 10.2857 11.2396 10.3314C11.2796 10.4229 11.2796 10.4686 11.3196 10.56C11.3196 10.6057 11.3196 10.6057 11.3596 10.6514C11.3996 10.7429 11.4396 10.8343 11.4796 10.9257C11.3596 11.0172 11.2796 11.1086 11.1996 11.2457C11.1196 11.2 11.0396 11.1543 10.9596 11.1086C10.9196 11.1086 10.9196 11.1086 10.8796 11.0629C10.7996 11.0172 10.7596 11.0172 10.6796 10.9714C10.6396 10.9714 10.5996 10.9714 10.5596 10.9257C10.4796 10.9257 10.4396 10.88 10.3596 10.88C10.3196 10.88 10.2796 10.88 10.2396 10.88C10.1596 10.88 10.0796 10.88 9.95961 10.8343C9.91961 10.8343 9.91961 10.8343 9.87961 10.8343C9.15961 9.96573 8.91961 8.86858 9.11961 8.5943ZM7.59961 12.8C7.59961 12.4343 8.55961 11.7943 9.67961 11.7943H9.71961H9.75961C9.87961 11.7943 9.99961 11.7943 10.1196 11.84C10.1596 11.84 10.1996 11.84 10.1996 11.84C10.2796 11.84 10.3596 11.8857 10.3996 11.8857C10.4396 11.8857 10.4796 11.8857 10.4796 11.9314C10.5596 11.9772 10.5996 11.9772 10.6396 12.0229L10.6796 12.0686C10.5996 12.2972 10.5596 12.5714 10.5596 12.8C10.5596 13.0286 10.5996 13.3029 10.6796 13.5314L10.6396 13.5772C10.5996 13.6229 10.5196 13.6229 10.4796 13.6686C10.4396 13.6686 10.4396 13.7143 10.3996 13.7143C10.3196 13.7143 10.2796 13.76 10.1996 13.76C10.1596 13.76 10.1196 13.76 10.1196 13.76C9.99961 13.76 9.87961 13.8057 9.75961 13.8057H9.71961H9.67961C8.55961 13.8057 7.59961 13.1657 7.59961 12.8ZM9.11961 17.0057C8.91961 16.7772 9.15961 15.6343 9.83961 14.72C9.87961 14.72 9.91961 14.72 9.91961 14.72C9.99961 14.72 10.1196 14.72 10.1996 14.6743C10.2396 14.6743 10.2796 14.6743 10.3196 14.6743C10.3996 14.6743 10.4796 14.6286 10.5196 14.6286C10.5596 14.6286 10.5996 14.6286 10.6396 14.5829C10.7196 14.5372 10.7596 14.5372 10.8396 14.4914C10.8796 14.4914 10.8796 14.4914 10.9196 14.4457C10.9996 14.4 11.0796 14.3543 11.1596 14.3086C11.2396 14.4457 11.3196 14.5372 11.4396 14.6286C11.3996 14.72 11.3596 14.8114 11.3196 14.9029C11.3196 14.9486 11.3196 14.9486 11.2796 14.9943C11.2396 15.0857 11.2396 15.1314 11.1996 15.2229C11.1996 15.2686 11.1996 15.3143 11.1596 15.36C11.1596 15.4514 11.1196 15.4972 11.1196 15.5886C11.1196 15.6343 11.1196 15.68 11.1196 15.7257C11.1196 15.8172 11.1196 15.9086 11.0796 16.0457C11.0796 16.0914 11.0796 16.0914 11.0796 16.1372C10.3196 16.96 9.31961 17.2343 9.11961 17.0057ZM11.9196 16.3657V16.32V16.2743C11.9196 16.1372 11.9196 16 11.9596 15.8629C11.9596 15.8172 11.9596 15.7714 11.9596 15.7714C11.9596 15.68 11.9996 15.5886 11.9996 15.5429C11.9996 15.4972 11.9996 15.4514 12.0396 15.4514C12.0796 15.36 12.0796 15.3143 12.1196 15.2686C12.1196 15.2686 12.1196 15.2229 12.1596 15.2229C12.5996 15.36 13.0396 15.36 13.4396 15.2229L13.4796 15.2686C13.5196 15.3143 13.5596 15.4057 13.5596 15.4514C13.5596 15.4972 13.5996 15.4972 13.5996 15.5429C13.5996 15.6343 13.6396 15.68 13.6396 15.7714C13.6396 15.8172 13.6396 15.8629 13.6396 15.8629C13.6396 16 13.6796 16.1372 13.6796 16.2743V16.32V16.3657C13.6796 17.6457 13.1196 18.7429 12.7996 18.7429C12.4796 18.7429 11.9196 17.6457 11.9196 16.3657ZM24.3596 26.0114L27.3196 19.52C27.4796 19.1543 27.4796 18.6972 27.3196 18.2857L26.7996 17.0514C26.7596 16.9143 26.7596 16.7772 26.7996 16.64L28.0796 13.8057C28.1196 13.7143 28.1996 13.6229 28.3196 13.5772C28.4396 13.5314 28.5196 13.5314 28.6396 13.6229L32.1996 15.7257C32.2796 15.7714 32.3596 15.8629 32.3996 16C32.4396 16.1372 32.4396 16.2286 32.3596 16.3657L31.0796 19.2C31.0396 19.3372 30.9196 19.4286 30.7996 19.4286L29.5996 19.6572C29.2396 19.7486 28.9196 19.9772 28.7196 20.3886L25.7596 26.88L25.3596 26.6514L24.3596 26.0114ZM19.9996 27.6572L21.1596 25.1429L24.8796 27.3372L25.7996 27.8857L28.2796 29.3486L27.1196 31.9086C26.5996 33.0057 25.9596 34.0114 25.1596 34.9257C25.0796 34.88 25.0396 34.88 24.9596 34.8343C24.5996 34.6972 24.2396 34.56 23.8396 34.6057C23.3996 34.6972 23.0396 34.9714 22.6796 35.2457C22.4396 35.4286 22.1996 35.6114 22.0396 35.6572C21.7996 35.7029 21.5196 35.6572 21.2396 35.6114C20.8796 35.5657 20.4796 35.4743 20.1196 35.6572C20.0796 35.6572 20.0396 35.7029 19.9996 35.7486C19.9596 35.7486 19.9196 35.7029 19.8796 35.6572C19.5996 35.52 19.3196 35.5657 19.0396 35.5657C18.5596 32.8686 18.9196 30.08 19.9996 27.6572ZM17.1996 38.8572H2.59961C2.75961 38.6743 2.99961 38.4914 3.31961 38.2629C3.43961 38.1714 3.55961 38.08 3.71961 37.9886C3.91961 37.8057 4.11961 37.5772 4.31961 37.3029C4.59961 36.9372 4.87961 36.5714 5.19961 36.4343C5.39961 36.3429 5.63961 36.3886 5.91961 36.4343C6.23961 36.48 6.63961 36.5714 7.03961 36.4343C7.35961 36.3429 7.67961 36.1143 7.95961 35.8857C8.23961 35.6572 8.51961 35.4743 8.75961 35.4286C8.95961 35.3829 9.23961 35.52 9.51961 35.6114C9.83961 35.7486 10.1996 35.8857 10.5996 35.84C10.9596 35.7943 11.2796 35.6114 11.5996 35.4286C11.8796 35.2457 12.1596 35.1086 12.3996 35.1086C12.6396 35.1086 12.9196 35.2457 13.1996 35.4286C13.5196 35.6114 13.8396 35.7943 14.1996 35.84C14.5996 35.8857 14.9596 35.7029 15.2796 35.6114C15.5596 35.52 15.8396 35.3829 16.0396 35.4286C16.2796 35.4743 16.5596 35.7029 16.8396 35.8857C17.1196 36.1143 17.4396 36.3429 17.7596 36.4343C18.1596 36.5257 18.5196 36.48 18.8796 36.4343C19.1596 36.3886 19.4396 36.3429 19.5996 36.4343C19.9196 36.5714 20.1996 36.9372 20.4796 37.3029C20.6796 37.5772 20.8796 37.8057 21.0796 37.9886C21.1996 38.08 21.3196 38.1714 21.4796 38.2629C21.7996 38.4914 22.0396 38.6743 22.1996 38.8572H17.1996ZM23.1196 38.8572C22.9196 38.2629 22.4396 37.8972 21.8796 37.4857C21.7596 37.3943 21.6396 37.3029 21.5196 37.2114C21.3996 37.12 21.2396 36.8914 21.0396 36.6629C20.9596 36.5714 20.9196 36.48 20.8396 36.3886C20.9196 36.3886 21.0396 36.4343 21.1196 36.4343C21.4396 36.48 21.8396 36.5714 22.2396 36.4343C22.5596 36.3429 22.8796 36.1143 23.1596 35.8857C23.4396 35.6572 23.7196 35.4743 23.9596 35.4286C24.1596 35.3829 24.4396 35.52 24.7196 35.6114C24.8396 35.6572 24.9996 35.7029 25.1196 35.7486C25.3196 35.7943 25.5596 35.8857 25.7996 35.84C26.1596 35.7943 26.4796 35.6114 26.7996 35.4286C27.0796 35.2457 27.3596 35.1086 27.5996 35.1086C27.8396 35.1086 28.1196 35.2457 28.3996 35.4286C28.7196 35.6114 29.0396 35.7943 29.3996 35.84C29.7996 35.8857 30.1596 35.7029 30.4796 35.6114C30.7596 35.52 31.0396 35.3829 31.2396 35.4286C31.4796 35.4743 31.7596 35.7029 32.0396 35.8857C32.3196 36.1143 32.6396 36.3429 32.9596 36.4343C33.3596 36.5257 33.7196 36.48 34.0796 36.4343C34.3596 36.3886 34.6396 36.3429 34.7996 36.4343C35.1196 36.5714 35.3996 36.9372 35.6796 37.3029C35.8796 37.5772 36.0796 37.8057 36.2796 37.9886C36.3996 38.08 36.5596 38.1714 36.6796 38.3086C36.9996 38.5372 37.2396 38.72 37.3996 38.9029H23.1196V38.8572Z" stroke="#EBEBEB" stroke-width="0.4" mask="url(#path-1-outside-1_242_18744)"/>
<path d="M28.5996 17.6913L29.3196 18.1028C29.4796 18.1942 29.6796 18.2399 29.8796 18.2399C30.3196 18.2399 30.7196 17.9656 30.9596 17.5085C31.1196 17.1885 31.1196 16.8228 31.0396 16.4571C30.9596 16.0913 30.7196 15.8171 30.4396 15.6342L29.7196 15.2228C29.4396 15.0399 29.1196 15.0399 28.7996 15.1313C28.4796 15.2228 28.2396 15.4971 28.0796 15.8171C27.7596 16.5028 27.9996 17.3256 28.5996 17.6913ZM28.7596 16.2285C28.7996 16.1371 28.8796 16.0456 28.9996 15.9999C29.1196 15.9542 29.1996 15.9542 29.3196 16.0456L30.0396 16.4571C30.1196 16.5028 30.1996 16.5942 30.2396 16.7313C30.2796 16.8685 30.2796 16.9599 30.1996 17.0971C30.0796 17.3256 29.8396 17.4171 29.6796 17.2799L28.9596 16.8685C28.7596 16.7313 28.6796 16.4571 28.7596 16.2285Z" fill="#EBEBEB"/>
</g>
<g clip-path="url(#clip1_242_18744)">
<path d="M37.1196 37.5312C36.9996 37.4398 36.8796 37.3483 36.7596 37.2569C36.6396 37.1655 36.4396 36.9369 36.2796 36.7083C35.9596 36.2969 35.5996 35.8398 35.0796 35.6112C34.7196 35.4741 34.3196 35.5198 33.9596 35.5655C33.6796 35.6112 33.3996 35.6569 33.1596 35.6112C32.9596 35.5655 32.7596 35.3826 32.5196 35.1998C32.1996 34.9255 31.7996 34.6512 31.3596 34.6055C30.9596 34.5598 30.5996 34.6969 30.2396 34.834C29.9596 34.9255 29.6796 35.0626 29.4796 35.0169C29.2796 35.0169 29.0396 34.8798 28.7596 34.6969C28.3996 34.5141 28.0396 34.2855 27.5996 34.2855C27.1596 34.2855 26.7996 34.5141 26.4396 34.6969C26.3996 34.6969 26.3996 34.7426 26.3596 34.7426C26.9196 33.9655 27.4396 33.1426 27.8396 32.274L29.1596 29.3483C29.1996 29.2569 29.1996 29.1198 29.1996 28.9826C29.1996 28.8455 29.0796 28.7541 28.9996 28.7083L26.5196 27.2455L29.4796 20.7541C29.5196 20.6169 29.6396 20.5255 29.7596 20.5255L30.9596 20.2969C31.3196 20.2055 31.6396 19.9769 31.8396 19.5655L33.1196 16.7312C33.2796 16.4112 33.2796 16.0455 33.1996 15.6798C33.1196 15.3141 32.8796 15.0398 32.5996 14.8569L28.9996 12.7998C28.7196 12.6169 28.3996 12.6169 28.0796 12.7083C27.7596 12.7998 27.5196 13.0741 27.3596 13.3941L26.0796 16.2283C25.9196 16.5941 25.9196 17.0512 26.0796 17.4626L26.5996 18.6969C26.6396 18.8341 26.6396 18.9712 26.5996 19.1083L23.6396 25.5998L21.1596 24.1369C20.9596 23.9998 20.7196 24.0912 20.6396 24.3198L19.3196 27.2455C18.1596 29.8055 17.7996 32.7769 18.2396 35.6569C18.1596 35.6569 18.0396 35.6569 17.9596 35.6112C17.7596 35.5655 17.5596 35.3826 17.3196 35.1998C16.9996 34.9255 16.5996 34.6512 16.1596 34.6055C15.7596 34.5598 15.3996 34.6969 15.0396 34.834C14.7596 34.9255 14.5196 35.0626 14.2796 35.0169C14.0796 35.0169 13.8396 34.8798 13.5596 34.6969C13.4396 34.6512 13.3196 34.5598 13.1996 34.5141V27.6112L14.5596 26.0569C14.9996 26.0112 16.7196 25.6912 17.4796 23.8626C18.3196 21.9426 17.8796 18.7883 17.8396 18.6512C17.7996 18.5141 17.7196 18.3769 17.6396 18.3312C17.5196 18.2855 17.3996 18.2855 17.2796 18.3312C17.1596 18.3769 14.7196 19.8855 13.8796 21.8055C13.1996 23.3141 13.6396 24.8226 13.9196 25.4626L13.1996 26.3312V19.5655C13.8396 19.2455 14.2396 18.2398 14.3996 17.2341C14.9596 17.6912 15.6396 18.0112 16.1996 18.0112C16.5196 18.0112 16.7996 17.9198 17.0396 17.6455C17.6396 16.9598 17.2796 15.6341 16.6796 14.6283C17.7196 14.3998 18.7996 13.7598 18.7996 12.7998C18.7996 11.8398 17.7196 11.1998 16.6796 10.9712C17.2796 9.96548 17.6396 8.63977 17.0396 7.95406C16.4396 7.26834 15.2796 7.67977 14.3996 8.36548C14.1996 7.17691 13.6396 5.94263 12.7996 5.94263C11.9596 5.94263 11.3996 7.17691 11.1996 8.36548C10.3196 7.67977 9.15961 7.26834 8.55961 7.95406C7.95961 8.63977 8.31961 9.96548 8.91961 10.9712C7.87961 11.1998 6.79961 11.8398 6.79961 12.7998C6.79961 13.7598 7.87961 14.3998 8.91961 14.6283C8.31961 15.6341 7.95961 16.9598 8.55961 17.6455C8.75961 17.8741 9.07961 18.0112 9.39961 18.0112C9.95961 18.0112 10.6396 17.6912 11.1996 17.2341C11.3596 18.2398 11.7996 19.2455 12.3996 19.5655V28.6169L11.6796 27.7941C11.9596 27.1083 12.3596 25.6455 11.7196 24.1369C10.8796 22.2169 8.43961 20.7083 8.31961 20.6626C8.19961 20.5712 8.07961 20.5712 7.95961 20.6626C7.83961 20.7083 7.75961 20.8455 7.75961 20.9826C7.75961 21.1198 7.31961 24.2741 8.11961 26.1941C8.91961 27.9769 10.6396 28.2969 11.0396 28.3883L12.3996 29.9426V34.2855C11.9596 34.2855 11.5996 34.5141 11.2396 34.6969C10.9996 34.8341 10.7196 34.9712 10.5196 35.0169C10.2796 35.0169 10.0396 34.9255 9.75961 34.834C9.39961 34.6969 9.03961 34.5598 8.63961 34.6055C8.19961 34.6969 7.83961 34.9712 7.47961 35.1998C7.23961 35.3826 6.99961 35.5655 6.83961 35.6112C6.59961 35.6569 6.31961 35.6112 6.03961 35.5655C5.67961 35.5198 5.27961 35.4283 4.91961 35.6112C4.39961 35.8398 4.03961 36.2969 3.71961 36.7083C3.55961 36.9369 3.39961 37.1198 3.23961 37.2569C3.11961 37.3483 2.99961 37.4398 2.87961 37.5312C2.23961 37.9883 1.59961 38.4455 1.59961 39.3141C1.59961 39.5883 1.75961 39.7712 1.99961 39.7712H17.1996H22.7996H37.9996C38.2396 39.7712 38.3996 39.5883 38.3996 39.3141C38.3996 38.4912 37.7596 37.9883 37.1196 37.5312ZM14.5996 22.2169C15.1196 21.0283 16.3996 20.0226 17.1196 19.4741C17.1996 20.4341 17.2396 22.2626 16.7596 23.4512C16.2396 24.6398 15.1596 25.0055 14.6396 25.0969C14.4396 24.5941 14.1196 23.4055 14.5996 22.2169ZM8.83961 25.7369C8.31961 24.5483 8.39961 22.7198 8.47961 21.7598C9.19961 22.2626 10.5196 23.3141 10.9996 24.5026C11.5196 25.6912 11.1596 26.8798 10.9596 27.3826C10.4396 27.2912 9.31961 26.9255 8.83961 25.7369ZM13.3596 14.1712C13.3196 14.2169 13.2796 14.2169 13.2396 14.2169C12.9596 14.3083 12.6796 14.3083 12.3596 14.2169C12.3196 14.2169 12.2796 14.1712 12.2396 14.1712C11.9596 14.0341 11.7596 13.8055 11.6396 13.4855C11.5996 13.4398 11.5996 13.3941 11.5996 13.3483C11.5596 13.1655 11.5196 13.0283 11.5196 12.8455C11.5196 12.6626 11.5596 12.5255 11.5996 12.3426C11.5996 12.2969 11.6396 12.2512 11.6396 12.2055C11.7596 11.8855 11.9596 11.6569 12.2396 11.5198C12.2796 11.4741 12.3196 11.4741 12.3596 11.4741C12.6396 11.3826 12.9196 11.3826 13.2396 11.4741C13.2796 11.4741 13.3196 11.5198 13.3596 11.5198C13.6396 11.6569 13.8396 11.8855 13.9596 12.2055C13.9996 12.2512 13.9996 12.2969 13.9996 12.3426C14.0396 12.5255 14.0796 12.6626 14.0796 12.8455C14.0796 13.0283 14.0396 13.1655 13.9996 13.3483C13.9996 13.3941 13.9596 13.4398 13.9596 13.4855C13.8396 13.7598 13.6396 13.9883 13.3596 14.1712ZM16.4796 17.0055C16.2796 17.2341 15.2796 16.9598 14.4796 16.1826C14.4796 16.1369 14.4796 16.1369 14.4796 16.0912C14.4796 15.9998 14.4796 15.8626 14.4396 15.7712C14.4396 15.7255 14.4396 15.6798 14.4396 15.6341C14.4396 15.5426 14.3996 15.4512 14.3996 15.4055C14.3996 15.3598 14.3996 15.3141 14.3596 15.2683C14.3196 15.1769 14.3196 15.1312 14.2796 15.0398C14.2796 14.9941 14.2796 14.9941 14.2396 14.9483C14.1996 14.8569 14.1596 14.7655 14.1196 14.6741C14.2396 14.5826 14.3196 14.4912 14.3996 14.3541C14.4796 14.3998 14.5596 14.4455 14.6396 14.4912C14.6796 14.4912 14.6796 14.4912 14.7196 14.5369C14.7996 14.5826 14.8396 14.5826 14.9196 14.6283C14.9596 14.6283 14.9996 14.6283 15.0396 14.6741C15.1196 14.6741 15.1596 14.7198 15.2396 14.7198C15.2796 14.7198 15.3196 14.7198 15.3596 14.7198C15.4396 14.7198 15.5196 14.7198 15.6396 14.7655C15.6796 14.7655 15.6796 14.7655 15.7196 14.7655C16.4396 15.6341 16.6796 16.7312 16.4796 17.0055ZM17.9996 12.7998C17.9996 13.1655 17.0396 13.8055 15.9196 13.8055H15.8796H15.8396C15.7196 13.8055 15.5996 13.8055 15.4796 13.7598C15.4396 13.7598 15.3996 13.7598 15.3996 13.7598C15.3196 13.7598 15.2396 13.7141 15.1996 13.7141C15.1596 13.7141 15.1196 13.7141 15.1196 13.6683C15.0396 13.6226 14.9996 13.6226 14.9596 13.5769L14.9196 13.5312C14.9996 13.3026 15.0396 13.0283 15.0396 12.7998C15.0396 12.5712 14.9996 12.2969 14.9196 12.0683L14.9596 12.0226C14.9996 11.9769 15.0796 11.9769 15.1196 11.9312C15.1596 11.9312 15.1596 11.8855 15.1996 11.8855C15.2796 11.8855 15.3196 11.8398 15.3996 11.8398C15.4396 11.8398 15.4796 11.8398 15.4796 11.8398C15.5996 11.8398 15.7196 11.7941 15.8396 11.7941H15.8796H15.9196C17.0396 11.7941 17.9996 12.4341 17.9996 12.7998ZM16.4796 8.59405C16.6796 8.82263 16.4396 9.96548 15.7596 10.8798C15.7196 10.8798 15.6796 10.8798 15.6796 10.8798C15.5996 10.8798 15.4796 10.8798 15.3996 10.9255C15.3596 10.9255 15.3196 10.9255 15.2796 10.9255C15.1996 10.9255 15.1196 10.9712 15.0796 10.9712C15.0396 10.9712 14.9996 10.9712 14.9596 11.0169C14.8796 11.0626 14.8396 11.0626 14.7596 11.1083C14.7196 11.1083 14.7196 11.1083 14.6796 11.1541C14.5996 11.1998 14.5196 11.2455 14.4396 11.2912C14.3596 11.1541 14.2796 11.0626 14.1596 10.9712C14.1996 10.8798 14.2396 10.7883 14.2796 10.6969C14.2796 10.6512 14.2796 10.6512 14.3196 10.6055C14.3596 10.5141 14.3596 10.4683 14.3996 10.3769C14.3996 10.3312 14.3996 10.2855 14.4396 10.2398C14.4396 10.1483 14.4796 10.1026 14.4796 10.0112C14.4796 9.96548 14.4796 9.91977 14.4796 9.87406C14.4796 9.78263 14.4796 9.6912 14.5196 9.55405C14.5196 9.50834 14.5196 9.50834 14.5196 9.46263C15.2796 8.63977 16.2396 8.36548 16.4796 8.59405ZM12.7996 6.85691C13.1196 6.85691 13.6796 7.95406 13.6796 9.23406V9.27977V9.32548C13.6796 9.46263 13.6796 9.59977 13.6396 9.73691C13.6396 9.78263 13.6396 9.82834 13.6396 9.82834C13.6396 9.91977 13.5996 10.0112 13.5996 10.0569C13.5996 10.1026 13.5996 10.1483 13.5596 10.1483C13.5196 10.2398 13.5196 10.2855 13.4796 10.3312C13.4796 10.3312 13.4796 10.3769 13.4396 10.3769C13.2396 10.2855 12.9996 10.2398 12.7996 10.2398C12.5996 10.2398 12.3596 10.2855 12.1596 10.3769L12.1196 10.3312C12.0796 10.2855 12.0396 10.1941 12.0396 10.1483C12.0396 10.1026 11.9996 10.1026 11.9996 10.0569C11.9996 9.96548 11.9596 9.91977 11.9596 9.82834C11.9596 9.78263 11.9596 9.73691 11.9596 9.73691C11.9596 9.59977 11.9196 9.46263 11.9196 9.32548V9.27977V9.23406C11.9196 7.95406 12.4796 6.85691 12.7996 6.85691ZM9.11961 8.59405C9.31961 8.36548 10.3196 8.63977 11.1196 9.41691C11.1196 9.46263 11.1196 9.46263 11.1196 9.50834C11.1196 9.59977 11.1196 9.73691 11.1596 9.82834C11.1596 9.87406 11.1596 9.91977 11.1596 9.96548C11.1596 10.0569 11.1996 10.1483 11.1996 10.1941C11.1996 10.2398 11.1996 10.2855 11.2396 10.3312C11.2796 10.4226 11.2796 10.4683 11.3196 10.5598C11.3196 10.6055 11.3196 10.6055 11.3596 10.6512C11.3996 10.7426 11.4396 10.8341 11.4796 10.9255C11.3596 11.0169 11.2796 11.1083 11.1996 11.2455C11.1196 11.1998 11.0396 11.1541 10.9596 11.1083C10.9196 11.1083 10.9196 11.1083 10.8796 11.0626C10.7996 11.0169 10.7596 11.0169 10.6796 10.9712C10.6396 10.9712 10.5996 10.9712 10.5596 10.9255C10.4796 10.9255 10.4396 10.8798 10.3596 10.8798C10.3196 10.8798 10.2796 10.8798 10.2396 10.8798C10.1596 10.8798 10.0796 10.8798 9.95961 10.8341C9.91961 10.8341 9.91961 10.8341 9.87961 10.8341C9.15961 9.96548 8.91961 8.86834 9.11961 8.59405ZM7.59961 12.7998C7.59961 12.4341 8.55961 11.7941 9.67961 11.7941H9.71961H9.75961C9.87961 11.7941 9.99961 11.7941 10.1196 11.8398C10.1596 11.8398 10.1996 11.8398 10.1996 11.8398C10.2796 11.8398 10.3596 11.8855 10.3996 11.8855C10.4396 11.8855 10.4796 11.8855 10.4796 11.9312C10.5596 11.9769 10.5996 11.9769 10.6396 12.0226L10.6796 12.0683C10.5996 12.2969 10.5596 12.5712 10.5596 12.7998C10.5596 13.0283 10.5996 13.3026 10.6796 13.5312L10.6396 13.5769C10.5996 13.6226 10.5196 13.6226 10.4796 13.6683C10.4396 13.6683 10.4396 13.7141 10.3996 13.7141C10.3196 13.7141 10.2796 13.7598 10.1996 13.7598C10.1596 13.7598 10.1196 13.7598 10.1196 13.7598C9.99961 13.7598 9.87961 13.8055 9.75961 13.8055H9.71961H9.67961C8.55961 13.8055 7.59961 13.1655 7.59961 12.7998ZM9.11961 17.0055C8.91961 16.7769 9.15961 15.6341 9.83961 14.7198C9.87961 14.7198 9.91961 14.7198 9.91961 14.7198C9.99961 14.7198 10.1196 14.7198 10.1996 14.6741C10.2396 14.6741 10.2796 14.6741 10.3196 14.6741C10.3996 14.6741 10.4796 14.6283 10.5196 14.6283C10.5596 14.6283 10.5996 14.6283 10.6396 14.5826C10.7196 14.5369 10.7596 14.5369 10.8396 14.4912C10.8796 14.4912 10.8796 14.4912 10.9196 14.4455C10.9996 14.3998 11.0796 14.3541 11.1596 14.3083C11.2396 14.4455 11.3196 14.5369 11.4396 14.6283C11.3996 14.7198 11.3596 14.8112 11.3196 14.9026C11.3196 14.9483 11.3196 14.9483 11.2796 14.9941C11.2396 15.0855 11.2396 15.1312 11.1996 15.2226C11.1996 15.2683 11.1996 15.3141 11.1596 15.3598C11.1596 15.4512 11.1196 15.4969 11.1196 15.5883C11.1196 15.6341 11.1196 15.6798 11.1196 15.7255C11.1196 15.8169 11.1196 15.9083 11.0796 16.0455C11.0796 16.0912 11.0796 16.0912 11.0796 16.1369C10.3196 16.9598 9.31961 17.2341 9.11961 17.0055ZM11.9196 16.3655V16.3198V16.2741C11.9196 16.1369 11.9196 15.9998 11.9596 15.8626C11.9596 15.8169 11.9596 15.7712 11.9596 15.7712C11.9596 15.6798 11.9996 15.5883 11.9996 15.5426C11.9996 15.4969 11.9996 15.4512 12.0396 15.4512C12.0796 15.3598 12.0796 15.3141 12.1196 15.2683C12.1196 15.2683 12.1196 15.2226 12.1596 15.2226C12.5996 15.3598 13.0396 15.3598 13.4396 15.2226L13.4796 15.2683C13.5196 15.3141 13.5596 15.4055 13.5596 15.4512C13.5596 15.4969 13.5996 15.4969 13.5996 15.5426C13.5996 15.6341 13.6396 15.6798 13.6396 15.7712C13.6396 15.8169 13.6396 15.8626 13.6396 15.8626C13.6396 15.9998 13.6796 16.1369 13.6796 16.2741V16.3198V16.3655C13.6796 17.6455 13.1196 18.7426 12.7996 18.7426C12.4796 18.7426 11.9196 17.6455 11.9196 16.3655ZM24.3596 26.0112L27.3196 19.5198C27.4796 19.1541 27.4796 18.6969 27.3196 18.2855L26.7996 17.0512C26.7596 16.9141 26.7596 16.7769 26.7996 16.6398L28.0796 13.8055C28.1196 13.7141 28.1996 13.6226 28.3196 13.5769C28.4396 13.5312 28.5196 13.5312 28.6396 13.6226L32.1996 15.7255C32.2796 15.7712 32.3596 15.8626 32.3996 15.9998C32.4396 16.1369 32.4396 16.2283 32.3596 16.3655L31.0796 19.1998C31.0396 19.3369 30.9196 19.4283 30.7996 19.4283L29.5996 19.6569C29.2396 19.7483 28.9196 19.9769 28.7196 20.3883L25.7596 26.8798L25.3596 26.6512L24.3596 26.0112ZM19.9996 27.6569L21.1596 25.1426L24.8796 27.3369L25.7996 27.8855L28.2796 29.3483L27.1196 31.9083C26.5996 33.0055 25.9596 34.0112 25.1596 34.9255C25.0796 34.8798 25.0396 34.8798 24.9596 34.834C24.5996 34.6969 24.2396 34.5598 23.8396 34.6055C23.3996 34.6969 23.0396 34.9712 22.6796 35.2455C22.4396 35.4283 22.1996 35.6112 22.0396 35.6569C21.7996 35.7026 21.5196 35.6569 21.2396 35.6112C20.8796 35.5655 20.4796 35.4741 20.1196 35.6569C20.0796 35.6569 20.0396 35.7026 19.9996 35.7483C19.9596 35.7483 19.9196 35.7026 19.8796 35.6569C19.5996 35.5198 19.3196 35.5655 19.0396 35.5655C18.5596 32.8683 18.9196 30.0798 19.9996 27.6569ZM17.1996 38.8569H2.59961C2.75961 38.674 2.99961 38.4912 3.31961 38.2626C3.43961 38.1712 3.55961 38.0798 3.71961 37.9883C3.91961 37.8055 4.11961 37.5769 4.31961 37.3026C4.59961 36.9369 4.87961 36.5712 5.19961 36.434C5.39961 36.3426 5.63961 36.3883 5.91961 36.434C6.23961 36.4798 6.63961 36.5712 7.03961 36.434C7.35961 36.3426 7.67961 36.1141 7.95961 35.8855C8.23961 35.6569 8.51961 35.4741 8.75961 35.4283C8.95961 35.3826 9.23961 35.5198 9.51961 35.6112C9.83961 35.7483 10.1996 35.8855 10.5996 35.8398C10.9596 35.7941 11.2796 35.6112 11.5996 35.4283C11.8796 35.2455 12.1596 35.1083 12.3996 35.1083C12.6396 35.1083 12.9196 35.2455 13.1996 35.4283C13.5196 35.6112 13.8396 35.7941 14.1996 35.8398C14.5996 35.8855 14.9596 35.7026 15.2796 35.6112C15.5596 35.5198 15.8396 35.3826 16.0396 35.4283C16.2796 35.4741 16.5596 35.7026 16.8396 35.8855C17.1196 36.1141 17.4396 36.3426 17.7596 36.434C18.1596 36.5255 18.5196 36.4798 18.8796 36.434C19.1596 36.3883 19.4396 36.3426 19.5996 36.434C19.9196 36.5712 20.1996 36.9369 20.4796 37.3026C20.6796 37.5769 20.8796 37.8055 21.0796 37.9883C21.1996 38.0798 21.3196 38.1712 21.4796 38.2626C21.7996 38.4912 22.0396 38.674 22.1996 38.8569H17.1996ZM23.1196 38.8569C22.9196 38.2626 22.4396 37.8969 21.8796 37.4855C21.7596 37.3941 21.6396 37.3026 21.5196 37.2112C21.3996 37.1198 21.2396 36.8912 21.0396 36.6626C20.9596 36.5712 20.9196 36.4798 20.8396 36.3883C20.9196 36.3883 21.0396 36.434 21.1196 36.434C21.4396 36.4798 21.8396 36.5712 22.2396 36.434C22.5596 36.3426 22.8796 36.1141 23.1596 35.8855C23.4396 35.6569 23.7196 35.4741 23.9596 35.4283C24.1596 35.3826 24.4396 35.5198 24.7196 35.6112C24.8396 35.6569 24.9996 35.7026 25.1196 35.7483C25.3196 35.7941 25.5596 35.8855 25.7996 35.8398C26.1596 35.7941 26.4796 35.6112 26.7996 35.4283C27.0796 35.2455 27.3596 35.1083 27.5996 35.1083C27.8396 35.1083 28.1196 35.2455 28.3996 35.4283C28.7196 35.6112 29.0396 35.7941 29.3996 35.8398C29.7996 35.8855 30.1596 35.7026 30.4796 35.6112C30.7596 35.5198 31.0396 35.3826 31.2396 35.4283C31.4796 35.4741 31.7596 35.7026 32.0396 35.8855C32.3196 36.1141 32.6396 36.3426 32.9596 36.434C33.3596 36.5255 33.7196 36.4798 34.0796 36.434C34.3596 36.3883 34.6396 36.3426 34.7996 36.434C35.1196 36.5712 35.3996 36.9369 35.6796 37.3026C35.8796 37.5769 36.0796 37.8055 36.2796 37.9883C36.3996 38.0798 36.5596 38.1712 36.6796 38.3083C36.9996 38.5369 37.2396 38.7198 37.3996 38.9026H23.1196V38.8569Z" fill="#A2ECDF"/>
</g>
<defs>
<clipPath id="clip0_242_18744">
<rect width="40" height="34.2857" fill="white"/>
</clipPath>
<clipPath id="clip1_242_18744">
<rect width="40" height="5.71429" fill="white" transform="translate(0 34.2856)"/>
</clipPath>
</defs>
</svg>
