<svg width="15" height="15" viewBox="0 0 15 15" fill="none" xmlns="http://www.w3.org/2000/svg">
<path d="M4.03125 14.2188C3.775 14.2188 3.5625 14.0063 3.5625 13.75V1.25C3.5625 0.99375 3.775 0.78125 4.03125 0.78125C4.2875 0.78125 4.5 0.99375 4.5 1.25V13.75C4.5 14.0063 4.2875 14.2188 4.03125 14.2188Z" fill="#969696"/>
<path d="M4.34378 11.0937C4.16878 11.0937 4.00628 11 3.92503 10.8312C3.81253 10.6 3.90628 10.3187 4.13753 10.2062L9.32503 7.64373C10.0875 7.24998 10.5188 6.77498 10.5 6.33123C10.4813 5.89998 10.0188 5.45623 9.22503 5.11873L4.16253 2.93123C3.91878 2.82498 3.81253 2.54998 3.91253 2.31248C4.01253 2.07498 4.29378 1.96248 4.53128 2.06873L9.59378 4.25623C11.1563 4.91873 11.4188 5.81873 11.4375 6.29373C11.4688 7.12498 10.8688 7.89998 9.75003 8.47498L4.55628 11.0437C4.48753 11.0812 4.41253 11.0937 4.34378 11.0937Z" fill="#969696"/>
</svg>
