<svg width="196" height="120" viewBox="0 0 196 120" fill="none" xmlns="http://www.w3.org/2000/svg">
<path fill-rule="evenodd" clip-rule="evenodd" d="M88.4157 3.61084H115.916C118.443 3.61084 120.5 5.69071 120.5 8.24499V28.634C120.5 31.1883 118.443 33.2681 115.916 33.2681H88.4157C85.8896 33.2681 83.8323 31.1883 83.8323 28.634V8.24499C83.8323 5.69071 85.8896 3.61084 88.4157 3.61084ZM115.916 7.31809H88.4157C87.9098 7.31809 87.4992 7.73314 87.4992 8.2449V25.7407L92.5593 20.6266C93.8115 19.3589 95.8521 19.3589 97.106 20.6266L99.3243 22.8639L106.134 14.6009C106.742 13.863 107.633 13.4368 108.583 13.4314C109.538 13.4534 110.427 13.8427 111.042 14.5711L116.833 21.4034V8.24499C116.833 7.73323 116.423 7.31809 115.916 7.31809ZM81.4638 31.3196C82.4119 34.1482 85.0225 36.0481 87.9575 36.0481H114.573L112.921 41.3583C112.453 43.164 110.785 44.3892 108.959 44.3892C108.603 44.3889 108.248 44.3428 107.903 44.2521L79.5532 36.5762C77.3662 35.9664 76.0626 33.6775 76.6347 31.4697L81.0824 16.4595V29.0973C81.0824 29.7275 81.176 30.3575 81.3997 31.1065L81.4638 31.3196ZM96.666 12.8785C96.666 14.923 95.0218 16.5857 92.9995 16.5857C90.9772 16.5857 89.3326 14.9229 89.3326 12.8785C89.3326 10.834 90.9771 9.1712 92.9995 9.1712C95.0218 9.1712 96.666 10.8339 96.666 12.8785Z" fill="#A2ECDF"/>
<path d="M38.076 80.722C37.08 81.718 35.91 82.216 34.566 82.216C32.634 82.216 31.194 81.496 30.246 80.056C29.562 79.024 29.22 77.812 29.22 76.42C29.22 74.608 29.688 73.15 30.624 72.046C31.548 70.942 32.832 70.39 34.476 70.39C35.628 70.39 36.78 70.876 37.932 71.848L37.014 73.342C36.15 72.718 35.364 72.406 34.656 72.406C33.672 72.406 32.91 72.82 32.37 73.648C31.902 74.356 31.668 75.28 31.668 76.42C31.668 77.428 31.944 78.292 32.496 79.012C33.084 79.768 33.87 80.146 34.854 80.146C35.502 80.146 36.27 79.864 37.158 79.3L38.076 80.722ZM42.2928 70.39V82H40.0248V71.578L42.2928 70.39ZM46.9317 73.828V82H44.6457V73.828H46.9317ZM44.3757 71.74C44.3757 71.356 44.5077 71.026 44.7717 70.75C45.0477 70.462 45.3717 70.318 45.7437 70.318C46.1397 70.318 46.4757 70.456 46.7517 70.732C47.0397 71.008 47.1837 71.344 47.1837 71.74C47.1837 72.16 47.0457 72.502 46.7697 72.766C46.5057 73.03 46.1637 73.162 45.7437 73.162C45.3477 73.162 45.0177 73.03 44.7537 72.766C44.5017 72.49 44.3757 72.148 44.3757 71.74ZM56.1289 80.956C55.2769 81.796 54.2689 82.216 53.1049 82.216C51.7129 82.216 50.6089 81.772 49.7929 80.884C49.0849 80.104 48.7309 79.126 48.7309 77.95C48.7309 76.63 49.1869 75.55 50.0989 74.71C50.8909 73.978 51.8569 73.612 52.9969 73.612C54.2569 73.612 55.2709 74.008 56.0389 74.8L55.3549 76.024C54.7429 75.484 54.0769 75.214 53.3569 75.214C52.6849 75.214 52.1329 75.478 51.7009 76.006C51.2689 76.522 51.0529 77.188 51.0529 78.004C51.0529 78.76 51.2629 79.384 51.6829 79.876C52.1149 80.356 52.6609 80.596 53.3209 80.596C54.1129 80.596 54.7909 80.302 55.3549 79.714L56.1289 80.956ZM65.463 73.828L61.593 77.122C63.033 79.282 64.143 80.908 64.923 82H62.367C61.359 80.272 60.597 78.976 60.081 78.112V82H57.813V71.578L60.081 70.39V75.808C60.669 75.34 61.455 74.68 62.439 73.828H65.463ZM76.2149 75.646H73.8749V79.696C73.8749 80.296 74.0729 80.596 74.4689 80.596C74.8289 80.596 75.2789 80.44 75.8189 80.128L76.5749 81.28C75.7229 81.952 74.7809 82.288 73.7489 82.288C72.3089 82.288 71.5889 81.496 71.5889 79.912V75.646H70.4549V73.828H71.6069V72.37C72.2069 72.046 72.9689 71.644 73.8929 71.164V73.828H76.2149V75.646ZM81.6094 73.612C82.9534 73.612 83.9974 74.086 84.7414 75.034C85.3654 75.826 85.6774 76.792 85.6774 77.932C85.6774 79.264 85.2154 80.344 84.2914 81.172C83.5234 81.868 82.6294 82.216 81.6094 82.216C80.4214 82.216 79.4254 81.772 78.6214 80.884C77.9014 80.08 77.5414 79.096 77.5414 77.932C77.5414 76.612 77.9434 75.544 78.7474 74.728C79.4794 73.984 80.4334 73.612 81.6094 73.612ZM81.6094 80.524C82.7734 80.524 83.3554 79.66 83.3554 77.932C83.3554 76.132 82.7734 75.232 81.6094 75.232C80.4454 75.232 79.8634 76.132 79.8634 77.932C79.8634 79.66 80.4454 80.524 81.6094 80.524ZM92.1314 70.624C92.7194 70.468 93.7574 70.39 95.2454 70.39C97.2974 70.39 98.8634 70.99 99.9434 72.19C100.867 73.21 101.329 74.542 101.329 76.186C101.329 78.238 100.741 79.78 99.5654 80.812C98.4974 81.748 97.0094 82.216 95.1014 82.216C93.9014 82.216 92.9114 82.138 92.1314 81.982V70.624ZM94.4894 80.272C94.7294 80.332 95.0294 80.362 95.3894 80.362C97.7054 80.362 98.8634 78.994 98.8634 76.258C98.8634 74.902 98.4794 73.864 97.7114 73.144C97.0874 72.568 96.2954 72.28 95.3354 72.28C95.0594 72.28 94.7774 72.31 94.4894 72.37V80.272ZM106.799 73.612C108.143 73.612 109.187 74.086 109.931 75.034C110.555 75.826 110.867 76.792 110.867 77.932C110.867 79.264 110.405 80.344 109.481 81.172C108.713 81.868 107.819 82.216 106.799 82.216C105.611 82.216 104.615 81.772 103.811 80.884C103.091 80.08 102.731 79.096 102.731 77.932C102.731 76.612 103.133 75.544 103.937 74.728C104.669 73.984 105.623 73.612 106.799 73.612ZM106.799 80.524C107.963 80.524 108.545 79.66 108.545 77.932C108.545 76.132 107.963 75.232 106.799 75.232C105.635 75.232 105.053 76.132 105.053 77.932C105.053 79.66 105.635 80.524 106.799 80.524ZM116.633 82H114.635L111.827 73.828H114.113L115.607 79.246L116.813 73.828H119.117C119.297 74.692 119.597 76.078 120.017 77.986L120.287 79.246L121.835 73.828H124.175L123.779 74.962L123.563 75.52C122.531 78.424 121.757 80.584 121.241 82H119.225C119.081 81.448 118.901 80.734 118.685 79.858C118.349 78.49 118.097 77.476 117.929 76.816C117.785 77.368 117.587 78.166 117.335 79.21C117.023 80.494 116.789 81.424 116.633 82ZM127.861 74.62C128.101 74.344 128.461 74.11 128.941 73.918C129.421 73.714 129.877 73.612 130.309 73.612C131.341 73.612 132.085 73.894 132.541 74.458C133.009 75.022 133.243 75.934 133.243 77.194V82H130.957V77.284C130.957 76.108 130.435 75.52 129.391 75.52C129.127 75.52 128.845 75.58 128.545 75.7C128.245 75.808 128.041 75.934 127.933 76.078V82H125.665V73.828H127.591C127.651 74.14 127.711 74.404 127.771 74.62H127.861ZM137.865 70.39V82H135.597V71.578L137.865 70.39ZM143.836 73.612C145.18 73.612 146.224 74.086 146.968 75.034C147.592 75.826 147.904 76.792 147.904 77.932C147.904 79.264 147.442 80.344 146.518 81.172C145.75 81.868 144.856 82.216 143.836 82.216C142.648 82.216 141.652 81.772 140.848 80.884C140.128 80.08 139.768 79.096 139.768 77.932C139.768 76.612 140.17 75.544 140.974 74.728C141.706 73.984 142.66 73.612 143.836 73.612ZM143.836 80.524C145 80.524 145.582 79.66 145.582 77.932C145.582 76.132 145 75.232 143.836 75.232C142.672 75.232 142.09 76.132 142.09 77.932C142.09 79.66 142.672 80.524 143.836 80.524ZM156.406 82H154.588L154.408 81.226C153.616 81.886 152.812 82.216 151.996 82.216C150.184 82.216 149.278 81.334 149.278 79.57C149.278 78.694 149.656 78.01 150.412 77.518C151.18 77.014 152.314 76.762 153.814 76.762H154.192V76.726C154.192 76.21 154.084 75.856 153.868 75.664C153.652 75.472 153.262 75.376 152.698 75.376C151.906 75.376 151.18 75.628 150.52 76.132C150.304 75.736 150.1 75.346 149.908 74.962C150.592 74.434 151.186 74.08 151.69 73.9C152.206 73.708 152.818 73.612 153.526 73.612C155.446 73.612 156.406 74.812 156.406 77.212V82ZM154.12 78.148H153.85C153.166 78.148 152.614 78.268 152.194 78.508C151.774 78.748 151.564 79.066 151.564 79.462C151.564 80.206 151.888 80.578 152.536 80.578C152.932 80.578 153.28 80.464 153.58 80.236C153.88 80.008 154.06 79.72 154.12 79.372V78.148ZM164.685 82L164.361 81.136C164.169 81.448 163.857 81.706 163.425 81.91C162.993 82.114 162.549 82.216 162.093 82.216C160.809 82.216 159.831 81.79 159.159 80.938C158.595 80.23 158.313 79.318 158.313 78.202C158.313 76.63 158.769 75.418 159.681 74.566C160.365 73.93 161.187 73.612 162.147 73.612C162.975 73.612 163.671 73.84 164.235 74.296V71.686L166.503 70.426V82H164.685ZM164.235 78.886V76.6C164.151 76.204 163.959 75.88 163.659 75.628C163.371 75.364 163.029 75.232 162.633 75.232C162.021 75.232 161.535 75.472 161.175 75.952C160.815 76.432 160.635 77.08 160.635 77.896C160.635 79.684 161.217 80.578 162.381 80.578C162.813 80.578 163.215 80.41 163.587 80.074C163.959 79.726 164.175 79.33 164.235 78.886Z" fill="#1CD1B2"/>
<path d="M3.942 99.5555V110.611C3.942 112.052 3.304 112.772 2.028 112.772C1.39 112.772 0.7465 112.558 0.0975 112.129L0.5265 111.485C0.9225 111.705 1.313 111.815 1.698 111.815C2.38 111.815 2.721 111.375 2.721 110.495V99.5555H3.942ZM6.91664 110V99.5555C7.89564 99.4235 8.74264 99.3575 9.45764 99.3575C11.9216 99.3575 13.1536 100.413 13.1536 102.525C13.1536 103.592 12.8071 104.412 12.1141 104.984C11.4871 105.49 10.6456 105.743 9.58964 105.743C9.11664 105.743 8.63264 105.71 8.13764 105.644V110H6.91664ZM8.13764 100.446V104.654C8.53364 104.72 8.99564 104.753 9.52364 104.753C11.0856 104.753 11.8666 104.01 11.8666 102.525C11.8666 101.062 11.0636 100.331 9.45764 100.331C8.95164 100.331 8.51164 100.369 8.13764 100.446ZM22.1887 100.397L21.6937 101.106C20.9457 100.644 20.1757 100.413 19.3837 100.413C18.3827 100.413 17.5742 100.842 16.9582 101.7C16.3862 102.503 16.1002 103.559 16.1002 104.868C16.1002 106.276 16.4467 107.365 17.1397 108.135C17.7337 108.795 18.5037 109.125 19.4497 109.125C20.1537 109.125 20.8137 108.993 21.4297 108.729V105.528H19.5652V104.456H22.6342V109.257C21.5892 109.884 20.4782 110.198 19.3012 110.198C17.7392 110.198 16.5512 109.571 15.7372 108.317C15.1102 107.349 14.7967 106.177 14.7967 104.802C14.7967 103.262 15.2257 101.959 16.0837 100.892C16.9087 99.869 17.9647 99.3575 19.2517 99.3575C20.3517 99.3575 21.3307 99.704 22.1887 100.397ZM24.8411 111.221C25.2591 110.891 25.4681 110.545 25.4681 110.182C25.4681 110.138 25.4571 110.072 25.4351 109.983C25.3251 110.061 25.2261 110.099 25.1381 110.099C24.9731 110.099 24.8246 110.027 24.6926 109.884C24.5716 109.741 24.5111 109.576 24.5111 109.389C24.5111 109.18 24.5771 109.01 24.7091 108.878C24.8521 108.735 25.0281 108.663 25.2371 108.663C25.8201 108.663 26.1116 109.059 26.1116 109.851C26.1116 110.644 25.7486 111.232 25.0226 111.617L24.8411 111.221ZM33.4132 99.5555V110.611C33.4132 112.052 32.7752 112.772 31.4992 112.772C30.8612 112.772 30.2177 112.558 29.5687 112.129L29.9977 111.485C30.3937 111.705 30.7842 111.815 31.1692 111.815C31.8512 111.815 32.1922 111.375 32.1922 110.495V99.5555H33.4132ZM36.3878 110V99.5555C37.3668 99.4235 38.2138 99.3575 38.9288 99.3575C41.3928 99.3575 42.6248 100.413 42.6248 102.525C42.6248 103.592 42.2783 104.412 41.5853 104.984C40.9583 105.49 40.1168 105.743 39.0608 105.743C38.5878 105.743 38.1038 105.71 37.6088 105.644V110H36.3878ZM37.6088 100.446V104.654C38.0048 104.72 38.4668 104.753 38.9948 104.753C40.5568 104.753 41.3378 104.01 41.3378 102.525C41.3378 101.062 40.5348 100.331 38.9288 100.331C38.4228 100.331 37.9828 100.369 37.6088 100.446ZM44.8619 99.5555H50.9999V100.595H46.0829V104.043H50.2244V105.083H46.0829V108.96H51.2144V110H44.8619V99.5555ZM60.3449 100.397L59.8499 101.106C59.1019 100.644 58.3319 100.413 57.5399 100.413C56.5389 100.413 55.7304 100.842 55.1144 101.7C54.5424 102.503 54.2564 103.559 54.2564 104.868C54.2564 106.276 54.6029 107.365 55.2959 108.135C55.8899 108.795 56.6599 109.125 57.6059 109.125C58.3099 109.125 58.9699 108.993 59.5859 108.729V105.528H57.7214V104.456H60.7904V109.257C59.7454 109.884 58.6344 110.198 57.4574 110.198C55.8954 110.198 54.7074 109.571 53.8934 108.317C53.2664 107.349 52.9529 106.177 52.9529 104.802C52.9529 103.262 53.3819 101.959 54.2399 100.892C55.0649 99.869 56.1209 99.3575 57.4079 99.3575C58.5079 99.3575 59.4869 99.704 60.3449 100.397ZM62.9973 111.221C63.4153 110.891 63.6243 110.545 63.6243 110.182C63.6243 110.138 63.6133 110.072 63.5913 109.983C63.4813 110.061 63.3823 110.099 63.2943 110.099C63.1293 110.099 62.9808 110.027 62.8488 109.884C62.7278 109.741 62.6673 109.576 62.6673 109.389C62.6673 109.18 62.7333 109.01 62.8653 108.878C63.0083 108.735 63.1843 108.663 63.3933 108.663C63.9763 108.663 64.2678 109.059 64.2678 109.851C64.2678 110.644 63.9048 111.232 63.1788 111.617L62.9973 111.221ZM70.6124 110V99.5555C71.5914 99.4235 72.4384 99.3575 73.1534 99.3575C75.6174 99.3575 76.8494 100.413 76.8494 102.525C76.8494 103.592 76.5029 104.412 75.8099 104.984C75.1829 105.49 74.3414 105.743 73.2854 105.743C72.8124 105.743 72.3284 105.71 71.8334 105.644V110H70.6124ZM71.8334 100.446V104.654C72.2294 104.72 72.6914 104.753 73.2194 104.753C74.7814 104.753 75.5624 104.01 75.5624 102.525C75.5624 101.062 74.7594 100.331 73.1534 100.331C72.6474 100.331 72.2074 100.369 71.8334 100.446ZM80.3735 110H79.1525V99.5555H80.258C81.259 101.062 83.0025 103.9 85.4885 108.069V99.5555H86.7095V110H85.571C84.977 109.109 83.767 107.184 81.941 104.225C81.171 102.971 80.6485 102.113 80.3735 101.651V110ZM96.4065 100.397L95.9115 101.106C95.1635 100.644 94.3935 100.413 93.6015 100.413C92.6005 100.413 91.792 100.842 91.176 101.7C90.604 102.503 90.318 103.559 90.318 104.868C90.318 106.276 90.6645 107.365 91.3575 108.135C91.9515 108.795 92.7215 109.125 93.6675 109.125C94.3715 109.125 95.0315 108.993 95.6475 108.729V105.528H93.783V104.456H96.852V109.257C95.807 109.884 94.696 110.198 93.519 110.198C91.957 110.198 90.769 109.571 89.955 108.317C89.328 107.349 89.0145 106.177 89.0145 104.802C89.0145 103.262 89.4435 101.959 90.3015 100.892C91.1265 99.869 92.1825 99.3575 93.4695 99.3575C94.5695 99.3575 95.5485 99.704 96.4065 100.397ZM104.343 99.3575V110H103.237V99.9515L104.343 99.3575ZM113 106.634H107.654C107.698 107.437 107.973 108.08 108.479 108.564C108.996 109.048 109.661 109.29 110.475 109.29C111.157 109.29 111.823 109.087 112.472 108.68L112.851 109.34C112.125 109.912 111.251 110.198 110.228 110.198C109.04 110.198 108.094 109.807 107.39 109.026C106.741 108.322 106.416 107.409 106.416 106.287C106.416 105.121 106.763 104.148 107.456 103.367C108.083 102.663 108.858 102.311 109.782 102.311C110.893 102.311 111.74 102.762 112.323 103.664C112.774 104.368 113 105.237 113 106.271V106.634ZM107.637 105.743H111.861C111.828 104.94 111.63 104.313 111.267 103.862C110.915 103.411 110.426 103.185 109.799 103.185C109.205 103.185 108.704 103.422 108.297 103.895C107.901 104.368 107.681 104.984 107.637 105.743ZM119.007 103.631C118.457 103.345 117.858 103.202 117.209 103.202C116.769 103.202 116.422 103.301 116.169 103.499C115.927 103.686 115.806 103.944 115.806 104.274C115.806 104.626 115.916 104.901 116.136 105.099C116.367 105.286 116.802 105.473 117.44 105.66C118.342 105.935 118.969 106.243 119.321 106.584C119.673 106.925 119.849 107.404 119.849 108.02C119.849 108.669 119.601 109.197 119.106 109.604C118.622 110 117.995 110.198 117.225 110.198C116.213 110.198 115.333 109.923 114.585 109.373C114.618 109.318 114.673 109.224 114.75 109.092C114.827 108.949 114.893 108.839 114.948 108.762C115.586 109.114 116.274 109.29 117.011 109.29C118.166 109.29 118.743 108.856 118.743 107.987C118.743 107.635 118.617 107.36 118.364 107.162C118.122 106.964 117.665 106.777 116.994 106.601C115.432 106.161 114.651 105.396 114.651 104.307C114.651 103.724 114.877 103.246 115.328 102.872C115.79 102.498 116.378 102.311 117.093 102.311C117.94 102.311 118.699 102.547 119.37 103.02L119.007 103.631ZM125.694 103.631C125.144 103.345 124.545 103.202 123.896 103.202C123.456 103.202 123.109 103.301 122.856 103.499C122.614 103.686 122.493 103.944 122.493 104.274C122.493 104.626 122.603 104.901 122.823 105.099C123.054 105.286 123.489 105.473 124.127 105.66C125.029 105.935 125.656 106.243 126.008 106.584C126.36 106.925 126.536 107.404 126.536 108.02C126.536 108.669 126.288 109.197 125.793 109.604C125.309 110 124.682 110.198 123.912 110.198C122.9 110.198 122.02 109.923 121.272 109.373C121.305 109.318 121.36 109.224 121.437 109.092C121.514 108.949 121.58 108.839 121.635 108.762C122.273 109.114 122.961 109.29 123.698 109.29C124.853 109.29 125.43 108.856 125.43 107.987C125.43 107.635 125.304 107.36 125.051 107.162C124.809 106.964 124.352 106.777 123.681 106.601C122.119 106.161 121.338 105.396 121.338 104.307C121.338 103.724 121.564 103.246 122.015 102.872C122.477 102.498 123.065 102.311 123.78 102.311C124.627 102.311 125.386 102.547 126.057 103.02L125.694 103.631ZM134.229 103.416L134.213 108.102C134.213 108.905 134.537 109.307 135.186 109.307C135.549 109.307 135.907 109.213 136.259 109.026L136.655 109.637C136.116 110.011 135.549 110.198 134.955 110.198C134.372 110.198 133.921 110.016 133.602 109.653C133.283 109.29 133.124 108.784 133.124 108.135V103.416H131.985V102.509H133.14V100.875L134.229 100.314V102.509H136.523V103.416H134.229ZM144.941 110H143.852V105.611C143.852 104.049 143.159 103.268 141.773 103.268C141.399 103.268 141.014 103.367 140.618 103.565C140.222 103.752 139.931 103.983 139.744 104.258V110H138.638V99.935L139.744 99.3575V103.301C140.426 102.641 141.218 102.311 142.12 102.311C144.001 102.311 144.941 103.383 144.941 105.528V110ZM152.93 110H152.105L151.94 109.191C151.269 109.862 150.433 110.198 149.432 110.198C148.673 110.198 148.068 109.989 147.617 109.571C147.166 109.142 146.941 108.575 146.941 107.871C146.941 106.155 148.195 105.297 150.703 105.297H151.841V105.198C151.841 103.889 151.203 103.235 149.927 103.235C149.201 103.235 148.503 103.477 147.832 103.961L147.469 103.35C148.228 102.657 149.152 102.311 150.241 102.311C151.11 102.311 151.775 102.58 152.237 103.119C152.699 103.658 152.93 104.434 152.93 105.446V110ZM151.841 106.106H150.835C149.031 106.106 148.129 106.661 148.129 107.772C148.129 108.245 148.266 108.619 148.541 108.894C148.827 109.158 149.223 109.29 149.729 109.29C150.169 109.29 150.593 109.18 151 108.96C151.407 108.74 151.687 108.465 151.841 108.135V106.106ZM161.779 110H160.69V105.611C160.69 104.049 160.008 103.268 158.644 103.268C158.248 103.268 157.858 103.361 157.473 103.548C157.088 103.735 156.791 103.972 156.582 104.258V110H155.476V102.509H156.4L156.499 103.301H156.549C157.198 102.641 158.012 102.311 158.991 102.311C160.85 102.311 161.779 103.383 161.779 105.528V110ZM171.373 99.5555V110H170.152V100.859L168.057 102.047L167.446 101.172L170.152 99.5555H171.373ZM175.845 101.321V110H174.624V99.5555H176.142C176.89 101.282 177.83 103.823 178.963 107.178C179.194 107.882 179.376 108.41 179.508 108.762C179.64 108.366 179.755 108.025 179.854 107.739C181.086 104.12 182.104 101.392 182.907 99.5555H184.392V110H183.171V101.304C182.599 103.152 181.565 106.051 180.069 110H178.963C177.654 106.788 176.615 103.895 175.845 101.321ZM187.369 109.983V99.5555C188.26 99.4235 189.157 99.3575 190.059 99.3575C191.324 99.3575 192.259 99.66 192.864 100.265C193.337 100.749 193.573 101.387 193.573 102.179C193.573 102.729 193.403 103.207 193.062 103.614C192.732 104.021 192.292 104.291 191.742 104.423V104.439C192.413 104.549 192.941 104.857 193.326 105.363C193.711 105.858 193.903 106.485 193.903 107.244C193.903 108.245 193.513 109.004 192.732 109.521C192.061 109.972 191.17 110.198 190.059 110.198C189.245 110.198 188.348 110.127 187.369 109.983ZM188.59 100.446V103.961H190.306C190.9 103.961 191.379 103.812 191.742 103.515C192.116 103.207 192.303 102.8 192.303 102.294C192.303 100.985 191.544 100.331 190.026 100.331C189.443 100.331 188.964 100.369 188.59 100.446ZM188.59 104.984V109.109C189.052 109.175 189.591 109.208 190.207 109.208C191.802 109.208 192.6 108.548 192.6 107.228C192.6 106.524 192.396 105.974 191.989 105.578C191.593 105.182 191.032 104.984 190.306 104.984H188.59Z" fill="#969696"/>
</svg>
