<svg width="185" height="120" viewBox="0 0 185 120" fill="none" xmlns="http://www.w3.org/2000/svg">
<path fill-rule="evenodd" clip-rule="evenodd" d="M83.4157 3.61084H110.916C113.443 3.61084 115.5 5.69071 115.5 8.24499V28.634C115.5 31.1883 113.443 33.2681 110.916 33.2681H83.4157C80.8896 33.2681 78.8323 31.1883 78.8323 28.634V8.24499C78.8323 5.69071 80.8896 3.61084 83.4157 3.61084ZM110.916 7.31809H83.4157C82.9098 7.31809 82.4992 7.73314 82.4992 8.2449V25.7407L87.5593 20.6266C88.8115 19.3589 90.8521 19.3589 92.106 20.6266L94.3243 22.8639L101.134 14.6009C101.742 13.863 102.633 13.4368 103.583 13.4314C104.538 13.4534 105.427 13.8427 106.042 14.5711L111.833 21.4034V8.24499C111.833 7.73323 111.423 7.31809 110.916 7.31809ZM76.4638 31.3196C77.4119 34.1482 80.0225 36.0481 82.9575 36.0481H109.573L107.921 41.3583C107.453 43.164 105.785 44.3892 103.959 44.3892C103.603 44.3889 103.248 44.3428 102.903 44.2521L74.5532 36.5762C72.3662 35.9664 71.0626 33.6775 71.6347 31.4697L76.0824 16.4595V29.0973C76.0824 29.7275 76.176 30.3575 76.3997 31.1065L76.4638 31.3196ZM91.666 12.8785C91.666 14.923 90.0218 16.5857 87.9995 16.5857C85.9772 16.5857 84.3326 14.9229 84.3326 12.8785C84.3326 10.834 85.9771 9.1712 87.9995 9.1712C90.0218 9.1712 91.666 10.8339 91.666 12.8785Z" fill="#A2ECDF"/>
<path d="M44.672 79.822H46.544V82H44.456C44.096 82 43.7 81.91 43.268 81.73C43.004 82.918 42.386 83.854 41.414 84.538C40.538 85.138 39.5 85.438 38.3 85.438C36.596 85.438 35.276 84.874 34.34 83.746C33.62 82.882 33.26 81.856 33.26 80.668C33.26 79.732 33.476 78.904 33.908 78.184L36.14 77.68C35.648 78.46 35.402 79.354 35.402 80.362C35.402 81.25 35.66 81.952 36.176 82.468C36.704 82.996 37.412 83.26 38.3 83.26C39.176 83.26 39.872 83.014 40.388 82.522C40.904 82.03 41.162 81.358 41.162 80.506V71.596L43.412 70.39V78.526C43.412 78.994 43.508 79.33 43.7 79.534C43.892 79.726 44.216 79.822 44.672 79.822ZM51.8778 79.822H53.4978V82H51.6618C50.7858 82 50.0598 81.766 49.4838 81.298C48.9078 81.766 48.1818 82 47.3058 82H45.4698V79.822H47.0898C47.5458 79.822 47.8698 79.726 48.0618 79.534C48.2538 79.33 48.3498 78.994 48.3498 78.526V75.196L50.6178 74.008V78.526C50.6178 78.994 50.7138 79.33 50.9058 79.534C51.0978 79.726 51.4218 79.822 51.8778 79.822ZM47.2158 83.638C47.5758 83.638 47.8578 83.74 48.0618 83.944C48.2778 84.16 48.3858 84.448 48.3858 84.808C48.3858 85.612 47.9958 86.014 47.2158 86.014C46.8558 86.014 46.5678 85.906 46.3518 85.69C46.1358 85.474 46.0278 85.18 46.0278 84.808C46.0278 84.028 46.4238 83.638 47.2158 83.638ZM49.9878 83.638C50.3478 83.638 50.6298 83.74 50.8338 83.944C51.0498 84.16 51.1578 84.448 51.1578 84.808C51.1578 85.612 50.7678 86.014 49.9878 86.014C49.6278 86.014 49.3398 85.906 49.1238 85.69C48.9078 85.474 48.7998 85.18 48.7998 84.808C48.7998 84.028 49.1958 83.638 49.9878 83.638ZM63.8611 79.822H65.4631V82H63.6271C62.7631 82 62.0551 81.778 61.5031 81.334C60.8551 82.018 60.0031 82.36 58.9471 82.36C57.8671 82.36 57.0151 82.018 56.3911 81.334C55.8151 81.778 55.1011 82 54.2491 82H52.4131V79.822H54.0331C54.4891 79.822 54.8131 79.726 55.0051 79.534C55.1971 79.33 55.2931 78.994 55.2931 78.526V78.004C55.2931 76.6 55.6591 75.508 56.3911 74.728C57.0271 74.044 57.8791 73.702 58.9471 73.702C60.1591 73.702 61.0951 74.146 61.7551 75.034C62.3071 75.79 62.5831 76.78 62.5831 78.004V78.526C62.5831 78.994 62.6791 79.33 62.8711 79.534C63.0751 79.726 63.4051 79.822 63.8611 79.822ZM58.9471 80.182C59.8591 80.182 60.3151 79.438 60.3151 77.95C60.3151 76.522 59.8591 75.808 58.9471 75.808C58.0231 75.808 57.5611 76.522 57.5611 77.95C57.5611 79.438 58.0231 80.182 58.9471 80.182ZM76.1198 79.822H77.6318V82H76.1018C75.1538 82 74.3918 81.898 73.8158 81.694C73.2518 81.478 72.7238 81.106 72.2318 80.578C70.7318 81.526 69.0038 82 67.0478 82H64.3838V79.822H67.0658C69.1778 79.822 70.8578 79.192 72.1058 77.932C71.2898 76.504 70.2998 75.79 69.1358 75.79C68.1758 75.79 67.1258 76.312 65.9858 77.356V75.358C66.9938 74.254 68.1338 73.702 69.4058 73.702C70.3418 73.702 71.2538 74.044 72.1418 74.728C73.0298 75.412 73.8158 76.384 74.4998 77.644V78.544C74.3078 78.796 74.0558 79.078 73.7438 79.39C74.2238 79.678 75.0158 79.822 76.1198 79.822ZM78.2579 72.424C77.8979 72.424 77.6099 72.316 77.3939 72.1C77.1779 71.884 77.0699 71.59 77.0699 71.218C77.0699 70.87 77.1779 70.588 77.3939 70.372C77.6099 70.156 77.8979 70.048 78.2579 70.048C78.6179 70.048 78.8999 70.156 79.1039 70.372C79.3199 70.576 79.4279 70.858 79.4279 71.218C79.4279 72.022 79.0379 72.424 78.2579 72.424ZM81.0119 72.424C80.6519 72.424 80.3639 72.316 80.1479 72.1C79.9319 71.872 79.8239 71.578 79.8239 71.218C79.8239 70.87 79.9319 70.588 80.1479 70.372C80.3759 70.156 80.6639 70.048 81.0119 70.048C81.3719 70.048 81.6539 70.156 81.8579 70.372C82.0739 70.576 82.1819 70.858 82.1819 71.218C82.1819 72.022 81.7919 72.424 81.0119 72.424ZM82.9559 79.822H84.5759V82H82.7399C81.8639 82 81.1379 81.766 80.5619 81.298C79.9859 81.766 79.2599 82 78.3839 82H76.5479V79.822H78.1679C78.6239 79.822 78.9479 79.726 79.1399 79.534C79.3319 79.33 79.4279 78.994 79.4279 78.526V75.196L81.6959 74.008V78.526C81.6959 78.994 81.7919 79.33 81.9839 79.534C82.1759 79.726 82.4999 79.822 82.9559 79.822ZM89.6833 79.822H91.3033V82H89.4673C88.5313 82 87.7693 81.736 87.1813 81.208C86.5213 81.736 85.7113 82 84.7513 82H83.4912V79.822H84.6252C85.1773 79.822 85.5673 79.702 85.7953 79.462C86.0353 79.222 86.1553 78.814 86.1553 78.238V71.596L88.4053 70.39V74.026L88.4233 74.008V78.526C88.4233 78.994 88.5193 79.33 88.7113 79.534C88.9033 79.726 89.2273 79.822 89.6833 79.822ZM90.2237 82V79.822H91.3577C91.9097 79.822 92.2997 79.702 92.5277 79.462C92.7677 79.222 92.8877 78.814 92.8877 78.238V71.596L95.1377 70.39V78.256C95.1377 79.42 94.7837 80.35 94.0757 81.046C93.4277 81.682 92.5637 82 91.4837 82H90.2237ZM117.498 79.822H119.118V82H117.282C116.418 82 115.71 81.778 115.158 81.334C114.606 81.778 113.916 82 113.088 82H101.442L102.594 79.822H105.042L105.258 79.21V71.596L107.526 70.39V75.574C108.75 74.326 110.154 73.702 111.738 73.702C113.166 73.702 114.3 74.194 115.14 75.178C115.86 76.006 116.22 77.032 116.22 78.256V78.634C116.22 79.426 116.646 79.822 117.498 79.822ZM112.998 79.822C113.394 79.822 113.652 79.744 113.772 79.588C113.904 79.432 113.97 79.102 113.97 78.598V78.256C113.97 77.536 113.76 76.948 113.34 76.492C112.932 76.036 112.404 75.808 111.756 75.808C110.928 75.808 110.136 76.114 109.38 76.726C108.636 77.338 108.018 78.184 107.526 79.264V79.822H112.998ZM124.89 72.19C124.53 72.19 124.242 72.082 124.026 71.866C123.81 71.65 123.702 71.356 123.702 70.984C123.702 70.636 123.81 70.354 124.026 70.138C124.242 69.922 124.53 69.814 124.89 69.814C125.25 69.814 125.532 69.922 125.736 70.138C125.952 70.342 126.06 70.624 126.06 70.984C126.06 71.788 125.67 72.19 124.89 72.19ZM126.87 79.822H131.82L131.856 82H126.654C126.042 82 125.466 81.85 124.926 81.55C124.362 81.85 123.786 82 123.198 82H118.032V79.822H122.928C122.388 79.45 121.938 79.096 121.578 78.76C121.374 78.58 121.062 78.244 120.642 77.752C120.51 77.596 120.402 77.47 120.318 77.374V76.348C120.846 75.544 121.524 74.902 122.352 74.422C123.192 73.942 124.05 73.702 124.926 73.702C125.79 73.702 126.642 73.948 127.482 74.44C128.322 74.92 129.018 75.568 129.57 76.384V77.374C128.766 78.346 127.866 79.162 126.87 79.822ZM124.908 78.958C125.808 78.25 126.474 77.536 126.906 76.816C126.186 76.144 125.508 75.808 124.872 75.808C124.26 75.808 123.624 76.144 122.964 76.816C123.432 77.644 124.08 78.358 124.908 78.958ZM143.916 72.19C143.556 72.19 143.268 72.082 143.052 71.866C142.836 71.65 142.728 71.356 142.728 70.984C142.728 70.636 142.836 70.354 143.052 70.138C143.268 69.922 143.556 69.814 143.916 69.814C144.276 69.814 144.558 69.922 144.762 70.138C144.978 70.342 145.086 70.624 145.086 70.984C145.086 71.788 144.696 72.19 143.916 72.19ZM136.842 79.804C137.418 78.052 138.258 76.63 139.362 75.538C140.586 74.314 141.99 73.702 143.574 73.702C144.99 73.702 146.124 74.194 146.976 75.178C147.696 76.006 148.056 77.032 148.056 78.256V78.652C148.056 79.744 147.714 80.596 147.03 81.208C146.442 81.736 145.68 82 144.744 82H136.968C136.092 82 135.366 81.766 134.79 81.298C134.214 81.766 133.488 82 132.612 82H130.776V79.822H132.396C132.852 79.822 133.176 79.726 133.368 79.534C133.56 79.33 133.656 78.994 133.656 78.526V76.15L135.924 74.962V78.526C135.924 79.294 136.23 79.72 136.842 79.804ZM145.788 78.508V78.256C145.788 77.536 145.584 76.948 145.176 76.492C144.768 76.036 144.24 75.808 143.592 75.808C142.656 75.808 141.78 76.168 140.964 76.888C140.16 77.608 139.524 78.586 139.056 79.822H144.654C145.086 79.822 145.38 79.732 145.536 79.552C145.704 79.36 145.788 79.012 145.788 78.508ZM150.849 82V71.596L153.117 70.39V82H150.849Z" fill="#1CD1B2"/>
<path d="M4.442 99.5555V110.611C4.442 112.052 3.804 112.772 2.528 112.772C1.89 112.772 1.2465 112.558 0.5975 112.129L1.0265 111.485C1.4225 111.705 1.813 111.815 2.198 111.815C2.88 111.815 3.221 111.375 3.221 110.495V99.5555H4.442ZM7.41664 110V99.5555C8.39564 99.4235 9.24264 99.3575 9.95764 99.3575C12.4216 99.3575 13.6536 100.413 13.6536 102.525C13.6536 103.592 13.3071 104.412 12.6141 104.984C11.9871 105.49 11.1456 105.743 10.0896 105.743C9.61664 105.743 9.13264 105.71 8.63764 105.644V110H7.41664ZM8.63764 100.446V104.654C9.03364 104.72 9.49564 104.753 10.0236 104.753C11.5856 104.753 12.3666 104.01 12.3666 102.525C12.3666 101.062 11.5636 100.331 9.95764 100.331C9.45164 100.331 9.01164 100.369 8.63764 100.446ZM22.6887 100.397L22.1937 101.106C21.4457 100.644 20.6757 100.413 19.8837 100.413C18.8827 100.413 18.0742 100.842 17.4582 101.7C16.8862 102.503 16.6002 103.559 16.6002 104.868C16.6002 106.276 16.9467 107.365 17.6397 108.135C18.2337 108.795 19.0037 109.125 19.9497 109.125C20.6537 109.125 21.3137 108.993 21.9297 108.729V105.528H20.0652V104.456H23.1342V109.257C22.0892 109.884 20.9782 110.198 19.8012 110.198C18.2392 110.198 17.0512 109.571 16.2372 108.317C15.6102 107.349 15.2967 106.177 15.2967 104.802C15.2967 103.262 15.7257 101.959 16.5837 100.892C17.4087 99.869 18.4647 99.3575 19.7517 99.3575C20.8517 99.3575 21.8307 99.704 22.6887 100.397ZM25.3411 111.221C25.7591 110.891 25.9681 110.545 25.9681 110.182C25.9681 110.138 25.9571 110.072 25.9351 109.983C25.8251 110.061 25.7261 110.099 25.6381 110.099C25.4731 110.099 25.3246 110.027 25.1926 109.884C25.0716 109.741 25.0111 109.576 25.0111 109.389C25.0111 109.18 25.0771 109.01 25.2091 108.878C25.3521 108.735 25.5281 108.663 25.7371 108.663C26.3201 108.663 26.6116 109.059 26.6116 109.851C26.6116 110.644 26.2486 111.232 25.5226 111.617L25.3411 111.221ZM33.9132 99.5555V110.611C33.9132 112.052 33.2752 112.772 31.9992 112.772C31.3612 112.772 30.7177 112.558 30.0687 112.129L30.4977 111.485C30.8937 111.705 31.2842 111.815 31.6692 111.815C32.3512 111.815 32.6922 111.375 32.6922 110.495V99.5555H33.9132ZM36.8878 110V99.5555C37.8668 99.4235 38.7138 99.3575 39.4288 99.3575C41.8928 99.3575 43.1248 100.413 43.1248 102.525C43.1248 103.592 42.7783 104.412 42.0853 104.984C41.4583 105.49 40.6168 105.743 39.5608 105.743C39.0878 105.743 38.6038 105.71 38.1088 105.644V110H36.8878ZM38.1088 100.446V104.654C38.5048 104.72 38.9668 104.753 39.4948 104.753C41.0568 104.753 41.8378 104.01 41.8378 102.525C41.8378 101.062 41.0348 100.331 39.4288 100.331C38.9228 100.331 38.4828 100.369 38.1088 100.446ZM45.3619 99.5555H51.4999V100.595H46.5829V104.043H50.7244V105.083H46.5829V108.96H51.7144V110H45.3619V99.5555ZM60.8449 100.397L60.3499 101.106C59.6019 100.644 58.8319 100.413 58.0399 100.413C57.0389 100.413 56.2304 100.842 55.6144 101.7C55.0424 102.503 54.7564 103.559 54.7564 104.868C54.7564 106.276 55.1029 107.365 55.7959 108.135C56.3899 108.795 57.1599 109.125 58.1059 109.125C58.8099 109.125 59.4699 108.993 60.0859 108.729V105.528H58.2214V104.456H61.2904V109.257C60.2454 109.884 59.1344 110.198 57.9574 110.198C56.3954 110.198 55.2074 109.571 54.3934 108.317C53.7664 107.349 53.4529 106.177 53.4529 104.802C53.4529 103.262 53.8819 101.959 54.7399 100.892C55.5649 99.869 56.6209 99.3575 57.9079 99.3575C59.0079 99.3575 59.9869 99.704 60.8449 100.397ZM63.4973 111.221C63.9153 110.891 64.1243 110.545 64.1243 110.182C64.1243 110.138 64.1133 110.072 64.0913 109.983C63.9813 110.061 63.8823 110.099 63.7943 110.099C63.6293 110.099 63.4808 110.027 63.3488 109.884C63.2278 109.741 63.1673 109.576 63.1673 109.389C63.1673 109.18 63.2333 109.01 63.3653 108.878C63.5083 108.735 63.6843 108.663 63.8933 108.663C64.4763 108.663 64.7678 109.059 64.7678 109.851C64.7678 110.644 64.4048 111.232 63.6788 111.617L63.4973 111.221ZM71.1124 110V99.5555C72.0914 99.4235 72.9384 99.3575 73.6534 99.3575C76.1174 99.3575 77.3494 100.413 77.3494 102.525C77.3494 103.592 77.0029 104.412 76.3099 104.984C75.6829 105.49 74.8414 105.743 73.7854 105.743C73.3124 105.743 72.8284 105.71 72.3334 105.644V110H71.1124ZM72.3334 100.446V104.654C72.7294 104.72 73.1914 104.753 73.7194 104.753C75.2814 104.753 76.0624 104.01 76.0624 102.525C76.0624 101.062 75.2594 100.331 73.6534 100.331C73.1474 100.331 72.7074 100.369 72.3334 100.446ZM80.8735 110H79.6525V99.5555H80.758C81.759 101.062 83.5025 103.9 85.9885 108.069V99.5555H87.2095V110H86.071C85.477 109.109 84.267 107.184 82.441 104.225C81.671 102.971 81.1485 102.113 80.8735 101.651V110ZM96.9065 100.397L96.4115 101.106C95.6635 100.644 94.8935 100.413 94.1015 100.413C93.1005 100.413 92.292 100.842 91.676 101.7C91.104 102.503 90.818 103.559 90.818 104.868C90.818 106.276 91.1645 107.365 91.8575 108.135C92.4515 108.795 93.2215 109.125 94.1675 109.125C94.8715 109.125 95.5315 108.993 96.1475 108.729V105.528H94.283V104.456H97.352V109.257C96.307 109.884 95.196 110.198 94.019 110.198C92.457 110.198 91.269 109.571 90.455 108.317C89.828 107.349 89.5145 106.177 89.5145 104.802C89.5145 103.262 89.9435 101.959 90.8015 100.892C91.6265 99.869 92.6825 99.3575 93.9695 99.3575C95.0695 99.3575 96.0485 99.704 96.9065 100.397ZM106.872 99.5555V110H105.651V100.859L103.556 102.047L102.945 101.172L105.651 99.5555H106.872ZM117.865 102.443C117.414 102.443 117.189 102.212 117.189 101.75C117.189 101.31 117.414 101.09 117.865 101.09C118.294 101.09 118.509 101.31 118.509 101.75C118.509 102.212 118.294 102.443 117.865 102.443ZM123.97 108.977H124.548V110H123.838C123.156 110 122.59 109.84 122.139 109.521C122.062 110.677 121.6 111.584 120.753 112.244C120.005 112.838 119.059 113.135 117.915 113.135C116.518 113.135 115.434 112.64 114.664 111.65C114.059 110.891 113.757 109.983 113.757 108.927C113.757 107.981 113.999 107.167 114.483 106.485L115.555 106.271C115.027 107.074 114.763 107.932 114.763 108.845C114.763 109.813 115.077 110.611 115.704 111.238C116.287 111.821 117.024 112.112 117.915 112.112C118.96 112.112 119.768 111.804 120.34 111.188C120.813 110.682 121.05 110.016 121.05 109.191V103.515L122.155 102.938V107.096C122.155 108.35 122.76 108.977 123.97 108.977ZM126.608 105.578C126.608 104.643 126.888 103.917 127.449 103.4C127.933 102.96 128.571 102.74 129.363 102.74C130.386 102.74 131.173 103.114 131.723 103.862C132.196 104.5 132.432 105.336 132.432 106.37C132.432 107.547 132.13 108.465 131.525 109.125C130.997 109.708 130.309 110 129.462 110C128.428 110 127.658 109.67 127.152 109.01C126.657 109.67 125.915 110 124.925 110H124.215V108.977H124.793C126.003 108.977 126.608 108.35 126.608 107.096V105.578ZM127.713 107.162C127.713 108.372 128.307 108.977 129.495 108.977C130.067 108.977 130.518 108.746 130.848 108.284C131.178 107.822 131.343 107.178 131.343 106.353C131.343 105.539 131.167 104.901 130.815 104.439C130.474 103.977 129.99 103.746 129.363 103.746C128.263 103.746 127.713 104.39 127.713 105.677V107.162ZM149.175 108.977H149.753V110H149.043C148.339 110 147.751 109.824 147.278 109.472C147.19 110.638 146.722 111.557 145.875 112.228C145.116 112.833 144.159 113.135 143.004 113.135C141.574 113.135 140.474 112.646 139.704 111.667C139.099 110.908 138.797 110 138.797 108.944C138.797 107.987 139.039 107.178 139.523 106.518L140.612 106.271C140.073 107.063 139.803 107.932 139.803 108.878C139.803 109.846 140.117 110.638 140.744 111.254C141.338 111.837 142.091 112.129 143.004 112.129C144.06 112.129 144.88 111.81 145.463 111.172C145.958 110.644 146.205 109.956 146.205 109.109V99.935L147.294 99.3575V107.112V107.145C147.294 108.366 147.921 108.977 149.175 108.977ZM153.459 100.809C153.008 100.809 152.783 100.578 152.783 100.116C152.783 99.6765 153.008 99.4565 153.459 99.4565C153.888 99.4565 154.103 99.6765 154.103 100.116C154.103 100.578 153.888 100.809 153.459 100.809ZM155.34 100.809C154.889 100.809 154.664 100.578 154.664 100.116C154.664 99.6765 154.889 99.4565 155.34 99.4565C155.769 99.4565 155.984 99.6765 155.984 100.116C155.984 100.578 155.769 100.809 155.34 100.809ZM149.417 110V108.977H152.222C151.617 108.372 151.314 107.503 151.314 106.37C151.314 105.182 151.622 104.263 152.238 103.614C152.777 103.031 153.492 102.74 154.383 102.74C155.296 102.74 156 103.026 156.495 103.598C156.924 104.093 157.139 104.753 157.139 105.578V107.178C157.128 108.069 156.858 108.768 156.33 109.274C155.846 109.758 155.186 110 154.35 110H149.417ZM156.05 105.677C156.05 104.39 155.494 103.746 154.383 103.746C153.767 103.746 153.283 103.977 152.931 104.439C152.59 104.89 152.42 105.528 152.42 106.353C152.42 107.156 152.585 107.794 152.915 108.267C153.256 108.74 153.707 108.977 154.268 108.977C155.456 108.977 156.05 108.361 156.05 107.129V105.677ZM159.945 110V99.935L161.05 99.3575V110H159.945ZM165.243 101.321V110H164.022V99.5555H165.54C166.288 101.282 167.228 103.823 168.361 107.178C168.592 107.882 168.774 108.41 168.906 108.762C169.038 108.366 169.153 108.025 169.252 107.739C170.484 104.12 171.502 101.392 172.305 99.5555H173.79V110H172.569V101.304C171.997 103.152 170.963 106.051 169.467 110H168.361C167.052 106.788 166.013 103.895 165.243 101.321ZM176.767 109.983V99.5555C177.658 99.4235 178.555 99.3575 179.457 99.3575C180.722 99.3575 181.657 99.66 182.262 100.265C182.735 100.749 182.971 101.387 182.971 102.179C182.971 102.729 182.801 103.207 182.46 103.614C182.13 104.021 181.69 104.291 181.14 104.423V104.439C181.811 104.549 182.339 104.857 182.724 105.363C183.109 105.858 183.301 106.485 183.301 107.244C183.301 108.245 182.911 109.004 182.13 109.521C181.459 109.972 180.568 110.198 179.457 110.198C178.643 110.198 177.746 110.127 176.767 109.983ZM177.988 100.446V103.961H179.704C180.298 103.961 180.777 103.812 181.14 103.515C181.514 103.207 181.701 102.8 181.701 102.294C181.701 100.985 180.942 100.331 179.424 100.331C178.841 100.331 178.362 100.369 177.988 100.446ZM177.988 104.984V109.109C178.45 109.175 178.989 109.208 179.605 109.208C181.2 109.208 181.998 108.548 181.998 107.228C181.998 106.524 181.794 105.974 181.387 105.578C180.991 105.182 180.43 104.984 179.704 104.984H177.988Z" fill="#969696"/>
</svg>
