<svg width="24" height="24" viewBox="0 0 24 24" fill="none" xmlns="http://www.w3.org/2000/svg">
<path fill-rule="evenodd" clip-rule="evenodd" d="M4.61909 7.73394C3.60065 8.48834 3 9.68076 3 10.9482V17.2666C3 19.4757 4.79086 21.2666 7 21.2666H10H14H17C19.2091 21.2666 21 19.4757 21 17.2666V10.9482C21 9.68076 20.3993 8.48834 19.3809 7.73394L13.7857 3.58933C12.7249 2.80356 11.2751 2.80356 10.2143 3.58933L4.61909 7.73394ZM10 15.5166C9.58579 15.5166 9.25 15.8524 9.25 16.2666C9.25 16.6808 9.58579 17.0166 10 17.0166H14C14.4142 17.0166 14.75 16.6808 14.75 16.2666C14.75 15.8524 14.4142 15.5166 14 15.5166H10Z" fill="#A6A6A6"/>
</svg>
