<svg width="37" height="24" viewBox="0 0 37 24" fill="none" xmlns="http://www.w3.org/2000/svg">
<g clip-path="url(#clip0_253_11101)">
<path d="M8.5 8.99401C8.49947 8.20621 8.65435 7.42605 8.95577 6.69819C9.25718 5.97034 9.69921 5.30909 10.2565 4.75231C10.8139 4.19553 11.4756 3.75416 12.2037 3.45348C12.9319 3.15279 13.7122 2.99869 14.5 3.00001H22.5C25.813 3.00001 28.5 5.69501 28.5 8.99401V21H14.5C11.187 21 8.5 18.305 8.5 15.006V8.99401ZM26.5 19V8.99401C26.4974 7.93451 26.0749 6.91925 25.3251 6.17063C24.5754 5.42201 23.5595 5.00106 22.5 5.00001H14.5C13.9748 4.99869 13.4546 5.10106 12.9691 5.30123C12.4836 5.50141 12.0424 5.79546 11.6708 6.16652C11.2991 6.53758 11.0044 6.97835 10.8035 7.46356C10.6026 7.94876 10.4995 8.46886 10.5 8.99401V15.006C10.5026 16.0655 10.9251 17.0808 11.6749 17.8294C12.4246 18.578 13.4405 18.999 14.5 19H26.5ZM20.5 11H22.5V13H20.5V11ZM14.5 11H16.5V13H14.5V11Z" fill="#EBEBEB"/>
</g>
<defs>
<clipPath id="clip0_253_11101">
<rect width="24" height="24" fill="white" transform="translate(6.5)"/>
</clipPath>
</defs>
</svg>
