<svg width="15" height="15" viewBox="0 0 15 15" fill="none" xmlns="http://www.w3.org/2000/svg">
<path d="M10.6183 6.06873H4.38086C4.12461 6.06873 3.91211 5.85623 3.91211 5.59998C3.91211 5.34373 4.12461 5.13123 4.38086 5.13123H10.6183C10.8746 5.13123 11.0871 5.34373 11.0871 5.59998C11.0871 5.85623 10.8746 6.06873 10.6183 6.06873Z" fill="#969696"/>
<path d="M7.5 6.06879C7.24375 6.06879 7.03125 5.85629 7.03125 5.60004V4.55005C7.03125 4.2938 7.24375 4.0813 7.5 4.0813C7.75625 4.0813 7.96875 4.2938 7.96875 4.55005V5.60004C7.96875 5.85629 7.75625 6.06879 7.5 6.06879Z" fill="#969696"/>
<path d="M4.375 10.9187C4.11875 10.9187 3.90625 10.7062 3.90625 10.4499C3.90625 10.1937 4.11875 9.98119 4.375 9.98119C6.7 9.98119 8.59375 8.01246 8.59375 5.58746C8.59375 5.33121 8.80625 5.11871 9.0625 5.11871C9.31875 5.11871 9.53125 5.33121 9.53125 5.58746C9.53125 8.53121 7.21875 10.9187 4.375 10.9187Z" fill="#969696"/>
<path d="M10.6248 10.9188C9.39353 10.9188 8.24977 10.3063 7.41227 9.18755C7.25602 8.9813 7.29979 8.68756 7.50604 8.53131C7.71229 8.37506 8.00603 8.41878 8.16228 8.62503C8.82478 9.50003 9.69979 9.98127 10.631 9.98127C10.8873 9.98127 11.0998 10.1938 11.0998 10.45C11.0998 10.7063 10.881 10.9188 10.6248 10.9188Z" fill="#969696"/>
<path d="M7.5 14.2188C3.79375 14.2188 0.78125 11.2063 0.78125 7.5C0.78125 3.79375 3.79375 0.78125 7.5 0.78125C11.2063 0.78125 14.2188 3.79375 14.2188 7.5C14.2188 11.2063 11.2063 14.2188 7.5 14.2188ZM7.5 1.71875C4.3125 1.71875 1.71875 4.3125 1.71875 7.5C1.71875 10.6875 4.3125 13.2812 7.5 13.2812C10.6875 13.2812 13.2812 10.6875 13.2812 7.5C13.2812 4.3125 10.6875 1.71875 7.5 1.71875Z" fill="#969696"/>
</svg>
