<svg width="16" height="16" viewBox="0 0 16 16" fill="none" xmlns="http://www.w3.org/2000/svg">
<path fill-rule="evenodd" clip-rule="evenodd" d="M7.99984 8.16683C6.80517 8.16683 5.83317 7.19483 5.83317 6.00016C5.83317 4.8055 6.80517 3.8335 7.99984 3.8335C9.1945 3.8335 10.1665 4.8055 10.1665 6.00016C10.1665 7.19483 9.1945 8.16683 7.99984 8.16683ZM7.99984 4.8335C7.3565 4.8335 6.83317 5.35683 6.83317 6.00016C6.83317 6.6435 7.3565 7.16683 7.99984 7.16683C8.64317 7.16683 9.1665 6.6435 9.1665 6.00016C9.1665 5.35683 8.64317 4.8335 7.99984 4.8335Z" fill="#8D6E3D"/>
<path fill-rule="evenodd" clip-rule="evenodd" d="M6.81514 12.0235C7.13514 12.3308 7.55581 12.5002 7.99981 12.5002C8.44381 12.5002 8.86379 12.3308 9.18379 12.0228C9.33979 11.8728 9.49982 11.7208 9.66182 11.5675C11.6598 9.67284 14.1465 7.3148 12.7725 4.01082C11.9825 2.11016 10.0638 0.833496 7.99981 0.833496C5.93581 0.833496 4.01781 2.11016 3.22781 4.01082C1.85847 7.30216 4.32447 9.6495 6.3058 11.5355L6.32497 11.5538C6.49043 11.7115 6.65403 11.8675 6.81514 12.0235ZM4.15114 4.39482C4.78781 2.86282 6.33448 1.8335 7.99981 1.8335V1.83283C9.66514 1.83283 11.2125 2.86216 11.8498 4.39416C12.9591 7.06216 10.9338 8.9835 8.97448 10.8415C8.81048 10.9968 8.64915 11.1502 8.49115 11.3022C8.35848 11.4302 8.18381 11.5002 7.99981 11.5002C7.81581 11.5002 7.64114 11.4295 7.5098 11.3035C7.3418 11.1408 7.16982 10.9768 6.99516 10.8108C5.05389 8.96289 3.04585 7.05139 4.15114 4.39482Z" fill="#8D6E3D"/>
<path d="M7.99984 15.1668C5.83317 15.1668 2.1665 14.7462 2.1665 13.1695C2.1665 12.4275 2.97051 11.8695 4.55651 11.5122C4.82584 11.4515 5.09316 11.6208 5.15449 11.8902C5.21516 12.1595 5.04583 12.4268 4.7765 12.4882C3.62983 12.7468 3.23849 13.0582 3.17249 13.1702C3.33249 13.4695 4.92382 14.1668 8.00049 14.1668C11.0772 14.1668 12.6678 13.4695 12.8285 13.1702C12.7625 13.0582 12.3712 12.7462 11.2245 12.4882C10.9552 12.4275 10.7858 12.1602 10.8465 11.8902C10.9072 11.6208 11.1745 11.4515 11.4445 11.5122C13.0305 11.8695 13.8345 12.4268 13.8345 13.1695C13.8345 13.8322 13.1858 14.3508 11.9078 14.7095C10.8578 15.0042 9.4705 15.1668 8.00117 15.1668H7.99984Z" fill="#8D6E3D"/>
</svg>
