<svg width="15" height="15" viewBox="0 0 15 15" fill="none" xmlns="http://www.w3.org/2000/svg">
<path d="M3.4183 6.71875C2.97455 6.71875 2.52455 6.55625 2.1808 6.225C1.0308 5.13125 0.568298 3.9375 0.837048 2.76875C1.1558 1.39375 2.36205 0.78125 3.4183 0.78125C4.47455 0.78125 5.68705 1.4 5.99955 2.76875C6.2683 3.9375 5.79955 5.13125 4.6558 6.225C4.31205 6.55625 3.8683 6.71875 3.4183 6.71875ZM1.74955 2.98125C1.51205 4.025 2.2058 4.95 2.8308 5.54375C3.16205 5.8625 3.6808 5.85625 4.01205 5.54375C4.63705 4.95 5.3308 4.025 5.08705 2.975C4.87455 2.05 4.0558 1.71875 3.42455 1.71875C2.78705 1.71875 1.9683 2.05 1.74955 2.98125Z" fill="#969696"/>
<path d="M3.44336 3.875C3.09961 3.875 2.81836 3.59375 2.81836 3.25C2.81836 2.90625 3.09336 2.625 3.44336 2.625H3.44961C3.79336 2.625 4.07461 2.90625 4.07461 3.25C4.07461 3.59375 3.79336 3.875 3.44336 3.875Z" fill="#969696"/>
<path d="M11.5561 14.2187C11.1124 14.2187 10.6624 14.0562 10.3124 13.725C9.15611 12.6312 8.68736 11.4375 8.96236 10.2625C9.28111 8.89374 10.4936 8.27499 11.5561 8.27499C12.6186 8.27499 13.8311 8.89374 14.1499 10.2625C14.4186 11.4312 13.9499 12.6312 12.7936 13.7187C12.4499 14.0562 12.0061 14.2187 11.5561 14.2187ZM11.5561 9.21874C10.9186 9.21874 10.0936 9.54999 9.87486 10.4812C9.63111 11.525 10.3311 12.4562 10.9561 13.05C11.2874 13.3687 11.8124 13.3687 12.1499 13.05C12.7749 12.4562 13.4749 11.5312 13.2311 10.4875C13.0249 9.54999 12.1999 9.21874 11.5561 9.21874Z" fill="#969696"/>
<path d="M11.5811 11.375C11.2373 11.375 10.9561 11.0938 10.9561 10.75C10.9561 10.4062 11.2311 10.125 11.5811 10.125H11.5873C11.9311 10.125 12.2123 10.4062 12.2123 10.75C12.2123 11.0938 11.9248 11.375 11.5811 11.375Z" fill="#969696"/>
<path d="M7.4999 12.3438H5.8249C5.0999 12.3438 4.46865 11.9062 4.21865 11.2312C3.9624 10.5562 4.1499 9.8125 4.69365 9.33125L9.6874 4.9625C9.9874 4.7 9.99365 4.34375 9.90615 4.1C9.8124 3.85625 9.5749 3.59375 9.1749 3.59375H7.4999C7.24365 3.59375 7.03115 3.38125 7.03115 3.125C7.03115 2.86875 7.24365 2.65625 7.4999 2.65625H9.1749C9.8999 2.65625 10.5312 3.09375 10.7812 3.76875C11.0374 4.44375 10.8499 5.1875 10.3062 5.66875L5.3124 10.0375C5.0124 10.3 5.00615 10.6562 5.09365 10.9C5.1874 11.1438 5.4249 11.4062 5.8249 11.4062H7.4999C7.75615 11.4062 7.96865 11.6187 7.96865 11.875C7.96865 12.1313 7.75615 12.3438 7.4999 12.3438Z" fill="#969696"/>
<path d="M7.4999 12.3438H5.8249C5.0999 12.3438 4.46865 11.9062 4.21865 11.2312C3.9624 10.5562 4.1499 9.8125 4.69365 9.33125L9.6874 4.9625C9.9874 4.7 9.99365 4.34375 9.90615 4.1C9.8124 3.85625 9.5749 3.59375 9.1749 3.59375H7.4999C7.24365 3.59375 7.03115 3.38125 7.03115 3.125C7.03115 2.86875 7.24365 2.65625 7.4999 2.65625H9.1749C9.8999 2.65625 10.5312 3.09375 10.7812 3.76875C11.0374 4.44375 10.8499 5.1875 10.3062 5.66875L5.3124 10.0375C5.0124 10.3 5.00615 10.6562 5.09365 10.9C5.1874 11.1438 5.4249 11.4062 5.8249 11.4062H7.4999C7.75615 11.4062 7.96865 11.6187 7.96865 11.875C7.96865 12.1313 7.75615 12.3438 7.4999 12.3438Z" fill="#969696"/>
</svg>
