<svg width="15" height="15" viewBox="0 0 15 15" fill="none" xmlns="http://www.w3.org/2000/svg">
<path d="M9.52531 13.9188H9.44406C6.66906 13.9188 5.33156 12.825 5.10031 10.375C5.07531 10.1188 5.26281 9.8875 5.52531 9.8625C5.77531 9.8375 6.01281 10.0313 6.03781 10.2875C6.21906 12.25 7.14406 12.9813 9.45031 12.9813H9.53156C12.0753 12.9813 12.9753 12.0813 12.9753 9.5375V5.4625C12.9753 2.91875 12.0753 2.01875 9.53156 2.01875H9.45031C7.13156 2.01875 6.20656 2.7625 6.03781 4.7625C6.00656 5.01875 5.78781 5.2125 5.52531 5.1875C5.26281 5.16875 5.07531 4.9375 5.09406 4.68125C5.30656 2.19375 6.65031 1.08125 9.44406 1.08125H9.52531C12.5941 1.08125 13.9066 2.39375 13.9066 5.4625V9.5375C13.9066 12.6063 12.5941 13.9188 9.52531 13.9188Z" fill="#DC1E1E"/>
<path d="M9.3752 7.96875H2.2627C2.00645 7.96875 1.79395 7.75625 1.79395 7.5C1.79395 7.24375 2.00645 7.03125 2.2627 7.03125H9.3752C9.63145 7.03125 9.84395 7.24375 9.84395 7.5C9.84395 7.75625 9.63145 7.96875 9.3752 7.96875Z" fill="#DC1E1E"/>
<path d="M3.65664 10.0625C3.53789 10.0625 3.41914 10.0187 3.32539 9.92499L1.23164 7.83124C1.05039 7.64999 1.05039 7.34999 1.23164 7.16874L3.32539 5.07499C3.50664 4.89374 3.80664 4.89374 3.98789 5.07499C4.16914 5.25624 4.16914 5.55624 3.98789 5.73749L2.22539 7.49999L3.98789 9.26249C4.16914 9.44374 4.16914 9.74374 3.98789 9.92499C3.90039 10.0187 3.77539 10.0625 3.65664 10.0625Z" fill="#DC1E1E"/>
</svg>
