<svg width="25" height="24" viewBox="0 0 25 24" fill="none" xmlns="http://www.w3.org/2000/svg">
<path d="M3.25 4C3.25 3.30964 3.80964 2.75 4.5 2.75H9.5C10.1904 2.75 10.75 3.30964 10.75 4V9C10.75 9.69039 10.1904 10.25 9.5 10.25H4.5C3.80964 10.25 3.25 9.69038 3.25 9V4Z" stroke="#EBEBEB" stroke-width="1.5"/>
<path d="M14.25 4C14.25 3.30964 14.8096 2.75 15.5 2.75H20.5C21.1904 2.75 21.75 3.30964 21.75 4V9C21.75 9.69039 21.1904 10.25 20.5 10.25H15.5C14.8096 10.25 14.25 9.69039 14.25 9V4Z" stroke="#EBEBEB" stroke-width="1.5"/>
<path d="M3.25 15C3.25 14.3096 3.80964 13.75 4.5 13.75H9.5C10.1904 13.75 10.75 14.3096 10.75 15V20C10.75 20.6904 10.1904 21.25 9.5 21.25H4.5C3.80964 21.25 3.25 20.6904 3.25 20V15Z" stroke="#EBEBEB" stroke-width="1.5"/>
<path d="M14.25 15C14.25 14.3096 14.8096 13.75 15.5 13.75H20.5C21.1904 13.75 21.75 14.3096 21.75 15V20C21.75 20.6904 21.1904 21.25 20.5 21.25H15.5C14.8096 21.25 14.25 20.6904 14.25 20V15Z" stroke="#EBEBEB" stroke-width="1.5"/>
</svg>
