<svg width="20" height="20" viewBox="0 0 20 20" fill="none" xmlns="http://www.w3.org/2000/svg">
<path d="M17.659 9.07879V3.69546C17.659 2.50796 17.1523 2.03296 15.8936 2.03296H12.6952C11.4365 2.03296 10.9298 2.50796 10.9298 3.69546V9.07879C10.9298 10.2663 11.4365 10.7413 12.6952 10.7413H15.8936C17.1523 10.7413 17.659 10.2663 17.659 9.07879Z" fill="#071FD7"/>
<path d="M9.34648 10.8205V16.2038C9.34648 17.3913 8.83981 17.8663 7.58106 17.8663H4.38273C3.12398 17.8663 2.61731 17.3913 2.61731 16.2038V10.8205C2.61731 9.63296 3.12398 9.15796 4.38273 9.15796H7.58106C8.83981 9.15796 9.34648 9.63296 9.34648 10.8205Z" fill="#071FD7"/>
<path d="M17.659 16.2039V13.9872C17.659 12.7997 17.1523 12.3247 15.8936 12.3247H12.6952C11.4365 12.3247 10.9298 12.7997 10.9298 13.9872V16.2039C10.9298 17.3914 11.4365 17.8664 12.6952 17.8664H15.8936C17.1523 17.8664 17.659 17.3914 17.659 16.2039Z" fill="#071FD7"/>
<path d="M9.34648 5.91213V3.69546C9.34648 2.50796 8.83981 2.03296 7.58106 2.03296H4.38273C3.12398 2.03296 2.61731 2.50796 2.61731 3.69546V5.91213C2.61731 7.09963 3.12398 7.57463 4.38273 7.57463H7.58106C8.83981 7.57463 9.34648 7.09963 9.34648 5.91213Z" fill="#071FD7"/>
</svg>
