<svg width="20" height="20" viewBox="0 0 20 20" fill="none" xmlns="http://www.w3.org/2000/svg">
<path d="M18.0549 8.77899V3.39565C18.0549 2.20815 17.5482 1.73315 16.2894 1.73315H13.0911C11.8323 1.73315 11.3257 2.20815 11.3257 3.39565V8.77899C11.3257 9.96649 11.8323 10.4415 13.0911 10.4415H16.2894C17.5482 10.4415 18.0549 9.96649 18.0549 8.77899Z" stroke="#9DB2CE" stroke-width="1.1875" stroke-linecap="round" stroke-linejoin="round"/>
<path d="M18.0549 15.9042V14.4792C18.0549 13.2917 17.5482 12.8167 16.2894 12.8167H13.0911C11.8323 12.8167 11.3257 13.2917 11.3257 14.4792V15.9042C11.3257 17.0917 11.8323 17.5667 13.0911 17.5667H16.2894C17.5482 17.5667 18.0549 17.0917 18.0549 15.9042Z" stroke="#9DB2CE" stroke-width="1.1875" stroke-linecap="round" stroke-linejoin="round"/>
<path d="M8.95072 10.5207V15.904C8.95072 17.0915 8.44406 17.5665 7.18531 17.5665H3.98697C2.72822 17.5665 2.22156 17.0915 2.22156 15.904V10.5207C2.22156 9.33315 2.72822 8.85815 3.98697 8.85815H7.18531C8.44406 8.85815 8.95072 9.33315 8.95072 10.5207Z" stroke="#9DB2CE" stroke-width="1.1875" stroke-linecap="round" stroke-linejoin="round"/>
<path d="M8.95072 3.39565V4.82065C8.95072 6.00815 8.44406 6.48315 7.18531 6.48315H3.98697C2.72822 6.48315 2.22156 6.00815 2.22156 4.82065V3.39565C2.22156 2.20815 2.72822 1.73315 3.98697 1.73315H7.18531C8.44406 1.73315 8.95072 2.20815 8.95072 3.39565Z" stroke="#9DB2CE" stroke-width="1.1875" stroke-linecap="round" stroke-linejoin="round"/>
</svg>
