<svg width="22" height="24" viewBox="0 0 22 24" fill="none" xmlns="http://www.w3.org/2000/svg">
<path d="M21.2592 17.2434C20.6522 16.1978 19.7498 13.2392 19.7498 9.375C19.7498 7.05436 18.828 4.82876 17.187 3.18782C15.5461 1.54687 13.3205 0.625 10.9998 0.625C8.67919 0.625 6.45359 1.54687 4.81265 3.18782C3.1717 4.82876 2.24983 7.05436 2.24983 9.375C2.24983 13.2403 1.34639 16.1978 0.739362 17.2434C0.584346 17.5093 0.502165 17.8113 0.501109 18.119C0.500053 18.4267 0.580157 18.7293 0.733345 18.9962C0.886533 19.263 1.10739 19.4848 1.37363 19.6391C1.63988 19.7934 1.94211 19.8748 2.24983 19.875H6.71342C6.9153 20.8628 7.45217 21.7506 8.23323 22.3882C9.01428 23.0258 9.99159 23.374 10.9998 23.374C12.0081 23.374 12.9854 23.0258 13.7664 22.3882C14.5475 21.7506 15.0844 20.8628 15.2862 19.875H19.7498C20.0575 19.8746 20.3596 19.7931 20.6256 19.6387C20.8917 19.4843 21.1124 19.2625 21.2655 18.9957C21.4186 18.7288 21.4986 18.4263 21.4975 18.1187C21.4964 17.8111 21.4142 17.5092 21.2592 17.2434ZM10.9998 21.625C10.4571 21.6248 9.92783 21.4565 9.48477 21.1431C9.0417 20.8297 8.70667 20.3867 8.52577 19.875H13.4739C13.293 20.3867 12.958 20.8297 12.5149 21.1431C12.0718 21.4565 11.5425 21.6248 10.9998 21.625ZM2.24983 18.125C3.09202 16.6769 3.99983 13.3212 3.99983 9.375C3.99983 7.51848 4.73733 5.73801 6.05008 4.42525C7.36284 3.1125 9.14332 2.375 10.9998 2.375C12.8563 2.375 14.6368 3.1125 15.9496 4.42525C17.2623 5.73801 17.9998 7.51848 17.9998 9.375C17.9998 13.318 18.9055 16.6736 19.7498 18.125H2.24983Z" fill="black"/>
</svg>
