<svg width="18" height="18" viewBox="0 0 18 18" fill="none" xmlns="http://www.w3.org/2000/svg">
<path d="M9.01502 15.3974C7.26752 15.3974 5.52002 15.1199 3.86252 14.5649C3.23252 14.3474 2.75252 13.9049 2.54252 13.3274C2.32502 12.7499 2.40002 12.1124 2.74502 11.5424L3.60752 10.1099C3.78752 9.80994 3.95252 9.20994 3.95252 8.85744V6.68994C3.95252 3.89994 6.22502 1.62744 9.01502 1.62744C11.805 1.62744 14.0775 3.89994 14.0775 6.68994V8.85744C14.0775 9.20244 14.2425 9.80994 14.4225 10.1174L15.2775 11.5424C15.6 12.0824 15.66 12.7349 15.4425 13.3274C15.225 13.9199 14.7525 14.3699 14.16 14.5649C12.51 15.1199 10.7625 15.3974 9.01502 15.3974ZM9.01502 2.75244C6.84752 2.75244 5.07752 4.51494 5.07752 6.68994V8.85744C5.07752 9.40494 4.85252 10.2149 4.57502 10.6874L3.71252 12.1199C3.54752 12.3974 3.50252 12.6899 3.60002 12.9374C3.69002 13.1924 3.91502 13.3874 4.22252 13.4924C7.35752 14.5424 10.68 14.5424 13.815 13.4924C14.085 13.4024 14.295 13.1999 14.3925 12.9299C14.49 12.6599 14.4675 12.3674 14.3175 12.1199L13.455 10.6874C13.17 10.1999 12.9525 9.39744 12.9525 8.84994V6.68994C12.9525 4.51494 11.19 2.75244 9.01502 2.75244Z" fill="white"/>
<path d="M10.41 2.95501C10.3575 2.95501 10.305 2.94751 10.2525 2.93251C10.035 2.87251 9.82496 2.82751 9.62246 2.79751C8.98496 2.71501 8.36996 2.76001 7.79246 2.93251C7.58246 3.00001 7.35746 2.93251 7.21496 2.77501C7.07246 2.61751 7.02746 2.39251 7.10996 2.19001C7.41746 1.40251 8.16746 0.88501 9.02246 0.88501C9.87746 0.88501 10.6275 1.39501 10.935 2.19001C11.01 2.39251 10.9725 2.61751 10.83 2.77501C10.7175 2.89501 10.56 2.95501 10.41 2.95501Z" fill="white"/>
<path d="M9.01501 17.1075C8.27251 17.1075 7.55251 16.8075 7.02751 16.2825C6.50251 15.7575 6.20251 15.0375 6.20251 14.295H7.32751C7.32751 14.7375 7.50751 15.1725 7.82251 15.4875C8.13751 15.8025 8.57251 15.9825 9.01501 15.9825C9.94501 15.9825 10.7025 15.225 10.7025 14.295H11.8275C11.8275 15.8475 10.5675 17.1075 9.01501 17.1075Z" fill="white"/>
</svg>
