<svg width="15" height="15" viewBox="0 0 15 15" fill="none" xmlns="http://www.w3.org/2000/svg">
<path d="M7.5 6.57499C7.24375 6.57499 7.03125 6.36249 7.03125 6.10624V4.02499C7.03125 3.76874 7.24375 3.55624 7.5 3.55624C7.75625 3.55624 7.96875 3.76874 7.96875 4.02499V6.10624C7.96875 6.36874 7.75625 6.57499 7.5 6.57499Z" fill="#969696"/>
<path d="M7.51205 12.7187C5.89955 12.7187 4.2933 12.4625 2.76205 11.95C2.1933 11.7625 1.76205 11.3562 1.57455 10.8437C1.38705 10.3312 1.44955 9.74374 1.7558 9.23124L2.54955 7.90624C2.72455 7.61249 2.8808 7.06249 2.8808 6.71874V5.40624C2.8808 2.84999 4.9558 0.774994 7.51205 0.774994C10.0683 0.774994 12.1433 2.84999 12.1433 5.40624V6.71874C12.1433 7.05624 12.2996 7.61249 12.4746 7.90624L13.2683 9.23124C13.562 9.71874 13.6121 10.3 13.4183 10.8312C13.2246 11.3625 12.7996 11.7687 12.2621 11.95C10.7308 12.4687 9.12455 12.7187 7.51205 12.7187ZM7.51205 1.71874C5.47455 1.71874 3.8183 3.37499 3.8183 5.41249V6.72499C3.8183 7.23124 3.6183 7.96249 3.3558 8.39374L2.56205 9.72499C2.39955 9.99374 2.36205 10.2812 2.4558 10.5312C2.54955 10.7812 2.76205 10.9687 3.06205 11.0687C5.93705 12.025 9.09955 12.025 11.9746 11.0687C12.2433 10.9812 12.4495 10.7812 12.5433 10.5187C12.6433 10.2562 12.6121 9.96874 12.4683 9.72499L11.6746 8.39999C11.4121 7.96874 11.2121 7.23749 11.2121 6.73124V5.41874C11.2058 3.37499 9.54955 1.71874 7.51205 1.71874Z" fill="#969696"/>
<path d="M7.5002 14.3125C6.83145 14.3125 6.1752 14.0375 5.7002 13.5625C5.2252 13.0875 4.9502 12.4313 4.9502 11.7625H5.8877C5.8877 12.1875 6.0627 12.6 6.3627 12.9C6.6627 13.2 7.0752 13.375 7.5002 13.375C8.3877 13.375 9.1127 12.65 9.1127 11.7625H10.0502C10.0502 13.1688 8.90645 14.3125 7.5002 14.3125Z" fill="#969696"/>
</svg>
