<svg width="40" height="40" viewBox="0 0 40 40" fill="none" xmlns="http://www.w3.org/2000/svg">
<path d="M29.8061 38.4539H28.5985C28.0466 38.4539 27.5995 38.0068 27.5995 37.4549V24.6348C27.5995 24.0828 28.0466 23.6357 28.5985 23.6357H32.0127C32.5634 23.6357 33.0117 24.0828 33.0117 24.6348V37.4549C33.0117 38.0068 32.5634 38.4539 32.0127 38.4539H29.8061Z" fill="#5FCEFF"/>
<path d="M32.012 39.3279H28.5978C27.5649 39.3279 26.7246 38.4876 26.7246 37.4547V24.6347C26.7246 23.6018 27.5649 22.7615 28.5978 22.7615H32.012C33.0449 22.7615 33.8852 23.6018 33.8852 24.6347V37.4547C33.8852 38.4876 33.0449 39.3279 32.012 39.3279ZM28.5978 24.5098C28.5647 24.5098 28.5329 24.5229 28.5095 24.5464C28.4861 24.5698 28.4729 24.6015 28.4729 24.6347V37.4547C28.4729 37.4879 28.4861 37.5196 28.5095 37.543C28.5329 37.5665 28.5647 37.5796 28.5978 37.5796H32.012C32.0451 37.5796 32.0769 37.5665 32.1003 37.543C32.1237 37.5196 32.1369 37.4879 32.1369 37.4547V24.6347C32.1369 24.6015 32.1237 24.5698 32.1003 24.5464C32.0769 24.5229 32.0451 24.5098 32.012 24.5098H28.5978Z" fill="#EBEBEB"/>
<path d="M30.3057 24.5098C30.0738 24.5098 29.8515 24.4177 29.6876 24.2538C29.5236 24.0899 29.4315 23.8675 29.4315 23.6357V7.58997C29.4315 7.35813 29.5236 7.13579 29.6876 6.97185C29.8515 6.80792 30.0738 6.71582 30.3057 6.71582C30.5375 6.71582 30.7599 6.80792 30.9238 6.97185C31.0877 7.13579 31.1798 7.35813 31.1798 7.58997V23.6357C31.1798 23.8675 31.0877 24.0899 30.9238 24.2538C30.7599 24.4177 30.5375 24.5098 30.3057 24.5098Z" fill="#EBEBEB"/>
<path d="M31.1791 8.46412H29.4308C29.199 8.46412 28.9766 8.37203 28.8127 8.20809C28.6487 8.04415 28.5566 7.82181 28.5566 7.58997V1.73939C28.5566 1.50755 28.6487 1.2852 28.8127 1.12127C28.9766 0.957332 29.199 0.865234 29.4308 0.865234H31.1791C31.4109 0.865234 31.6333 0.957332 31.7972 1.12127C31.9612 1.2852 32.0533 1.50755 32.0533 1.73939V7.58997C32.0533 7.82181 31.9612 8.04415 31.7972 8.20809C31.6333 8.37203 31.4109 8.46412 31.1791 8.46412Z" fill="#EBEBEB"/>
<path d="M18.7206 0.841159C21.5341 2.3422 23.2811 5.25438 23.2811 8.44005C23.2811 12.1814 20.881 15.3721 17.5392 16.5547L18.015 38.4347C18.0177 38.5512 17.9971 38.6669 17.9544 38.7753C17.9116 38.8836 17.8476 38.9823 17.7662 39.0655C17.6847 39.1487 17.5874 39.2148 17.48 39.2598C17.3726 39.3048 17.2573 39.3279 17.1408 39.3276H12.2094C11.9746 39.3276 11.7498 39.2327 11.585 39.0654C11.5039 38.9819 11.4402 38.8832 11.3975 38.775C11.3549 38.6667 11.3341 38.5511 11.3365 38.4347L11.8123 16.5547C8.47049 15.3721 6.07031 12.1827 6.07031 8.44005C6.07031 5.25438 7.81737 2.3422 10.6309 0.841159C10.8354 0.732058 11.0749 0.708658 11.2967 0.776103C11.5184 0.843548 11.7043 0.996316 11.8135 1.20081C11.8897 1.34317 11.9209 1.49802 11.9147 1.64788C11.9159 1.65787 11.9171 1.66786 11.9171 1.67785V8.09039H17.4356V1.67785C17.4356 1.66911 17.4356 1.65912 17.4368 1.64913C17.4293 1.49802 17.4618 1.34317 17.538 1.20081C17.6471 0.996316 17.833 0.843548 18.0548 0.776103C18.2766 0.708658 18.516 0.732058 18.7206 0.841159ZM21.5328 8.44005C21.5328 6.42949 20.6599 4.55756 19.1839 3.27006V8.96454C19.1839 9.44782 18.7917 9.83869 18.3097 9.83869H11.043C10.5597 9.83869 10.1688 9.44782 10.1688 8.96454V3.27006C9.43003 3.9135 8.8379 4.708 8.43245 5.5999C8.027 6.4918 7.81768 7.46032 7.81862 8.44005C7.81862 12.2214 10.8944 15.2972 14.6745 15.2972C18.4571 15.2972 21.5328 12.2214 21.5328 8.44005ZM16.248 37.5793L15.7996 16.9705C15.4312 17.018 15.0566 17.0455 14.6745 17.0455C14.2948 17.0455 13.9202 17.018 13.5518 16.9705L13.1035 37.5793H16.248Z" fill="#EBEBEB"/>
<path d="M15.5493 12.6034V13.1029C15.5493 13.5862 15.1585 13.9771 14.6752 13.9771C14.1931 13.9771 13.801 13.5862 13.801 13.1029V12.6034C13.801 12.1214 14.1931 11.7292 14.6752 11.7292C15.1585 11.7292 15.5493 12.1214 15.5493 12.6034Z" fill="#EBEBEB"/>
<path d="M29.8058 39.3281C29.574 39.3281 29.3516 39.236 29.1877 39.0721C29.0237 38.9081 28.9316 38.6858 28.9316 38.454V27.8392C28.9316 27.6074 29.0237 27.3851 29.1877 27.2211C29.3516 27.0572 29.574 26.9651 29.8058 26.9651C30.0376 26.9651 30.26 27.0572 30.4239 27.2211C30.5878 27.3851 30.6799 27.6074 30.6799 27.8392V38.454C30.6799 38.6858 30.5878 38.9081 30.4239 39.0721C30.26 39.236 30.0376 39.3281 29.8058 39.3281Z" fill="#EBEBEB"/>
</svg>
