<svg width="40" height="40" viewBox="0 0 40 40" fill="none" xmlns="http://www.w3.org/2000/svg">
<g clip-path="url(#clip0_284_14872)">
<path d="M39.9697 20.1798L39.4077 18.6002C38.7672 16.7993 37.7331 15.1269 36.4092 13.7469C36.6153 12.3749 36.1749 10.969 35.2263 10.0205C34.2785 9.0728 32.8745 8.63217 31.5035 8.8372L30.1509 7.48447L30.6513 6.98391C30.8555 6.77984 30.8555 6.44895 30.6513 6.24488L28.1669 3.76048C27.963 3.5564 27.6319 3.5564 27.428 3.76048L22.8828 8.30555C22.6787 8.50962 22.6787 8.84051 22.8828 9.04458L25.3672 11.5291C25.4652 11.6271 25.5981 11.6821 25.7367 11.6821C25.8753 11.6821 26.0082 11.6271 26.1062 11.5291L26.6067 11.0285L27.9594 12.3812C27.8776 12.9287 27.9004 13.4812 28.0157 14.0082L22.5539 19.47L14.88 11.7961C15.5022 10.9554 15.435 9.7614 14.6737 9.00007L10.2621 4.58852C9.85618 4.18256 9.31651 3.95897 8.74245 3.95897C8.16838 3.95897 7.62863 4.18256 7.22275 4.58852L0.62955 11.1819C0.223582 11.5879 0 12.1276 0 12.7016C0 13.2757 0.223582 13.8154 0.62955 14.2213L5.0411 18.6328C5.46013 19.0519 6.01042 19.2613 6.56089 19.2613C6.94116 19.2613 7.32039 19.1589 7.65728 18.9589L10.3882 19.4705L11.8716 22.044C11.9478 22.1763 12.0781 22.2686 12.2281 22.2967L15.149 22.8437L16.6227 25.4013L9.31756 32.7063C8.48011 33.5438 8.48551 34.9119 9.32967 35.756C9.75366 36.18 10.3097 36.3921 10.8646 36.3921C11.4139 36.3921 11.962 36.1839 12.3786 35.7673L20.6474 27.4986L21.3924 28.7914C21.4686 28.9237 21.599 29.0161 21.7491 29.0442L24.6698 29.5904L26.1523 32.1646C26.2285 32.297 26.3589 32.3894 26.509 32.4175L29.4298 32.9637L30.9132 35.538C30.9894 35.6703 31.1196 35.7626 31.2698 35.7908L34.4262 36.3822C34.4582 36.3882 34.4904 36.3911 34.5224 36.3911C34.6574 36.3911 34.7885 36.3388 34.887 36.2429L36.7571 34.4217C36.8571 34.3241 36.9141 34.1905 36.915 34.0507C36.9158 33.9109 36.8608 33.7766 36.7618 33.6778L25.615 22.5311L30.9798 17.1663C31.5841 17.3369 32.23 17.3829 32.8691 17.2868C34.2491 18.6107 35.9215 19.6448 37.7225 20.2854L39.3022 20.8473C39.3593 20.8677 39.4185 20.8776 39.4772 20.8776C39.6135 20.8776 39.7472 20.8242 39.8469 20.7245C39.9895 20.5819 40.0374 20.3699 39.9697 20.1798ZM25.7367 10.4205L23.9913 8.67502L27.7974 4.86898L29.5428 6.61435L25.7367 10.4205ZM5.78013 17.8939L1.36858 13.4823C1.15998 13.2737 1.04518 12.9965 1.04518 12.7016C1.04518 12.4067 1.16007 12.1294 1.36858 11.9209L7.96187 5.32773C8.17038 5.11922 8.44762 5.00433 8.74253 5.00433C9.03745 5.00433 9.31469 5.11922 9.5232 5.32773L13.9348 9.73928C14.3652 10.1697 14.3652 10.8701 13.9348 11.3006L7.33929 17.8959C6.90858 18.3242 6.20988 18.3237 5.78013 17.8939ZM15.9345 22.1137C15.8582 21.9814 15.7279 21.889 15.5779 21.8609L12.657 21.3137L11.1736 18.7402C11.0974 18.6079 10.9671 18.5156 10.8171 18.4876L8.63479 18.0787L14.1596 12.5539L21.815 20.2092L17.388 24.6362L15.9345 22.1137ZM35.6483 34.0426L34.3519 35.3052L31.6985 34.808L30.2151 32.2337C30.1389 32.1013 30.0086 32.0089 29.8584 31.9809L26.9377 31.4347L25.4552 28.8605C25.379 28.7281 25.2486 28.6357 25.0985 28.6076L22.1777 28.0614L21.4125 26.7336L24.8759 23.2702L35.6483 34.0426ZM11.6395 35.0286C11.2096 35.4586 10.5049 35.4533 10.0687 35.0172C9.63207 34.5806 9.62659 33.8756 10.0566 33.4457L28.4066 15.0957C28.5996 15.4665 28.8464 15.8076 29.1429 16.1041C29.3831 16.3443 29.6528 16.5517 29.9438 16.7245L11.6395 35.0286ZM38.0728 19.3007C36.3305 18.6809 34.7185 17.6622 33.4111 16.3548C33.312 16.2557 33.1787 16.2017 33.0416 16.2017C33.0048 16.2017 32.9677 16.2056 32.9309 16.2136C31.8152 16.4552 30.6471 16.1301 29.8819 15.365C29.1168 14.5998 28.7916 13.4316 29.0335 12.3161C29.0711 12.1424 29.0179 11.9615 28.8922 11.8358L27.3676 10.3113L29.4337 8.24528L30.9583 9.76985C31.0839 9.89545 31.2646 9.94893 31.4385 9.91104C32.5538 9.66934 33.7223 9.99431 34.4874 10.7596C35.2527 11.5248 35.5779 12.6931 35.336 13.8084C35.2983 13.9821 35.3515 14.163 35.4772 14.2887C36.7848 15.5962 37.8035 17.2083 38.4231 18.9504L38.6165 19.494L38.0728 19.3007Z" fill="#EBEBEB"/>
</g>
<g clip-path="url(#clip1_284_14872)">
<path d="M7.84737 15.8563L11.8978 11.8059C12.2101 11.4935 12.3822 11.0781 12.3822 10.6364C12.3822 10.1946 12.2101 9.77924 11.8978 9.46682L11.1974 8.76637C10.5525 8.1215 9.50329 8.1215 8.85832 8.76637L4.80788 12.8168C4.163 13.4617 4.163 14.511 4.80788 15.1558L5.50833 15.8563C5.83077 16.1787 6.25433 16.34 6.67789 16.34C7.10137 16.34 7.52493 16.1787 7.84737 15.8563ZM5.547 14.4168C5.30966 14.1795 5.30966 13.7933 5.547 13.5559L9.59744 9.50549C9.71607 9.38678 9.87198 9.32746 10.0279 9.32746C10.1838 9.32746 10.3397 9.38678 10.4583 9.50549L11.1588 10.2059C11.2737 10.3209 11.3371 10.4738 11.3371 10.6364C11.3371 10.799 11.2737 10.9519 11.1588 11.0668L7.10833 15.1173C6.87108 15.3548 6.48479 15.3547 6.24745 15.1173L5.547 14.4168Z" fill="#A2ECDF"/>
<path d="M39.9697 20.1798L39.4077 18.6002C38.7672 16.7993 37.7331 15.1269 36.4092 13.7469C36.6153 12.3749 36.1749 10.969 35.2263 10.0205C34.2785 9.0728 32.8745 8.63217 31.5035 8.8372L30.1509 7.48447L30.6514 6.98391C30.8555 6.77984 30.8555 6.44895 30.6514 6.24488L28.1669 3.76048C27.963 3.5564 27.6319 3.5564 27.428 3.76048L22.8828 8.30555C22.6787 8.50962 22.6787 8.84051 22.8828 9.04458L25.3672 11.5291C25.4652 11.6271 25.5981 11.6821 25.7367 11.6821C25.8753 11.6821 26.0082 11.6271 26.1062 11.5291L26.6067 11.0285L27.9594 12.3812C27.8776 12.9287 27.9004 13.4812 28.0157 14.0082L22.5539 19.47L14.88 11.7961C15.5022 10.9554 15.435 9.7614 14.6737 9.00007L10.2621 4.58852C9.85618 4.18256 9.31652 3.95897 8.74245 3.95897C8.16838 3.95897 7.62863 4.18256 7.22275 4.58852L0.629553 11.1819C0.223586 11.5879 3.8147e-06 12.1276 3.8147e-06 12.7016C3.8147e-06 13.2757 0.223586 13.8154 0.629553 14.2213L5.0411 18.6328C5.46014 19.0519 6.01043 19.2613 6.56089 19.2613C6.94116 19.2613 7.32039 19.1589 7.65729 18.9589L10.3882 19.4705L11.8716 22.044C11.9478 22.1763 12.0781 22.2686 12.2281 22.2967L15.149 22.8437L16.6227 25.4013L9.31756 32.7063C8.48011 33.5438 8.48551 34.9119 9.32967 35.756C9.75367 36.18 10.3097 36.3921 10.8646 36.3921C11.4139 36.3921 11.962 36.1839 12.3786 35.7673L20.6474 27.4986L21.3924 28.7914C21.4686 28.9237 21.599 29.0161 21.7491 29.0442L24.6698 29.5904L26.1523 32.1646C26.2285 32.297 26.3589 32.3894 26.509 32.4175L29.4298 32.9637L30.9132 35.538C30.9894 35.6703 31.1196 35.7626 31.2698 35.7908L34.4262 36.3822C34.4582 36.3882 34.4904 36.3911 34.5224 36.3911C34.6574 36.3911 34.7885 36.3388 34.8871 36.2429L36.7571 34.4217C36.8571 34.3241 36.9141 34.1905 36.915 34.0507C36.9158 33.9109 36.8608 33.7766 36.7619 33.6778L25.615 22.5311L30.9798 17.1663C31.5841 17.3369 32.23 17.3829 32.8691 17.2868C34.2491 18.6107 35.9215 19.6448 37.7225 20.2854L39.3022 20.8473C39.3593 20.8677 39.4185 20.8776 39.4772 20.8776C39.6135 20.8776 39.7472 20.8242 39.8469 20.7245C39.9895 20.5819 40.0374 20.3699 39.9697 20.1798ZM25.7367 10.4205L23.9913 8.67502L27.7974 4.86898L29.5428 6.61435L25.7367 10.4205ZM5.78014 17.8939L1.36859 13.4823C1.15998 13.2737 1.04519 12.9965 1.04519 12.7016C1.04519 12.4067 1.16007 12.1294 1.36859 11.9209L7.96187 5.32773C8.17039 5.11922 8.44762 5.00433 8.74254 5.00433C9.03745 5.00433 9.31469 5.11922 9.5232 5.32773L13.9348 9.73928C14.3652 10.1697 14.3652 10.8701 13.9348 11.3006L7.33929 17.8959C6.90859 18.3242 6.20988 18.3237 5.78014 17.8939ZM15.9345 22.1137C15.8582 21.9814 15.7279 21.889 15.5779 21.8609L12.657 21.3137L11.1736 18.7402C11.0974 18.6079 10.9671 18.5156 10.8171 18.4876L8.6348 18.0787L14.1596 12.5539L21.815 20.2092L17.388 24.6362L15.9345 22.1137ZM35.6483 34.0426L34.3519 35.3052L31.6985 34.808L30.2151 32.2337C30.1389 32.1013 30.0086 32.0089 29.8584 31.9809L26.9377 31.4347L25.4552 28.8605C25.379 28.7281 25.2486 28.6357 25.0985 28.6076L22.1777 28.0614L21.4125 26.7336L24.8759 23.2702L35.6483 34.0426ZM11.6395 35.0286C11.2096 35.4586 10.5049 35.4533 10.0687 35.0172C9.63208 34.5806 9.62659 33.8756 10.0566 33.4457L28.4066 15.0957C28.5996 15.4665 28.8464 15.8076 29.1429 16.1041C29.3831 16.3443 29.6529 16.5517 29.9438 16.7245L11.6395 35.0286ZM38.0728 19.3007C36.3305 18.6809 34.7185 17.6622 33.4111 16.3548C33.312 16.2557 33.1787 16.2017 33.0416 16.2017C33.0048 16.2017 32.9677 16.2056 32.9309 16.2136C31.8152 16.4552 30.6471 16.1301 29.8819 15.365C29.1168 14.5998 28.7916 13.4316 29.0335 12.3161C29.0711 12.1424 29.0179 11.9615 28.8922 11.8358L27.3676 10.3113L29.4337 8.24528L30.9583 9.76985C31.0839 9.89545 31.2646 9.94893 31.4386 9.91104C32.5538 9.66934 33.7223 9.99431 34.4874 10.7596C35.2527 11.5248 35.5779 12.6931 35.336 13.8084C35.2983 13.9821 35.3515 14.163 35.4772 14.2887C36.7848 15.5962 37.8035 17.2083 38.4231 18.9504L38.6165 19.494L38.0728 19.3007Z" fill="#A2ECDF"/>
</g>
<defs>
<clipPath id="clip0_284_14872">
<rect width="40" height="17" fill="white" transform="translate(0 23)"/>
</clipPath>
<clipPath id="clip1_284_14872">
<rect width="40" height="23" fill="white"/>
</clipPath>
</defs>
</svg>
