<svg width="25" height="24" viewBox="0 0 25 24" fill="none" xmlns="http://www.w3.org/2000/svg">
<path fill-rule="evenodd" clip-rule="evenodd" d="M4.46436 5C4.46436 3.48122 5.69557 2.25 7.21436 2.25H18.2144C19.7331 2.25 20.9644 3.48122 20.9644 5V19C20.9644 20.5188 19.7331 21.75 18.2144 21.75H7.21436C5.69557 21.75 4.46436 20.5188 4.46436 19V5ZM7.21436 3.75C6.524 3.75 5.96436 4.30964 5.96436 5V19C5.96436 19.6904 6.524 20.25 7.21436 20.25H18.2144C18.9047 20.25 19.4644 19.6904 19.4644 19V5C19.4644 4.30964 18.9047 3.75 18.2144 3.75H7.21436Z" fill="#A6A6A6"/>
<path fill-rule="evenodd" clip-rule="evenodd" d="M8.96436 8.5C8.96436 8.08579 9.30014 7.75 9.71436 7.75H15.7144C16.1286 7.75 16.4644 8.08579 16.4644 8.5C16.4644 8.91421 16.1286 9.25 15.7144 9.25H9.71436C9.30014 9.25 8.96436 8.91421 8.96436 8.5Z" fill="#A6A6A6"/>
<path fill-rule="evenodd" clip-rule="evenodd" d="M8.96436 12C8.96436 11.5858 9.30014 11.25 9.71436 11.25H15.7144C16.1286 11.25 16.4644 11.5858 16.4644 12C16.4644 12.4142 16.1286 12.75 15.7144 12.75H9.71436C9.30014 12.75 8.96436 12.4142 8.96436 12Z" fill="#A6A6A6"/>
<path fill-rule="evenodd" clip-rule="evenodd" d="M8.96436 15.5C8.96436 15.0858 9.30014 14.75 9.71436 14.75H15.7144C16.1286 14.75 16.4644 15.0858 16.4644 15.5C16.4644 15.9142 16.1286 16.25 15.7144 16.25H9.71436C9.30014 16.25 8.96436 15.9142 8.96436 15.5Z" fill="#A6A6A6"/>
</svg>
