<svg width="15" height="15" viewBox="0 0 15 15" fill="none" xmlns="http://www.w3.org/2000/svg">
<path d="M7.5 14.225C6.81875 14.225 6.14375 14.025 5.6125 13.6313L2.925 11.625C2.2125 11.0938 1.65625 9.98125 1.65625 9.1V4.45C1.65625 3.4875 2.3625 2.4625 3.26875 2.125L6.3875 0.956252C7.00625 0.725002 7.98125 0.725002 8.6 0.956252L11.7188 2.125C12.625 2.4625 13.3313 3.4875 13.3313 4.45V9.09375C13.3313 9.98125 12.775 11.0875 12.0625 11.6188L9.375 13.625C8.85625 14.025 8.18125 14.225 7.5 14.225ZM6.71875 1.8375L3.6 3.00625C3.06875 3.20625 2.6 3.88125 2.6 4.45625V9.1C2.6 9.69375 3.01875 10.525 3.4875 10.875L6.175 12.8813C6.89375 13.4188 8.10625 13.4188 8.83125 12.8813L11.5188 10.875C11.9938 10.5188 12.4062 9.69375 12.4062 9.1V4.45C12.4062 3.88125 11.9375 3.20625 11.4062 3L8.2875 1.83125C7.8625 1.68125 7.1375 1.68125 6.71875 1.8375Z" fill="#969696"/>
<path d="M6.66289 8.89375C6.54414 8.89375 6.42539 8.85 6.33164 8.75625L5.32539 7.75C5.14414 7.56875 5.14414 7.26875 5.32539 7.0875C5.50664 6.90625 5.80664 6.90625 5.98789 7.0875L6.66289 7.7625L9.01914 5.40625C9.20039 5.225 9.50039 5.225 9.68164 5.40625C9.86289 5.5875 9.86289 5.8875 9.68164 6.06875L6.99414 8.75625C6.90039 8.85 6.78164 8.89375 6.66289 8.89375Z" fill="#969696"/>
</svg>
