<svg width="15" height="16" viewBox="0 0 15 16" fill="none" xmlns="http://www.w3.org/2000/svg">
<path d="M5.72476 7.7625C5.70601 7.7625 5.69351 7.7625 5.67476 7.7625C5.64351 7.75625 5.59976 7.75625 5.56226 7.7625C3.74976 7.70625 2.38101 6.28125 2.38101 4.525C2.38101 2.7375 3.83726 1.28125 5.62476 1.28125C7.41226 1.28125 8.86851 2.7375 8.86851 4.525C8.86226 6.28125 7.48726 7.70625 5.74351 7.7625C5.73726 7.7625 5.73101 7.7625 5.72476 7.7625ZM5.62476 2.21875C4.35601 2.21875 3.31851 3.25625 3.31851 4.525C3.31851 5.775 4.29351 6.78125 5.53726 6.825C5.57476 6.81875 5.65601 6.81875 5.73726 6.825C6.96226 6.76875 7.92476 5.7625 7.93101 4.525C7.93101 3.25625 6.89351 2.21875 5.62476 2.21875Z" fill="#969696"/>
<path d="M10.3373 7.84375C10.3185 7.84375 10.2998 7.84375 10.281 7.8375C10.0248 7.8625 9.76226 7.68125 9.73726 7.425C9.71226 7.16875 9.86851 6.9375 10.1248 6.90625C10.1998 6.9 10.281 6.9 10.3498 6.9C11.2623 6.85 11.9748 6.1 11.9748 5.18125C11.9748 4.23125 11.206 3.4625 10.256 3.4625C9.99976 3.46875 9.78726 3.25625 9.78726 3C9.78726 2.74375 9.99976 2.53125 10.256 2.53125C11.7185 2.53125 12.9123 3.725 12.9123 5.1875C12.9123 6.625 11.7873 7.7875 10.356 7.84375C10.3498 7.84375 10.3435 7.84375 10.3373 7.84375Z" fill="#969696"/>
<path d="M5.73101 14.5938C4.50601 14.5938 3.27476 14.2812 2.34351 13.6562C1.47476 13.0813 0.999756 12.2938 0.999756 11.4375C0.999756 10.5812 1.47476 9.7875 2.34351 9.20625C4.21851 7.9625 7.25601 7.9625 9.11851 9.20625C9.98101 9.78125 10.4623 10.5687 10.4623 11.425C10.4623 12.2812 9.98726 13.075 9.11851 13.6562C8.18101 14.2812 6.95601 14.5938 5.73101 14.5938ZM2.86226 9.99375C2.26226 10.3937 1.93726 10.9062 1.93726 11.4438C1.93726 11.975 2.26851 12.4875 2.86226 12.8812C4.41851 13.925 7.04351 13.925 8.59976 12.8812C9.19976 12.4812 9.52476 11.9688 9.52476 11.4312C9.52476 10.9 9.19351 10.3875 8.59976 9.99375C7.04351 8.95625 4.41851 8.95625 2.86226 9.99375Z" fill="#969696"/>
<path d="M11.4623 13.4688C11.2435 13.4688 11.0498 13.3188 11.006 13.0938C10.956 12.8375 11.1185 12.5938 11.3685 12.5375C11.7623 12.4563 12.1248 12.3 12.406 12.0813C12.7623 11.8125 12.956 11.475 12.956 11.1188C12.956 10.7625 12.7623 10.425 12.4123 10.1625C12.1373 9.95001 11.7935 9.80001 11.3873 9.70626C11.1373 9.65001 10.9748 9.40001 11.031 9.14376C11.0873 8.89376 11.3373 8.73126 11.5935 8.78751C12.131 8.90626 12.5998 9.11876 12.981 9.41251C13.5623 9.85001 13.8935 10.4688 13.8935 11.1188C13.8935 11.7688 13.556 12.3875 12.9748 12.8313C12.5873 13.1313 12.0998 13.35 11.5623 13.4563C11.5248 13.4688 11.4935 13.4688 11.4623 13.4688Z" fill="#969696"/>
</svg>
