<svg width="55" height="51" viewBox="0 0 55 51" fill="none" xmlns="http://www.w3.org/2000/svg">
<g clip-path="url(#clip0_242_18707)">
<mask id="path-1-inside-1_242_18707" fill="white">
<path d="M39.301 34.5532L25.5807 20.833L33.233 13.1807C33.946 12.4678 34.8467 11.9223 35.8373 11.603C36.64 11.345 37.3507 10.9104 37.9497 10.3113C38.9703 9.29076 39.5198 7.93383 39.4972 6.49059C39.4745 5.04709 38.8812 3.70673 37.8265 2.71626C37.6969 2.59465 37.5139 2.54836 37.3426 2.59362C37.171 2.63879 37.0346 2.76908 36.9818 2.93861L36.0818 5.82586C35.82 6.66501 34.9242 7.13461 34.0846 6.87268C33.4148 6.66364 32.9649 6.05233 32.9649 5.35154C32.9649 5.19137 32.9894 5.03146 33.0377 4.87644L33.9283 2.02259C33.9815 1.85212 33.9427 1.66627 33.8257 1.53144C33.7087 1.3966 33.5303 1.33176 33.354 1.36045C32.3748 1.51933 31.4666 1.9465 30.7276 2.59594C29.4285 3.73834 28.7671 5.44506 28.9584 7.16158C29.1687 9.04686 28.4973 10.9197 27.1163 12.3001L22.082 17.3343L21.2649 16.5172L19.997 13.5997C19.9713 13.5404 19.9345 13.4865 19.8887 13.4407L13.4877 7.03954C13.391 6.94293 13.26 6.88865 13.1233 6.88865C12.9867 6.88865 12.8556 6.94293 12.759 7.03954L7.96141 11.837L5.74334 9.61891L10.6322 4.7301C10.8335 4.52888 10.8335 4.20261 10.6322 4.00139L8.41941 1.78865C8.23451 1.60366 7.93994 1.58657 7.73476 1.7494L0.950282 7.13341C0.395142 7.55999 0.0507569 8.20539 0.00515372 8.90395C-0.0404495 9.6026 0.217367 10.2872 0.712389 10.7823L2.28188 12.3517C2.38244 12.4522 2.51436 12.5026 2.64619 12.5026C2.77802 12.5026 2.90993 12.4522 3.0105 12.3517L3.37489 11.9873L5.59296 14.2053L5.22856 14.5697C5.02726 14.771 5.02726 15.0972 5.22848 15.2984L7.96115 18.0312C8.16237 18.2324 8.48872 18.2325 8.68985 18.0312L9.47937 17.2417L11.1798 18.9421L10.3904 19.7316C10.1891 19.9328 10.1891 20.2591 10.3903 20.4603L10.8563 20.9263C11.622 21.692 12.7629 21.9062 13.7419 21.5043L14.8798 22.6422C14.9765 22.7388 15.1074 22.7931 15.2442 22.7931C15.3809 22.7931 15.5119 22.7388 15.6086 22.6422L16.8231 21.4276C17.0243 21.2264 17.0243 20.9002 16.8231 20.6989L16.2073 20.083L17.3527 19.4068L18.681 20.735L12.602 26.8141C11.889 27.527 10.9884 28.0725 9.99758 28.3918C9.20669 28.6463 8.47635 29.0932 7.88523 29.6842C6.86453 30.705 6.31505 32.0621 6.33781 33.5055C6.36074 34.9488 6.9541 36.2887 8.00864 37.2786C8.13806 37.4001 8.32108 37.4463 8.49241 37.4012C8.664 37.356 8.80038 37.2258 8.8532 37.0564L9.75401 34.1698C9.88086 33.7633 10.1583 33.4306 10.5354 33.2329C10.9125 33.0352 11.3439 32.9962 11.7504 33.123C12.4201 33.3321 12.8701 33.9434 12.8701 34.6441C12.8701 34.8043 12.8456 34.9642 12.7971 35.1194L11.9074 37.9733C11.8543 38.1438 11.8932 38.3297 12.0104 38.4646C12.1091 38.5782 12.2515 38.6419 12.3993 38.6419C12.4269 38.6419 12.4548 38.6397 12.4825 38.6352C13.4614 38.4751 14.3691 38.0476 15.1073 37.399C16.4075 36.2566 17.0689 34.55 16.8767 32.8341C16.6665 30.9499 17.338 29.0765 18.7188 27.6948L22.1797 24.2338L35.8616 37.9157C36.3471 38.4012 36.9798 38.6462 37.6091 38.6462C38.1884 38.6462 38.7649 38.4385 39.2209 38.0193C39.7089 37.5706 39.9853 36.9585 39.9992 36.2958C40.0133 35.6363 39.7653 35.0176 39.301 34.5532ZM27.8447 13.0288C29.4486 11.4258 30.2278 9.24559 29.9825 7.04727C29.8284 5.66501 30.3613 4.29021 31.408 3.36999C31.7799 3.04304 32.2057 2.78625 32.6658 2.60856L32.0538 4.56967C31.9744 4.82431 31.9342 5.08737 31.9342 5.35154C31.9342 6.50579 32.675 7.51241 33.7775 7.85645C35.1598 8.28766 36.6346 7.51438 37.0656 6.13263L37.6921 4.12274C38.1826 4.8159 38.453 5.63821 38.4667 6.50682C38.485 7.66871 38.0426 8.76104 37.2209 9.58267C36.7388 10.0648 36.1672 10.4144 35.5216 10.622C34.3756 10.9912 33.3323 11.624 32.5043 12.452L24.852 20.1044L22.8106 18.063L27.8447 13.0288ZM1.44118 10.0535C1.15588 9.76818 1.00731 9.37364 1.03359 8.97102C1.05987 8.56841 1.25834 8.19646 1.5846 7.94568L8.0156 2.84225L9.53905 4.36579L2.64627 11.2586L1.44118 10.0535ZM4.10369 11.2586L5.01463 10.3476L7.2327 12.5657L6.32175 13.4766L4.10369 11.2586ZM10.2082 16.513L10.6942 16.0271L12.3945 17.7275L11.9087 18.2134L10.2082 16.513ZM13.1232 16.9988L11.4229 15.2984L12.3338 14.3875L14.0342 16.0879L13.1232 16.9988ZM15.7302 21.0632L15.2444 21.5491L14.6801 20.9847L15.291 20.6241L15.7302 21.0632ZM17.9902 26.9661C16.3866 28.5707 15.6075 30.751 15.8526 32.9485C16.0075 34.3301 15.4746 35.7044 14.4272 36.6247C14.0556 36.9513 13.6301 37.2081 13.1701 37.386L13.7813 35.4258C13.8606 35.1712 13.9008 34.9081 13.9008 34.644C13.9008 33.4897 13.1601 32.4831 12.0575 32.1391C10.6757 31.7081 9.20137 32.4813 8.77041 33.8627L8.14322 35.8724C7.65266 35.1797 7.38222 34.3576 7.36848 33.4891C7.35001 32.3271 7.79248 31.2346 8.61411 30.4128C9.09676 29.9302 9.66848 29.5803 10.3135 29.3726C11.4595 29.0034 12.5028 28.3707 13.3308 27.5427L19.4099 21.4636L21.4513 23.505L17.9902 26.9661ZM38.5236 37.2605C37.9895 37.7515 37.1225 37.7186 36.5906 37.1869L17.7992 18.3955C17.7 18.2962 17.568 18.2446 17.4348 18.2446C17.3449 18.2446 17.2544 18.2681 17.1729 18.3162L13.5618 20.448C12.923 20.8254 12.1102 20.7223 11.5852 20.1976L11.4836 20.096L15.1272 16.4523C15.3285 16.251 15.3285 15.9248 15.1272 15.7236L12.6981 13.2944C12.497 13.0932 12.1706 13.0932 11.9695 13.2944L8.32572 16.938L6.32175 14.934L13.1232 8.13256L19.0907 14.1001L20.3586 17.0176C20.3844 17.077 20.4211 17.1309 20.4669 17.1767L38.5722 35.282C38.836 35.5458 38.977 35.8982 38.9691 36.2742C38.9612 36.6534 38.8029 37.0037 38.5236 37.2605Z"/>
</mask>
<path d="M39.301 34.5532L25.5807 20.833L33.233 13.1807C33.946 12.4678 34.8467 11.9223 35.8373 11.603C36.64 11.345 37.3507 10.9104 37.9497 10.3113C38.9703 9.29076 39.5198 7.93383 39.4972 6.49059C39.4745 5.04709 38.8812 3.70673 37.8265 2.71626C37.6969 2.59465 37.5139 2.54836 37.3426 2.59362C37.171 2.63879 37.0346 2.76908 36.9818 2.93861L36.0818 5.82586C35.82 6.66501 34.9242 7.13461 34.0846 6.87268C33.4148 6.66364 32.9649 6.05233 32.9649 5.35154C32.9649 5.19137 32.9894 5.03146 33.0377 4.87644L33.9283 2.02259C33.9815 1.85212 33.9427 1.66627 33.8257 1.53144C33.7087 1.3966 33.5303 1.33176 33.354 1.36045C32.3748 1.51933 31.4666 1.9465 30.7276 2.59594C29.4285 3.73834 28.7671 5.44506 28.9584 7.16158C29.1687 9.04686 28.4973 10.9197 27.1163 12.3001L22.082 17.3343L21.2649 16.5172L19.997 13.5997C19.9713 13.5404 19.9345 13.4865 19.8887 13.4407L13.4877 7.03954C13.391 6.94293 13.26 6.88865 13.1233 6.88865C12.9867 6.88865 12.8556 6.94293 12.759 7.03954L7.96141 11.837L5.74334 9.61891L10.6322 4.7301C10.8335 4.52888 10.8335 4.20261 10.6322 4.00139L8.41941 1.78865C8.23451 1.60366 7.93994 1.58657 7.73476 1.7494L0.950282 7.13341C0.395142 7.55999 0.0507569 8.20539 0.00515372 8.90395C-0.0404495 9.6026 0.217367 10.2872 0.712389 10.7823L2.28188 12.3517C2.38244 12.4522 2.51436 12.5026 2.64619 12.5026C2.77802 12.5026 2.90993 12.4522 3.0105 12.3517L3.37489 11.9873L5.59296 14.2053L5.22856 14.5697C5.02726 14.771 5.02726 15.0972 5.22848 15.2984L7.96115 18.0312C8.16237 18.2324 8.48872 18.2325 8.68985 18.0312L9.47937 17.2417L11.1798 18.9421L10.3904 19.7316C10.1891 19.9328 10.1891 20.2591 10.3903 20.4603L10.8563 20.9263C11.622 21.692 12.7629 21.9062 13.7419 21.5043L14.8798 22.6422C14.9765 22.7388 15.1074 22.7931 15.2442 22.7931C15.3809 22.7931 15.5119 22.7388 15.6086 22.6422L16.8231 21.4276C17.0243 21.2264 17.0243 20.9002 16.8231 20.6989L16.2073 20.083L17.3527 19.4068L18.681 20.735L12.602 26.8141C11.889 27.527 10.9884 28.0725 9.99758 28.3918C9.20669 28.6463 8.47635 29.0932 7.88523 29.6842C6.86453 30.705 6.31505 32.0621 6.33781 33.5055C6.36074 34.9488 6.9541 36.2887 8.00864 37.2786C8.13806 37.4001 8.32108 37.4463 8.49241 37.4012C8.664 37.356 8.80038 37.2258 8.8532 37.0564L9.75401 34.1698C9.88086 33.7633 10.1583 33.4306 10.5354 33.2329C10.9125 33.0352 11.3439 32.9962 11.7504 33.123C12.4201 33.3321 12.8701 33.9434 12.8701 34.6441C12.8701 34.8043 12.8456 34.9642 12.7971 35.1194L11.9074 37.9733C11.8543 38.1438 11.8932 38.3297 12.0104 38.4646C12.1091 38.5782 12.2515 38.6419 12.3993 38.6419C12.4269 38.6419 12.4548 38.6397 12.4825 38.6352C13.4614 38.4751 14.3691 38.0476 15.1073 37.399C16.4075 36.2566 17.0689 34.55 16.8767 32.8341C16.6665 30.9499 17.338 29.0765 18.7188 27.6948L22.1797 24.2338L35.8616 37.9157C36.3471 38.4012 36.9798 38.6462 37.6091 38.6462C38.1884 38.6462 38.7649 38.4385 39.2209 38.0193C39.7089 37.5706 39.9853 36.9585 39.9992 36.2958C40.0133 35.6363 39.7653 35.0176 39.301 34.5532ZM27.8447 13.0288C29.4486 11.4258 30.2278 9.24559 29.9825 7.04727C29.8284 5.66501 30.3613 4.29021 31.408 3.36999C31.7799 3.04304 32.2057 2.78625 32.6658 2.60856L32.0538 4.56967C31.9744 4.82431 31.9342 5.08737 31.9342 5.35154C31.9342 6.50579 32.675 7.51241 33.7775 7.85645C35.1598 8.28766 36.6346 7.51438 37.0656 6.13263L37.6921 4.12274C38.1826 4.8159 38.453 5.63821 38.4667 6.50682C38.485 7.66871 38.0426 8.76104 37.2209 9.58267C36.7388 10.0648 36.1672 10.4144 35.5216 10.622C34.3756 10.9912 33.3323 11.624 32.5043 12.452L24.852 20.1044L22.8106 18.063L27.8447 13.0288ZM1.44118 10.0535C1.15588 9.76818 1.00731 9.37364 1.03359 8.97102C1.05987 8.56841 1.25834 8.19646 1.5846 7.94568L8.0156 2.84225L9.53905 4.36579L2.64627 11.2586L1.44118 10.0535ZM4.10369 11.2586L5.01463 10.3476L7.2327 12.5657L6.32175 13.4766L4.10369 11.2586ZM10.2082 16.513L10.6942 16.0271L12.3945 17.7275L11.9087 18.2134L10.2082 16.513ZM13.1232 16.9988L11.4229 15.2984L12.3338 14.3875L14.0342 16.0879L13.1232 16.9988ZM15.7302 21.0632L15.2444 21.5491L14.6801 20.9847L15.291 20.6241L15.7302 21.0632ZM17.9902 26.9661C16.3866 28.5707 15.6075 30.751 15.8526 32.9485C16.0075 34.3301 15.4746 35.7044 14.4272 36.6247C14.0556 36.9513 13.6301 37.2081 13.1701 37.386L13.7813 35.4258C13.8606 35.1712 13.9008 34.9081 13.9008 34.644C13.9008 33.4897 13.1601 32.4831 12.0575 32.1391C10.6757 31.7081 9.20137 32.4813 8.77041 33.8627L8.14322 35.8724C7.65266 35.1797 7.38222 34.3576 7.36848 33.4891C7.35001 32.3271 7.79248 31.2346 8.61411 30.4128C9.09676 29.9302 9.66848 29.5803 10.3135 29.3726C11.4595 29.0034 12.5028 28.3707 13.3308 27.5427L19.4099 21.4636L21.4513 23.505L17.9902 26.9661ZM38.5236 37.2605C37.9895 37.7515 37.1225 37.7186 36.5906 37.1869L17.7992 18.3955C17.7 18.2962 17.568 18.2446 17.4348 18.2446C17.3449 18.2446 17.2544 18.2681 17.1729 18.3162L13.5618 20.448C12.923 20.8254 12.1102 20.7223 11.5852 20.1976L11.4836 20.096L15.1272 16.4523C15.3285 16.251 15.3285 15.9248 15.1272 15.7236L12.6981 13.2944C12.497 13.0932 12.1706 13.0932 11.9695 13.2944L8.32572 16.938L6.32175 14.934L13.1232 8.13256L19.0907 14.1001L20.3586 17.0176C20.3844 17.077 20.4211 17.1309 20.4669 17.1767L38.5722 35.282C38.836 35.5458 38.977 35.8982 38.9691 36.2742C38.9612 36.6534 38.8029 37.0037 38.5236 37.2605Z" fill="#EBEBEB" stroke="#EBEBEB" stroke-width="8" mask="url(#path-1-inside-1_242_18707)"/>
<path d="M37.6283 36.9088C38.0077 36.9088 38.3153 36.6012 38.3153 36.2217C38.3153 35.8423 38.0077 35.5347 37.6283 35.5347C37.2488 35.5347 36.9412 35.8423 36.9412 36.2217C36.9412 36.6012 37.2488 36.9088 37.6283 36.9088Z" fill="#EBEBEB"/>
</g>
<path d="M42.2112 28.2671L42.211 28.2673L39.0902 29.4719L41.4445 29.6087L41.4171 30.7585C41.4512 31.3456 41.676 31.4494 42.2658 31.3608L46.1807 30.649L43.5252 32.4832C42.6314 33.0854 43.4113 33.7802 44.675 33.7973L49.9311 34.2901L45.8249 35.8504C44.7189 36.2427 45.3541 37.6668 46.3997 38.1774L50.4513 40.0389L46.2354 40.1757C44.8189 40.1985 44.5683 40.8294 45.4962 41.7635L50.1776 46.2805L44.2644 43.0502C43.061 42.461 42.3067 43.0099 42.5671 43.8988L43.6347 47.0197L40.9792 44.2274C40.41 43.6001 39.1512 43.4343 39.0903 44.2545L38.7892 47.2111L37.8584 44.0355C37.7004 43.2989 36.3638 42.817 36.0516 43.488L34.7103 46.0613L34.8745 42.9678C35.0106 42.2654 34.4545 41.6372 33.7247 42.2835L32.5202 43.1869L31.8084 40.8874L31.9452 44.1178L33.6151 43.6797L33.9163 48.5526L36.6538 45.4592L39.1998 50.0309L40.2675 45.8424L45.4414 50.0308L44.7023 45.5413L53.9553 49.2644L48.1242 41.8729L53.6542 40.9696L47.2757 36.7262L52.9699 34.3172L45.8249 32.2913L49.3016 29.2252L42.403 30.2656L42.2112 28.2671L42.2112 28.2671ZM37.4416 31.2866C37.8169 31.4312 38.1894 31.6135 38.5523 31.8347C41.1102 33.3934 42.2232 36.2836 41.038 38.29C39.853 40.2964 36.8188 40.6591 34.2609 39.1003C33.2278 38.4708 32.4307 37.6242 31.9251 36.7063C31.9894 36.9965 32.0773 37.2879 32.1889 37.5784C32.7523 39.0446 33.9156 40.4659 35.5467 41.4626C37.1778 42.4592 38.9538 42.834 40.4842 42.6508C42.0147 42.4675 43.2853 41.7427 43.9999 40.5295C44.7146 39.3162 44.746 37.8249 44.1827 36.3587C43.6193 34.8924 42.4561 33.4712 40.825 32.4744C39.7232 31.8011 38.5553 31.4119 37.4416 31.2865V31.2866Z" fill="#A2ECDF"/>
<defs>
<clipPath id="clip0_242_18707">
<rect width="40" height="40" fill="white"/>
</clipPath>
</defs>
</svg>
