<svg width="15" height="15" viewBox="0 0 15 15" fill="none" xmlns="http://www.w3.org/2000/svg">
<path d="M12.5062 12.0375C12.3875 12.0375 12.2687 11.9938 12.175 11.9L9.08125 8.80625C8.9 8.625 8.9 8.325 9.08125 8.14375C9.2625 7.9625 9.5625 7.9625 9.74375 8.14375L12.8375 11.2375C13.0187 11.4188 13.0187 11.7188 12.8375 11.9C12.7437 11.9938 12.625 12.0375 12.5062 12.0375Z" fill="#969696"/>
<path d="M6.31915 11.5188C5.8629 11.5188 5.42539 11.3375 5.10664 11.0125L2.45664 8.36253C1.78789 7.69378 1.78789 6.60002 2.45664 5.93127L6.8754 1.51253C7.54415 0.843784 8.63789 0.843784 9.30664 1.51253L11.9566 4.16253C12.2816 4.48753 12.4629 4.91878 12.4629 5.37503C12.4629 5.83128 12.2816 6.26878 11.9566 6.58753L7.53789 11.0063C7.21289 11.3438 6.78165 11.5188 6.31915 11.5188ZM8.0879 1.95002C7.8879 1.95002 7.68789 2.02502 7.53789 2.18127L3.11915 6.60002C2.8129 6.90627 2.8129 7.40002 3.11915 7.70627L5.76914 10.3563C6.06289 10.65 6.5754 10.65 6.8754 10.3563L11.2941 5.93753C11.4441 5.78753 11.5254 5.59377 11.5254 5.38752C11.5254 5.18127 11.4441 4.98127 11.2941 4.83752L8.64415 2.18753C8.4879 2.02503 8.2879 1.95002 8.0879 1.95002Z" fill="#969696"/>
<path d="M5 13.5938H1.25C0.99375 13.5938 0.78125 13.3813 0.78125 13.125C0.78125 12.8688 0.99375 12.6562 1.25 12.6562H5C5.25625 12.6562 5.46875 12.8688 5.46875 13.125C5.46875 13.3813 5.25625 13.5938 5 13.5938Z" fill="#969696"/>
<path d="M8.51875 9.83748C8.4 9.83748 8.28125 9.79373 8.1875 9.69998L3.76875 5.28124C3.5875 5.09999 3.5875 4.79999 3.76875 4.61874C3.95 4.43749 4.25 4.43749 4.43125 4.61874L8.85 9.03748C9.03125 9.21873 9.03125 9.51872 8.85 9.69998C8.7625 9.79373 8.6375 9.83748 8.51875 9.83748Z" fill="#969696"/>
</svg>
