<svg width="25" height="25" viewBox="0 0 25 25" fill="none" xmlns="http://www.w3.org/2000/svg">
<path fill-rule="evenodd" clip-rule="evenodd" d="M3.0192 8.32274C2.5 9.27128 2.5 10.4155 2.5 12.7039V14.225C2.5 18.1258 2.5 20.0763 3.67157 21.2881C4.84315 22.5 6.72876 22.5 10.5 22.5H14.5C18.2712 22.5 20.1569 22.5 21.3284 21.2881C22.5 20.0763 22.5 18.1258 22.5 14.225V12.7039C22.5 10.4155 22.5 9.27128 21.9808 8.32274C21.4616 7.37421 20.5131 6.78551 18.616 5.60812L16.616 4.36687C14.6106 3.12229 13.6079 2.5 12.5 2.5C11.3921 2.5 10.3894 3.12229 8.38403 4.36687L6.38403 5.60813C4.48695 6.78551 3.5384 7.37421 3.0192 8.32274ZM9.5 17.75C9.08579 17.75 8.75 18.0858 8.75 18.5C8.75 18.9142 9.08579 19.25 9.5 19.25H15.5C15.9142 19.25 16.25 18.9142 16.25 18.5C16.25 18.0858 15.9142 17.75 15.5 17.75H9.5Z" fill="#33C0A8"/>
</svg>
