<svg width="25" height="24" viewBox="0 0 25 24" fill="none" xmlns="http://www.w3.org/2000/svg">
<path d="M8.5 1.25C5.87665 1.25 3.75 3.37665 3.75 6V17C3.75 17.4142 4.08579 17.75 4.5 17.75C4.91421 17.75 5.25 17.4142 5.25 17V6C5.25 4.20507 6.70507 2.75 8.5 2.75H17.5C17.9142 2.75 18.25 2.41421 18.25 2C18.25 1.58579 17.9142 1.25 17.5 1.25H8.5Z" fill="#1CD1B2"/>
<path d="M8.5 4C7.39543 4 6.5 4.89543 6.5 6V20C6.5 21.1046 7.39543 22 8.5 22H18.5C19.6046 22 20.5 21.1046 20.5 20V6C20.5 4.89543 19.6046 4 18.5 4H8.5Z" fill="#1CD1B2"/>
</svg>
