<svg width="67" height="57" viewBox="0 0 67 57" fill="none" xmlns="http://www.w3.org/2000/svg">
<g clip-path="url(#clip0_532_2874)">
<rect y="0.583252" width="67" height="55.8333" rx="4.58333" fill="white"/>
<rect y="0.583252" width="67" height="55.8333" rx="4.58333" fill="#F5F5F5"/>
<path fill-rule="evenodd" clip-rule="evenodd" d="M27.1176 16.1062H43.1597C44.6335 16.1062 45.8335 17.3195 45.8335 18.8095V30.703C45.8335 32.1931 44.6335 33.4063 43.1597 33.4063H27.1176C25.644 33.4063 24.444 32.1931 24.444 30.703V18.8095C24.444 17.3195 25.644 16.1062 27.1176 16.1062ZM43.1597 18.2688H27.1176C26.8225 18.2688 26.583 18.5109 26.583 18.8094V29.0153L29.5347 26.032C30.2651 25.2926 31.4555 25.2926 32.1869 26.032L33.481 27.3371L37.4531 22.517C37.8081 22.0866 38.3279 21.838 38.8818 21.8348C39.439 21.8477 39.9577 22.0748 40.3161 22.4997L43.6945 26.4852V18.8095C43.6945 18.5109 43.455 18.2688 43.1597 18.2688ZM23.0623 32.2697C23.6154 33.9197 25.1383 35.028 26.8503 35.028H42.3759L41.4124 38.1257C41.1396 39.179 40.1663 39.8936 39.1012 39.8936C38.8934 39.8935 38.6864 39.8666 38.4852 39.8137L21.9478 35.3361C20.672 34.9803 19.9116 33.6451 20.2453 32.3573L22.8398 23.6013V30.9734C22.8398 31.341 22.8945 31.7085 23.0249 32.1454L23.0623 32.2697ZM31.9303 21.5124C31.9303 22.705 30.9712 23.6749 29.7915 23.6749C28.6118 23.6749 27.6524 22.705 27.6524 21.5124C27.6524 20.3198 28.6118 19.3498 29.7915 19.3498C30.9712 19.3498 31.9303 20.3198 31.9303 21.5124Z" fill="#A2ECDF"/>
</g>
<rect x="0.286458" y="0.86971" width="66.4271" height="55.2604" rx="4.29688" stroke="#D4D4D4" stroke-width="0.572917" stroke-dasharray="2.29 2.29"/>
<defs>
<clipPath id="clip0_532_2874">
<rect y="0.583252" width="67" height="55.8333" rx="4.58333" fill="white"/>
</clipPath>
</defs>
</svg>
