<svg width="15" height="14" viewBox="0 0 15 14" fill="none" xmlns="http://www.w3.org/2000/svg">
<path d="M7.5 9.1875C6.20625 9.1875 5.15625 8.2075 5.15625 7C5.15625 5.7925 6.20625 4.8125 7.5 4.8125C8.79375 4.8125 9.84375 5.7925 9.84375 7C9.84375 8.2075 8.79375 9.1875 7.5 9.1875ZM7.5 5.6875C6.725 5.6875 6.09375 6.27667 6.09375 7C6.09375 7.72333 6.725 8.3125 7.5 8.3125C8.275 8.3125 8.90625 7.72333 8.90625 7C8.90625 6.27667 8.275 5.6875 7.5 5.6875Z" fill="#969696"/>
<path d="M9.50625 12.9442C9.375 12.9442 9.24375 12.9267 9.1125 12.8975C8.725 12.7983 8.4 12.5708 8.19375 12.25L8.11875 12.1333C7.75 11.5383 7.24375 11.5383 6.875 12.1333L6.80625 12.2442C6.6 12.5708 6.275 12.8042 5.8875 12.8975C5.49375 12.9967 5.0875 12.9442 4.74375 12.7517L3.66875 12.1742C3.2875 11.97 3.0125 11.6375 2.89375 11.235C2.78125 10.8325 2.8375 10.4183 3.05625 10.0625C3.2375 9.76501 3.2875 9.49667 3.18125 9.3275C3.075 9.15834 2.80625 9.05917 2.4375 9.05917C1.525 9.05917 0.78125 8.365 0.78125 7.51334V6.48667C0.78125 5.635 1.525 4.94084 2.4375 4.94084C2.80625 4.94084 3.075 4.84167 3.18125 4.6725C3.2875 4.50334 3.24375 4.235 3.05625 3.9375C2.8375 3.58167 2.78125 3.16167 2.89375 2.765C3.00625 2.3625 3.28125 2.03 3.66875 1.82584L4.75 1.24834C5.45625 0.857504 6.3875 1.085 6.8125 1.75584L6.8875 1.8725C7.25625 2.4675 7.7625 2.4675 8.13125 1.8725L8.2 1.76167C8.625 1.085 9.55625 0.857504 10.2688 1.25417L11.3438 1.83167C11.725 2.03584 12 2.36834 12.1187 2.77084C12.2312 3.17334 12.175 3.5875 11.9562 3.94334C11.775 4.24084 11.725 4.50917 11.8313 4.67834C11.9375 4.8475 12.2063 4.94667 12.575 4.94667C13.4875 4.94667 14.2313 5.64084 14.2313 6.4925V7.51917C14.2313 8.37084 13.4875 9.065 12.575 9.065C12.2063 9.065 11.9375 9.16417 11.8313 9.33334C11.725 9.5025 11.7687 9.77084 11.9562 10.0683C12.175 10.4242 12.2375 10.8442 12.1187 11.2408C12.0062 11.6433 11.7312 11.9758 11.3438 12.18L10.2625 12.7575C10.025 12.88 9.76875 12.9442 9.50625 12.9442ZM7.5 10.7858C8.05625 10.7858 8.575 11.1125 8.93125 11.69L9 11.8008C9.075 11.9233 9.2 12.0108 9.35 12.0458C9.5 12.0808 9.65 12.0633 9.775 11.9933L10.8563 11.41C11.0188 11.3225 11.1438 11.1767 11.1938 11.0017C11.2437 10.8267 11.2188 10.6458 11.125 10.4942C10.7687 9.9225 10.725 9.33334 11 8.88417C11.275 8.435 11.8438 8.17834 12.5562 8.17834C12.9563 8.17834 13.275 7.88084 13.275 7.5075V6.48084C13.275 6.11334 12.9563 5.81 12.5562 5.81C11.8438 5.81 11.275 5.55334 11 5.10417C10.725 4.655 10.7687 4.06584 11.125 3.49417C11.2188 3.3425 11.2437 3.16167 11.1938 2.98667C11.1438 2.81167 11.025 2.67167 10.8625 2.57834L9.78125 2.00084C9.5125 1.84917 9.15625 1.93667 8.99375 2.19334L8.925 2.30417C8.56875 2.88167 8.05 3.20834 7.49375 3.20834C6.9375 3.20834 6.41875 2.88167 6.0625 2.30417L5.99375 2.1875C5.8375 1.9425 5.4875 1.855 5.21875 2.00084L4.1375 2.58417C3.975 2.67167 3.85 2.8175 3.8 2.9925C3.75 3.1675 3.775 3.34834 3.86875 3.5C4.225 4.07167 4.26875 4.66084 3.99375 5.11C3.71875 5.55917 3.15 5.81584 2.4375 5.81584C2.0375 5.81584 1.71875 6.11334 1.71875 6.48667V7.51334C1.71875 7.88084 2.0375 8.18417 2.4375 8.18417C3.15 8.18417 3.71875 8.44084 3.99375 8.89C4.26875 9.33917 4.225 9.92834 3.86875 10.5C3.775 10.6517 3.75 10.8325 3.8 11.0075C3.85 11.1825 3.96875 11.3225 4.13125 11.4158L5.2125 11.9933C5.34375 12.0692 5.5 12.0867 5.64375 12.0517C5.79375 12.0167 5.91875 11.9233 6 11.8008L6.06875 11.69C6.425 11.1183 6.94375 10.7858 7.5 10.7858Z" fill="#969696"/>
</svg>
