<svg width="43" height="42" viewBox="0 0 43 42" fill="none" xmlns="http://www.w3.org/2000/svg">
<g clip-path="url(#clip0_242_18559)">
<path d="M22.8533 6.38655L22.8533 6.38657C21.1024 8.13715 20.1384 10.4642 20.1384 12.941C20.1384 15.4168 21.1019 17.7435 22.8533 19.4951C24.6043 21.2463 26.931 22.2098 29.4079 22.2098C31.8842 22.2098 34.211 21.2467 35.9623 19.4951L35.9623 19.4951C37.7133 17.7449 38.6767 15.4175 38.6766 12.941C38.6766 10.4642 37.7132 8.1376 35.9623 6.38657C35.9623 6.38656 35.9623 6.38655 35.9623 6.38655M22.8533 6.38655H35.9623M22.8533 6.38655C24.6048 4.6349 26.931 3.67154 29.4079 3.67154C31.8841 3.67154 34.2108 4.63534 35.9623 6.38655M22.8533 6.38655H35.9623M21.7405 5.27348L21.7405 5.27349C19.6931 7.3209 18.5645 10.0451 18.5645 12.941C18.5645 15.8369 19.6925 18.5608 21.7406 20.6082C23.7883 22.6564 26.5123 23.7841 29.408 23.7841C32.3037 23.7841 35.0278 22.6554 37.0755 20.6082L37.0755 20.6082C39.1226 18.5607 40.2507 15.8369 40.2507 12.941C40.2507 10.0451 39.1231 7.32094 37.0755 5.27349C35.0272 3.22515 32.3032 2.09741 29.408 2.09741C26.5118 2.09741 23.7882 3.2261 21.7405 5.27348Z" fill="#A2ECDF" stroke="#A2ECDF" stroke-width="0.5"/>
<path d="M30.598 11.7511L30.598 11.7511C30.2797 11.4327 29.8577 11.2578 29.4081 11.2578C28.9586 11.2578 28.5364 11.4327 28.2175 11.7511C27.8994 12.0692 27.7244 12.4912 27.7244 12.941C27.7244 13.3905 27.8993 13.8124 28.2174 14.1308C28.8509 14.7634 29.9658 14.7625 30.5979 14.131C30.9155 13.8127 31.0902 13.3907 31.0906 12.9408L30.598 11.7511ZM30.598 11.7511C30.916 12.0691 31.0905 12.4905 31.0906 12.9408L30.598 11.7511ZM27.1047 10.6386L27.1047 10.6386C26.4898 11.2535 26.1509 12.0716 26.1504 12.9415V12.9416C26.1504 13.8109 26.4899 14.6295 27.1046 15.2444C27.7195 15.8595 28.5383 16.1982 29.4075 16.1982C30.2772 16.1982 31.096 15.8593 31.7109 15.2444L31.7109 15.2444C32.3257 14.6293 32.6647 13.8108 32.6647 12.9416C32.6647 12.072 32.3258 11.2531 31.7109 10.6387C31.0962 10.0236 30.2773 9.68408 29.4081 9.68408C28.5388 9.68408 27.72 10.0236 27.1047 10.6386Z" fill="#A2ECDF" stroke="#A2ECDF" stroke-width="0.5"/>
<path d="M24.6222 23.648L24.6223 23.6479C24.8716 23.3992 25.2741 23.3991 25.523 23.648C25.6496 23.7742 25.7035 23.9375 25.7015 24.0975C28.3019 24.9624 31.1772 24.9127 33.8305 23.8369L33.8307 23.8368C34.1549 23.7064 34.5275 23.8601 34.6607 24.1876L34.6608 24.1878C34.7926 24.5139 34.6359 24.8851 34.3093 25.0176C32.7176 25.6634 31.0519 25.9774 29.4023 25.9774C27.8647 25.9774 26.341 25.7019 24.9021 25.1701L13.762 36.3101C12.639 37.4333 11.1444 38.0522 9.5555 38.0522C8.88765 38.0522 8.23838 37.9361 7.62547 37.7263L5.16678 40.1847L5.16668 40.1848C5.04228 40.3088 4.87914 40.3712 4.71631 40.3712C4.55314 40.3712 4.39002 40.3091 4.2658 40.1847M24.6222 23.648L4.33656 40.114M24.6222 23.648L24.5974 23.6728C23.3166 23.0981 22.1263 22.288 21.093 21.2544L21.093 21.2543M24.6222 23.648L21.093 21.2543M4.2658 40.1847L4.33656 40.114M4.2658 40.1847L4.26586 40.1847L4.33656 40.114M4.2658 40.1847L3.31731 39.2364M4.33656 40.114L3.38801 39.1657L3.31731 39.2364M3.31731 39.2364L0.987801 41.5661L0.987643 41.5663C0.863655 41.6897 0.700266 41.7526 0.537334 41.7526C0.374213 41.7526 0.211324 41.6898 0.0870753 41.5663L0.0868171 41.566C-0.162177 41.3167 -0.162387 40.9141 0.0868733 40.6653M3.31731 39.2364L3.24659 39.1658M3.24659 39.1658L0.917088 41.4954C0.812418 41.5996 0.674646 41.6526 0.537334 41.6526C0.399868 41.6526 0.262556 41.5998 0.15758 41.4954C-0.0525265 41.285 -0.0525265 40.9457 0.15758 40.736M3.24659 39.1658L5.41943 27.9678C3.7775 29.6105 3.32465 31.9914 4.04692 34.0483L1.53852 36.5572M3.24659 39.1658L0.0868733 40.6653M0.15758 40.736L2.48707 38.4068L2.41636 38.3361M0.15758 40.736L0.0868733 40.6653M0.15758 40.736L0.0869467 40.6652M2.41636 38.3361L2.48708 38.2654L1.53852 37.3167M2.41636 38.3361L1.46786 37.3875M2.41636 38.3361L0.0869467 40.6652M1.53852 37.3167C1.32841 37.1069 1.32841 36.767 1.53852 36.5572M1.53852 37.3167L1.4678 37.3874L1.46786 37.3875M1.53852 37.3167L1.46786 37.3875M1.53852 36.5572L1.4678 36.4865M1.53852 36.5572L1.4678 36.4865M12.7865 20.459L5.34871 27.8971L5.3487 27.8971C3.6942 29.5524 3.22699 31.9441 3.93199 34.0219L1.46786 36.4864L12.7865 20.459ZM12.7865 20.459L4.71692 12.3889C4.7169 12.3888 4.71687 12.3888 4.71684 12.3888C4.69126 12.3633 4.66823 12.336 4.64781 12.3073L4.115 12.8397L4.11497 12.8397C3.99051 12.964 3.82731 13.0262 3.66456 13.0262C3.50152 13.0262 3.33841 12.9643 3.21414 12.8397C2.96491 12.5908 2.96494 12.1879 3.21409 11.9389C3.2141 11.9389 3.21411 11.9389 3.21412 11.9389L8.06324 7.08958L8.06326 7.08955C8.31242 6.84058 8.71499 6.84058 8.96414 7.08955L8.96419 7.08961C9.2133 7.3389 9.21334 7.74134 8.96417 7.99051L8.96415 7.99052L8.39016 8.56426C8.41887 8.58459 8.44641 8.60768 8.47234 8.63368M12.7865 20.459L8.40152 8.70429M8.47234 8.63368L8.40152 8.70429M8.47234 8.63368L8.47223 8.63358L8.40152 8.70429M8.47234 8.63368L16.542 16.7033M8.40152 8.70429L16.4713 16.7741L16.542 16.7033M16.542 16.7033L16.8521 16.3931M16.542 16.7033L16.6127 16.774L16.9639 16.4226M16.8521 16.3931L16.8932 16.3519L16.9639 16.4226M16.8521 16.3931C16.8572 16.4118 16.8624 16.4306 16.8676 16.4494L16.9639 16.4226M16.8521 16.3931L16.9639 16.4226M1.4678 36.4865C1.21863 36.7354 1.21865 37.1386 1.46786 37.3875M1.4678 36.4865L1.46786 37.3875M1.46786 37.3875L0.0868733 40.6653M0.0869467 40.6652C0.0869224 40.6653 0.0868977 40.6653 0.0868733 40.6653M0.0869467 40.6652L0.0868733 40.6653M21.093 21.2543C16.5093 16.6706 16.5093 9.21178 21.093 4.62696L21.093 21.2543ZM7.69314 36.3914C7.70239 36.3946 7.71001 36.3982 7.71535 36.4007C7.72001 36.4029 7.72205 36.404 7.7235 36.4047L7.69314 36.3914ZM7.69314 36.3914C7.16138 36.1604 6.67172 35.8314 6.24934 35.4093C4.42655 33.5865 4.42656 30.6205 6.24934 28.7979L16.6662 18.3816L16.6662 18.3816L16.9923 18.0554L16.9924 18.0554L17.3032 17.7445C17.9376 19.3508 18.8944 20.8583 20.1914 22.1563L20.1915 22.1564C21.2189 23.1836 22.3867 24.01 23.6407 24.6304L12.8612 35.4093C11.9776 36.2926 10.8045 36.7781 9.5555 36.7781C8.91667 36.7781 8.29763 36.649 7.72695 36.4064L7.69314 36.3914ZM21.093 3.72604C21.093 3.72603 21.093 3.72603 21.093 3.72602L21.0223 3.79675L21.093 3.72604ZM8.3182 8.63617C8.28867 8.61664 8.25771 8.60034 8.2259 8.58705L8.30142 8.51156L8.3182 8.63617ZM5.09607 40.114L7.5991 37.6113C8.21946 37.8306 8.87798 37.9522 9.5555 37.9522L5.09607 40.114ZM5.34815 36.3101C5.67172 36.6333 6.02791 36.9088 6.40548 37.1442L4.71644 38.8344L2.8186 36.9368L4.51062 35.2449C4.74435 35.6227 5.01992 35.9816 5.34807 36.31L5.34815 36.3101ZM15.4094 17.8369L13.6868 19.5581L6.0678 11.9383L8.02176 9.98481L15.6417 17.6045L15.4095 17.8368L15.4094 17.8369Z" fill="#EBEBEB" stroke="#EBEBEB" stroke-width="0.2"/>
<path d="M13.1791 25.1716L13.1792 25.1717L15.2053 30.9964L13.1791 25.1716ZM13.1791 25.1716C13.0723 24.8664 12.7389 24.7039 12.4318 24.8112L12.4317 24.8112M13.1791 25.1716L12.4317 24.8112M12.4317 24.8112C12.126 24.9183 11.9641 25.252 12.0706 25.5581C12.0706 25.5581 12.0706 25.5581 12.0706 25.5581L14.0968 31.3827L14.0968 31.3828M12.4317 24.8112L14.0968 31.3828M14.0968 31.3828C14.1814 31.6247 14.4081 31.7766 14.6512 31.7766C14.7152 31.7766 14.7803 31.7658 14.8438 31.7442L14.8442 31.744M14.0968 31.3828L14.8442 31.744M14.8442 31.744C15.1499 31.6367 15.3122 31.3027 15.2053 30.9965L14.8442 31.744Z" fill="#A2ECDF" stroke="#A2ECDF" stroke-width="0.1"/>
<path d="M10.0278 27.2145C10.3325 27.1065 10.6686 27.2698 10.7749 27.5761L12.8004 33.4012C12.8004 33.4012 12.8004 33.4012 12.8004 33.4012C12.9075 33.7068 12.7453 34.0412 12.4391 34.1477C12.4391 34.1477 12.4391 34.1477 12.4391 34.1477L10.0278 27.2145ZM10.0278 27.2145L10.0445 27.2617L10.0278 27.2145ZM11.6921 33.786L11.6921 33.786L9.71363 27.945L9.6664 27.9614L9.66642 27.9615C9.66642 27.9615 9.66642 27.9615 9.66643 27.9615L11.6921 33.786Z" fill="#A2ECDF" stroke="#A2ECDF" stroke-width="0.1"/>
<path d="M8.67116 29.6794L8.67118 29.6794L10.6974 35.5034C10.6975 35.5034 10.6975 35.5034 10.6975 35.5034C10.8043 35.8101 10.6425 36.1443 10.3366 36.251L10.3365 36.251C10.2727 36.2732 10.2077 36.2841 10.1434 36.2841C9.90032 36.2841 9.67371 36.1316 9.58914 35.8899L9.58911 35.8898L7.56283 30.0659L7.56282 30.0658C7.4563 29.7592 7.61813 29.4254 7.92397 29.3187L8.67116 29.6794ZM8.67116 29.6794C8.56432 29.3739 8.23095 29.2115 7.92399 29.3187L8.67116 29.6794Z" fill="#A2ECDF" stroke="#A2ECDF" stroke-width="0.1"/>
</g>
<defs>
<clipPath id="clip0_242_18559">
<rect width="43" height="42" fill="white"/>
</clipPath>
</defs>
</svg>
