<svg width="99" height="22" viewBox="0 0 99 22" fill="none" xmlns="http://www.w3.org/2000/svg">
<g filter="url(#filter0_d_1752_1452)">
<path d="M11.456 3.75495L12.336 5.51495C12.456 5.75995 12.776 5.99495 13.046 6.03995L14.641 6.30495C15.661 6.47495 15.901 7.21495 15.166 7.94495L13.926 9.18495C13.716 9.39495 13.601 9.79995 13.666 10.0899L14.021 11.6249C14.301 12.8399 13.656 13.3099 12.581 12.6749L11.086 11.7899C10.816 11.6299 10.371 11.6299 10.096 11.7899L8.60102 12.6749C7.53102 13.3099 6.88102 12.8349 7.16102 11.6249L7.51602 10.0899C7.58102 9.79995 7.46602 9.39495 7.25602 9.18495L6.01602 7.94495C5.28602 7.21495 5.52102 6.47495 6.54102 6.30495L8.13602 6.03995C8.40102 5.99495 8.72102 5.75995 8.84102 5.51495L9.72102 3.75495C10.201 2.79995 10.981 2.79995 11.456 3.75495Z" fill="#FFCC00"/>
<path d="M23.456 3.75495L24.336 5.51495C24.456 5.75995 24.776 5.99495 25.046 6.03995L26.641 6.30495C27.661 6.47495 27.901 7.21495 27.166 7.94495L25.926 9.18495C25.716 9.39495 25.601 9.79995 25.666 10.0899L26.021 11.6249C26.301 12.8399 25.656 13.3099 24.581 12.6749L23.086 11.7899C22.816 11.6299 22.371 11.6299 22.096 11.7899L20.601 12.6749C19.531 13.3099 18.881 12.8349 19.161 11.6249L19.516 10.0899C19.581 9.79995 19.466 9.39495 19.256 9.18495L18.016 7.94495C17.286 7.21495 17.521 6.47495 18.541 6.30495L20.136 6.03995C20.401 5.99495 20.721 5.75995 20.841 5.51495L21.721 3.75495C22.201 2.79995 22.981 2.79995 23.456 3.75495Z" fill="#FFCC00"/>
<path d="M35.456 3.75495L36.336 5.51495C36.456 5.75995 36.776 5.99495 37.046 6.03995L38.641 6.30495C39.661 6.47495 39.901 7.21495 39.166 7.94495L37.926 9.18495C37.716 9.39495 37.601 9.79995 37.666 10.0899L38.021 11.6249C38.301 12.8399 37.656 13.3099 36.581 12.6749L35.086 11.7899C34.816 11.6299 34.371 11.6299 34.096 11.7899L32.601 12.6749C31.531 13.3099 30.881 12.8349 31.161 11.6249L31.516 10.0899C31.581 9.79995 31.466 9.39495 31.256 9.18495L30.016 7.94495C29.286 7.21495 29.521 6.47495 30.541 6.30495L32.136 6.03995C32.401 5.99495 32.721 5.75995 32.841 5.51495L33.721 3.75495C34.201 2.79995 34.981 2.79995 35.456 3.75495Z" fill="#FFCC00"/>
<path d="M47.456 3.75495L48.336 5.51495C48.456 5.75995 48.776 5.99495 49.046 6.03995L50.641 6.30495C51.661 6.47495 51.901 7.21495 51.166 7.94495L49.926 9.18495C49.716 9.39495 49.601 9.79995 49.666 10.0899L50.021 11.6249C50.301 12.8399 49.656 13.3099 48.581 12.6749L47.086 11.7899C46.816 11.6299 46.371 11.6299 46.096 11.7899L44.601 12.6749C43.531 13.3099 42.881 12.8349 43.161 11.6249L43.516 10.0899C43.581 9.79995 43.466 9.39495 43.256 9.18495L42.016 7.94495C41.286 7.21495 41.521 6.47495 42.541 6.30495L44.136 6.03995C44.401 5.99495 44.721 5.75995 44.841 5.51495L45.721 3.75495C46.201 2.79995 46.981 2.79995 47.456 3.75495Z" fill="#FFCC00"/>
<path d="M59.456 3.75495L60.336 5.51495C60.456 5.75995 60.776 5.99495 61.046 6.03995L62.641 6.30495C63.661 6.47495 63.901 7.21495 63.166 7.94495L61.926 9.18495C61.716 9.39495 61.601 9.79995 61.666 10.0899L62.021 11.6249C62.301 12.8399 61.656 13.3099 60.581 12.6749L59.086 11.7899C58.816 11.6299 58.371 11.6299 58.096 11.7899L56.601 12.6749C55.531 13.3099 54.881 12.8349 55.161 11.6249L55.516 10.0899C55.581 9.79995 55.466 9.39495 55.256 9.18495L54.016 7.94495C53.286 7.21495 53.521 6.47495 54.541 6.30495L56.136 6.03995C56.401 5.99495 56.721 5.75995 56.841 5.51495L57.721 3.75495C58.201 2.79995 58.981 2.79995 59.456 3.75495Z" fill="#FFCC00"/>
<path d="M75.1171 8.906V9.855H73.9861V12H72.8291V9.855H69.1111V8.997L71.7241 3.173L72.7251 3.589L70.3721 8.906H72.8421L72.9461 6.566H73.9861V8.906H75.1171ZM77.057 10.349C77.317 10.349 77.5337 10.4357 77.707 10.609C77.8803 10.7823 77.967 10.9947 77.967 11.246C77.967 11.4973 77.8803 11.714 77.707 11.896C77.5337 12.0693 77.317 12.156 77.057 12.156C76.8057 12.156 76.5933 12.0693 76.42 11.896C76.2467 11.714 76.16 11.4973 76.16 11.246C76.16 10.9947 76.2467 10.7823 76.42 10.609C76.5933 10.4357 76.8057 10.349 77.057 10.349ZM81.6723 3.173C82.2096 3.173 82.669 3.27267 83.0503 3.472C83.4403 3.67133 83.735 3.94 83.9343 4.278C84.1423 4.616 84.2463 4.98433 84.2463 5.383C84.2463 5.91167 84.0903 6.34933 83.7783 6.696C83.475 7.034 83.0676 7.26367 82.5563 7.385C83.137 7.437 83.6093 7.645 83.9733 8.009C84.3373 8.373 84.5193 8.867 84.5193 9.491C84.5193 9.99367 84.398 10.4487 84.1553 10.856C83.9126 11.2633 83.566 11.584 83.1153 11.818C82.6646 12.0433 82.1446 12.156 81.5553 12.156C81.0266 12.156 80.5413 12.0607 80.0993 11.87C79.6573 11.6707 79.2716 11.376 78.9423 10.986L79.6573 10.323C79.9433 10.6177 80.2336 10.8343 80.5283 10.973C80.8316 11.1117 81.161 11.181 81.5163 11.181C82.0623 11.181 82.4913 11.0293 82.8033 10.726C83.1153 10.414 83.2713 9.998 83.2713 9.478C83.2713 8.906 83.124 8.503 82.8293 8.269C82.5346 8.035 82.1056 7.918 81.5423 7.918H80.8923L81.0353 6.995H81.4773C81.928 6.995 82.3006 6.86067 82.5953 6.592C82.8986 6.32333 83.0503 5.94633 83.0503 5.461C83.0503 5.05367 82.9203 4.733 82.6603 4.499C82.4003 4.25633 82.0493 4.135 81.6073 4.135C81.2693 4.135 80.9573 4.19567 80.6713 4.317C80.394 4.43833 80.108 4.63767 79.8133 4.915L79.1893 4.2C79.926 3.51533 80.7536 3.173 81.6723 3.173Z" fill="#9B9496"/>
</g>
<defs>
<filter id="filter0_d_1752_1452" x="0.591064" y="0" width="102" height="24" filterUnits="userSpaceOnUse" color-interpolation-filters="sRGB">
<feFlood flood-opacity="0" result="BackgroundImageFix"/>
<feColorMatrix in="SourceAlpha" type="matrix" values="0 0 0 0 0 0 0 0 0 0 0 0 0 0 0 0 0 0 127 0" result="hardAlpha"/>
<feOffset dy="4"/>
<feGaussianBlur stdDeviation="2"/>
<feComposite in2="hardAlpha" operator="out"/>
<feColorMatrix type="matrix" values="0 0 0 0 0 0 0 0 0 0 0 0 0 0 0 0 0 0 0.25 0"/>
<feBlend mode="normal" in2="BackgroundImageFix" result="effect1_dropShadow_1752_1452"/>
<feBlend mode="normal" in="SourceGraphic" in2="effect1_dropShadow_1752_1452" result="shape"/>
</filter>
</defs>
</svg>
