<svg width="35" height="35" viewBox="0 0 35 35" fill="none" xmlns="http://www.w3.org/2000/svg">
<path opacity="0.4" d="M15.6789 3.57256C16.6852 2.71214 18.3331 2.71214 19.3539 3.57256L21.6581 5.55589C22.0956 5.93506 22.9122 6.24131 23.4956 6.24131H25.9747C27.5206 6.24131 28.7893 7.51006 28.7893 9.05589V11.5351C28.7893 12.1038 29.0956 12.9351 29.4747 13.3726L31.4581 15.6767C32.3185 16.683 32.3185 18.3309 31.4581 19.3517L29.4747 21.6559C29.0956 22.0934 28.7893 22.9101 28.7893 23.4934V25.9726C28.7893 27.5184 27.5206 28.7871 25.9747 28.7871H23.4956C22.9268 28.7871 22.0956 29.0934 21.6581 29.4726L19.3539 31.4559C18.3477 32.3163 16.6997 32.3163 15.6789 31.4559L13.3747 29.4726C12.9372 29.0934 12.1206 28.7871 11.5372 28.7871H9.01432C7.46849 28.7871 6.19974 27.5184 6.19974 25.9726V23.4788C6.19974 22.9101 5.89349 22.0934 5.52891 21.6559L3.56016 19.3371C2.71432 18.3309 2.71432 16.6976 3.56016 15.6913L5.52891 13.3726C5.89349 12.9351 6.19974 12.1184 6.19974 11.5496V9.04131C6.19974 7.49547 7.46849 6.22672 9.01432 6.22672H11.5372C12.106 6.22672 12.9372 5.92047 13.3747 5.54131L15.6789 3.57256Z" fill="#B8F7A4"/>
<path d="M15.7365 22.1226C15.4448 22.1226 15.1677 22.006 14.9635 21.8018L11.4344 18.2726C11.0115 17.8497 11.0115 17.1497 11.4344 16.7268C11.8573 16.3039 12.5573 16.3039 12.9802 16.7268L15.7365 19.483L22.0073 13.2122C22.4302 12.7893 23.1302 12.7893 23.5531 13.2122C23.976 13.6351 23.976 14.3351 23.5531 14.758L16.5094 21.8018C16.3052 22.006 16.0281 22.1226 15.7365 22.1226Z" fill="#85F162"/>
</svg>
