<svg width="15" height="16" viewBox="0 0 15 16" fill="none" xmlns="http://www.w3.org/2000/svg">
<path d="M11.2502 5.44376C11.2314 5.44376 11.2189 5.44376 11.2002 5.44376H11.1689C9.98769 5.40626 9.10645 4.49376 9.10645 3.36876C9.10645 2.21876 10.0439 1.28751 11.1877 1.28751C12.3314 1.28751 13.2689 2.22501 13.2689 3.36876C13.2627 4.50001 12.3814 5.41251 11.2564 5.45001C11.2564 5.44376 11.2564 5.44376 11.2502 5.44376ZM11.1877 2.21876C10.5564 2.21876 10.0439 2.73126 10.0439 3.36251C10.0439 3.98126 10.5252 4.48126 11.1439 4.50626C11.1502 4.50001 11.2002 4.50001 11.2564 4.50626C11.8627 4.47501 12.3314 3.97501 12.3377 3.36251C12.3377 2.73126 11.8252 2.21876 11.1877 2.21876Z" fill="#969696"/>
<path d="M11.2563 10.05C11.0126 10.05 10.7688 10.0313 10.5251 9.98753C10.2688 9.94378 10.1001 9.70003 10.1438 9.44378C10.1876 9.18753 10.4313 9.01878 10.6876 9.06253C11.4563 9.19378 12.2688 9.05004 12.8126 8.68754C13.1063 8.49379 13.2626 8.25003 13.2626 8.00628C13.2626 7.76253 13.1001 7.52503 12.8126 7.33128C12.2688 6.96878 11.4438 6.82503 10.6688 6.96253C10.4126 7.01253 10.1688 6.83753 10.1251 6.58128C10.0813 6.32503 10.2501 6.08128 10.5063 6.03753C11.5251 5.85628 12.5813 6.05003 13.3313 6.55003C13.8813 6.91878 14.2001 7.44378 14.2001 8.00628C14.2001 8.56253 13.8876 9.09379 13.3313 9.46879C12.7626 9.84379 12.0251 10.05 11.2563 10.05Z" fill="#969696"/>
<path d="M3.73106 5.44375C3.72481 5.44375 3.71856 5.44375 3.71856 5.44375C2.59356 5.40625 1.7123 4.49375 1.70605 3.36875C1.70605 2.21875 2.64356 1.28125 3.78731 1.28125C4.93106 1.28125 5.86855 2.21875 5.86855 3.3625C5.86855 4.49375 4.98731 5.40625 3.86231 5.44375L3.73106 4.975L3.77481 5.44375C3.76231 5.44375 3.74356 5.44375 3.73106 5.44375ZM3.79355 4.50625C3.83105 4.50625 3.86231 4.50625 3.89981 4.5125C4.45606 4.4875 4.94355 3.9875 4.94355 3.36875C4.94355 2.7375 4.43106 2.225 3.79981 2.225C3.16856 2.225 2.65605 2.7375 2.65605 3.36875C2.65605 3.98125 3.13105 4.475 3.7373 4.5125C3.74355 4.50625 3.76855 4.50625 3.79355 4.50625Z" fill="#969696"/>
<path d="M3.725 10.05C2.95625 10.05 2.21875 9.84379 1.65 9.46879C1.1 9.10004 0.78125 8.56878 0.78125 8.00628C0.78125 7.45003 1.1 6.91878 1.65 6.55003C2.4 6.05003 3.45625 5.85628 4.475 6.03753C4.73125 6.08128 4.9 6.32503 4.85625 6.58128C4.8125 6.83753 4.56875 7.01253 4.3125 6.96253C3.5375 6.82503 2.71875 6.96878 2.16875 7.33128C1.875 7.52503 1.71875 7.76253 1.71875 8.00628C1.71875 8.25003 1.88125 8.49379 2.16875 8.68754C2.7125 9.05004 3.525 9.19378 4.29375 9.06253C4.55 9.01878 4.79375 9.19378 4.8375 9.44378C4.88125 9.70003 4.7125 9.94378 4.45625 9.98753C4.2125 10.0313 3.96875 10.05 3.725 10.05Z" fill="#969696"/>
<path d="M7.5002 10.1125C7.48145 10.1125 7.46894 10.1125 7.45019 10.1125H7.41895C6.23769 10.075 5.35645 9.16249 5.35645 8.03749C5.35645 6.88749 6.29395 5.95624 7.4377 5.95624C8.58145 5.95624 9.51895 6.89374 9.51895 8.03749C9.5127 9.16874 8.63144 10.0812 7.50644 10.1187C7.50644 10.1125 7.50645 10.1125 7.5002 10.1125ZM7.4377 6.88749C6.80645 6.88749 6.29395 7.39999 6.29395 8.03124C6.29395 8.64999 6.7752 9.14999 7.39395 9.17499C7.4002 9.16874 7.45019 9.16874 7.50644 9.17499C8.11269 9.14374 8.58145 8.64374 8.5877 8.03124C8.5877 7.40624 8.0752 6.88749 7.4377 6.88749Z" fill="#969696"/>
<path d="M7.49981 14.725C6.74981 14.725 5.9998 14.5312 5.41855 14.1375C4.86855 13.7687 4.5498 13.2437 4.5498 12.6812C4.5498 12.125 4.8623 11.5875 5.41855 11.2187C6.5873 10.4437 8.41856 10.4437 9.58106 11.2187C10.1311 11.5875 10.4498 12.1125 10.4498 12.675C10.4498 13.2312 10.1373 13.7687 9.58106 14.1375C8.99981 14.525 8.24981 14.725 7.49981 14.725ZM5.93731 12.0062C5.64356 12.2 5.4873 12.4437 5.4873 12.6875C5.4873 12.9312 5.64981 13.1687 5.93731 13.3625C6.78106 13.9312 8.21231 13.9312 9.05606 13.3625C9.34981 13.1687 9.50605 12.925 9.50605 12.6812C9.50605 12.4375 9.34356 12.2 9.05606 12.0062C8.21856 11.4375 6.78731 11.4437 5.93731 12.0062Z" fill="#969696"/>
</svg>
