<svg width="15" height="15" viewBox="0 0 15 15" fill="none" xmlns="http://www.w3.org/2000/svg">
<path d="M11.0875 14.2188H3.9125C2.35625 14.2188 1.09375 12.9562 1.09375 11.4V7.19376C1.09375 5.63751 2.35625 4.375 3.9125 4.375H11.0875C12.6438 4.375 13.9062 5.63751 13.9062 7.19376V8.09376C13.9062 8.35001 13.6938 8.56251 13.4375 8.56251H12.175C11.9563 8.56251 11.7563 8.64375 11.6125 8.79375L11.6062 8.80001C11.4312 8.96876 11.35 9.19998 11.3688 9.43748C11.4062 9.84998 11.8 10.1812 12.25 10.1812H13.4375C13.6938 10.1812 13.9062 10.3937 13.9062 10.65V11.3937C13.9062 12.9562 12.6438 14.2188 11.0875 14.2188ZM3.9125 5.3125C2.875 5.3125 2.03125 6.15626 2.03125 7.19376V11.4C2.03125 12.4375 2.875 13.2812 3.9125 13.2812H11.0875C12.125 13.2812 12.9688 12.4375 12.9688 11.4V11.125H12.25C11.3063 11.125 10.5063 10.425 10.4313 9.52499C10.3813 9.01249 10.5688 8.50626 10.9438 8.13751C11.2688 7.80626 11.7062 7.62501 12.175 7.62501H12.9688V7.19376C12.9688 6.15626 12.125 5.3125 11.0875 5.3125H3.9125Z" fill="#969696"/>
<path d="M1.5625 8.225C1.30625 8.225 1.09375 8.0125 1.09375 7.75625V4.90004C1.09375 3.96879 1.68125 3.125 2.55 2.79375L7.5125 0.918753C8.025 0.725003 8.59375 0.793784 9.0375 1.10628C9.4875 1.41878 9.75 1.92503 9.75 2.46878V4.84377C9.75 5.10002 9.5375 5.31252 9.28125 5.31252C9.025 5.31252 8.8125 5.10002 8.8125 4.84377V2.46878C8.8125 2.23128 8.7 2.01252 8.5 1.87502C8.3 1.73752 8.0625 1.70627 7.8375 1.79377L2.875 3.66877C2.36875 3.86252 2.025 4.35629 2.025 4.90004V7.75625C2.03125 8.01875 1.81875 8.225 1.5625 8.225Z" fill="#969696"/>
<path d="M12.2496 11.125C11.3058 11.125 10.5058 10.425 10.4308 9.52499C10.3808 9.00624 10.5683 8.5 10.9433 8.13125C11.2621 7.80625 11.6996 7.625 12.1683 7.625H13.4683C14.0871 7.64375 14.5621 8.13122 14.5621 8.73122V10.0188C14.5621 10.6188 14.0871 11.1062 13.4871 11.125H12.2496ZM13.4558 8.5625H12.1746C11.9558 8.5625 11.7558 8.64375 11.6121 8.79375C11.4308 8.96875 11.3433 9.20623 11.3683 9.44373C11.4058 9.85623 11.7996 10.1875 12.2496 10.1875H13.4746C13.5558 10.1875 13.6308 10.1125 13.6308 10.0188V8.73122C13.6308 8.63747 13.5558 8.56875 13.4558 8.5625Z" fill="#969696"/>
<path d="M8.75 7.96875H4.375C4.11875 7.96875 3.90625 7.75625 3.90625 7.5C3.90625 7.24375 4.11875 7.03125 4.375 7.03125H8.75C9.00625 7.03125 9.21875 7.24375 9.21875 7.5C9.21875 7.75625 9.00625 7.96875 8.75 7.96875Z" fill="#969696"/>
</svg>
