<svg width="24" height="24" viewBox="0 0 24 24" fill="none" xmlns="http://www.w3.org/2000/svg">
<path d="M12 1.25C10.1326 1.25201 8.29793 1.73996 6.67628 2.66588C5.05463 3.59181 3.70187 4.92383 2.751 6.53097C1.80013 8.13812 1.28389 9.96507 1.25303 11.8322C1.22217 13.6993 1.67776 15.5423 2.575 17.18L1.25 22.75L6.82 21.425C8.25662 22.2131 9.8544 22.6623 11.4912 22.7384C13.128 22.8145 14.7606 22.5154 16.2641 21.8639C17.7676 21.2125 19.1024 20.2259 20.1662 18.9797C21.2301 17.7334 21.9951 16.2605 22.4026 14.6734C22.8101 13.0863 22.8493 11.427 22.5174 9.82239C22.1855 8.21777 21.4911 6.71027 20.4874 5.41507C19.4837 4.11988 18.1972 3.07128 16.7262 2.34941C15.2552 1.62753 13.6386 1.25148 12 1.25ZM6.625 6.135H9.555C9.68761 6.135 9.81478 6.18768 9.90855 6.28145C10.0023 6.37521 10.055 6.50239 10.055 6.635C10.0386 7.3018 10.1506 7.96553 10.385 8.59C10.4859 8.79904 10.5081 9.03746 10.4475 9.26154C10.3869 9.48562 10.2475 9.68034 10.055 9.81L9.03 10.81C9.48448 11.6975 10.0787 12.5062 10.79 13.205C11.4832 13.9278 12.2885 14.534 13.175 15L14.175 13.975C14.675 13.475 14.905 13.475 15.395 13.645C16.0195 13.8794 16.6832 13.9914 17.35 13.975C17.4806 13.9811 17.6043 14.0357 17.6968 14.1282C17.7893 14.2207 17.8439 14.3444 17.85 14.475V17.405C17.8439 17.5356 17.7893 17.6593 17.6968 17.7518C17.6043 17.8443 17.4806 17.8989 17.35 17.905C14.4088 17.7769 11.6208 16.5576 9.53 14.485C7.45419 12.3964 6.23432 9.60709 6.11 6.665C6.11119 6.52737 6.16537 6.3955 6.26129 6.29679C6.3572 6.19809 6.48746 6.14014 6.625 6.135Z" stroke="white" stroke-width="1.5" stroke-linecap="round" stroke-linejoin="round"/>
</svg>
