<svg width="15" height="15" viewBox="0 0 15 15" fill="none" xmlns="http://www.w3.org/2000/svg">
<path d="M9.375 14.2188H5.625C2.23125 14.2188 0.78125 12.7688 0.78125 9.375V5.625C0.78125 2.23125 2.23125 0.78125 5.625 0.78125H9.375C12.7688 0.78125 14.2188 2.23125 14.2188 5.625V9.375C14.2188 12.7688 12.7688 14.2188 9.375 14.2188ZM5.625 1.71875C2.74375 1.71875 1.71875 2.74375 1.71875 5.625V9.375C1.71875 12.2563 2.74375 13.2812 5.625 13.2812H9.375C12.2563 13.2812 13.2812 12.2563 13.2812 9.375V5.625C13.2812 2.74375 12.2563 1.71875 9.375 1.71875H5.625Z" fill="#969696"/>
<path d="M9.6875 6.5625C8.9125 6.5625 8.28125 5.93125 8.28125 5.15625C8.28125 4.38125 8.9125 3.75 9.6875 3.75C10.4625 3.75 11.0938 4.38125 11.0938 5.15625C11.0938 5.93125 10.4625 6.5625 9.6875 6.5625ZM9.6875 4.6875C9.43125 4.6875 9.21875 4.9 9.21875 5.15625C9.21875 5.4125 9.43125 5.625 9.6875 5.625C9.94375 5.625 10.1562 5.4125 10.1562 5.15625C10.1562 4.9 9.94375 4.6875 9.6875 4.6875Z" fill="#969696"/>
<path d="M5.3125 6.5625C4.5375 6.5625 3.90625 5.93125 3.90625 5.15625C3.90625 4.38125 4.5375 3.75 5.3125 3.75C6.0875 3.75 6.71875 4.38125 6.71875 5.15625C6.71875 5.93125 6.0875 6.5625 5.3125 6.5625ZM5.3125 4.6875C5.05625 4.6875 4.84375 4.9 4.84375 5.15625C4.84375 5.4125 5.05625 5.625 5.3125 5.625C5.56875 5.625 5.78125 5.4125 5.78125 5.15625C5.78125 4.9 5.56875 4.6875 5.3125 4.6875Z" fill="#969696"/>
<path d="M7.5 12.1562C5.6875 12.1562 4.21875 10.6812 4.21875 8.875C4.21875 8.30625 4.68125 7.84375 5.25 7.84375H9.75C10.3188 7.84375 10.7812 8.30625 10.7812 8.875C10.7812 10.6812 9.3125 12.1562 7.5 12.1562ZM5.25 8.78125C5.2 8.78125 5.15625 8.825 5.15625 8.875C5.15625 10.1687 6.20625 11.2188 7.5 11.2188C8.79375 11.2188 9.84375 10.1687 9.84375 8.875C9.84375 8.825 9.8 8.78125 9.75 8.78125H5.25Z" fill="#969696"/>
</svg>
